G04 DesignSpark PCB Gerber Version 11.0 Build 5877*
G04 #@! TF.Part,Single*
G04 #@! TF.FileFunction,Soldermask,Top*
G04 #@! TF.FilePolarity,Negative*
%FSLAX35Y35*%
%MOIN*%
G04 #@! TA.AperFunction,SMDPad,CuDef*
%ADD127R,0.02962X0.08080*%
%ADD126R,0.06100X0.06600*%
G04 #@! TA.AperFunction,ComponentPad*
%ADD125R,0.06600X0.06600*%
G04 #@! TD.AperFunction*
%ADD18C,0.00500*%
G04 #@! TA.AperFunction,ComponentPad*
%ADD129C,0.03395*%
G04 #@! TA.AperFunction,ViaPad*
%ADD120C,0.04600*%
G04 #@! TA.AperFunction,ComponentPad*
%ADD130C,0.04931*%
%ADD123C,0.06600*%
G04 #@! TA.AperFunction,WasherPad*
%ADD122C,0.08474*%
G04 #@! TA.AperFunction,SMDPad,CuDef*
%ADD128R,0.06600X0.06100*%
G04 #@! TA.AperFunction,ComponentPad*
%ADD124C,0.10443*%
G04 #@! TA.AperFunction,WasherPad*
%ADD121C,0.24222*%
G04 #@! TD.AperFunction*
X0Y0D02*
D02*
D18*
D02*
D120*
X62750Y72750D03*
X65250Y282750D03*
X67750Y67750D03*
X77750Y77750D03*
Y87750D03*
X82750Y82750D03*
X85250Y282750D03*
X100250Y92750D03*
X110250Y62750D03*
X175250D03*
X180250Y67750D03*
D03*
X185250Y72750D03*
X190250Y77750D03*
X195250Y92750D03*
X200250Y97750D03*
X205250Y82750D03*
X210250Y72750D03*
X302750Y67750D03*
X307750Y72750D03*
X310250Y277750D03*
X312750Y77750D03*
X317750Y102750D03*
X322750Y97750D03*
Y272750D03*
X327750Y82750D03*
X330250Y282750D03*
X332297Y135250D03*
X335250Y165250D03*
X340171Y192750D03*
X397750Y92750D03*
X402750Y87750D03*
X407750Y82750D03*
X425250Y67750D03*
X430250Y72750D03*
Y82750D03*
X435250Y77750D03*
Y87750D03*
X440250Y97750D03*
X445250Y102750D03*
X450250Y92750D03*
X467750Y62750D03*
Y180250D03*
X476500Y216500D03*
X480250Y137750D03*
X487750Y211500D03*
X490250Y137750D03*
X492750Y206500D03*
X510250Y216500D03*
X521500Y211500D03*
X532750Y206500D03*
X547750Y67750D03*
X552750Y72750D03*
X555250Y277750D03*
X557750Y77750D03*
X562750Y97750D03*
X567750Y102750D03*
Y272750D03*
X570250Y152750D03*
X572750Y82750D03*
X575250Y282750D03*
X580250Y147750D03*
X597750Y62750D03*
X637750Y162750D03*
Y190250D03*
X647750D03*
X670250Y67750D03*
X675250Y72750D03*
X680250Y77750D03*
X682750Y152750D03*
Y230250D03*
X685250Y92750D03*
X687750Y147750D03*
Y225250D03*
X692750Y97750D03*
Y220250D03*
X695250Y82750D03*
X697750Y102750D03*
Y215250D03*
X702750Y210250D03*
X707750Y92750D03*
Y205250D03*
X745250Y147750D03*
Y165250D03*
X770250Y200250D03*
Y215250D03*
X785250Y252750D03*
X792750Y67750D03*
Y95250D03*
X797750Y72750D03*
X802750Y77750D03*
Y87750D03*
Y102750D03*
X807750Y72750D03*
X812750Y102750D03*
Y112750D03*
Y277750D03*
X817750Y82750D03*
Y95250D03*
Y107750D03*
X820250Y282750D03*
D02*
D121*
X20250Y20250D03*
Y45250D03*
Y305250D03*
X115250Y45250D03*
Y305250D03*
X142750Y45250D03*
Y305250D03*
X237750Y45250D03*
Y305250D03*
X265250Y45250D03*
Y305250D03*
X360250Y45250D03*
Y305250D03*
X387750Y20250D03*
Y45250D03*
Y305250D03*
X482750Y20250D03*
Y45250D03*
Y305250D03*
X510250Y45250D03*
Y305250D03*
X605250Y45250D03*
Y305250D03*
X632750Y45250D03*
Y305250D03*
X727750Y45250D03*
Y305250D03*
X755250Y45250D03*
Y305250D03*
X850250Y20250D03*
Y45250D03*
Y305250D03*
D02*
D122*
X42750Y82750D03*
Y117750D03*
Y135250D03*
Y170250D03*
Y187750D03*
Y222750D03*
Y240250D03*
Y275250D03*
X647750Y170250D03*
Y205250D03*
D02*
D123*
X52750Y40250D03*
Y50250D03*
X62750Y40250D03*
Y50250D03*
X72750Y40250D03*
Y50250D03*
X82750Y40250D03*
Y50250D03*
X175250Y40250D03*
Y50250D03*
X185250Y40250D03*
Y50250D03*
X195250Y40250D03*
Y50250D03*
X205250Y40250D03*
Y50250D03*
X297750Y40250D03*
Y50250D03*
X307750Y40250D03*
Y50250D03*
X317750Y40250D03*
Y50250D03*
X327750Y40250D03*
Y50250D03*
X420250Y40250D03*
Y50250D03*
X430250Y40250D03*
Y50250D03*
X440250Y40250D03*
Y50250D03*
X450250Y40250D03*
Y50250D03*
X542750Y40250D03*
Y50250D03*
X552750Y40250D03*
Y50250D03*
X562750Y40250D03*
Y50250D03*
X572750Y40250D03*
Y50250D03*
X665250Y40250D03*
Y50250D03*
X675250Y40250D03*
Y50250D03*
X685250Y40250D03*
Y50250D03*
X695250Y40250D03*
Y50250D03*
X757750Y152750D03*
Y162750D03*
Y232750D03*
Y242750D03*
X767750Y152750D03*
Y162750D03*
Y232750D03*
Y242750D03*
X777750Y152750D03*
Y162750D03*
Y232750D03*
Y242750D03*
X787750Y40250D03*
Y50250D03*
Y152750D03*
Y162750D03*
Y232750D03*
Y242750D03*
X797750Y40250D03*
Y50250D03*
Y152750D03*
Y162750D03*
Y232750D03*
Y242750D03*
X807750Y40250D03*
Y50250D03*
Y152750D03*
Y162750D03*
Y232750D03*
Y242750D03*
X817750Y40250D03*
Y50250D03*
Y152750D03*
Y162750D03*
Y232750D03*
Y242750D03*
X827750Y152750D03*
Y162750D03*
Y232750D03*
Y242750D03*
D02*
D124*
X17750Y90250D03*
Y110250D03*
Y142750D03*
Y162750D03*
Y195250D03*
Y215250D03*
Y247750D03*
Y267750D03*
X67750Y90250D03*
Y110250D03*
Y142750D03*
Y162750D03*
Y195250D03*
Y215250D03*
Y247750D03*
Y267750D03*
X622750Y177750D03*
Y197750D03*
X672750Y177750D03*
Y197750D03*
D02*
D125*
X180250Y122750D03*
X190250D03*
X200250D03*
X210250D03*
X220250D03*
X560250Y187750D03*
X570250D03*
X580250D03*
X590250D03*
X617750Y225250D03*
X627750D03*
X637750D03*
X647750D03*
X657750D03*
X667750D03*
D02*
D126*
X81500Y95750D03*
Y104750D03*
Y148250D03*
Y157250D03*
Y200750D03*
Y209750D03*
Y253250D03*
Y262250D03*
X91500Y95750D03*
Y104750D03*
Y148250D03*
Y157250D03*
Y200750D03*
Y209750D03*
Y253250D03*
Y262250D03*
X97750Y63250D03*
Y72250D03*
X366500Y147000D03*
Y156000D03*
X377750Y147000D03*
Y156000D03*
X476500Y224500D03*
Y233500D03*
X487750Y224500D03*
Y233500D03*
X499000Y224500D03*
Y233500D03*
X506500Y179500D03*
Y188500D03*
X510250Y224500D03*
Y233500D03*
X516500Y179500D03*
Y188500D03*
X521500Y224500D03*
Y233500D03*
X532750Y224500D03*
Y233500D03*
X607750Y149500D03*
Y158500D03*
Y173250D03*
Y182250D03*
X617750Y149500D03*
Y158500D03*
D02*
D127*
X427750Y162120D03*
Y198380D03*
X432750Y162120D03*
Y198380D03*
X437750Y162120D03*
Y198380D03*
X442750Y162120D03*
Y198380D03*
X447750Y162120D03*
Y198380D03*
X452750Y162120D03*
Y198380D03*
X457750Y162120D03*
Y198380D03*
X462750Y162120D03*
Y198380D03*
X467750Y162120D03*
Y198380D03*
X472750Y162120D03*
Y198380D03*
X477750Y162120D03*
Y198380D03*
X482750Y162120D03*
Y198380D03*
X487750Y162120D03*
Y198380D03*
X492750Y162120D03*
Y198380D03*
D02*
D128*
X468250Y130250D03*
X477250D03*
D02*
D129*
X319502Y151500D03*
X350998D03*
D02*
D130*
X319502Y145870D03*
Y157130D03*
X350998Y145870D03*
Y157130D03*
X0Y0D02*
M02*
