G04 DesignSpark PCB Gerber Version 11.0 Build 5877*
G04 #@! TF.Part,Single*
G04 #@! TF.FileFunction,Paste,Bot*
G04 #@! TF.FilePolarity,Positive*
%FSLAX35Y35*%
%MOIN*%
G04 #@! TA.AperFunction,SMDPad,CuDef*
%ADD135R,0.00781X0.04128*%
%ADD134R,0.05899X0.03537*%
%ADD119R,0.05600X0.05100*%
G04 #@! TD.AperFunction*
X0Y0D02*
D02*
D119*
X63250Y312750D03*
X72250D03*
X308250D03*
X317250D03*
X553250D03*
X562250D03*
X798250D03*
X807250D03*
X829500Y136500D03*
X838500D03*
D02*
D134*
X57750Y287750D03*
Y302750D03*
X77750Y287750D03*
Y302750D03*
X302750Y287750D03*
Y302750D03*
X322750Y287750D03*
Y302750D03*
X547750Y287750D03*
Y302750D03*
X567750Y287750D03*
Y302750D03*
X792750Y287750D03*
Y302750D03*
X812750Y287750D03*
Y302750D03*
D02*
D135*
X324423Y145654D03*
Y157346D03*
X330329Y145654D03*
Y157346D03*
X332297Y145654D03*
Y157346D03*
X334266Y145654D03*
Y157346D03*
X336234Y145654D03*
Y157346D03*
X338203Y145654D03*
Y157346D03*
X340171Y145654D03*
Y157346D03*
X346077Y145654D03*
Y157346D03*
X0Y0D02*
M02*
