G04 DesignSpark PCB Gerber Version 11.0 Build 5877*
G04 #@! TF.Part,Single*
G04 #@! TF.FileFunction,Paste,Top*
G04 #@! TF.FilePolarity,Positive*
%FSLAX35Y35*%
%MOIN*%
G04 #@! TA.AperFunction,SMDPad,CuDef*
%ADD118R,0.01962X0.07080*%
%ADD117R,0.05100X0.05600*%
%ADD119R,0.05600X0.05100*%
G04 #@! TD.AperFunction*
X0Y0D02*
D02*
D117*
X81500Y95750D03*
Y104750D03*
Y148250D03*
Y157250D03*
Y200750D03*
Y209750D03*
Y253250D03*
Y262250D03*
X91500Y95750D03*
Y104750D03*
Y148250D03*
Y157250D03*
Y200750D03*
Y209750D03*
Y253250D03*
Y262250D03*
X97750Y63250D03*
Y72250D03*
X366500Y147000D03*
Y156000D03*
X377750Y147000D03*
Y156000D03*
X476500Y224500D03*
Y233500D03*
X487750Y224500D03*
Y233500D03*
X499000Y224500D03*
Y233500D03*
X506500Y179500D03*
Y188500D03*
X510250Y224500D03*
Y233500D03*
X516500Y179500D03*
Y188500D03*
X521500Y224500D03*
Y233500D03*
X532750Y224500D03*
Y233500D03*
X607750Y149500D03*
Y158500D03*
Y173250D03*
Y182250D03*
X617750Y149500D03*
Y158500D03*
D02*
D118*
X427750Y162120D03*
Y198380D03*
X432750Y162120D03*
Y198380D03*
X437750Y162120D03*
Y198380D03*
X442750Y162120D03*
Y198380D03*
X447750Y162120D03*
Y198380D03*
X452750Y162120D03*
Y198380D03*
X457750Y162120D03*
Y198380D03*
X462750Y162120D03*
Y198380D03*
X467750Y162120D03*
Y198380D03*
X472750Y162120D03*
Y198380D03*
X477750Y162120D03*
Y198380D03*
X482750Y162120D03*
Y198380D03*
X487750Y162120D03*
Y198380D03*
X492750Y162120D03*
Y198380D03*
D02*
D119*
X468250Y130250D03*
X477250D03*
X0Y0D02*
M02*
