G04 DesignSpark PCB Gerber Version 11.0 Build 5877*
G04 #@! TF.Part,Single*
G04 #@! TF.FileFunction,Soldermask,Bot*
G04 #@! TF.FilePolarity,Negative*
%FSLAX35Y35*%
%MOIN*%
G04 #@! TA.AperFunction,SMDPad,CuDef*
%ADD137R,0.01781X0.05128*%
G04 #@! TA.AperFunction,ComponentPad*
%ADD125R,0.06600X0.06600*%
G04 #@! TD.AperFunction*
%ADD26C,0.00100*%
G04 #@! TA.AperFunction,ComponentPad*
%ADD129C,0.03395*%
G04 #@! TA.AperFunction,ViaPad*
%ADD120C,0.04600*%
G04 #@! TA.AperFunction,ComponentPad*
%ADD130C,0.04931*%
%ADD123C,0.06600*%
G04 #@! TA.AperFunction,WasherPad*
%ADD122C,0.08474*%
G04 #@! TA.AperFunction,SMDPad,CuDef*
%ADD136R,0.06899X0.04537*%
%ADD128R,0.06600X0.06100*%
G04 #@! TA.AperFunction,ComponentPad*
%ADD124C,0.10443*%
G04 #@! TA.AperFunction,WasherPad*
%ADD121C,0.24222*%
G04 #@! TD.AperFunction*
X0Y0D02*
D02*
D26*
X315959Y145870D02*
X315963Y146004D01*
X315974Y146138D01*
X315990Y146272D01*
X316014Y146402D01*
X316045Y146531D01*
X316085Y146661D01*
X316128Y146787D01*
X316179Y146909D01*
X316238Y147031D01*
X316301Y147150D01*
X316372Y147264D01*
X316447Y147374D01*
X316530Y147480D01*
X316616Y147583D01*
X316707Y147681D01*
X316805Y147772D01*
X316907Y147858D01*
X317014Y147941D01*
X317124Y148016D01*
X317238Y148087D01*
X317356Y148150D01*
X317478Y148209D01*
X317600Y148260D01*
X317726Y148303D01*
X317856Y148343D01*
X317986Y148374D01*
X318116Y148398D01*
X318250Y148413D01*
X318384Y148425D01*
X318518Y148429D01*
X320486D01*
X320620Y148425D01*
X320754Y148413D01*
X320888Y148398D01*
X321018Y148374D01*
X321148Y148343D01*
X321278Y148303D01*
X321404Y148260D01*
X321526Y148209D01*
X321648Y148150D01*
X321766Y148087D01*
X321880Y148016D01*
X321990Y147941D01*
X322096Y147858D01*
X322199Y147772D01*
X322297Y147681D01*
X322388Y147583D01*
X322474Y147480D01*
X322557Y147374D01*
X322632Y147264D01*
X322703Y147150D01*
X322766Y147031D01*
X322825Y146909D01*
X322876Y146787D01*
X322919Y146661D01*
X322959Y146531D01*
X322990Y146402D01*
X323014Y146272D01*
X323030Y146138D01*
X323041Y146004D01*
X323045Y145870D01*
X323041Y145736D01*
X323030Y145602D01*
X323014Y145469D01*
X322990Y145339D01*
X322959Y145209D01*
X322919Y145079D01*
X322876Y144953D01*
X322825Y144831D01*
X322766Y144709D01*
X322703Y144591D01*
X322632Y144476D01*
X322557Y144366D01*
X322474Y144260D01*
X322388Y144157D01*
X322297Y144059D01*
X322199Y143969D01*
X322096Y143882D01*
X321990Y143799D01*
X321880Y143724D01*
X321766Y143654D01*
X321648Y143591D01*
X321526Y143531D01*
X321404Y143480D01*
X321278Y143437D01*
X321148Y143398D01*
X321018Y143366D01*
X320888Y143343D01*
X320754Y143327D01*
X320620Y143315D01*
X320486Y143311D01*
X318518D01*
X318384Y143315D01*
X318250Y143327D01*
X318116Y143343D01*
X317986Y143366D01*
X317856Y143398D01*
X317726Y143437D01*
X317600Y143480D01*
X317478Y143531D01*
X317356Y143591D01*
X317238Y143654D01*
X317124Y143724D01*
X317014Y143799D01*
X316907Y143882D01*
X316805Y143969D01*
X316707Y144059D01*
X316616Y144157D01*
X316530Y144260D01*
X316447Y144366D01*
X316372Y144476D01*
X316301Y144591D01*
X316238Y144709D01*
X316179Y144831D01*
X316128Y144953D01*
X316085Y145079D01*
X316045Y145209D01*
X316014Y145339D01*
X315990Y145469D01*
X315974Y145602D01*
X315963Y145736D01*
X315959Y145870D01*
G36*
X315959Y145870D02*
X315963Y146004D01*
X315974Y146138D01*
X315990Y146272D01*
X316014Y146402D01*
X316045Y146531D01*
X316085Y146661D01*
X316128Y146787D01*
X316179Y146909D01*
X316238Y147031D01*
X316301Y147150D01*
X316372Y147264D01*
X316447Y147374D01*
X316530Y147480D01*
X316616Y147583D01*
X316707Y147681D01*
X316805Y147772D01*
X316907Y147858D01*
X317014Y147941D01*
X317124Y148016D01*
X317238Y148087D01*
X317356Y148150D01*
X317478Y148209D01*
X317600Y148260D01*
X317726Y148303D01*
X317856Y148343D01*
X317986Y148374D01*
X318116Y148398D01*
X318250Y148413D01*
X318384Y148425D01*
X318518Y148429D01*
X320486D01*
X320620Y148425D01*
X320754Y148413D01*
X320888Y148398D01*
X321018Y148374D01*
X321148Y148343D01*
X321278Y148303D01*
X321404Y148260D01*
X321526Y148209D01*
X321648Y148150D01*
X321766Y148087D01*
X321880Y148016D01*
X321990Y147941D01*
X322096Y147858D01*
X322199Y147772D01*
X322297Y147681D01*
X322388Y147583D01*
X322474Y147480D01*
X322557Y147374D01*
X322632Y147264D01*
X322703Y147150D01*
X322766Y147031D01*
X322825Y146909D01*
X322876Y146787D01*
X322919Y146661D01*
X322959Y146531D01*
X322990Y146402D01*
X323014Y146272D01*
X323030Y146138D01*
X323041Y146004D01*
X323045Y145870D01*
X323041Y145736D01*
X323030Y145602D01*
X323014Y145469D01*
X322990Y145339D01*
X322959Y145209D01*
X322919Y145079D01*
X322876Y144953D01*
X322825Y144831D01*
X322766Y144709D01*
X322703Y144591D01*
X322632Y144476D01*
X322557Y144366D01*
X322474Y144260D01*
X322388Y144157D01*
X322297Y144059D01*
X322199Y143969D01*
X322096Y143882D01*
X321990Y143799D01*
X321880Y143724D01*
X321766Y143654D01*
X321648Y143591D01*
X321526Y143531D01*
X321404Y143480D01*
X321278Y143437D01*
X321148Y143398D01*
X321018Y143366D01*
X320888Y143343D01*
X320754Y143327D01*
X320620Y143315D01*
X320486Y143311D01*
X318518D01*
X318384Y143315D01*
X318250Y143327D01*
X318116Y143343D01*
X317986Y143366D01*
X317856Y143398D01*
X317726Y143437D01*
X317600Y143480D01*
X317478Y143531D01*
X317356Y143591D01*
X317238Y143654D01*
X317124Y143724D01*
X317014Y143799D01*
X316907Y143882D01*
X316805Y143969D01*
X316707Y144059D01*
X316616Y144157D01*
X316530Y144260D01*
X316447Y144366D01*
X316372Y144476D01*
X316301Y144591D01*
X316238Y144709D01*
X316179Y144831D01*
X316128Y144953D01*
X316085Y145079D01*
X316045Y145209D01*
X316014Y145339D01*
X315990Y145469D01*
X315974Y145602D01*
X315963Y145736D01*
X315959Y145870D01*
G37*
Y157130D02*
X315963Y157264D01*
X315974Y157398D01*
X315990Y157531D01*
X316014Y157661D01*
X316045Y157791D01*
X316085Y157921D01*
X316128Y158047D01*
X316179Y158169D01*
X316238Y158291D01*
X316301Y158409D01*
X316372Y158524D01*
X316447Y158634D01*
X316530Y158740D01*
X316616Y158843D01*
X316707Y158941D01*
X316805Y159031D01*
X316907Y159118D01*
X317014Y159201D01*
X317124Y159276D01*
X317238Y159346D01*
X317356Y159409D01*
X317478Y159469D01*
X317600Y159520D01*
X317726Y159563D01*
X317856Y159602D01*
X317986Y159634D01*
X318116Y159657D01*
X318250Y159673D01*
X318384Y159685D01*
X318518Y159689D01*
X320486D01*
X320620Y159685D01*
X320754Y159673D01*
X320888Y159657D01*
X321018Y159634D01*
X321148Y159602D01*
X321278Y159563D01*
X321404Y159520D01*
X321526Y159469D01*
X321648Y159409D01*
X321766Y159346D01*
X321880Y159276D01*
X321990Y159201D01*
X322096Y159118D01*
X322199Y159031D01*
X322297Y158941D01*
X322388Y158843D01*
X322474Y158740D01*
X322557Y158634D01*
X322632Y158524D01*
X322703Y158409D01*
X322766Y158291D01*
X322825Y158169D01*
X322876Y158047D01*
X322919Y157921D01*
X322959Y157791D01*
X322990Y157661D01*
X323014Y157531D01*
X323030Y157398D01*
X323041Y157264D01*
X323045Y157130D01*
X323041Y156996D01*
X323030Y156862D01*
X323014Y156728D01*
X322990Y156598D01*
X322959Y156469D01*
X322919Y156339D01*
X322876Y156213D01*
X322825Y156091D01*
X322766Y155969D01*
X322703Y155850D01*
X322632Y155736D01*
X322557Y155626D01*
X322474Y155520D01*
X322388Y155417D01*
X322297Y155319D01*
X322199Y155228D01*
X322096Y155142D01*
X321990Y155059D01*
X321880Y154984D01*
X321766Y154913D01*
X321648Y154850D01*
X321526Y154791D01*
X321404Y154740D01*
X321278Y154697D01*
X321148Y154657D01*
X321018Y154626D01*
X320888Y154602D01*
X320754Y154587D01*
X320620Y154575D01*
X320486Y154571D01*
X318518D01*
X318384Y154575D01*
X318250Y154587D01*
X318116Y154602D01*
X317986Y154626D01*
X317856Y154657D01*
X317726Y154697D01*
X317600Y154740D01*
X317478Y154791D01*
X317356Y154850D01*
X317238Y154913D01*
X317124Y154984D01*
X317014Y155059D01*
X316907Y155142D01*
X316805Y155228D01*
X316707Y155319D01*
X316616Y155417D01*
X316530Y155520D01*
X316447Y155626D01*
X316372Y155736D01*
X316301Y155850D01*
X316238Y155969D01*
X316179Y156091D01*
X316128Y156213D01*
X316085Y156339D01*
X316045Y156469D01*
X316014Y156598D01*
X315990Y156728D01*
X315974Y156862D01*
X315963Y156996D01*
X315959Y157130D01*
G36*
X315959Y157130D02*
X315963Y157264D01*
X315974Y157398D01*
X315990Y157531D01*
X316014Y157661D01*
X316045Y157791D01*
X316085Y157921D01*
X316128Y158047D01*
X316179Y158169D01*
X316238Y158291D01*
X316301Y158409D01*
X316372Y158524D01*
X316447Y158634D01*
X316530Y158740D01*
X316616Y158843D01*
X316707Y158941D01*
X316805Y159031D01*
X316907Y159118D01*
X317014Y159201D01*
X317124Y159276D01*
X317238Y159346D01*
X317356Y159409D01*
X317478Y159469D01*
X317600Y159520D01*
X317726Y159563D01*
X317856Y159602D01*
X317986Y159634D01*
X318116Y159657D01*
X318250Y159673D01*
X318384Y159685D01*
X318518Y159689D01*
X320486D01*
X320620Y159685D01*
X320754Y159673D01*
X320888Y159657D01*
X321018Y159634D01*
X321148Y159602D01*
X321278Y159563D01*
X321404Y159520D01*
X321526Y159469D01*
X321648Y159409D01*
X321766Y159346D01*
X321880Y159276D01*
X321990Y159201D01*
X322096Y159118D01*
X322199Y159031D01*
X322297Y158941D01*
X322388Y158843D01*
X322474Y158740D01*
X322557Y158634D01*
X322632Y158524D01*
X322703Y158409D01*
X322766Y158291D01*
X322825Y158169D01*
X322876Y158047D01*
X322919Y157921D01*
X322959Y157791D01*
X322990Y157661D01*
X323014Y157531D01*
X323030Y157398D01*
X323041Y157264D01*
X323045Y157130D01*
X323041Y156996D01*
X323030Y156862D01*
X323014Y156728D01*
X322990Y156598D01*
X322959Y156469D01*
X322919Y156339D01*
X322876Y156213D01*
X322825Y156091D01*
X322766Y155969D01*
X322703Y155850D01*
X322632Y155736D01*
X322557Y155626D01*
X322474Y155520D01*
X322388Y155417D01*
X322297Y155319D01*
X322199Y155228D01*
X322096Y155142D01*
X321990Y155059D01*
X321880Y154984D01*
X321766Y154913D01*
X321648Y154850D01*
X321526Y154791D01*
X321404Y154740D01*
X321278Y154697D01*
X321148Y154657D01*
X321018Y154626D01*
X320888Y154602D01*
X320754Y154587D01*
X320620Y154575D01*
X320486Y154571D01*
X318518D01*
X318384Y154575D01*
X318250Y154587D01*
X318116Y154602D01*
X317986Y154626D01*
X317856Y154657D01*
X317726Y154697D01*
X317600Y154740D01*
X317478Y154791D01*
X317356Y154850D01*
X317238Y154913D01*
X317124Y154984D01*
X317014Y155059D01*
X316907Y155142D01*
X316805Y155228D01*
X316707Y155319D01*
X316616Y155417D01*
X316530Y155520D01*
X316447Y155626D01*
X316372Y155736D01*
X316301Y155850D01*
X316238Y155969D01*
X316179Y156091D01*
X316128Y156213D01*
X316085Y156339D01*
X316045Y156469D01*
X316014Y156598D01*
X315990Y156728D01*
X315974Y156862D01*
X315963Y156996D01*
X315959Y157130D01*
G37*
X347455Y145870D02*
X347459Y146004D01*
X347470Y146138D01*
X347486Y146272D01*
X347510Y146402D01*
X347541Y146531D01*
X347581Y146661D01*
X347624Y146787D01*
X347675Y146909D01*
X347734Y147031D01*
X347797Y147150D01*
X347868Y147264D01*
X347943Y147374D01*
X348026Y147480D01*
X348112Y147583D01*
X348203Y147681D01*
X348301Y147772D01*
X348404Y147858D01*
X348510Y147941D01*
X348620Y148016D01*
X348734Y148087D01*
X348852Y148150D01*
X348974Y148209D01*
X349096Y148260D01*
X349222Y148303D01*
X349352Y148343D01*
X349482Y148374D01*
X349612Y148398D01*
X349746Y148413D01*
X349880Y148425D01*
X350014Y148429D01*
X351982D01*
X352116Y148425D01*
X352250Y148413D01*
X352384Y148398D01*
X352514Y148374D01*
X352644Y148343D01*
X352774Y148303D01*
X352900Y148260D01*
X353022Y148209D01*
X353144Y148150D01*
X353262Y148087D01*
X353376Y148016D01*
X353486Y147941D01*
X353593Y147858D01*
X353695Y147772D01*
X353793Y147681D01*
X353884Y147583D01*
X353970Y147480D01*
X354053Y147374D01*
X354128Y147264D01*
X354199Y147150D01*
X354262Y147031D01*
X354321Y146909D01*
X354372Y146787D01*
X354415Y146661D01*
X354455Y146531D01*
X354486Y146402D01*
X354510Y146272D01*
X354526Y146138D01*
X354537Y146004D01*
X354541Y145870D01*
X354537Y145736D01*
X354526Y145602D01*
X354510Y145469D01*
X354486Y145339D01*
X354455Y145209D01*
X354415Y145079D01*
X354372Y144953D01*
X354321Y144831D01*
X354262Y144709D01*
X354199Y144591D01*
X354128Y144476D01*
X354053Y144366D01*
X353970Y144260D01*
X353884Y144157D01*
X353793Y144059D01*
X353695Y143969D01*
X353593Y143882D01*
X353486Y143799D01*
X353376Y143724D01*
X353262Y143654D01*
X353144Y143591D01*
X353022Y143531D01*
X352900Y143480D01*
X352774Y143437D01*
X352644Y143398D01*
X352514Y143366D01*
X352384Y143343D01*
X352250Y143327D01*
X352116Y143315D01*
X351982Y143311D01*
X350014D01*
X349880Y143315D01*
X349746Y143327D01*
X349612Y143343D01*
X349482Y143366D01*
X349352Y143398D01*
X349222Y143437D01*
X349096Y143480D01*
X348974Y143531D01*
X348852Y143591D01*
X348734Y143654D01*
X348620Y143724D01*
X348510Y143799D01*
X348404Y143882D01*
X348301Y143969D01*
X348203Y144059D01*
X348112Y144157D01*
X348026Y144260D01*
X347943Y144366D01*
X347868Y144476D01*
X347797Y144591D01*
X347734Y144709D01*
X347675Y144831D01*
X347624Y144953D01*
X347581Y145079D01*
X347541Y145209D01*
X347510Y145339D01*
X347486Y145469D01*
X347470Y145602D01*
X347459Y145736D01*
X347455Y145870D01*
G36*
X347455Y145870D02*
X347459Y146004D01*
X347470Y146138D01*
X347486Y146272D01*
X347510Y146402D01*
X347541Y146531D01*
X347581Y146661D01*
X347624Y146787D01*
X347675Y146909D01*
X347734Y147031D01*
X347797Y147150D01*
X347868Y147264D01*
X347943Y147374D01*
X348026Y147480D01*
X348112Y147583D01*
X348203Y147681D01*
X348301Y147772D01*
X348404Y147858D01*
X348510Y147941D01*
X348620Y148016D01*
X348734Y148087D01*
X348852Y148150D01*
X348974Y148209D01*
X349096Y148260D01*
X349222Y148303D01*
X349352Y148343D01*
X349482Y148374D01*
X349612Y148398D01*
X349746Y148413D01*
X349880Y148425D01*
X350014Y148429D01*
X351982D01*
X352116Y148425D01*
X352250Y148413D01*
X352384Y148398D01*
X352514Y148374D01*
X352644Y148343D01*
X352774Y148303D01*
X352900Y148260D01*
X353022Y148209D01*
X353144Y148150D01*
X353262Y148087D01*
X353376Y148016D01*
X353486Y147941D01*
X353593Y147858D01*
X353695Y147772D01*
X353793Y147681D01*
X353884Y147583D01*
X353970Y147480D01*
X354053Y147374D01*
X354128Y147264D01*
X354199Y147150D01*
X354262Y147031D01*
X354321Y146909D01*
X354372Y146787D01*
X354415Y146661D01*
X354455Y146531D01*
X354486Y146402D01*
X354510Y146272D01*
X354526Y146138D01*
X354537Y146004D01*
X354541Y145870D01*
X354537Y145736D01*
X354526Y145602D01*
X354510Y145469D01*
X354486Y145339D01*
X354455Y145209D01*
X354415Y145079D01*
X354372Y144953D01*
X354321Y144831D01*
X354262Y144709D01*
X354199Y144591D01*
X354128Y144476D01*
X354053Y144366D01*
X353970Y144260D01*
X353884Y144157D01*
X353793Y144059D01*
X353695Y143969D01*
X353593Y143882D01*
X353486Y143799D01*
X353376Y143724D01*
X353262Y143654D01*
X353144Y143591D01*
X353022Y143531D01*
X352900Y143480D01*
X352774Y143437D01*
X352644Y143398D01*
X352514Y143366D01*
X352384Y143343D01*
X352250Y143327D01*
X352116Y143315D01*
X351982Y143311D01*
X350014D01*
X349880Y143315D01*
X349746Y143327D01*
X349612Y143343D01*
X349482Y143366D01*
X349352Y143398D01*
X349222Y143437D01*
X349096Y143480D01*
X348974Y143531D01*
X348852Y143591D01*
X348734Y143654D01*
X348620Y143724D01*
X348510Y143799D01*
X348404Y143882D01*
X348301Y143969D01*
X348203Y144059D01*
X348112Y144157D01*
X348026Y144260D01*
X347943Y144366D01*
X347868Y144476D01*
X347797Y144591D01*
X347734Y144709D01*
X347675Y144831D01*
X347624Y144953D01*
X347581Y145079D01*
X347541Y145209D01*
X347510Y145339D01*
X347486Y145469D01*
X347470Y145602D01*
X347459Y145736D01*
X347455Y145870D01*
G37*
Y157130D02*
X347459Y157264D01*
X347470Y157398D01*
X347486Y157531D01*
X347510Y157661D01*
X347541Y157791D01*
X347581Y157921D01*
X347624Y158047D01*
X347675Y158169D01*
X347734Y158291D01*
X347797Y158409D01*
X347868Y158524D01*
X347943Y158634D01*
X348026Y158740D01*
X348112Y158843D01*
X348203Y158941D01*
X348301Y159031D01*
X348404Y159118D01*
X348510Y159201D01*
X348620Y159276D01*
X348734Y159346D01*
X348852Y159409D01*
X348974Y159469D01*
X349096Y159520D01*
X349222Y159563D01*
X349352Y159602D01*
X349482Y159634D01*
X349612Y159657D01*
X349746Y159673D01*
X349880Y159685D01*
X350014Y159689D01*
X351982D01*
X352116Y159685D01*
X352250Y159673D01*
X352384Y159657D01*
X352514Y159634D01*
X352644Y159602D01*
X352774Y159563D01*
X352900Y159520D01*
X353022Y159469D01*
X353144Y159409D01*
X353262Y159346D01*
X353376Y159276D01*
X353486Y159201D01*
X353593Y159118D01*
X353695Y159031D01*
X353793Y158941D01*
X353884Y158843D01*
X353970Y158740D01*
X354053Y158634D01*
X354128Y158524D01*
X354199Y158409D01*
X354262Y158291D01*
X354321Y158169D01*
X354372Y158047D01*
X354415Y157921D01*
X354455Y157791D01*
X354486Y157661D01*
X354510Y157531D01*
X354526Y157398D01*
X354537Y157264D01*
X354541Y157130D01*
X354537Y156996D01*
X354526Y156862D01*
X354510Y156728D01*
X354486Y156598D01*
X354455Y156469D01*
X354415Y156339D01*
X354372Y156213D01*
X354321Y156091D01*
X354262Y155969D01*
X354199Y155850D01*
X354128Y155736D01*
X354053Y155626D01*
X353970Y155520D01*
X353884Y155417D01*
X353793Y155319D01*
X353695Y155228D01*
X353593Y155142D01*
X353486Y155059D01*
X353376Y154984D01*
X353262Y154913D01*
X353144Y154850D01*
X353022Y154791D01*
X352900Y154740D01*
X352774Y154697D01*
X352644Y154657D01*
X352514Y154626D01*
X352384Y154602D01*
X352250Y154587D01*
X352116Y154575D01*
X351982Y154571D01*
X350014D01*
X349880Y154575D01*
X349746Y154587D01*
X349612Y154602D01*
X349482Y154626D01*
X349352Y154657D01*
X349222Y154697D01*
X349096Y154740D01*
X348974Y154791D01*
X348852Y154850D01*
X348734Y154913D01*
X348620Y154984D01*
X348510Y155059D01*
X348404Y155142D01*
X348301Y155228D01*
X348203Y155319D01*
X348112Y155417D01*
X348026Y155520D01*
X347943Y155626D01*
X347868Y155736D01*
X347797Y155850D01*
X347734Y155969D01*
X347675Y156091D01*
X347624Y156213D01*
X347581Y156339D01*
X347541Y156469D01*
X347510Y156598D01*
X347486Y156728D01*
X347470Y156862D01*
X347459Y156996D01*
X347455Y157130D01*
G36*
X347455Y157130D02*
X347459Y157264D01*
X347470Y157398D01*
X347486Y157531D01*
X347510Y157661D01*
X347541Y157791D01*
X347581Y157921D01*
X347624Y158047D01*
X347675Y158169D01*
X347734Y158291D01*
X347797Y158409D01*
X347868Y158524D01*
X347943Y158634D01*
X348026Y158740D01*
X348112Y158843D01*
X348203Y158941D01*
X348301Y159031D01*
X348404Y159118D01*
X348510Y159201D01*
X348620Y159276D01*
X348734Y159346D01*
X348852Y159409D01*
X348974Y159469D01*
X349096Y159520D01*
X349222Y159563D01*
X349352Y159602D01*
X349482Y159634D01*
X349612Y159657D01*
X349746Y159673D01*
X349880Y159685D01*
X350014Y159689D01*
X351982D01*
X352116Y159685D01*
X352250Y159673D01*
X352384Y159657D01*
X352514Y159634D01*
X352644Y159602D01*
X352774Y159563D01*
X352900Y159520D01*
X353022Y159469D01*
X353144Y159409D01*
X353262Y159346D01*
X353376Y159276D01*
X353486Y159201D01*
X353593Y159118D01*
X353695Y159031D01*
X353793Y158941D01*
X353884Y158843D01*
X353970Y158740D01*
X354053Y158634D01*
X354128Y158524D01*
X354199Y158409D01*
X354262Y158291D01*
X354321Y158169D01*
X354372Y158047D01*
X354415Y157921D01*
X354455Y157791D01*
X354486Y157661D01*
X354510Y157531D01*
X354526Y157398D01*
X354537Y157264D01*
X354541Y157130D01*
X354537Y156996D01*
X354526Y156862D01*
X354510Y156728D01*
X354486Y156598D01*
X354455Y156469D01*
X354415Y156339D01*
X354372Y156213D01*
X354321Y156091D01*
X354262Y155969D01*
X354199Y155850D01*
X354128Y155736D01*
X354053Y155626D01*
X353970Y155520D01*
X353884Y155417D01*
X353793Y155319D01*
X353695Y155228D01*
X353593Y155142D01*
X353486Y155059D01*
X353376Y154984D01*
X353262Y154913D01*
X353144Y154850D01*
X353022Y154791D01*
X352900Y154740D01*
X352774Y154697D01*
X352644Y154657D01*
X352514Y154626D01*
X352384Y154602D01*
X352250Y154587D01*
X352116Y154575D01*
X351982Y154571D01*
X350014D01*
X349880Y154575D01*
X349746Y154587D01*
X349612Y154602D01*
X349482Y154626D01*
X349352Y154657D01*
X349222Y154697D01*
X349096Y154740D01*
X348974Y154791D01*
X348852Y154850D01*
X348734Y154913D01*
X348620Y154984D01*
X348510Y155059D01*
X348404Y155142D01*
X348301Y155228D01*
X348203Y155319D01*
X348112Y155417D01*
X348026Y155520D01*
X347943Y155626D01*
X347868Y155736D01*
X347797Y155850D01*
X347734Y155969D01*
X347675Y156091D01*
X347624Y156213D01*
X347581Y156339D01*
X347541Y156469D01*
X347510Y156598D01*
X347486Y156728D01*
X347470Y156862D01*
X347459Y156996D01*
X347455Y157130D01*
G37*
D02*
D120*
X62750Y72750D03*
X65250Y282750D03*
X67750Y67750D03*
X77750Y77750D03*
Y87750D03*
X82750Y82750D03*
X85250Y282750D03*
X100250Y92750D03*
X110250Y62750D03*
X175250D03*
X180250Y67750D03*
D03*
X185250Y72750D03*
X190250Y77750D03*
X195250Y92750D03*
X200250Y97750D03*
X205250Y82750D03*
X210250Y72750D03*
X302750Y67750D03*
X307750Y72750D03*
X310250Y277750D03*
X312750Y77750D03*
X317750Y102750D03*
X322750Y97750D03*
Y272750D03*
X327750Y82750D03*
X330250Y282750D03*
X332297Y135250D03*
X335250Y165250D03*
X340171Y192750D03*
X397750Y92750D03*
X402750Y87750D03*
X407750Y82750D03*
X425250Y67750D03*
X430250Y72750D03*
Y82750D03*
X435250Y77750D03*
Y87750D03*
X440250Y97750D03*
X445250Y102750D03*
X450250Y92750D03*
X467750Y62750D03*
Y180250D03*
X476500Y216500D03*
X480250Y137750D03*
X487750Y211500D03*
X490250Y137750D03*
X492750Y206500D03*
X510250Y216500D03*
X521500Y211500D03*
X532750Y206500D03*
X547750Y67750D03*
X552750Y72750D03*
X555250Y277750D03*
X557750Y77750D03*
X562750Y97750D03*
X567750Y102750D03*
Y272750D03*
X570250Y152750D03*
X572750Y82750D03*
X575250Y282750D03*
X580250Y147750D03*
X597750Y62750D03*
X637750Y162750D03*
Y190250D03*
X647750D03*
X670250Y67750D03*
X675250Y72750D03*
X680250Y77750D03*
X682750Y152750D03*
Y230250D03*
X685250Y92750D03*
X687750Y147750D03*
Y225250D03*
X692750Y97750D03*
Y220250D03*
X695250Y82750D03*
X697750Y102750D03*
Y215250D03*
X702750Y210250D03*
X707750Y92750D03*
Y205250D03*
X745250Y147750D03*
Y165250D03*
X770250Y200250D03*
Y215250D03*
X785250Y252750D03*
X792750Y67750D03*
Y95250D03*
X797750Y72750D03*
X802750Y77750D03*
Y87750D03*
Y102750D03*
X807750Y72750D03*
X812750Y102750D03*
Y112750D03*
Y277750D03*
X817750Y82750D03*
Y95250D03*
Y107750D03*
X820250Y282750D03*
D02*
D121*
X20250Y20250D03*
Y45250D03*
Y305250D03*
X115250Y45250D03*
Y305250D03*
X142750Y45250D03*
Y305250D03*
X237750Y45250D03*
Y305250D03*
X265250Y45250D03*
Y305250D03*
X360250Y45250D03*
Y305250D03*
X387750Y20250D03*
Y45250D03*
Y305250D03*
X482750Y20250D03*
Y45250D03*
Y305250D03*
X510250Y45250D03*
Y305250D03*
X605250Y45250D03*
Y305250D03*
X632750Y45250D03*
Y305250D03*
X727750Y45250D03*
Y305250D03*
X755250Y45250D03*
Y305250D03*
X850250Y20250D03*
Y45250D03*
Y305250D03*
D02*
D122*
X42750Y82750D03*
Y117750D03*
Y135250D03*
Y170250D03*
Y187750D03*
Y222750D03*
Y240250D03*
Y275250D03*
X647750Y170250D03*
Y205250D03*
D02*
D123*
X52750Y40250D03*
Y50250D03*
X62750Y40250D03*
Y50250D03*
X72750Y40250D03*
Y50250D03*
X82750Y40250D03*
Y50250D03*
X175250Y40250D03*
Y50250D03*
X185250Y40250D03*
Y50250D03*
X195250Y40250D03*
Y50250D03*
X205250Y40250D03*
Y50250D03*
X297750Y40250D03*
Y50250D03*
X307750Y40250D03*
Y50250D03*
X317750Y40250D03*
Y50250D03*
X327750Y40250D03*
Y50250D03*
X420250Y40250D03*
Y50250D03*
X430250Y40250D03*
Y50250D03*
X440250Y40250D03*
Y50250D03*
X450250Y40250D03*
Y50250D03*
X542750Y40250D03*
Y50250D03*
X552750Y40250D03*
Y50250D03*
X562750Y40250D03*
Y50250D03*
X572750Y40250D03*
Y50250D03*
X665250Y40250D03*
Y50250D03*
X675250Y40250D03*
Y50250D03*
X685250Y40250D03*
Y50250D03*
X695250Y40250D03*
Y50250D03*
X757750Y152750D03*
Y162750D03*
Y232750D03*
Y242750D03*
X767750Y152750D03*
Y162750D03*
Y232750D03*
Y242750D03*
X777750Y152750D03*
Y162750D03*
Y232750D03*
Y242750D03*
X787750Y40250D03*
Y50250D03*
Y152750D03*
Y162750D03*
Y232750D03*
Y242750D03*
X797750Y40250D03*
Y50250D03*
Y152750D03*
Y162750D03*
Y232750D03*
Y242750D03*
X807750Y40250D03*
Y50250D03*
Y152750D03*
Y162750D03*
Y232750D03*
Y242750D03*
X817750Y40250D03*
Y50250D03*
Y152750D03*
Y162750D03*
Y232750D03*
Y242750D03*
X827750Y152750D03*
Y162750D03*
Y232750D03*
Y242750D03*
D02*
D124*
X17750Y90250D03*
Y110250D03*
Y142750D03*
Y162750D03*
Y195250D03*
Y215250D03*
Y247750D03*
Y267750D03*
X67750Y90250D03*
Y110250D03*
Y142750D03*
Y162750D03*
Y195250D03*
Y215250D03*
Y247750D03*
Y267750D03*
X622750Y177750D03*
Y197750D03*
X672750Y177750D03*
Y197750D03*
D02*
D125*
X180250Y122750D03*
X190250D03*
X200250D03*
X210250D03*
X220250D03*
X560250Y187750D03*
X570250D03*
X580250D03*
X590250D03*
X617750Y225250D03*
X627750D03*
X637750D03*
X647750D03*
X657750D03*
X667750D03*
D02*
D128*
X63250Y312750D03*
X72250D03*
X308250D03*
X317250D03*
X553250D03*
X562250D03*
X798250D03*
X807250D03*
X829500Y136500D03*
X838500D03*
D02*
D129*
X319502Y151500D03*
X350998D03*
D02*
D130*
X319502Y145870D03*
Y157130D03*
X350998Y145870D03*
Y157130D03*
D02*
D136*
X57750Y287750D03*
Y302750D03*
X77750Y287750D03*
Y302750D03*
X302750Y287750D03*
Y302750D03*
X322750Y287750D03*
Y302750D03*
X547750Y287750D03*
Y302750D03*
X567750Y287750D03*
Y302750D03*
X792750Y287750D03*
Y302750D03*
X812750Y287750D03*
Y302750D03*
D02*
D137*
X324423Y145654D03*
Y157346D03*
X330329Y145654D03*
Y157346D03*
X332297Y145654D03*
Y157346D03*
X334266Y145654D03*
Y157346D03*
X336234Y145654D03*
Y157346D03*
X338203Y145654D03*
Y157346D03*
X340171Y145654D03*
Y157346D03*
X346077Y145654D03*
Y157346D03*
X0Y0D02*
M02*
