G04 DesignSpark PCB Gerber Version 11.0 Build 5877*
G04 #@! TF.Part,Single*
G04 #@! TF.FileFunction,Legend,Top*
G04 #@! TF.FilePolarity,Positive*
%FSLAX35Y35*%
%MOIN*%
%ADD131C,0.00001*%
%ADD106C,0.00197*%
%ADD81C,0.00394*%
%ADD18C,0.00500*%
%ADD82C,0.00787*%
%ADD70C,0.01000*%
G04 #@! TD.AperFunction*
X0Y0D02*
D02*
D18*
X45250Y35250D02*
X90250D01*
Y55250D01*
X45250D01*
Y35250D01*
X77750Y109937D02*
Y113687D01*
X79625D01*
X80250Y113375D01*
X80563Y113063D01*
X80875Y112437D01*
Y111187D01*
X80563Y110563D01*
X80250Y110250D01*
X79625Y109937D01*
X77750D01*
X84313D02*
Y113687D01*
X82750Y111187D01*
X85250D01*
X77750Y162437D02*
Y166187D01*
X79625D01*
X80250Y165875D01*
X80563Y165563D01*
X80875Y164937D01*
Y163687D01*
X80563Y163063D01*
X80250Y162750D01*
X79625Y162437D01*
X77750D01*
X83063Y162750D02*
X83687Y162437D01*
X84313D01*
X84937Y162750D01*
X85250Y163375D01*
X84937Y164000D01*
X84313Y164313D01*
X83687D01*
X84313D02*
X84937Y164625D01*
X85250Y165250D01*
X84937Y165875D01*
X84313Y166187D01*
X83687D01*
X83063Y165875D01*
X77750Y214937D02*
Y218687D01*
X79625D01*
X80250Y218375D01*
X80563Y218063D01*
X80875Y217437D01*
Y216187D01*
X80563Y215563D01*
X80250Y215250D01*
X79625Y214937D01*
X77750D01*
X85250D02*
X82750D01*
X84937Y217125D01*
X85250Y217750D01*
X84937Y218375D01*
X84313Y218687D01*
X83375D01*
X82750Y218375D01*
X77750Y267437D02*
Y271187D01*
X79625D01*
X80250Y270875D01*
X80563Y270563D01*
X80875Y269937D01*
Y268687D01*
X80563Y268063D01*
X80250Y267750D01*
X79625Y267437D01*
X77750D01*
X83375D02*
X84625D01*
X84000D02*
Y271187D01*
X83375Y270563D01*
X78000Y108250D02*
Y92250D01*
X85000D01*
Y108250D01*
X78000D01*
Y160750D02*
Y144750D01*
X85000D01*
Y160750D01*
X78000D01*
Y213250D02*
Y197250D01*
X85000D01*
Y213250D01*
X78000D01*
Y265750D02*
Y249750D01*
X85000D01*
Y265750D01*
X78000D01*
X90875Y110563D02*
X90563Y110250D01*
X89937Y109937D01*
X89000D01*
X88375Y110250D01*
X88063Y110563D01*
X87750Y111187D01*
Y112437D01*
X88063Y113063D01*
X88375Y113375D01*
X89000Y113687D01*
X89937D01*
X90563Y113375D01*
X90875Y113063D01*
X93375Y109937D02*
X94625D01*
X94000D02*
Y113687D01*
X93375Y113063D01*
X98063Y110250D02*
X98687Y109937D01*
X99313D01*
X99937Y110250D01*
X100250Y110875D01*
Y112750D01*
X99937Y113375D01*
X99313Y113687D01*
X98687D01*
X98063Y113375D01*
X97750Y112750D01*
Y110875D01*
X98063Y110250D01*
X99937Y113375D01*
X90875Y163063D02*
X90563Y162750D01*
X89937Y162437D01*
X89000D01*
X88375Y162750D01*
X88063Y163063D01*
X87750Y163687D01*
Y164937D01*
X88063Y165563D01*
X88375Y165875D01*
X89000Y166187D01*
X89937D01*
X90563Y165875D01*
X90875Y165563D01*
X93687Y162437D02*
X94313Y162750D01*
X94937Y163375D01*
X95250Y164313D01*
Y165250D01*
X94937Y165875D01*
X94313Y166187D01*
X93687D01*
X93063Y165875D01*
X92750Y165250D01*
X93063Y164625D01*
X93687Y164313D01*
X94313D01*
X94937Y164625D01*
X95250Y165250D01*
X90875Y215563D02*
X90563Y215250D01*
X89937Y214937D01*
X89000D01*
X88375Y215250D01*
X88063Y215563D01*
X87750Y216187D01*
Y217437D01*
X88063Y218063D01*
X88375Y218375D01*
X89000Y218687D01*
X89937D01*
X90563Y218375D01*
X90875Y218063D01*
X93687Y216813D02*
X94313D01*
X94937Y217125D01*
X95250Y217750D01*
X94937Y218375D01*
X94313Y218687D01*
X93687D01*
X93063Y218375D01*
X92750Y217750D01*
X93063Y217125D01*
X93687Y216813D01*
X93063Y216500D01*
X92750Y215875D01*
X93063Y215250D01*
X93687Y214937D01*
X94313D01*
X94937Y215250D01*
X95250Y215875D01*
X94937Y216500D01*
X94313Y216813D01*
X90875Y268063D02*
X90563Y267750D01*
X89937Y267437D01*
X89000D01*
X88375Y267750D01*
X88063Y268063D01*
X87750Y268687D01*
Y269937D01*
X88063Y270563D01*
X88375Y270875D01*
X89000Y271187D01*
X89937D01*
X90563Y270875D01*
X90875Y270563D01*
X92750Y267437D02*
X95250Y271187D01*
X92750D01*
X97125Y78063D02*
X96813Y77750D01*
X96187Y77437D01*
X95250D01*
X94625Y77750D01*
X94313Y78063D01*
X94000Y78687D01*
Y79937D01*
X94313Y80563D01*
X94625Y80875D01*
X95250Y81187D01*
X96187D01*
X96813Y80875D01*
X97125Y80563D01*
X99625Y77437D02*
X100875D01*
X100250D02*
Y81187D01*
X99625Y80563D01*
X106500Y77437D02*
X104000D01*
X106187Y79625D01*
X106500Y80250D01*
X106187Y80875D01*
X105563Y81187D01*
X104625D01*
X104000Y80875D01*
X95000Y92250D02*
Y108250D01*
X88000D01*
Y92250D01*
X95000D01*
Y144750D02*
Y160750D01*
X88000D01*
Y144750D01*
X95000D01*
Y197250D02*
Y213250D01*
X88000D01*
Y197250D01*
X95000D01*
Y249750D02*
Y265750D01*
X88000D01*
Y249750D01*
X95000D01*
X101250Y59750D02*
Y75750D01*
X94250D01*
Y59750D01*
X101250D01*
X167750Y35250D02*
X212750D01*
Y55250D01*
X167750D01*
Y35250D01*
X290250D02*
X335250D01*
Y55250D01*
X290250D01*
Y35250D01*
X361500Y161187D02*
Y164937D01*
X363687D01*
X364313Y164625D01*
X364625Y164000D01*
X364313Y163375D01*
X363687Y163063D01*
X361500D01*
X363687D02*
X364625Y161187D01*
X367125D02*
X368375D01*
X367750D02*
Y164937D01*
X367125Y164313D01*
X372125Y161187D02*
X373375D01*
X372750D02*
Y164937D01*
X372125Y164313D01*
X363000Y159500D02*
Y143500D01*
X370000D01*
Y159500D01*
X363000D01*
X374250D02*
Y143500D01*
X381250D01*
Y159500D01*
X374250D01*
X377750Y161187D02*
Y164937D01*
X379937D01*
X380563Y164625D01*
X380875Y164000D01*
X380563Y163375D01*
X379937Y163063D01*
X377750D01*
X379937D02*
X380875Y161187D01*
X383375D02*
X384625D01*
X384000D02*
Y164937D01*
X383375Y164313D01*
X390250Y161187D02*
X387750D01*
X389937Y163375D01*
X390250Y164000D01*
X389937Y164625D01*
X389313Y164937D01*
X388375D01*
X387750Y164625D01*
X412750Y35250D02*
X457750D01*
Y55250D01*
X412750D01*
Y35250D01*
X419630Y158006D02*
X422442D01*
X423067Y158319D01*
X423380Y158943D01*
Y160193D01*
X423067Y160819D01*
X422442Y161131D01*
X419630D01*
X423380Y163006D02*
X419630Y165506D01*
Y163006D01*
X425014Y165486D02*
Y195014D01*
X458375Y129313D02*
X458063Y129000D01*
X457437Y128687D01*
X456500D01*
X455875Y129000D01*
X455563Y129313D01*
X455250Y129937D01*
Y131187D01*
X455563Y131813D01*
X455875Y132125D01*
X456500Y132437D01*
X457437D01*
X458063Y132125D01*
X458375Y131813D01*
X460250Y129000D02*
X460875Y128687D01*
X461813D01*
X462437Y129000D01*
X462750Y129625D01*
Y129937D01*
X462437Y130563D01*
X461813Y130875D01*
X460250D01*
Y132437D01*
X462750D01*
X464750Y126750D02*
X480750D01*
Y133750D01*
X464750D01*
Y126750D01*
X472750Y238687D02*
Y242437D01*
X474937D01*
X475563Y242125D01*
X475875Y241500D01*
X475563Y240875D01*
X474937Y240563D01*
X472750D01*
X474937D02*
X475875Y238687D01*
X477750Y239000D02*
X478375Y238687D01*
X479313D01*
X479937Y239000D01*
X480250Y239625D01*
Y239937D01*
X479937Y240563D01*
X479313Y240875D01*
X477750D01*
Y242437D01*
X480250D01*
X473000Y237000D02*
Y221000D01*
X480000D01*
Y237000D01*
X473000D01*
X484000Y238687D02*
Y242437D01*
X486187D01*
X486813Y242125D01*
X487125Y241500D01*
X486813Y240875D01*
X486187Y240563D01*
X484000D01*
X486187D02*
X487125Y238687D01*
X489000Y239625D02*
X489313Y240250D01*
X489937Y240563D01*
X490563D01*
X491187Y240250D01*
X491500Y239625D01*
X491187Y239000D01*
X490563Y238687D01*
X489937D01*
X489313Y239000D01*
X489000Y239625D01*
Y240563D01*
X489313Y241500D01*
X489937Y242125D01*
X490563Y242437D01*
X484250Y237000D02*
Y221000D01*
X491250D01*
Y237000D01*
X484250D01*
X495250Y238687D02*
Y242437D01*
X497437D01*
X498063Y242125D01*
X498375Y241500D01*
X498063Y240875D01*
X497437Y240563D01*
X495250D01*
X497437D02*
X498375Y238687D01*
X500250D02*
X502750Y242437D01*
X500250D01*
X495486Y165486D02*
Y195014D01*
X495500Y237000D02*
Y221000D01*
X502500D01*
Y237000D01*
X495500D01*
X502750Y193687D02*
Y197437D01*
X504937D01*
X505563Y197125D01*
X505875Y196500D01*
X505563Y195875D01*
X504937Y195563D01*
X502750D01*
X504937D02*
X505875Y193687D01*
X510250D02*
X507750D01*
X509937Y195875D01*
X510250Y196500D01*
X509937Y197125D01*
X509313Y197437D01*
X508375D01*
X507750Y197125D01*
X503000Y192000D02*
Y176000D01*
X510000D01*
Y192000D01*
X503000D01*
X506500Y238687D02*
Y242437D01*
X508687D01*
X509313Y242125D01*
X509625Y241500D01*
X509313Y240875D01*
X508687Y240563D01*
X506500D01*
X508687D02*
X509625Y238687D01*
X512437Y240563D02*
X513063D01*
X513687Y240875D01*
X514000Y241500D01*
X513687Y242125D01*
X513063Y242437D01*
X512437D01*
X511813Y242125D01*
X511500Y241500D01*
X511813Y240875D01*
X512437Y240563D01*
X511813Y240250D01*
X511500Y239625D01*
X511813Y239000D01*
X512437Y238687D01*
X513063D01*
X513687Y239000D01*
X514000Y239625D01*
X513687Y240250D01*
X513063Y240563D01*
X506750Y237000D02*
Y221000D01*
X513750D01*
Y237000D01*
X506750D01*
X512750Y193687D02*
Y197437D01*
X514937D01*
X515563Y197125D01*
X515875Y196500D01*
X515563Y195875D01*
X514937Y195563D01*
X512750D01*
X514937D02*
X515875Y193687D01*
X518063Y194000D02*
X518687Y193687D01*
X519313D01*
X519937Y194000D01*
X520250Y194625D01*
X519937Y195250D01*
X519313Y195563D01*
X518687D01*
X519313D02*
X519937Y195875D01*
X520250Y196500D01*
X519937Y197125D01*
X519313Y197437D01*
X518687D01*
X518063Y197125D01*
X513000Y192000D02*
Y176000D01*
X520000D01*
Y192000D01*
X513000D01*
X517750Y238687D02*
Y242437D01*
X519937D01*
X520563Y242125D01*
X520875Y241500D01*
X520563Y240875D01*
X519937Y240563D01*
X517750D01*
X519937D02*
X520875Y238687D01*
X523687D02*
X524313Y239000D01*
X524937Y239625D01*
X525250Y240563D01*
Y241500D01*
X524937Y242125D01*
X524313Y242437D01*
X523687D01*
X523063Y242125D01*
X522750Y241500D01*
X523063Y240875D01*
X523687Y240563D01*
X524313D01*
X524937Y240875D01*
X525250Y241500D01*
X518000Y237000D02*
Y221000D01*
X525000D01*
Y237000D01*
X518000D01*
X527750Y238687D02*
Y242437D01*
X529937D01*
X530563Y242125D01*
X530875Y241500D01*
X530563Y240875D01*
X529937Y240563D01*
X527750D01*
X529937D02*
X530875Y238687D01*
X533375D02*
X534625D01*
X534000D02*
Y242437D01*
X533375Y241813D01*
X538063Y239000D02*
X538687Y238687D01*
X539313D01*
X539937Y239000D01*
X540250Y239625D01*
Y241500D01*
X539937Y242125D01*
X539313Y242437D01*
X538687D01*
X538063Y242125D01*
X537750Y241500D01*
Y239625D01*
X538063Y239000D01*
X539937Y242125D01*
X529250Y237000D02*
Y221000D01*
X536250D01*
Y237000D01*
X529250D01*
X535250Y35250D02*
X580250D01*
Y55250D01*
X535250D01*
Y35250D01*
X604000Y163687D02*
Y167437D01*
X605875D01*
X606500Y167125D01*
X606813Y166813D01*
X607125Y166187D01*
Y164937D01*
X606813Y164313D01*
X606500Y164000D01*
X605875Y163687D01*
X604000D01*
X609000Y164000D02*
X609625Y163687D01*
X610563D01*
X611187Y164000D01*
X611500Y164625D01*
Y164937D01*
X611187Y165563D01*
X610563Y165875D01*
X609000D01*
Y167437D01*
X611500D01*
X604000Y187437D02*
Y191187D01*
X606187D01*
X606813Y190875D01*
X607125Y190250D01*
X606813Y189625D01*
X606187Y189313D01*
X604000D01*
X606187D02*
X607125Y187437D01*
X610563D02*
Y191187D01*
X609000Y188687D01*
X611500D01*
X604250Y162000D02*
Y146000D01*
X611250D01*
Y162000D01*
X604250D01*
Y185750D02*
Y169750D01*
X611250D01*
Y185750D01*
X604250D01*
X617125Y164313D02*
X616813Y164000D01*
X616187Y163687D01*
X615250D01*
X614625Y164000D01*
X614313Y164313D01*
X614000Y164937D01*
Y166187D01*
X614313Y166813D01*
X614625Y167125D01*
X615250Y167437D01*
X616187D01*
X616813Y167125D01*
X617125Y166813D01*
X619625Y163687D02*
X620875D01*
X620250D02*
Y167437D01*
X619625Y166813D01*
X624625Y163687D02*
X625875D01*
X625250D02*
Y167437D01*
X624625Y166813D01*
X621250Y146000D02*
Y162000D01*
X614250D01*
Y146000D01*
X621250D01*
X657750Y35250D02*
X702750D01*
Y55250D01*
X657750D01*
Y35250D01*
X727750Y152750D02*
X732750Y147750D01*
X835250D01*
X837750Y157750D01*
X862750D01*
Y247750D01*
X732750D01*
X727750Y242750D01*
Y152750D01*
X732750Y157750D02*
G75*
G03*
X742750I5000J0D01*
G01*
G75*
G03*
X732750I-5000J0D01*
G01*
Y237750D02*
G75*
G03*
X742750I5000J0D01*
G01*
G75*
G03*
X732750I-5000J0D01*
G01*
X777750Y177750D02*
X802750D01*
Y202750D01*
X777750D01*
Y177750D01*
X780250Y35250D02*
X825250D01*
Y55250D01*
X780250D01*
Y35250D01*
Y197750D02*
G75*
G03*
X782750Y200250I1250J1250D01*
G01*
G75*
G03*
X780250Y197750I-1250J-1250D01*
G01*
X842750Y157750D02*
X857750D01*
Y167750D01*
X842750D01*
Y157750D01*
Y237750D02*
Y247750D01*
X857750D01*
Y237750D01*
X842750D01*
X845250Y152750D02*
Y157750D01*
X855250D01*
Y152750D01*
X845250D01*
X855250Y247750D02*
Y250250D01*
X845250D01*
Y247750D01*
X855250D01*
X862750Y180250D02*
Y215250D01*
X837750D01*
Y180250D01*
X862750D01*
D02*
D70*
X175250Y117750D02*
X225250D01*
Y127750D01*
X175250D01*
Y117750D01*
X555250Y182750D02*
X595250D01*
Y192750D01*
X555250D01*
Y182750D01*
X612750Y230250D02*
Y220250D01*
X622750D01*
Y230250D01*
X612750D01*
X622750Y220250D02*
X672750D01*
Y230250D01*
X622750D01*
Y220250D01*
D02*
D81*
X42159Y40250D02*
X39797Y41825D01*
Y40250D01*
X40978Y50289D02*
Y50683D01*
X40781Y51077D01*
X40388Y51274D01*
X39994Y51077D01*
X39797Y50683D01*
Y50289D01*
X39994Y49896D01*
X40388Y49699D01*
X40781Y49896D01*
X40978Y50289D01*
X41175Y49896D01*
X41569Y49699D01*
X41963Y49896D01*
X42159Y50289D01*
Y50683D01*
X41963Y51077D01*
X41569Y51274D01*
X41175Y51077D01*
X40978Y50683D01*
X97159Y40644D02*
Y41431D01*
Y41037D02*
X94797D01*
X95191Y40644D01*
X97159Y51274D02*
Y49699D01*
X95781Y51077D01*
X95388Y51274D01*
X94994Y51077D01*
X94797Y50683D01*
Y50093D01*
X94994Y49699D01*
X164659Y40250D02*
X162297Y41825D01*
Y40250D01*
X163478Y50289D02*
Y50683D01*
X163281Y51077D01*
X162888Y51274D01*
X162494Y51077D01*
X162297Y50683D01*
Y50289D01*
X162494Y49896D01*
X162888Y49699D01*
X163281Y49896D01*
X163478Y50289D01*
X163675Y49896D01*
X164069Y49699D01*
X164463Y49896D01*
X164659Y50289D01*
Y50683D01*
X164463Y51077D01*
X164069Y51274D01*
X163675Y51077D01*
X163478Y50683D01*
X219659Y40644D02*
Y41431D01*
Y41037D02*
X217297D01*
X217691Y40644D01*
X219659Y51274D02*
Y49699D01*
X218281Y51077D01*
X217888Y51274D01*
X217494Y51077D01*
X217297Y50683D01*
Y50093D01*
X217494Y49699D01*
X287159Y40250D02*
X284797Y41825D01*
Y40250D01*
X285978Y50289D02*
Y50683D01*
X285781Y51077D01*
X285388Y51274D01*
X284994Y51077D01*
X284797Y50683D01*
Y50289D01*
X284994Y49896D01*
X285388Y49699D01*
X285781Y49896D01*
X285978Y50289D01*
X286175Y49896D01*
X286569Y49699D01*
X286963Y49896D01*
X287159Y50289D01*
Y50683D01*
X286963Y51077D01*
X286569Y51274D01*
X286175Y51077D01*
X285978Y50683D01*
X342159Y40644D02*
Y41431D01*
Y41037D02*
X339797D01*
X340191Y40644D01*
X342159Y51274D02*
Y49699D01*
X340781Y51077D01*
X340388Y51274D01*
X339994Y51077D01*
X339797Y50683D01*
Y50093D01*
X339994Y49699D01*
X409659Y40250D02*
X407297Y41825D01*
Y40250D01*
X408478Y50289D02*
Y50683D01*
X408281Y51077D01*
X407888Y51274D01*
X407494Y51077D01*
X407297Y50683D01*
Y50289D01*
X407494Y49896D01*
X407888Y49699D01*
X408281Y49896D01*
X408478Y50289D01*
X408675Y49896D01*
X409069Y49699D01*
X409463Y49896D01*
X409659Y50289D01*
Y50683D01*
X409463Y51077D01*
X409069Y51274D01*
X408675Y51077D01*
X408478Y50683D01*
X464659Y40644D02*
Y41431D01*
Y41037D02*
X462297D01*
X462691Y40644D01*
X464659Y51274D02*
Y49699D01*
X463281Y51077D01*
X462888Y51274D01*
X462494Y51077D01*
X462297Y50683D01*
Y50093D01*
X462494Y49699D01*
X532159Y40250D02*
X529797Y41825D01*
Y40250D01*
X530978Y50289D02*
Y50683D01*
X530781Y51077D01*
X530388Y51274D01*
X529994Y51077D01*
X529797Y50683D01*
Y50289D01*
X529994Y49896D01*
X530388Y49699D01*
X530781Y49896D01*
X530978Y50289D01*
X531175Y49896D01*
X531569Y49699D01*
X531963Y49896D01*
X532159Y50289D01*
Y50683D01*
X531963Y51077D01*
X531569Y51274D01*
X531175Y51077D01*
X530978Y50683D01*
X587159Y40644D02*
Y41431D01*
Y41037D02*
X584797D01*
X585191Y40644D01*
X587159Y51274D02*
Y49699D01*
X585781Y51077D01*
X585388Y51274D01*
X584994Y51077D01*
X584797Y50683D01*
Y50093D01*
X584994Y49699D01*
X654659Y40250D02*
X652297Y41825D01*
Y40250D01*
X653478Y50289D02*
Y50683D01*
X653281Y51077D01*
X652888Y51274D01*
X652494Y51077D01*
X652297Y50683D01*
Y50289D01*
X652494Y49896D01*
X652888Y49699D01*
X653281Y49896D01*
X653478Y50289D01*
X653675Y49896D01*
X654069Y49699D01*
X654463Y49896D01*
X654659Y50289D01*
Y50683D01*
X654463Y51077D01*
X654069Y51274D01*
X653675Y51077D01*
X653478Y50683D01*
X709659Y40644D02*
Y41431D01*
Y41037D02*
X707297D01*
X707691Y40644D01*
X709659Y51274D02*
Y49699D01*
X708281Y51077D01*
X707888Y51274D01*
X707494Y51077D01*
X707297Y50683D01*
Y50093D01*
X707494Y49699D01*
X777159Y40250D02*
X774797Y41825D01*
Y40250D01*
X775978Y50289D02*
Y50683D01*
X775781Y51077D01*
X775388Y51274D01*
X774994Y51077D01*
X774797Y50683D01*
Y50289D01*
X774994Y49896D01*
X775388Y49699D01*
X775781Y49896D01*
X775978Y50289D01*
X776175Y49896D01*
X776569Y49699D01*
X776963Y49896D01*
X777159Y50289D01*
Y50683D01*
X776963Y51077D01*
X776569Y51274D01*
X776175Y51077D01*
X775978Y50683D01*
X809217Y200250D02*
X809561Y200422D01*
X809733Y200767D01*
Y201456D01*
X809561Y201800D01*
X809217Y201972D01*
X808872Y201800D01*
X808700Y201456D01*
Y200767D01*
X808528Y200422D01*
X808183Y200250D01*
X807839Y200422D01*
X807666Y200767D01*
Y201456D01*
X807839Y201800D01*
X808183Y201972D01*
X809561Y203178D02*
X809733Y203523D01*
Y203867D01*
X809561Y204212D01*
X809217Y204384D01*
X808872Y204212D01*
X808700Y203867D01*
Y203523D01*
Y203867D02*
X808528Y204212D01*
X808183Y204384D01*
X807839Y204212D01*
X807666Y203867D01*
Y203523D01*
X807839Y203178D01*
X809733Y208518D02*
X807666D01*
X808700Y209379D01*
X807666Y210240D01*
X809733D01*
Y211791D02*
Y212480D01*
Y212135D02*
X807666D01*
Y211791D02*
Y212480D01*
X809733Y214030D02*
X807666D01*
X809733Y215752D01*
X807666D01*
X809733Y217302D02*
Y217991D01*
Y217647D02*
X807666D01*
Y217302D02*
Y217991D01*
X832159Y40644D02*
Y41431D01*
Y41037D02*
X829797D01*
X830191Y40644D01*
X832159Y51274D02*
Y49699D01*
X830781Y51077D01*
X830388Y51274D01*
X829994Y51077D01*
X829797Y50683D01*
Y50093D01*
X829994Y49699D01*
X852061Y232922D02*
X852233Y233267D01*
Y233611D01*
X852061Y233956D01*
X851717Y234128D01*
X850683D01*
X850339Y233956D01*
X850166Y233611D01*
Y233267D01*
X850339Y232922D01*
X850683Y232750D01*
X851717D01*
X852061Y232922D01*
X850339Y233956D01*
X855250Y172233D02*
Y170166D01*
X854044D01*
X853700Y170339D01*
X853528Y170683D01*
X853700Y171028D01*
X854044Y171200D01*
X855250D01*
X854044D02*
X853528Y172233D01*
X852494Y171717D02*
X852322Y172061D01*
X851977Y172233D01*
X851288D01*
X850944Y172061D01*
X850772Y171717D01*
X850944Y171372D01*
X851288Y171200D01*
X851977D01*
X852322Y171028D01*
X852494Y170683D01*
X852322Y170339D01*
X851977Y170166D01*
X851288D01*
X850944Y170339D01*
X850772Y170683D01*
X848877Y172233D02*
Y170166D01*
X849738D02*
X848016D01*
D02*
D82*
X425388Y155033D02*
G75*
G03*
Y154246I0J-394D01*
G01*
G75*
G03*
Y155033I0J394D01*
G01*
X730250Y184937D02*
X730563Y181187D01*
X731813Y183063D01*
X733063Y181187D01*
X733375Y184937D01*
X735250Y181187D02*
Y184937D01*
X738375D01*
X737750Y183063D02*
X735250D01*
Y181187D02*
X738375D01*
X740250D02*
Y184937D01*
X741813Y183063D01*
X743375Y184937D01*
Y181187D01*
X745250Y182437D02*
Y183687D01*
X745563Y184313D01*
X745875Y184625D01*
X746500Y184937D01*
X747125D01*
X747750Y184625D01*
X748063Y184313D01*
X748375Y183687D01*
Y182437D01*
X748063Y181813D01*
X747750Y181500D01*
X747125Y181187D01*
X746500D01*
X745875Y181500D01*
X745563Y181813D01*
X745250Y182437D01*
X750250Y182125D02*
X750563Y181500D01*
X751187Y181187D01*
X752437D01*
X753063Y181500D01*
X753375Y182125D01*
X753063Y182750D01*
X752437Y183063D01*
X751187D01*
X750563Y183375D01*
X750250Y184000D01*
X750563Y184625D01*
X751187Y184937D01*
X752437D01*
X753063Y184625D01*
X753375Y184000D01*
X760250Y182125D02*
X760563Y181500D01*
X761187Y181187D01*
X762437D01*
X763063Y181500D01*
X763375Y182125D01*
X763063Y182750D01*
X762437Y183063D01*
X761187D01*
X760563Y183375D01*
X760250Y184000D01*
X760563Y184625D01*
X761187Y184937D01*
X762437D01*
X763063Y184625D01*
X763375Y184000D01*
X765563Y181500D02*
X766187Y181187D01*
X766813D01*
X767437Y181500D01*
X767750Y182125D01*
X767437Y182750D01*
X766813Y183063D01*
X766187D01*
X766813D02*
X767437Y183375D01*
X767750Y184000D01*
X767437Y184625D01*
X766813Y184937D01*
X766187D01*
X765563Y184625D01*
X775250Y181187D02*
Y184937D01*
X776813Y183063D01*
X778375Y184937D01*
Y181187D01*
X781187D02*
X782437D01*
X781813D02*
Y184937D01*
X781187D02*
X782437D01*
X785250Y181187D02*
Y184937D01*
X788375Y181187D01*
Y184937D01*
X791187Y181187D02*
X792437D01*
X791813D02*
Y184937D01*
X791187D02*
X792437D01*
D02*
D106*
X496470Y203104D02*
X424030D01*
Y157396D01*
X496470D01*
Y203104D01*
D02*
D131*
X317337Y145870D02*
G75*
G02*
X318518Y147051I1181J0D01*
G01*
X320486D01*
G75*
G02*
X321667Y145870I0J-1181D01*
G01*
G75*
G02*
X320486Y144689I-1181J0D01*
G01*
X318518D01*
G75*
G02*
X317337Y145870I0J1181D01*
G01*
Y157130D02*
G75*
G02*
X318518Y158311I1181J0D01*
G01*
X320486D01*
G75*
G02*
X321667Y157130I0J-1181D01*
G01*
G75*
G02*
X320486Y155949I-1181J0D01*
G01*
X318518D01*
G75*
G02*
X317337Y157130I0J1181D01*
G01*
X348833Y145870D02*
G75*
G02*
X350014Y147051I1181J0D01*
G01*
X351982D01*
G75*
G02*
X353163Y145870I0J-1181D01*
G01*
G75*
G02*
X351982Y144689I-1181J0D01*
G01*
X350014D01*
G75*
G02*
X348833Y145870I0J1181D01*
G01*
Y157130D02*
G75*
G02*
X350014Y158311I1181J0D01*
G01*
X351982D01*
G75*
G02*
X353163Y157130I0J-1181D01*
G01*
G75*
G02*
X351982Y155949I-1181J0D01*
G01*
X350014D01*
G75*
G02*
X348833Y157130I0J1181D01*
G01*
X0Y0D02*
M02*
