G04 DesignSpark PCB Gerber Version 11.0 Build 5877*
G04 #@! TF.Part,Single*
G04 #@! TF.FileFunction,Copper,L2,Bot*
G04 #@! TF.FilePolarity,Positive*
%FSLAX35Y35*%
%MOIN*%
G04 #@! TA.AperFunction,SMDPad,CuDef*
%ADD133R,0.01181X0.04528*%
G04 #@! TA.AperFunction,ComponentPad*
%ADD113R,0.06000X0.06000*%
G04 #@! TD.AperFunction*
%ADD70C,0.01000*%
%ADD109C,0.01181*%
%ADD19C,0.01200*%
%ADD107C,0.01575*%
G04 #@! TA.AperFunction,ViaPad*
%ADD108C,0.04000*%
G04 #@! TA.AperFunction,ComponentPad*
%ADD116C,0.04331*%
%ADD21C,0.06000*%
G04 #@! TA.AperFunction,WasherPad*
%ADD111C,0.07874*%
G04 #@! TA.AperFunction,ComponentPad*
%ADD112C,0.09843*%
G04 #@! TA.AperFunction,SMDPad,CuDef*
%ADD132R,0.06299X0.03937*%
%ADD90R,0.06000X0.05500*%
G04 #@! TA.AperFunction,WasherPad*
%ADD110C,0.23622*%
G04 #@! TD.AperFunction*
X0Y0D02*
D02*
D19*
X5250Y320250D02*
Y5250D01*
X865250D01*
Y320250D01*
X5250D01*
X6839Y45250D02*
G75*
G02*
X33661I13411J0D01*
G01*
G75*
G02*
X25109Y32750I-13411J0D01*
G01*
G75*
G02*
X33661Y20250I-4859J-12500D01*
G01*
G75*
G02*
X6839I-13411J0D01*
G01*
G75*
G02*
X15391Y32750I13411J0D01*
G01*
G75*
G02*
X6839Y45250I4859J12500D01*
G01*
Y305250D02*
G75*
G02*
X33661I13411J0D01*
G01*
G75*
G02*
X6839I-13411J0D01*
G01*
X10654Y90250D02*
G75*
G02*
X24846I7096J0D01*
G01*
G75*
G02*
X10654I-7096J0D01*
G01*
Y142750D02*
G75*
G02*
X24846I7096J0D01*
G01*
G75*
G02*
X10654I-7096J0D01*
G01*
X11229Y110250D02*
G75*
G02*
X24271I6521J0D01*
G01*
G75*
G02*
X11229I-6521J0D01*
G01*
X10654Y195250D02*
G75*
G02*
X24846I7096J0D01*
G01*
G75*
G02*
X10654I-7096J0D01*
G01*
X11229Y162750D02*
G75*
G02*
X24271I6521J0D01*
G01*
G75*
G02*
X11229I-6521J0D01*
G01*
X10654Y247750D02*
G75*
G02*
X24846I7096J0D01*
G01*
G75*
G02*
X10654I-7096J0D01*
G01*
X11229Y215250D02*
G75*
G02*
X24271I6521J0D01*
G01*
G75*
G02*
X11229I-6521J0D01*
G01*
Y267750D02*
G75*
G02*
X24271I6521J0D01*
G01*
G75*
G02*
X11229I-6521J0D01*
G01*
X36638Y82750D02*
G75*
G02*
X48862I6112J0D01*
G01*
G75*
G02*
X36638I-6112J0D01*
G01*
X834675Y140848D02*
X843100D01*
Y132152D01*
X834675D01*
Y131577D01*
X831962D01*
Y86500D01*
G75*
G02*
X831093Y84404I-2962J0D01*
G01*
X807346Y60657D01*
G75*
G02*
X805250Y59788I-2096J2093D01*
G01*
X791477D01*
X790712Y59023D01*
Y54493D01*
G75*
G02*
X792750Y51583I-2962J-4243D01*
G01*
G75*
G02*
X802750I5000J-1334D01*
G01*
G75*
G02*
X812750I5000J-1334D01*
G01*
G75*
G02*
X822925Y50250I5000J-1333D01*
G01*
G75*
G02*
X819083Y45250I-5175J0D01*
G01*
G75*
G02*
X822925Y40250I-1333J-5000D01*
G01*
G75*
G02*
X812750Y38917I-5175J0D01*
G01*
G75*
G02*
X802750I-5000J1334D01*
G01*
G75*
G02*
X792575Y40250I-5000J1333D01*
G01*
G75*
G02*
X796417Y45250I5175J0D01*
G01*
G75*
G02*
X792750Y48917I1334J5000D01*
G01*
G75*
G02*
X782575Y50250I-5000J1333D01*
G01*
G75*
G02*
X784788Y54493I5175J0D01*
G01*
Y59023D01*
X784023Y59788D01*
X668977D01*
X668212Y59023D01*
Y54493D01*
G75*
G02*
X670250Y51583I-2962J-4243D01*
G01*
G75*
G02*
X680250I5000J-1334D01*
G01*
G75*
G02*
X690250I5000J-1334D01*
G01*
G75*
G02*
X700425Y50250I5000J-1333D01*
G01*
G75*
G02*
X696583Y45250I-5175J0D01*
G01*
G75*
G02*
X700425Y40250I-1333J-5000D01*
G01*
G75*
G02*
X690250Y38917I-5175J0D01*
G01*
G75*
G02*
X680250I-5000J1334D01*
G01*
G75*
G02*
X670075Y40250I-5000J1333D01*
G01*
G75*
G02*
X673917Y45250I5175J0D01*
G01*
G75*
G02*
X670250Y48917I1334J5000D01*
G01*
G75*
G02*
X660075Y50250I-5000J1333D01*
G01*
G75*
G02*
X662288Y54493I5175J0D01*
G01*
Y59023D01*
X661523Y59788D01*
X599796D01*
G75*
G02*
X595704I-2046J2962D01*
G01*
X546477D01*
X545712Y59023D01*
Y54493D01*
G75*
G02*
X547750Y51583I-2962J-4243D01*
G01*
G75*
G02*
X557750I5000J-1334D01*
G01*
G75*
G02*
X567750I5000J-1334D01*
G01*
G75*
G02*
X577925Y50250I5000J-1333D01*
G01*
G75*
G02*
X574083Y45250I-5175J0D01*
G01*
G75*
G02*
X577925Y40250I-1333J-5000D01*
G01*
G75*
G02*
X567750Y38917I-5175J0D01*
G01*
G75*
G02*
X557750I-5000J1334D01*
G01*
G75*
G02*
X547575Y40250I-5000J1333D01*
G01*
G75*
G02*
X551417Y45250I5175J0D01*
G01*
G75*
G02*
X547750Y48917I1334J5000D01*
G01*
G75*
G02*
X537575Y50250I-5000J1333D01*
G01*
G75*
G02*
X539788Y54493I5175J0D01*
G01*
Y59023D01*
X539023Y59788D01*
X469796D01*
G75*
G02*
X465704I-2046J2962D01*
G01*
X423977D01*
X423212Y59023D01*
Y54493D01*
G75*
G02*
X425250Y51583I-2962J-4243D01*
G01*
G75*
G02*
X435250I5000J-1334D01*
G01*
G75*
G02*
X445250I5000J-1334D01*
G01*
G75*
G02*
X455425Y50250I5000J-1333D01*
G01*
G75*
G02*
X451583Y45250I-5175J0D01*
G01*
G75*
G02*
X455425Y40250I-1333J-5000D01*
G01*
G75*
G02*
X445250Y38917I-5175J0D01*
G01*
G75*
G02*
X435250I-5000J1334D01*
G01*
G75*
G02*
X425075Y40250I-5000J1333D01*
G01*
G75*
G02*
X428917Y45250I5175J0D01*
G01*
G75*
G02*
X425250Y48917I1334J5000D01*
G01*
G75*
G02*
X415075Y50250I-5000J1333D01*
G01*
G75*
G02*
X417288Y54493I5175J0D01*
G01*
Y59023D01*
X416523Y59788D01*
X301477D01*
X300712Y59023D01*
Y54493D01*
G75*
G02*
X302750Y51583I-2962J-4243D01*
G01*
G75*
G02*
X312750I5000J-1334D01*
G01*
G75*
G02*
X322750I5000J-1334D01*
G01*
G75*
G02*
X332925Y50250I5000J-1333D01*
G01*
G75*
G02*
X329083Y45250I-5175J0D01*
G01*
G75*
G02*
X332925Y40250I-1333J-5000D01*
G01*
G75*
G02*
X322750Y38917I-5175J0D01*
G01*
G75*
G02*
X312750I-5000J1334D01*
G01*
G75*
G02*
X302575Y40250I-5000J1333D01*
G01*
G75*
G02*
X306417Y45250I5175J0D01*
G01*
G75*
G02*
X302750Y48917I1334J5000D01*
G01*
G75*
G02*
X292575Y50250I-5000J1333D01*
G01*
G75*
G02*
X294788Y54493I5175J0D01*
G01*
Y59023D01*
X294023Y59788D01*
X178212D01*
Y54493D01*
G75*
G02*
X180250Y51583I-2962J-4243D01*
G01*
G75*
G02*
X190250I5000J-1334D01*
G01*
G75*
G02*
X200250I5000J-1334D01*
G01*
G75*
G02*
X210425Y50250I5000J-1333D01*
G01*
G75*
G02*
X206583Y45250I-5175J0D01*
G01*
G75*
G02*
X210425Y40250I-1333J-5000D01*
G01*
G75*
G02*
X200250Y38917I-5175J0D01*
G01*
G75*
G02*
X190250I-5000J1334D01*
G01*
G75*
G02*
X180075Y40250I-5000J1333D01*
G01*
G75*
G02*
X183917Y45250I5175J0D01*
G01*
G75*
G02*
X180250Y48917I1334J5000D01*
G01*
G75*
G02*
X170075Y50250I-5000J1333D01*
G01*
G75*
G02*
X172288Y54493I5175J0D01*
G01*
Y59788D01*
X112296D01*
G75*
G02*
X108204I-2046J2962D01*
G01*
X58977D01*
X55712Y56523D01*
Y54493D01*
G75*
G02*
X57750Y51583I-2962J-4243D01*
G01*
G75*
G02*
X67750I5000J-1334D01*
G01*
G75*
G02*
X77750I5000J-1333D01*
G01*
G75*
G02*
X87925Y50250I5000J-1333D01*
G01*
G75*
G02*
X84083Y45250I-5175J0D01*
G01*
G75*
G02*
X87925Y40250I-1333J-5000D01*
G01*
G75*
G02*
X77750Y38917I-5175J0D01*
G01*
G75*
G02*
X67750I-5000J1334D01*
G01*
G75*
G02*
X57575Y40250I-5000J1333D01*
G01*
G75*
G02*
X61417Y45250I5175J0D01*
G01*
G75*
G02*
X57750Y48917I1334J5000D01*
G01*
G75*
G02*
X47575Y50250I-5000J1333D01*
G01*
G75*
G02*
X49788Y54493I5175J0D01*
G01*
Y57750D01*
G75*
G02*
X50657Y59846I2962J0D01*
G01*
X55654Y64843D01*
G75*
G02*
X57750Y65712I2096J-2093D01*
G01*
X64782D01*
G75*
G02*
X64770Y69770I2968J2038D01*
G01*
G75*
G02*
X59150Y72750I-2020J2980D01*
G01*
G75*
G02*
X65159Y75425I3600J0D01*
G01*
X75002D01*
G75*
G02*
X79770Y80730I2748J2325D01*
G01*
G75*
G02*
Y84770I2980J2020D01*
G01*
G75*
G02*
X74184Y87257I-2020J2980D01*
G01*
G75*
G02*
X60654Y90250I-6434J2993D01*
G01*
G75*
G02*
X74846I7096J0D01*
G01*
G75*
G02*
X74835Y89863I-7094J2D01*
G01*
G75*
G02*
X80159Y90425I2915J-2113D01*
G01*
X97502D01*
G75*
G02*
X102659Y95425I2748J2325D01*
G01*
X179142D01*
X193356Y109639D01*
G75*
G02*
X195250Y110425I1894J-1889D01*
G01*
X203928D01*
G75*
G02*
X203356Y110861I1322J2326D01*
G01*
X198361Y115856D01*
G75*
G02*
X197581Y117577I1889J1894D01*
G01*
X175077D01*
Y127923D01*
X215423D01*
Y117577D01*
X204206D01*
X206358Y115425D01*
X289142D01*
X303356Y129639D01*
G75*
G02*
X305250Y130425I1894J-1889D01*
G01*
X416642D01*
X425856Y139639D01*
G75*
G02*
X427750Y140425I1894J-1889D01*
G01*
X471642D01*
X480856Y149639D01*
G75*
G02*
X482750Y150425I1894J-1889D01*
G01*
X525392D01*
X534606Y159639D01*
G75*
G02*
X535178Y160075I1894J-1890D01*
G01*
X482750D01*
G75*
G02*
X480856Y160861I0J2675D01*
G01*
X465861Y175856D01*
G75*
G02*
X465075Y177750I1889J1894D01*
G01*
Y177841D01*
G75*
G02*
X464150Y180250I2675J2409D01*
G01*
G75*
G02*
X471350I3600J0D01*
G01*
G75*
G02*
X470855Y178428I-3600J0D01*
G01*
X483858Y165425D01*
X635341D01*
G75*
G02*
X640498Y160425I2409J-2675D01*
G01*
X685250D01*
G75*
G02*
X686758Y159959I0J-2675D01*
G01*
X675506Y171211D01*
G75*
G02*
X666178Y175075I-2756J6539D01*
G01*
X651501D01*
G75*
G02*
X653862Y170250I-3751J-4825D01*
G01*
G75*
G02*
X641638I-6112J0D01*
G01*
G75*
G02*
X643999Y175075I6112J0D01*
G01*
X629322D01*
G75*
G02*
X615654Y177750I-6572J2675D01*
G01*
G75*
G02*
X629322Y180425I7096J0D01*
G01*
X666178D01*
G75*
G02*
X667547Y182575I6573J-2674D01*
G01*
X642750D01*
G75*
G02*
X640856Y183361I0J2675D01*
G01*
X637562Y186655D01*
G75*
G02*
X634150Y190250I188J3595D01*
G01*
G75*
G02*
X641345Y190438I3600J0D01*
G01*
X643858Y187925D01*
X645002D01*
G75*
G02*
X650159Y192925I2748J2325D01*
G01*
X668363D01*
G75*
G02*
X666229Y197750I4387J4825D01*
G01*
G75*
G02*
X679271I6521J0D01*
G01*
G75*
G02*
X677137Y192925I-6521J0D01*
G01*
X680250D01*
G75*
G02*
X682144Y192139I0J-2675D01*
G01*
X706358Y167925D01*
X736642D01*
X745856Y177139D01*
G75*
G02*
X747750Y177925I1894J-1889D01*
G01*
X802750D01*
G75*
G02*
X804644Y177139I0J-2675D01*
G01*
X809639Y172144D01*
G75*
G02*
X810425Y170250I-1889J-1894D01*
G01*
Y167180D01*
G75*
G02*
X812750Y164083I-2675J-4430D01*
G01*
G75*
G02*
X822750I5000J-1333D01*
G01*
G75*
G02*
X832925Y162750I5000J-1333D01*
G01*
G75*
G02*
X829083Y157750I-5175J0D01*
G01*
G75*
G02*
X830712Y148507I-1333J-5000D01*
G01*
Y146477D01*
X831093Y146096D01*
G75*
G02*
X831962Y144000I-2093J-2096D01*
G01*
Y141423D01*
X834675D01*
Y140848D01*
X836839Y45250D02*
G75*
G02*
X863661I13411J0D01*
G01*
G75*
G02*
X855109Y32750I-13411J0D01*
G01*
G75*
G02*
X863661Y20250I-4859J-12500D01*
G01*
G75*
G02*
X836839I-13411J0D01*
G01*
G75*
G02*
X845391Y32750I13411J0D01*
G01*
G75*
G02*
X836839Y45250I4859J12500D01*
G01*
X783150Y40250D02*
G75*
G02*
X792350I4600J0D01*
G01*
G75*
G02*
X783150I-4600J0D01*
G01*
X714339Y45250D02*
G75*
G02*
X741161I13411J0D01*
G01*
G75*
G02*
X714339I-13411J0D01*
G01*
X741839D02*
G75*
G02*
X768661I13411J0D01*
G01*
G75*
G02*
X741839I-13411J0D01*
G01*
X660650Y40250D02*
G75*
G02*
X669850I4600J0D01*
G01*
G75*
G02*
X660650I-4600J0D01*
G01*
X619339Y45250D02*
G75*
G02*
X646161I13411J0D01*
G01*
G75*
G02*
X619339I-13411J0D01*
G01*
X591839D02*
G75*
G02*
X618661I13411J0D01*
G01*
G75*
G02*
X591839I-13411J0D01*
G01*
X538150Y40250D02*
G75*
G02*
X547350I4600J0D01*
G01*
G75*
G02*
X538150I-4600J0D01*
G01*
X496839Y45250D02*
G75*
G02*
X523661I13411J0D01*
G01*
G75*
G02*
X496839I-13411J0D01*
G01*
X469339D02*
G75*
G02*
X496161I13411J0D01*
G01*
G75*
G02*
X487609Y32750I-13411J0D01*
G01*
G75*
G02*
X496161Y20250I-4859J-12500D01*
G01*
G75*
G02*
X469339I-13411J0D01*
G01*
G75*
G02*
X477891Y32750I13411J0D01*
G01*
G75*
G02*
X469339Y45250I4859J12500D01*
G01*
X415650Y40250D02*
G75*
G02*
X424850I4600J0D01*
G01*
G75*
G02*
X415650I-4600J0D01*
G01*
X346839Y45250D02*
G75*
G02*
X373661I13411J0D01*
G01*
G75*
G02*
X346839I-13411J0D01*
G01*
X374339D02*
G75*
G02*
X401161I13411J0D01*
G01*
G75*
G02*
X392609Y32750I-13411J0D01*
G01*
G75*
G02*
X401161Y20250I-4859J-12500D01*
G01*
G75*
G02*
X374339I-13411J0D01*
G01*
G75*
G02*
X382891Y32750I13411J0D01*
G01*
G75*
G02*
X374339Y45250I4859J12500D01*
G01*
X293150Y40250D02*
G75*
G02*
X302350I4600J0D01*
G01*
G75*
G02*
X293150I-4600J0D01*
G01*
X224339Y45250D02*
G75*
G02*
X251161I13411J0D01*
G01*
G75*
G02*
X224339I-13411J0D01*
G01*
X251839D02*
G75*
G02*
X278661I13411J0D01*
G01*
G75*
G02*
X251839I-13411J0D01*
G01*
X170650Y40250D02*
G75*
G02*
X179850I4600J0D01*
G01*
G75*
G02*
X170650I-4600J0D01*
G01*
X129339Y45250D02*
G75*
G02*
X156161I13411J0D01*
G01*
G75*
G02*
X129339I-13411J0D01*
G01*
X101839D02*
G75*
G02*
X128661I13411J0D01*
G01*
G75*
G02*
X101839I-13411J0D01*
G01*
X48150Y40250D02*
G75*
G02*
X57350I4600J0D01*
G01*
G75*
G02*
X48150I-4600J0D01*
G01*
X36638Y117750D02*
G75*
G02*
X48862I6112J0D01*
G01*
G75*
G02*
X36638I-6112J0D01*
G01*
Y135250D02*
G75*
G02*
X48862I6112J0D01*
G01*
G75*
G02*
X36638I-6112J0D01*
G01*
Y170250D02*
G75*
G02*
X48862I6112J0D01*
G01*
G75*
G02*
X36638I-6112J0D01*
G01*
Y187750D02*
G75*
G02*
X48862I6112J0D01*
G01*
G75*
G02*
X36638I-6112J0D01*
G01*
Y222750D02*
G75*
G02*
X48862I6112J0D01*
G01*
G75*
G02*
X36638I-6112J0D01*
G01*
Y240250D02*
G75*
G02*
X48862I6112J0D01*
G01*
G75*
G02*
X36638I-6112J0D01*
G01*
Y275250D02*
G75*
G02*
X48862I6112J0D01*
G01*
G75*
G02*
X36638I-6112J0D01*
G01*
X67925Y285159D02*
G75*
G02*
X68850Y282750I-2675J-2409D01*
G01*
G75*
G02*
X61650I-3600J0D01*
G01*
G75*
G02*
X61948Y284183I3600J0D01*
G01*
X53002D01*
Y291317D01*
X62498D01*
Y285071D01*
G75*
G02*
X62575Y285159I2754J-2321D01*
G01*
Y298608D01*
X52427D01*
Y306892D01*
X63073D01*
Y305405D01*
G75*
G02*
X64644Y304639I-323J-2656D01*
G01*
X67139Y302144D01*
G75*
G02*
X67925Y300250I-1889J-1894D01*
G01*
Y285159D01*
X60654Y142750D02*
G75*
G02*
X74846I7096J0D01*
G01*
G75*
G02*
X60654I-7096J0D01*
G01*
X61229Y110250D02*
G75*
G02*
X74271I6521J0D01*
G01*
G75*
G02*
X61229I-6521J0D01*
G01*
X60654Y195250D02*
G75*
G02*
X74846I7096J0D01*
G01*
G75*
G02*
X60654I-7096J0D01*
G01*
X61229Y162750D02*
G75*
G02*
X74271I6521J0D01*
G01*
G75*
G02*
X61229I-6521J0D01*
G01*
X60654Y247750D02*
G75*
G02*
X74846I7096J0D01*
G01*
G75*
G02*
X60654I-7096J0D01*
G01*
X61229Y215250D02*
G75*
G02*
X74271I6521J0D01*
G01*
G75*
G02*
X61229I-6521J0D01*
G01*
Y267750D02*
G75*
G02*
X74271I6521J0D01*
G01*
G75*
G02*
X61229I-6521J0D01*
G01*
X87925Y285159D02*
G75*
G02*
X88850Y282750I-2675J-2409D01*
G01*
G75*
G02*
X81650I-3600J0D01*
G01*
G75*
G02*
X81754Y283608I3600J0D01*
G01*
X72427D01*
Y291892D01*
X82575D01*
Y298608D01*
X72427D01*
Y304290D01*
X70861Y305856D01*
G75*
G02*
X70075Y307750I1889J1894D01*
G01*
Y307825D01*
X67077D01*
Y308400D01*
X58652D01*
Y317100D01*
X67077D01*
Y317675D01*
X77423D01*
Y307825D01*
X76458D01*
X77391Y306892D01*
X83073D01*
Y305405D01*
G75*
G02*
X84644Y304639I-323J-2656D01*
G01*
X87139Y302144D01*
G75*
G02*
X87925Y300250I-1889J-1894D01*
G01*
Y285159D01*
X101839Y305250D02*
G75*
G02*
X128661I13411J0D01*
G01*
G75*
G02*
X101839I-13411J0D01*
G01*
X129339D02*
G75*
G02*
X156161I13411J0D01*
G01*
G75*
G02*
X129339I-13411J0D01*
G01*
X215652Y127348D02*
X224848D01*
Y118152D01*
X215652D01*
Y127348D01*
X224339Y305250D02*
G75*
G02*
X251161I13411J0D01*
G01*
G75*
G02*
X224339I-13411J0D01*
G01*
X251839D02*
G75*
G02*
X278661I13411J0D01*
G01*
G75*
G02*
X251839I-13411J0D01*
G01*
X312925Y280159D02*
G75*
G02*
X313850Y277750I-2675J-2409D01*
G01*
G75*
G02*
X306650I-3600J0D01*
G01*
G75*
G02*
X307575Y280159I3600J0D01*
G01*
Y298608D01*
X297427D01*
Y306892D01*
X308073D01*
Y305405D01*
G75*
G02*
X309644Y304639I-323J-2656D01*
G01*
X312139Y302144D01*
G75*
G02*
X312925Y300250I-1889J-1894D01*
G01*
Y280159D01*
X298002Y291317D02*
X307498D01*
Y284183D01*
X298002D01*
Y291317D01*
X332925Y285159D02*
G75*
G02*
X333850Y282750I-2675J-2409D01*
G01*
G75*
G02*
X326650I-3600J0D01*
G01*
G75*
G02*
X326754Y283608I3600J0D01*
G01*
X325425D01*
Y275159D01*
G75*
G02*
X326350Y272750I-2675J-2409D01*
G01*
G75*
G02*
X319150I-3600J0D01*
G01*
G75*
G02*
X320075Y275159I3600J0D01*
G01*
Y283608D01*
X317427D01*
Y291892D01*
X327575D01*
Y298608D01*
X317427D01*
Y306892D01*
X320075D01*
Y307825D01*
X312077D01*
Y308400D01*
X303652D01*
Y317100D01*
X312077D01*
Y317675D01*
X322423D01*
Y314359D01*
X324639Y312144D01*
G75*
G02*
X325425Y310250I-1889J-1894D01*
G01*
Y306892D01*
X328073D01*
Y305405D01*
G75*
G02*
X329644Y304639I-323J-2656D01*
G01*
X332139Y302144D01*
G75*
G02*
X332925Y300250I-1889J-1894D01*
G01*
Y285159D01*
X336571Y192750D02*
G75*
G02*
X343771I3600J0D01*
G01*
G75*
G02*
X343133Y190704I-3600J0D01*
G01*
Y157346D01*
G75*
G02*
X342935Y156281I-2962J0D01*
G01*
Y152907D01*
X342846D01*
Y152671D01*
G75*
G02*
X342556Y151461I-2675J0D01*
G01*
G75*
G02*
X342846Y150250I-2385J-1211D01*
G01*
Y150093D01*
X342935D01*
Y141215D01*
X334972D01*
Y137659D01*
G75*
G02*
X335897Y135250I-2675J-2409D01*
G01*
G75*
G02*
X328697I-3600J0D01*
G01*
G75*
G02*
X329622Y137659I3600J0D01*
G01*
Y141215D01*
X327565D01*
Y150093D01*
X327654D01*
Y150250D01*
G75*
G02*
X327944Y151461I2675J0D01*
G01*
G75*
G02*
X327654Y152671I2385J1211D01*
G01*
Y152907D01*
X327565D01*
Y161785D01*
X334272D01*
G75*
G02*
X331650Y165250I978J3465D01*
G01*
G75*
G02*
X337209Y168270I3600J0D01*
G01*
Y190704D01*
G75*
G02*
X336571Y192750I2962J2046D01*
G01*
X322234Y161211D02*
X326612D01*
Y153482D01*
X322474D01*
G75*
G02*
Y149518I-2972J-1982D01*
G01*
X326612D01*
Y141789D01*
X322234D01*
Y143279D01*
G75*
G02*
X315737Y145870I-2732J2591D01*
G01*
G75*
G02*
X317150Y148811I3765J0D01*
G01*
G75*
G02*
Y154189I2352J2689D01*
G01*
G75*
G02*
X315737Y157130I2352J2941D01*
G01*
G75*
G02*
X322234Y159721I3765J0D01*
G01*
Y161211D01*
X348266Y159721D02*
G75*
G02*
X354763Y157130I2732J-2591D01*
G01*
G75*
G02*
X353350Y154189I-3765J0D01*
G01*
G75*
G02*
Y148811I-2352J-2689D01*
G01*
G75*
G02*
X354763Y145870I-2352J-2941D01*
G01*
G75*
G02*
X348266Y143279I-3765J0D01*
G01*
Y141789D01*
X343888D01*
Y149518D01*
X348026D01*
G75*
G02*
Y153482I2972J1982D01*
G01*
X343888D01*
Y161211D01*
X348266D01*
Y159721D01*
X346839Y305250D02*
G75*
G02*
X373661I13411J0D01*
G01*
G75*
G02*
X346839I-13411J0D01*
G01*
X374339D02*
G75*
G02*
X401161I13411J0D01*
G01*
G75*
G02*
X374339I-13411J0D01*
G01*
X469339D02*
G75*
G02*
X496161I13411J0D01*
G01*
G75*
G02*
X469339I-13411J0D01*
G01*
X530341Y209175D02*
G75*
G02*
X536350Y206500I2409J-2675D01*
G01*
G75*
G02*
X530341Y203825I-3600J0D01*
G01*
X495159D01*
G75*
G02*
X489770Y208520I-2409J2675D01*
G01*
G75*
G02*
X485002Y213825I-2020J2980D01*
G01*
X478909D01*
G75*
G02*
X472900Y216500I-2409J2675D01*
G01*
G75*
G02*
X478909Y219175I3600J0D01*
G01*
X507841D01*
G75*
G02*
X512998Y214175I2409J-2675D01*
G01*
X519091D01*
G75*
G02*
X524248Y209175I2409J-2675D01*
G01*
X530341D01*
X496839Y305250D02*
G75*
G02*
X523661I13411J0D01*
G01*
G75*
G02*
X496839I-13411J0D01*
G01*
X557925Y280159D02*
G75*
G02*
X558850Y277750I-2675J-2409D01*
G01*
G75*
G02*
X551650I-3600J0D01*
G01*
G75*
G02*
X552575Y280159I3600J0D01*
G01*
Y298608D01*
X542427D01*
Y306892D01*
X553073D01*
Y305405D01*
G75*
G02*
X554644Y304639I-323J-2656D01*
G01*
X557139Y302144D01*
G75*
G02*
X557925Y300250I-1889J-1894D01*
G01*
Y280159D01*
X555077Y192923D02*
X585423D01*
Y182577D01*
X555077D01*
Y192923D01*
X543002Y291317D02*
X552498D01*
Y284183D01*
X543002D01*
Y291317D01*
X577925Y285159D02*
G75*
G02*
X578850Y282750I-2675J-2409D01*
G01*
G75*
G02*
X571650I-3600J0D01*
G01*
G75*
G02*
X571754Y283608I3600J0D01*
G01*
X570425D01*
Y275159D01*
G75*
G02*
X571350Y272750I-2675J-2409D01*
G01*
G75*
G02*
X564150I-3600J0D01*
G01*
G75*
G02*
X565075Y275159I3600J0D01*
G01*
Y283608D01*
X562427D01*
Y291892D01*
X572575D01*
Y298608D01*
X562427D01*
Y306892D01*
X565075D01*
Y307825D01*
X557077D01*
Y308400D01*
X548652D01*
Y317100D01*
X557077D01*
Y317675D01*
X567423D01*
Y314359D01*
X569639Y312144D01*
G75*
G02*
X570425Y310250I-1889J-1894D01*
G01*
Y306892D01*
X573073D01*
Y305405D01*
G75*
G02*
X574644Y304639I-323J-2656D01*
G01*
X577139Y302144D01*
G75*
G02*
X577925Y300250I-1889J-1894D01*
G01*
Y285159D01*
X585652Y192348D02*
X594848D01*
Y183152D01*
X585652D01*
Y192348D01*
X591839Y305250D02*
G75*
G02*
X618661I13411J0D01*
G01*
G75*
G02*
X591839I-13411J0D01*
G01*
X822575Y242750D02*
G75*
G02*
X832925I5175J0D01*
G01*
G75*
G02*
X829083Y237750I-5175J0D01*
G01*
G75*
G02*
X826509Y227726I-1333J-5000D01*
G01*
X792144Y193361D01*
G75*
G02*
X790250Y192575I-1894J1889D01*
G01*
X700250D01*
G75*
G02*
X698356Y193361I0J2675D01*
G01*
X686642Y205075D01*
X655250D01*
G75*
G02*
X653858Y205466I0J2675D01*
G01*
G75*
G02*
X653862Y205250I-6116J-220D01*
G01*
G75*
G02*
X641638I-6112J0D01*
G01*
G75*
G02*
X647856Y211361I6112J0D01*
G01*
X645861Y213356D01*
G75*
G02*
X645075Y215250I1889J1894D01*
G01*
Y220077D01*
X612577D01*
Y230423D01*
X662923D01*
Y220077D01*
X660425D01*
Y216358D01*
X661358Y215425D01*
X690250D01*
G75*
G02*
X692144Y214639I0J-2675D01*
G01*
X703858Y202925D01*
X705002D01*
G75*
G02*
X704770Y207270I2748J2325D01*
G01*
G75*
G02*
X699770Y212270I-2020J2980D01*
G01*
G75*
G02*
X694770Y217270I-2020J2980D01*
G01*
G75*
G02*
X689770Y222270I-2020J2980D01*
G01*
G75*
G02*
X684770Y227270I-2020J2980D01*
G01*
G75*
G02*
X679150Y230250I-2020J2980D01*
G01*
G75*
G02*
X685159Y232925I3600J0D01*
G01*
X734142D01*
X750856Y249639D01*
G75*
G02*
X752750Y250425I1894J-1889D01*
G01*
X772750D01*
G75*
G02*
X774644Y249639I0J-2675D01*
G01*
X776509Y247774D01*
G75*
G02*
X782750Y244083I1241J-5024D01*
G01*
G75*
G02*
X792750I5000J-1333D01*
G01*
G75*
G02*
X802750I5000J-1333D01*
G01*
G75*
G02*
X812925Y242750I5000J-1333D01*
G01*
G75*
G02*
X809083Y237750I-5175J0D01*
G01*
G75*
G02*
X807750Y227575I-1333J-5000D01*
G01*
G75*
G02*
X802750Y231417I0J5175D01*
G01*
G75*
G02*
X800425Y228320I-5000J1333D01*
G01*
Y222750D01*
G75*
G02*
X799639Y220856I-2675J0D01*
G01*
X782144Y203361D01*
G75*
G02*
X780250Y202575I-1894J1889D01*
G01*
X772998D01*
G75*
G02*
Y197925I-2748J-2325D01*
G01*
X789142D01*
X819901Y228684D01*
G75*
G02*
X813150Y232750I-2151J4066D01*
G01*
G75*
G02*
X817750Y237350I4600J0D01*
G01*
G75*
G02*
X821816Y230599I0J-4600D01*
G01*
X822726Y231509D01*
G75*
G02*
X826417Y237750I5024J1241D01*
G01*
G75*
G02*
X822575Y242750I1333J5000D01*
G01*
X616229Y197750D02*
G75*
G02*
X629271I6521J0D01*
G01*
G75*
G02*
X616229I-6521J0D01*
G01*
X619339Y305250D02*
G75*
G02*
X646161I13411J0D01*
G01*
G75*
G02*
X619339I-13411J0D01*
G01*
X663152Y229848D02*
X672348D01*
Y220652D01*
X663152D01*
Y229848D01*
X714339Y305250D02*
G75*
G02*
X741161I13411J0D01*
G01*
G75*
G02*
X714339I-13411J0D01*
G01*
X741839D02*
G75*
G02*
X768661I13411J0D01*
G01*
G75*
G02*
X741839I-13411J0D01*
G01*
X787427Y306892D02*
X798073D01*
Y298608D01*
X787925D01*
Y255159D01*
G75*
G02*
X788850Y252750I-2675J-2409D01*
G01*
G75*
G02*
X781650I-3600J0D01*
G01*
G75*
G02*
X782575Y255159I3600J0D01*
G01*
Y300250D01*
G75*
G02*
X783361Y302144I2675J0D01*
G01*
X785856Y304639D01*
G75*
G02*
X787427Y305405I1894J-1889D01*
G01*
Y306892D01*
X788002Y291317D02*
X797498D01*
Y284183D01*
X788002D01*
Y291317D01*
X822925Y285159D02*
G75*
G02*
X823850Y282750I-2675J-2409D01*
G01*
G75*
G02*
X816650I-3600J0D01*
G01*
G75*
G02*
X816754Y283608I3600J0D01*
G01*
X815425D01*
Y280159D01*
G75*
G02*
X816350Y277750I-2675J-2409D01*
G01*
G75*
G02*
X809150I-3600J0D01*
G01*
G75*
G02*
X810075Y280159I3600J0D01*
G01*
Y283608D01*
X807427D01*
Y291892D01*
X817575D01*
Y298608D01*
X807427D01*
Y306892D01*
X810075D01*
Y307825D01*
X802077D01*
Y308400D01*
X793652D01*
Y317100D01*
X802077D01*
Y317675D01*
X812423D01*
Y314359D01*
X814639Y312144D01*
G75*
G02*
X815425Y310250I-1889J-1894D01*
G01*
Y306892D01*
X818073D01*
Y305405D01*
G75*
G02*
X819644Y304639I-323J-2656D01*
G01*
X822139Y302144D01*
G75*
G02*
X822925Y300250I-1889J-1894D01*
G01*
Y285159D01*
X817750Y247350D02*
G75*
G02*
X822350Y242750I0J-4600D01*
G01*
G75*
G02*
X817750Y238150I-4600J0D01*
G01*
G75*
G02*
X813150Y242750I0J4600D01*
G01*
G75*
G02*
X817750Y247350I4600J0D01*
G01*
X836839Y305250D02*
G75*
G02*
X863661I13411J0D01*
G01*
G75*
G02*
X836839I-13411J0D01*
G01*
X5850Y32750D02*
G36*
X5850Y32750D02*
Y5850D01*
X864650D01*
Y32750D01*
X855109D01*
G75*
G02*
X863661Y20250I-4860J-12501D01*
G01*
G75*
G02*
X836839I-13411J0D01*
G01*
Y20250D01*
G75*
G02*
X845391Y32750I13411J0D01*
G01*
X760109D01*
G75*
G02*
X750391I-4859J12500D01*
G01*
X732609D01*
G75*
G02*
X722891I-4859J12500D01*
G01*
X637609D01*
G75*
G02*
X627891I-4859J12500D01*
G01*
X610109D01*
G75*
G02*
X600391I-4859J12500D01*
G01*
X515109D01*
G75*
G02*
X505391I-4859J12500D01*
G01*
X487609D01*
G75*
G02*
X496161Y20250I-4860J-12501D01*
G01*
G75*
G02*
X469339I-13411J0D01*
G01*
Y20250D01*
G75*
G02*
X477891Y32750I13411J0D01*
G01*
X392609D01*
G75*
G02*
X401161Y20250I-4860J-12501D01*
G01*
G75*
G02*
X374339I-13411J0D01*
G01*
Y20250D01*
G75*
G02*
X382891Y32750I13411J0D01*
G01*
X365109D01*
G75*
G02*
X355391I-4859J12500D01*
G01*
X270109D01*
G75*
G02*
X260391I-4859J12500D01*
G01*
X242609D01*
G75*
G02*
X232891I-4859J12500D01*
G01*
X147609D01*
G75*
G02*
X137891I-4859J12500D01*
G01*
X120109D01*
G75*
G02*
X110391I-4859J12500D01*
G01*
X25109D01*
G75*
G02*
X33661Y20250I-4860J-12501D01*
G01*
G75*
G02*
X6839I-13411J0D01*
G01*
Y20250D01*
G75*
G02*
X15391Y32750I13411J0D01*
G01*
X5850D01*
G37*
Y40250D02*
G36*
X5850Y40250D02*
Y32750D01*
X15391D01*
G75*
G02*
X7806Y40250I4859J12501D01*
G01*
X5850D01*
G37*
X32694D02*
G36*
X32694Y40250D02*
G75*
G02*
X25109Y32750I-12444J5000D01*
G01*
X110391D01*
G75*
G02*
X102806Y40250I4859J12500D01*
G01*
X87925D01*
G75*
G02*
X77750Y38917I-5175J0D01*
G01*
G75*
G02*
X67750I-5000J1333D01*
G01*
G75*
G02*
X57575Y40250I-5000J1334D01*
G01*
X57350D01*
G75*
G02*
X48150I-4600J0D01*
G01*
X32694D01*
G37*
X127694D02*
G36*
X127694Y40250D02*
G75*
G02*
X120109Y32750I-12444J5000D01*
G01*
X137891D01*
G75*
G02*
X130306Y40250I4859J12500D01*
G01*
X127694D01*
G37*
X155194D02*
G36*
X155194Y40250D02*
G75*
G02*
X147609Y32750I-12444J5000D01*
G01*
X232891D01*
G75*
G02*
X225306Y40250I4859J12500D01*
G01*
X210425D01*
G75*
G02*
X200250Y38917I-5175J0D01*
G01*
G75*
G02*
X190250I-5000J1333D01*
G01*
G75*
G02*
X180075Y40250I-5000J1334D01*
G01*
X179850D01*
G75*
G02*
X170650I-4600J0D01*
G01*
X155194D01*
G37*
X250194D02*
G36*
X250194Y40250D02*
G75*
G02*
X242609Y32750I-12444J5000D01*
G01*
X260391D01*
G75*
G02*
X252806Y40250I4859J12500D01*
G01*
X250194D01*
G37*
X277694D02*
G36*
X277694Y40250D02*
G75*
G02*
X270109Y32750I-12444J5000D01*
G01*
X355391D01*
G75*
G02*
X347806Y40250I4859J12500D01*
G01*
X332925D01*
G75*
G02*
X322750Y38917I-5175J0D01*
G01*
G75*
G02*
X312750I-5000J1333D01*
G01*
G75*
G02*
X302575Y40250I-5000J1334D01*
G01*
X302350D01*
G75*
G02*
X293150I-4600J0D01*
G01*
X277694D01*
G37*
X372694D02*
G36*
X372694Y40250D02*
G75*
G02*
X365109Y32750I-12444J5000D01*
G01*
X382891D01*
G75*
G02*
X375306Y40250I4859J12501D01*
G01*
X372694D01*
G37*
X400194D02*
G36*
X400194Y40250D02*
G75*
G02*
X392609Y32750I-12444J5000D01*
G01*
X477891D01*
G75*
G02*
X470306Y40250I4859J12501D01*
G01*
X455425D01*
G75*
G02*
X445250Y38917I-5175J0D01*
G01*
G75*
G02*
X435250I-5000J1333D01*
G01*
G75*
G02*
X425075Y40250I-5000J1334D01*
G01*
X424850D01*
G75*
G02*
X415650I-4600J0D01*
G01*
X400194D01*
G37*
X495194D02*
G36*
X495194Y40250D02*
G75*
G02*
X487609Y32750I-12444J5000D01*
G01*
X505391D01*
G75*
G02*
X497806Y40250I4859J12500D01*
G01*
X495194D01*
G37*
X522694D02*
G36*
X522694Y40250D02*
G75*
G02*
X515109Y32750I-12444J5000D01*
G01*
X600391D01*
G75*
G02*
X592806Y40250I4859J12500D01*
G01*
X577925D01*
G75*
G02*
X567750Y38917I-5175J0D01*
G01*
G75*
G02*
X557750I-5000J1333D01*
G01*
G75*
G02*
X547575Y40250I-5000J1334D01*
G01*
X547350D01*
G75*
G02*
X538150I-4600J0D01*
G01*
X522694D01*
G37*
X617694D02*
G36*
X617694Y40250D02*
G75*
G02*
X610109Y32750I-12444J5000D01*
G01*
X627891D01*
G75*
G02*
X620306Y40250I4859J12500D01*
G01*
X617694D01*
G37*
X645194D02*
G36*
X645194Y40250D02*
G75*
G02*
X637609Y32750I-12444J5000D01*
G01*
X722891D01*
G75*
G02*
X715306Y40250I4859J12500D01*
G01*
X700425D01*
G75*
G02*
X690250Y38917I-5175J0D01*
G01*
G75*
G02*
X680250I-5000J1333D01*
G01*
G75*
G02*
X670075Y40250I-5000J1334D01*
G01*
X669850D01*
G75*
G02*
X660650I-4600J0D01*
G01*
X645194D01*
G37*
X740194D02*
G36*
X740194Y40250D02*
G75*
G02*
X732609Y32750I-12444J5000D01*
G01*
X750391D01*
G75*
G02*
X742806Y40250I4859J12500D01*
G01*
X740194D01*
G37*
X767694D02*
G36*
X767694Y40250D02*
G75*
G02*
X760109Y32750I-12444J5000D01*
G01*
X845391D01*
G75*
G02*
X837806Y40250I4859J12501D01*
G01*
X822925D01*
G75*
G02*
X812750Y38917I-5175J0D01*
G01*
G75*
G02*
X802750I-5000J1333D01*
G01*
G75*
G02*
X792575Y40250I-5000J1334D01*
G01*
X792350D01*
G75*
G02*
X783150I-4600J0D01*
G01*
X767694D01*
G37*
X862694D02*
G36*
X862694Y40250D02*
G75*
G02*
X855109Y32750I-12444J5000D01*
G01*
X864650D01*
Y40250D01*
X862694D01*
G37*
X5850Y82750D02*
G36*
X5850Y82750D02*
Y40250D01*
X7806D01*
G75*
G02*
X6839Y45250I12445J5000D01*
G01*
G75*
G02*
X33661I13411J0D01*
G01*
Y45250D01*
G75*
G02*
X32694Y40250I-13411J0D01*
G01*
X48150D01*
G75*
G02*
X57350I4600J0D01*
G01*
X57575D01*
G75*
G02*
X61417Y45250I5176J0D01*
G01*
G75*
G02*
X57750Y48917I1334J5000D01*
G01*
G75*
G02*
X47575Y50250I-5000J1334D01*
G01*
Y50250D01*
G75*
G02*
X49788Y54493I5174J0D01*
G01*
Y57750D01*
G75*
G02*
X50657Y59846I2962J0D01*
G01*
X55654Y64843D01*
G75*
G02*
X57750Y65712I2096J-2093D01*
G01*
X64782D01*
G75*
G02*
X64150Y67750I2968J2038D01*
G01*
G75*
G02*
X64770Y69770I3600J0D01*
G01*
G75*
G02*
X59150Y72750I-2020J2980D01*
G01*
G75*
G02*
X65159Y75425I3600J0D01*
G01*
X75002D01*
G75*
G02*
X74150Y77750I2749J2325D01*
G01*
G75*
G02*
X79770Y80730I3600J0D01*
G01*
G75*
G02*
X79150Y82750I2980J2020D01*
G01*
X48862D01*
G75*
G02*
X36638I-6112J0D01*
G01*
X5850D01*
G37*
X55712Y56523D02*
G36*
X55712Y56523D02*
Y54493D01*
G75*
G02*
X57750Y51583I-2962J-4243D01*
G01*
G75*
G02*
X67750I5000J-1333D01*
G01*
G75*
G02*
X77750I5000J-1333D01*
G01*
G75*
G02*
X87925Y50250I5000J-1334D01*
G01*
G75*
G02*
X84083Y45250I-5176J0D01*
G01*
G75*
G02*
X87925Y40250I-1333J-5000D01*
G01*
X102806D01*
G75*
G02*
X101839Y45250I12444J5000D01*
G01*
G75*
G02*
X128661I13411J0D01*
G01*
G75*
G02*
X127694Y40250I-13411J0D01*
G01*
X130306D01*
G75*
G02*
X129339Y45250I12444J5000D01*
G01*
G75*
G02*
X156161I13411J0D01*
G01*
G75*
G02*
X155194Y40250I-13411J0D01*
G01*
X170650D01*
G75*
G02*
X179850I4600J0D01*
G01*
X180075D01*
G75*
G02*
X183917Y45250I5176J0D01*
G01*
G75*
G02*
X180250Y48917I1334J5000D01*
G01*
G75*
G02*
X170075Y50250I-5000J1334D01*
G01*
Y50250D01*
G75*
G02*
X172288Y54493I5174J0D01*
G01*
Y59788D01*
X112296D01*
G75*
G02*
X108204I-2046J2962D01*
G01*
X58977D01*
X55712Y56523D01*
G37*
X178212Y59788D02*
G36*
X178212Y59788D02*
Y54493D01*
G75*
G02*
X180250Y51583I-2962J-4243D01*
G01*
G75*
G02*
X190250I5000J-1333D01*
G01*
G75*
G02*
X200250I5000J-1333D01*
G01*
G75*
G02*
X210425Y50250I5000J-1334D01*
G01*
G75*
G02*
X206583Y45250I-5176J0D01*
G01*
G75*
G02*
X210425Y40250I-1333J-5000D01*
G01*
X225306D01*
G75*
G02*
X224339Y45250I12444J5000D01*
G01*
G75*
G02*
X251161I13411J0D01*
G01*
G75*
G02*
X250194Y40250I-13411J0D01*
G01*
X252806D01*
G75*
G02*
X251839Y45250I12444J5000D01*
G01*
G75*
G02*
X278661I13411J0D01*
G01*
G75*
G02*
X277694Y40250I-13411J0D01*
G01*
X293150D01*
G75*
G02*
X302350I4600J0D01*
G01*
X302575D01*
G75*
G02*
X306417Y45250I5176J0D01*
G01*
G75*
G02*
X302750Y48917I1334J5000D01*
G01*
G75*
G02*
X292575Y50250I-5000J1334D01*
G01*
Y50250D01*
G75*
G02*
X294788Y54493I5174J0D01*
G01*
Y59023D01*
X294023Y59788D01*
X178212D01*
G37*
X300712Y59023D02*
G36*
X300712Y59023D02*
Y54493D01*
G75*
G02*
X302750Y51583I-2962J-4243D01*
G01*
G75*
G02*
X312750I5000J-1333D01*
G01*
G75*
G02*
X322750I5000J-1333D01*
G01*
G75*
G02*
X332925Y50250I5000J-1334D01*
G01*
G75*
G02*
X329083Y45250I-5176J0D01*
G01*
G75*
G02*
X332925Y40250I-1333J-5000D01*
G01*
X347806D01*
G75*
G02*
X346839Y45250I12444J5000D01*
G01*
G75*
G02*
X373661I13411J0D01*
G01*
G75*
G02*
X372694Y40250I-13411J0D01*
G01*
X375306D01*
G75*
G02*
X374339Y45250I12445J5000D01*
G01*
G75*
G02*
X401161I13411J0D01*
G01*
Y45250D01*
G75*
G02*
X400194Y40250I-13411J0D01*
G01*
X415650D01*
G75*
G02*
X424850I4600J0D01*
G01*
X425075D01*
G75*
G02*
X428917Y45250I5176J0D01*
G01*
G75*
G02*
X425250Y48917I1334J5000D01*
G01*
G75*
G02*
X415075Y50250I-5000J1334D01*
G01*
Y50250D01*
G75*
G02*
X417288Y54493I5174J0D01*
G01*
Y59023D01*
X416523Y59788D01*
X301477D01*
X300712Y59023D01*
G37*
X423212D02*
G36*
X423212Y59023D02*
Y54493D01*
G75*
G02*
X425250Y51583I-2962J-4243D01*
G01*
G75*
G02*
X435250I5000J-1333D01*
G01*
G75*
G02*
X445250I5000J-1333D01*
G01*
G75*
G02*
X455425Y50250I5000J-1334D01*
G01*
G75*
G02*
X451583Y45250I-5176J0D01*
G01*
G75*
G02*
X455425Y40250I-1333J-5000D01*
G01*
X470306D01*
G75*
G02*
X469339Y45250I12445J5000D01*
G01*
G75*
G02*
X496161I13411J0D01*
G01*
Y45250D01*
G75*
G02*
X495194Y40250I-13411J0D01*
G01*
X497806D01*
G75*
G02*
X496839Y45250I12444J5000D01*
G01*
G75*
G02*
X523661I13411J0D01*
G01*
G75*
G02*
X522694Y40250I-13411J0D01*
G01*
X538150D01*
G75*
G02*
X547350I4600J0D01*
G01*
X547575D01*
G75*
G02*
X551417Y45250I5176J0D01*
G01*
G75*
G02*
X547750Y48917I1334J5000D01*
G01*
G75*
G02*
X537575Y50250I-5000J1334D01*
G01*
Y50250D01*
G75*
G02*
X539788Y54493I5174J0D01*
G01*
Y59023D01*
X539023Y59788D01*
X469796D01*
G75*
G02*
X465704I-2046J2962D01*
G01*
X423977D01*
X423212Y59023D01*
G37*
X545712D02*
G36*
X545712Y59023D02*
Y54493D01*
G75*
G02*
X547750Y51583I-2962J-4243D01*
G01*
G75*
G02*
X557750I5000J-1333D01*
G01*
G75*
G02*
X567750I5000J-1333D01*
G01*
G75*
G02*
X577925Y50250I5000J-1334D01*
G01*
G75*
G02*
X574083Y45250I-5176J0D01*
G01*
G75*
G02*
X577925Y40250I-1333J-5000D01*
G01*
X592806D01*
G75*
G02*
X591839Y45250I12444J5000D01*
G01*
G75*
G02*
X618661I13411J0D01*
G01*
G75*
G02*
X617694Y40250I-13411J0D01*
G01*
X620306D01*
G75*
G02*
X619339Y45250I12444J5000D01*
G01*
G75*
G02*
X646161I13411J0D01*
G01*
G75*
G02*
X645194Y40250I-13411J0D01*
G01*
X660650D01*
G75*
G02*
X669850I4600J0D01*
G01*
X670075D01*
G75*
G02*
X673917Y45250I5176J0D01*
G01*
G75*
G02*
X670250Y48917I1334J5000D01*
G01*
G75*
G02*
X660075Y50250I-5000J1334D01*
G01*
Y50250D01*
G75*
G02*
X662288Y54493I5174J0D01*
G01*
Y59023D01*
X661523Y59788D01*
X599796D01*
G75*
G02*
X595704I-2046J2962D01*
G01*
X546477D01*
X545712Y59023D01*
G37*
X668212D02*
G36*
X668212Y59023D02*
Y54493D01*
G75*
G02*
X670250Y51583I-2962J-4243D01*
G01*
G75*
G02*
X680250I5000J-1333D01*
G01*
G75*
G02*
X690250I5000J-1333D01*
G01*
G75*
G02*
X700425Y50250I5000J-1334D01*
G01*
G75*
G02*
X696583Y45250I-5176J0D01*
G01*
G75*
G02*
X700425Y40250I-1333J-5000D01*
G01*
X715306D01*
G75*
G02*
X714339Y45250I12444J5000D01*
G01*
G75*
G02*
X741161I13411J0D01*
G01*
G75*
G02*
X740194Y40250I-13411J0D01*
G01*
X742806D01*
G75*
G02*
X741839Y45250I12444J5000D01*
G01*
G75*
G02*
X768661I13411J0D01*
G01*
G75*
G02*
X767694Y40250I-13411J0D01*
G01*
X783150D01*
G75*
G02*
X792350I4600J0D01*
G01*
X792575D01*
G75*
G02*
X796417Y45250I5176J0D01*
G01*
G75*
G02*
X792750Y48917I1334J5000D01*
G01*
G75*
G02*
X782575Y50250I-5000J1334D01*
G01*
Y50250D01*
G75*
G02*
X784788Y54493I5174J0D01*
G01*
Y59023D01*
X784023Y59788D01*
X668977D01*
X668212Y59023D01*
G37*
X790712D02*
G36*
X790712Y59023D02*
Y54493D01*
G75*
G02*
X792750Y51583I-2962J-4243D01*
G01*
G75*
G02*
X802750I5000J-1333D01*
G01*
G75*
G02*
X812750I5000J-1333D01*
G01*
G75*
G02*
X822925Y50250I5000J-1334D01*
G01*
G75*
G02*
X819083Y45250I-5176J0D01*
G01*
G75*
G02*
X822925Y40250I-1333J-5000D01*
G01*
X837806D01*
G75*
G02*
X836839Y45250I12445J5000D01*
G01*
G75*
G02*
X863661I13411J0D01*
G01*
Y45250D01*
G75*
G02*
X862694Y40250I-13411J0D01*
G01*
X864650D01*
Y82750D01*
X829439D01*
X807346Y60657D01*
G75*
G02*
X805250Y59788I-2096J2093D01*
G01*
X791477D01*
X790712Y59023D01*
G37*
X5850Y90250D02*
G36*
X5850Y90250D02*
Y82750D01*
X36638D01*
G75*
G02*
X48862I6112J0D01*
G01*
X79150D01*
G75*
G02*
X79770Y84770I3600J0D01*
G01*
G75*
G02*
X74184Y87257I-2020J2980D01*
G01*
G75*
G02*
X60654Y90250I-6434J2993D01*
G01*
X24846D01*
G75*
G02*
X10654I-7096J0D01*
G01*
X5850D01*
G37*
X74846D02*
G36*
X74846Y90250D02*
G75*
G02*
X74835Y89863I-7312J7D01*
G01*
G75*
G02*
X75159Y90250I2915J-2114D01*
G01*
X74846D01*
G37*
X831093Y84404D02*
G36*
X831093Y84404D02*
X829439Y82750D01*
X864650D01*
Y90250D01*
X831962D01*
Y86500D01*
G75*
G02*
X831093Y84404I-2962J0D01*
G01*
G37*
X5850Y110250D02*
G36*
X5850Y110250D02*
Y90250D01*
X10654D01*
G75*
G02*
X24846I7096J0D01*
G01*
X60654D01*
G75*
G02*
X74846I7096J0D01*
G01*
X75159D01*
G75*
G02*
X80159Y90425I2591J-2500D01*
G01*
X97502D01*
G75*
G02*
X96650Y92750I2748J2325D01*
G01*
G75*
G02*
X102659Y95425I3600J0D01*
G01*
X179142D01*
X193356Y109639D01*
G75*
G02*
X194299Y110250I1894J-1890D01*
G01*
X74271D01*
G75*
G02*
X61229I-6521J0D01*
G01*
X24271D01*
G75*
G02*
X11229I-6521J0D01*
G01*
X5850D01*
G37*
X831962D02*
G36*
X831962Y110250D02*
Y90250D01*
X864650D01*
Y110250D01*
X831962D01*
G37*
X5850Y117750D02*
G36*
X5850Y117750D02*
Y110250D01*
X11229D01*
G75*
G02*
X24271I6521J0D01*
G01*
X61229D01*
G75*
G02*
X74271I6521J0D01*
G01*
X194299D01*
G75*
G02*
X195250Y110425I951J-2500D01*
G01*
X203928D01*
G75*
G02*
X203356Y110861I1329J2334D01*
G01*
X198361Y115856D01*
G75*
G02*
X197581Y117577I1887J1893D01*
G01*
X175077D01*
Y117750D01*
X48862D01*
G75*
G02*
X36638I-6112J0D01*
G01*
X5850D01*
G37*
X204206Y117577D02*
G36*
X204206Y117577D02*
X206358Y115425D01*
X289142D01*
X291467Y117750D01*
X215423D01*
Y117577D01*
X204206D01*
G37*
X831962Y117750D02*
G36*
X831962Y117750D02*
Y110250D01*
X864650D01*
Y117750D01*
X831962D01*
G37*
X5850Y122750D02*
G36*
X5850Y122750D02*
Y117750D01*
X36638D01*
G75*
G02*
X39235Y122750I6112J0D01*
G01*
X5850D01*
G37*
X46265D02*
G36*
X46265Y122750D02*
G75*
G02*
X48862Y117750I-3515J-5000D01*
G01*
X175077D01*
Y122750D01*
X46265D01*
G37*
X215423D02*
G36*
X215423Y122750D02*
Y117750D01*
X291467D01*
X296467Y122750D01*
X224848D01*
Y118152D01*
X215652D01*
Y122750D01*
X215423D01*
G37*
X831962D02*
G36*
X831962Y122750D02*
Y117750D01*
X864650D01*
Y122750D01*
X831962D01*
G37*
X5850Y135250D02*
G36*
X5850Y135250D02*
Y122750D01*
X39235D01*
G75*
G02*
X46265I3515J-5000D01*
G01*
X175077D01*
Y127923D01*
X215423D01*
Y122750D01*
X215652D01*
Y127348D01*
X224848D01*
Y122750D01*
X296467D01*
X303356Y129639D01*
G75*
G02*
X305250Y130425I1894J-1889D01*
G01*
X416642D01*
X421467Y135250D01*
X335897D01*
G75*
G02*
X328697I-3600J0D01*
G01*
X48862D01*
G75*
G02*
X36638I-6112J0D01*
G01*
X5850D01*
G37*
X831962Y131577D02*
G36*
X831962Y131577D02*
Y122750D01*
X864650D01*
Y135250D01*
X843100D01*
Y132152D01*
X834675D01*
Y131577D01*
X831962D01*
G37*
X5850Y142750D02*
G36*
X5850Y142750D02*
Y135250D01*
X36638D01*
G75*
G02*
X48862I6112J0D01*
G01*
X328697D01*
G75*
G02*
X329622Y137659I3601J0D01*
G01*
Y141215D01*
X327565D01*
Y142750D01*
X326612D01*
Y141789D01*
X322234D01*
Y142750D01*
X321610D01*
G75*
G02*
X317394I-2108J3120D01*
G01*
X74846D01*
G75*
G02*
X60654I-7096J0D01*
G01*
X24846D01*
G75*
G02*
X10654I-7096J0D01*
G01*
X5850D01*
G37*
X334972Y141215D02*
G36*
X334972Y141215D02*
Y137659D01*
G75*
G02*
X335897Y135250I-2676J-2410D01*
G01*
X421467D01*
X425856Y139639D01*
G75*
G02*
X427750Y140425I1894J-1889D01*
G01*
X471642D01*
X473967Y142750D01*
X353106D01*
G75*
G02*
X348890I-2108J3120D01*
G01*
X348266D01*
Y141789D01*
X343888D01*
Y142750D01*
X342935D01*
Y141215D01*
X334972D01*
G37*
X831962Y142750D02*
G36*
X831962Y142750D02*
Y141423D01*
X834675D01*
Y140848D01*
X843100D01*
Y135250D01*
X864650D01*
Y142750D01*
X831962D01*
G37*
X5850Y162750D02*
G36*
X5850Y162750D02*
Y142750D01*
X10654D01*
G75*
G02*
X24846I7096J0D01*
G01*
X60654D01*
G75*
G02*
X74846I7096J0D01*
G01*
X317394D01*
G75*
G02*
X315737Y145870I2108J3120D01*
G01*
G75*
G02*
Y145871I3759J0D01*
G01*
G75*
G02*
X317150Y148811I3763J0D01*
G01*
G75*
G02*
X315930Y151500I2352J2689D01*
G01*
G75*
G02*
X317150Y154189I3572J0D01*
G01*
G75*
G02*
X315737Y157129I2350J2940D01*
G01*
G75*
G02*
Y157130I3759J0D01*
G01*
G75*
G02*
X322234Y159721I3765J0D01*
G01*
Y161211D01*
X326612D01*
Y153482D01*
X322474D01*
G75*
G02*
X323074Y151500I-2972J-1982D01*
G01*
G75*
G02*
X322474Y149518I-3572J0D01*
G01*
X326612D01*
Y142750D01*
X327565D01*
Y150093D01*
X327654D01*
Y150250D01*
G75*
G02*
X327944Y151461I2680J-2D01*
G01*
G75*
G02*
X327654Y152671I2390J1212D01*
G01*
Y152907D01*
X327565D01*
Y161785D01*
X334272D01*
G75*
G02*
X332660Y162750I978J3465D01*
G01*
X74271D01*
G75*
G02*
X61229I-6521J0D01*
G01*
X24271D01*
G75*
G02*
X11229I-6521J0D01*
G01*
X5850D01*
G37*
X321610Y142750D02*
G36*
X321610Y142750D02*
X322234D01*
Y143279D01*
G75*
G02*
X321610Y142750I-2732J2591D01*
G01*
G37*
X342846Y150250D02*
G36*
X342846Y150250D02*
Y150093D01*
X342935D01*
Y142750D01*
X343888D01*
Y149518D01*
X348026D01*
G75*
G02*
X347426Y151500I2972J1982D01*
G01*
G75*
G02*
X348026Y153482I3572J0D01*
G01*
X343888D01*
Y161211D01*
X348266D01*
Y159721D01*
G75*
G02*
X354763Y157130I2732J-2591D01*
G01*
G75*
G02*
Y157129I-3759J0D01*
G01*
G75*
G02*
X353350Y154189I-3763J0D01*
G01*
G75*
G02*
X354570Y151500I-2352J-2689D01*
G01*
G75*
G02*
X353350Y148811I-3572J0D01*
G01*
G75*
G02*
X354763Y145871I-2350J-2940D01*
G01*
G75*
G02*
Y145870I-3759J0D01*
G01*
G75*
G02*
X353106Y142750I-3765J0D01*
G01*
X473967D01*
X480856Y149639D01*
G75*
G02*
X482750Y150425I1894J-1889D01*
G01*
X525392D01*
X534606Y159639D01*
G75*
G02*
X535178Y160075I1901J-1898D01*
G01*
X482750D01*
G75*
G02*
X480856Y160861I0J2675D01*
G01*
X478967Y162750D01*
X343133D01*
Y157346D01*
Y157346D01*
G75*
G02*
X342935Y156281I-2959J0D01*
G01*
Y152907D01*
X342846D01*
Y152671D01*
G75*
G02*
X342556Y151461I-2680J2D01*
G01*
G75*
G02*
X342846Y150250I-2390J-1212D01*
G01*
G37*
X348266Y143279D02*
G36*
X348266Y143279D02*
Y142750D01*
X348890D01*
G75*
G02*
X348266Y143279I2108J3120D01*
G01*
G37*
X641350Y162750D02*
G36*
X641350Y162750D02*
G75*
G02*
X640498Y160425I-3600J0D01*
G01*
X685250D01*
G75*
G02*
X686758Y159959I1J-2670D01*
G01*
X683967Y162750D01*
X641350D01*
G37*
X830712Y148507D02*
G36*
X830712Y148507D02*
Y146477D01*
X831093Y146096D01*
G75*
G02*
X831962Y144000I-2093J-2096D01*
G01*
Y142750D01*
X864650D01*
Y162750D01*
X832925D01*
G75*
G02*
X829083Y157750I-5176J0D01*
G01*
G75*
G02*
X832924Y152750I-1334J-5000D01*
G01*
G75*
G02*
X830712Y148507I-5175J0D01*
G01*
G37*
X5850Y170250D02*
G36*
X5850Y170250D02*
Y162750D01*
X11229D01*
G75*
G02*
X24271I6521J0D01*
G01*
X61229D01*
G75*
G02*
X74271I6521J0D01*
G01*
X332660D01*
G75*
G02*
X331650Y165250I2591J2500D01*
G01*
G75*
G02*
X337209Y168270I3600J0D01*
G01*
Y170250D01*
X48862D01*
G75*
G02*
X36638I-6112J0D01*
G01*
X5850D01*
G37*
X343133D02*
G36*
X343133Y170250D02*
Y162750D01*
X478967D01*
X471467Y170250D01*
X343133D01*
G37*
X479033D02*
G36*
X479033Y170250D02*
X483858Y165425D01*
X635341D01*
G75*
G02*
X641350Y162750I2409J-2675D01*
G01*
X683967D01*
X676467Y170250D01*
X653862D01*
G75*
G02*
X641638I-6112J0D01*
G01*
X479033D01*
G37*
X704033D02*
G36*
X704033Y170250D02*
X706358Y167925D01*
X736642D01*
X738967Y170250D01*
X704033D01*
G37*
X810425D02*
G36*
X810425Y170250D02*
Y167180D01*
G75*
G02*
X812750Y164083I-2676J-4430D01*
G01*
G75*
G02*
X822750I5000J-1333D01*
G01*
G75*
G02*
X832925Y162750I5000J-1334D01*
G01*
X864650D01*
Y170250D01*
X810425D01*
G37*
X5850Y187750D02*
G36*
X5850Y187750D02*
Y170250D01*
X36638D01*
G75*
G02*
X48862I6112J0D01*
G01*
X337209D01*
Y187750D01*
X48862D01*
G75*
G02*
X36638I-6112J0D01*
G01*
X5850D01*
G37*
X343133D02*
G36*
X343133Y187750D02*
Y170250D01*
X471467D01*
X465861Y175856D01*
G75*
G02*
X465075Y177750I1889J1894D01*
G01*
Y177841D01*
G75*
G02*
X464150Y180250I2676J2410D01*
G01*
G75*
G02*
X471350I3600J0D01*
G01*
Y180250D01*
G75*
G02*
X470855Y178428I-3598J0D01*
G01*
X479033Y170250D01*
X641638D01*
Y170250D01*
G75*
G02*
X643999Y175075I6111J0D01*
G01*
X629322D01*
G75*
G02*
X615654Y177750I-6572J2675D01*
G01*
G75*
G02*
X629322Y180425I7096J0D01*
G01*
X666178D01*
G75*
G02*
X667547Y182575I6583J-2681D01*
G01*
X642750D01*
G75*
G02*
X640856Y183361I0J2675D01*
G01*
X637562Y186655D01*
G75*
G02*
X635160Y187750I188J3595D01*
G01*
X594848D01*
Y183152D01*
X585652D01*
Y187750D01*
X585423D01*
Y182577D01*
X555077D01*
Y187750D01*
X343133D01*
G37*
X653862Y170250D02*
G36*
X653862Y170250D02*
Y170250D01*
X676467D01*
X675506Y171211D01*
G75*
G02*
X666178Y175075I-2756J6539D01*
G01*
X651501D01*
G75*
G02*
X653862Y170250I-3750J-4825D01*
G01*
G37*
X686533Y187750D02*
G36*
X686533Y187750D02*
X704033Y170250D01*
X738967D01*
X745856Y177139D01*
G75*
G02*
X747750Y177925I1894J-1889D01*
G01*
X802750D01*
G75*
G02*
X804644Y177139I0J-2675D01*
G01*
X809639Y172144D01*
G75*
G02*
X810425Y170250I-1889J-1894D01*
G01*
X864650D01*
Y187750D01*
X686533D01*
G37*
X5850Y195250D02*
G36*
X5850Y195250D02*
Y187750D01*
X36638D01*
G75*
G02*
X48862I6112J0D01*
G01*
X337209D01*
Y190704D01*
G75*
G02*
X336571Y192749I2959J2045D01*
G01*
G75*
G02*
Y192750I4101J0D01*
G01*
G75*
G02*
X337581Y195250I3600J0D01*
G01*
X74846D01*
G75*
G02*
X60654I-7096J0D01*
G01*
X24846D01*
G75*
G02*
X10654I-7096J0D01*
G01*
X5850D01*
G37*
X343133Y190704D02*
G36*
X343133Y190704D02*
Y187750D01*
X555077D01*
Y192923D01*
X585423D01*
Y187750D01*
X585652D01*
Y192348D01*
X594848D01*
Y187750D01*
X635160D01*
G75*
G02*
X634150Y190250I2591J2500D01*
G01*
G75*
G02*
X641345Y190438I3600J0D01*
G01*
X643858Y187925D01*
X645002D01*
G75*
G02*
X644150Y190250I2748J2325D01*
G01*
G75*
G02*
X650159Y192925I3600J0D01*
G01*
X668363D01*
G75*
G02*
X666727Y195250I4388J4825D01*
G01*
X628773D01*
G75*
G02*
X616727I-6023J2500D01*
G01*
X342762D01*
G75*
G02*
X343771Y192750I-2591J-2500D01*
G01*
G75*
G02*
Y192749I-4101J0D01*
G01*
G75*
G02*
X343133Y190704I-3597J0D01*
G01*
G37*
X678773Y195250D02*
G36*
X678773Y195250D02*
G75*
G02*
X677137Y192925I-6024J2500D01*
G01*
X680250D01*
G75*
G02*
X682144Y192139I0J-2675D01*
G01*
X686533Y187750D01*
X864650D01*
Y195250D01*
X794033D01*
X792144Y193361D01*
G75*
G02*
X790250Y192575I-1894J1889D01*
G01*
X700250D01*
G75*
G02*
X698356Y193361I0J2675D01*
G01*
X696467Y195250D01*
X678773D01*
G37*
X5850Y215250D02*
G36*
X5850Y215250D02*
Y195250D01*
X10654D01*
G75*
G02*
X24846I7096J0D01*
G01*
X60654D01*
G75*
G02*
X74846I7096J0D01*
G01*
X337581D01*
G75*
G02*
X342762I2591J-2500D01*
G01*
X616727D01*
G75*
G02*
X616229Y197750I6023J2500D01*
G01*
G75*
G02*
X629271I6521J0D01*
G01*
G75*
G02*
X628773Y195250I-6521J0D01*
G01*
X666727D01*
G75*
G02*
X666229Y197750I6024J2501D01*
G01*
G75*
G02*
X679271I6521J0D01*
G01*
G75*
G02*
X678773Y195250I-6522J1D01*
G01*
X696467D01*
X686642Y205075D01*
X655250D01*
G75*
G02*
X653858Y205466I0J2676D01*
G01*
G75*
G02*
X653862Y205250I-7387J-243D01*
G01*
G75*
G02*
X641638I-6112J0D01*
G01*
G75*
G02*
X647856Y211361I6112J0D01*
G01*
X645861Y213356D01*
G75*
G02*
X645075Y215250I1889J1894D01*
G01*
X513626D01*
G75*
G02*
X512998Y214175I-3376J1250D01*
G01*
X519091D01*
G75*
G02*
X525100Y211500I2409J-2675D01*
G01*
G75*
G02*
X524248Y209175I-3600J0D01*
G01*
X530341D01*
G75*
G02*
X536350Y206500I2409J-2675D01*
G01*
G75*
G02*
X530341Y203825I-3600J0D01*
G01*
X495159D01*
G75*
G02*
X489150Y206500I-2409J2675D01*
G01*
G75*
G02*
X489770Y208520I3600J0D01*
G01*
G75*
G02*
X484150Y211500I-2020J2980D01*
G01*
G75*
G02*
X485002Y213825I3600J0D01*
G01*
X478909D01*
G75*
G02*
X473124Y215250I-2409J2675D01*
G01*
X74271D01*
G75*
G02*
X61229I-6521J0D01*
G01*
X24271D01*
G75*
G02*
X11229I-6521J0D01*
G01*
X5850D01*
G37*
X691201D02*
G36*
X691201Y215250D02*
G75*
G02*
X692144Y214639I-951J-2501D01*
G01*
X703858Y202925D01*
X705002D01*
G75*
G02*
X704150Y205250I2749J2325D01*
G01*
G75*
G02*
X704770Y207270I3600J0D01*
G01*
G75*
G02*
X699150Y210250I-2020J2980D01*
G01*
G75*
G02*
X699770Y212270I3600J0D01*
G01*
G75*
G02*
X694150Y215250I-2020J2980D01*
G01*
X691201D01*
G37*
X773850Y200250D02*
G36*
X773850Y200250D02*
G75*
G02*
X772998Y197925I-3600J0D01*
G01*
X789142D01*
X806467Y215250D01*
X794033D01*
X782144Y203361D01*
G75*
G02*
X780250Y202575I-1894J1889D01*
G01*
X772998D01*
G75*
G02*
X773850Y200250I-2749J-2325D01*
G01*
G37*
X814033Y215250D02*
G36*
X814033Y215250D02*
X794033Y195250D01*
X864650D01*
Y215250D01*
X814033D01*
G37*
X5850Y222750D02*
G36*
X5850Y222750D02*
Y215250D01*
X11229D01*
G75*
G02*
X24271I6521J0D01*
G01*
X61229D01*
G75*
G02*
X74271I6521J0D01*
G01*
X473124D01*
G75*
G02*
X472900Y216500I3376J1250D01*
G01*
G75*
G02*
X478909Y219175I3600J0D01*
G01*
X507841D01*
G75*
G02*
X513850Y216500I2409J-2675D01*
G01*
G75*
G02*
X513626Y215250I-3600J0D01*
G01*
X645075D01*
Y220077D01*
X612577D01*
Y222750D01*
X48862D01*
G75*
G02*
X36638I-6112J0D01*
G01*
X5850D01*
G37*
X660425Y220077D02*
G36*
X660425Y220077D02*
Y216358D01*
X661358Y215425D01*
X690250D01*
G75*
G02*
X691201Y215250I0J-2675D01*
G01*
X694150D01*
G75*
G02*
X694770Y217270I3600J0D01*
G01*
G75*
G02*
X689150Y220250I-2020J2980D01*
G01*
G75*
G02*
X689770Y222270I3600J0D01*
G01*
G75*
G02*
X685159Y222750I-2020J2980D01*
G01*
X672348D01*
Y220652D01*
X663152D01*
Y222750D01*
X662923D01*
Y220077D01*
X660425D01*
G37*
X799639Y220856D02*
G36*
X799639Y220856D02*
X794033Y215250D01*
X806467D01*
X813967Y222750D01*
X800425D01*
G75*
G02*
X799639Y220856I-2675J0D01*
G01*
G37*
X821533Y222750D02*
G36*
X821533Y222750D02*
X814033Y215250D01*
X864650D01*
Y222750D01*
X821533D01*
G37*
X5850Y240250D02*
G36*
X5850Y240250D02*
Y222750D01*
X36638D01*
G75*
G02*
X48862I6112J0D01*
G01*
X612577D01*
Y230423D01*
X662923D01*
Y222750D01*
X663152D01*
Y229848D01*
X672348D01*
Y222750D01*
X685159D01*
G75*
G02*
X684150Y225250I2591J2500D01*
G01*
G75*
G02*
X684770Y227270I3600J0D01*
G01*
G75*
G02*
X679150Y230250I-2020J2980D01*
G01*
G75*
G02*
X685159Y232925I3600J0D01*
G01*
X734142D01*
X741467Y240250D01*
X48862D01*
G75*
G02*
X36638I-6112J0D01*
G01*
X5850D01*
G37*
X800425Y228320D02*
G36*
X800425Y228320D02*
Y222750D01*
X813967D01*
X819901Y228684D01*
G75*
G02*
X813150Y232750I-2152J4066D01*
G01*
Y232750D01*
G75*
G02*
X817750Y237350I4600J0D01*
G01*
G75*
G02*
X822350Y232750I0J-4600D01*
G01*
G75*
G02*
X821816Y230599I-4600J0D01*
G01*
X822726Y231509D01*
G75*
G02*
X822575Y232750I5024J1242D01*
G01*
G75*
G02*
X826417Y237750I5174J0D01*
G01*
G75*
G02*
X823219Y240250I1333J5000D01*
G01*
X821611D01*
G75*
G02*
X817750Y238150I-3861J2500D01*
G01*
G75*
G02*
X813889Y240250I0J4600D01*
G01*
X812281D01*
G75*
G02*
X809083Y237750I-4531J2501D01*
G01*
G75*
G02*
X812924Y232750I-1334J-5000D01*
G01*
G75*
G02*
X807750Y227575I-5174J0D01*
G01*
G75*
G02*
X802750Y231417I0J5176D01*
G01*
G75*
G02*
X800425Y228320I-5001J1334D01*
G01*
G37*
X826509Y227726D02*
G36*
X826509Y227726D02*
X821533Y222750D01*
X864650D01*
Y240250D01*
X832281D01*
G75*
G02*
X829083Y237750I-4531J2501D01*
G01*
G75*
G02*
X832926Y232750I-1332J-5000D01*
G01*
G75*
G02*
X826509Y227726I-5175J0D01*
G01*
G37*
X5850Y247750D02*
G36*
X5850Y247750D02*
Y240250D01*
X36638D01*
G75*
G02*
X48862I6112J0D01*
G01*
X741467D01*
X748967Y247750D01*
X74846D01*
G75*
G02*
X60654I-7096J0D01*
G01*
X24846D01*
G75*
G02*
X10654I-7096J0D01*
G01*
X5850D01*
G37*
X779083D02*
G36*
X779083Y247750D02*
G75*
G02*
X782750Y244083I-1333J-5000D01*
G01*
G75*
G02*
X786417Y247750I5000J-1333D01*
G01*
X779083D01*
G37*
X789083D02*
G36*
X789083Y247750D02*
G75*
G02*
X792750Y244083I-1333J-5000D01*
G01*
G75*
G02*
X796417Y247750I5000J-1333D01*
G01*
X789083D01*
G37*
X799083D02*
G36*
X799083Y247750D02*
G75*
G02*
X802750Y244083I-1333J-5000D01*
G01*
G75*
G02*
X806417Y247750I5000J-1334D01*
G01*
X799083D01*
G37*
X812925Y242750D02*
G36*
X812925Y242750D02*
G75*
G02*
X812281Y240250I-5176J0D01*
G01*
X813889D01*
G75*
G02*
X813150Y242750I3861J2500D01*
G01*
Y242750D01*
Y242750D01*
G75*
G02*
X817750Y247350I4600J0D01*
G01*
G75*
G02*
X822350Y242750I0J-4600D01*
G01*
Y242750D01*
Y242750D01*
G75*
G02*
X821611Y240250I-4600J0D01*
G01*
X823219D01*
G75*
G02*
X822575Y242750I4531J2500D01*
G01*
G75*
G02*
X826417Y247750I5175J0D01*
G01*
X809083D01*
G75*
G02*
X812925Y242750I-1333J-5000D01*
G01*
G37*
X832925D02*
G36*
X832925Y242750D02*
G75*
G02*
X832281Y240250I-5176J0D01*
G01*
X864650D01*
Y247750D01*
X829083D01*
G75*
G02*
X832925Y242750I-1333J-5000D01*
G01*
G37*
X5850Y267750D02*
G36*
X5850Y267750D02*
Y247750D01*
X10654D01*
G75*
G02*
X24846I7096J0D01*
G01*
X60654D01*
G75*
G02*
X74846I7096J0D01*
G01*
X748967D01*
X750856Y249639D01*
G75*
G02*
X752750Y250425I1894J-1889D01*
G01*
X772750D01*
G75*
G02*
X774644Y249639I0J-2675D01*
G01*
X776509Y247774D01*
G75*
G02*
X779083Y247750I1241J-5024D01*
G01*
X786417D01*
G75*
G02*
X789083I1333J-5000D01*
G01*
X796417D01*
G75*
G02*
X799083I1333J-5000D01*
G01*
X806417D01*
G75*
G02*
X809083I1333J-5000D01*
G01*
X826417D01*
G75*
G02*
X829083I1333J-5000D01*
G01*
X864650D01*
Y267750D01*
X787925D01*
Y255159D01*
G75*
G02*
X788850Y252750I-2676J-2410D01*
G01*
G75*
G02*
X781650I-3600J0D01*
G01*
G75*
G02*
X782575Y255159I3601J0D01*
G01*
Y267750D01*
X74271D01*
G75*
G02*
X61229I-6521J0D01*
G01*
X24271D01*
G75*
G02*
X11229I-6521J0D01*
G01*
X5850D01*
G37*
Y275250D02*
G36*
X5850Y275250D02*
Y267750D01*
X11229D01*
G75*
G02*
X24271I6521J0D01*
G01*
X61229D01*
G75*
G02*
X74271I6521J0D01*
G01*
X782575D01*
Y275250D01*
X570425D01*
Y275159D01*
G75*
G02*
X571350Y272750I-2676J-2410D01*
G01*
G75*
G02*
X564150I-3600J0D01*
G01*
G75*
G02*
X565075Y275159I3601J0D01*
G01*
Y275250D01*
X557841D01*
G75*
G02*
X552659I-2591J2500D01*
G01*
X325425D01*
Y275159D01*
G75*
G02*
X326350Y272750I-2676J-2410D01*
G01*
G75*
G02*
X319150I-3600J0D01*
G01*
G75*
G02*
X320075Y275159I3601J0D01*
G01*
Y275250D01*
X312841D01*
G75*
G02*
X307659I-2591J2500D01*
G01*
X48862D01*
G75*
G02*
X36638I-6112J0D01*
G01*
X5850D01*
G37*
X787925D02*
G36*
X787925Y275250D02*
Y267750D01*
X864650D01*
Y275250D01*
X815341D01*
G75*
G02*
X810159I-2591J2500D01*
G01*
X787925D01*
G37*
X5850Y287750D02*
G36*
X5850Y287750D02*
Y275250D01*
X36638D01*
G75*
G02*
X48862I6112J0D01*
G01*
X307659D01*
G75*
G02*
X306650Y277750I2591J2500D01*
G01*
G75*
G02*
X307575Y280159I3601J0D01*
G01*
Y287750D01*
X307498D01*
Y284183D01*
X298002D01*
Y287750D01*
X87925D01*
Y285159D01*
G75*
G02*
X88850Y282750I-2676J-2410D01*
G01*
G75*
G02*
X81650I-3600J0D01*
G01*
G75*
G02*
Y282752I3609J1D01*
G01*
G75*
G02*
X81754Y283608I3583J0D01*
G01*
X72427D01*
Y287750D01*
X67925D01*
Y285159D01*
G75*
G02*
X68850Y282750I-2676J-2410D01*
G01*
G75*
G02*
X61650I-3600J0D01*
G01*
G75*
G02*
X61948Y284183I3599J0D01*
G01*
X53002D01*
Y287750D01*
X5850D01*
G37*
X62498D02*
G36*
X62498Y287750D02*
Y285071D01*
G75*
G02*
X62575Y285159I3092J-2616D01*
G01*
Y287750D01*
X62498D01*
G37*
X312925D02*
G36*
X312925Y287750D02*
Y280159D01*
G75*
G02*
X313850Y277750I-2676J-2410D01*
G01*
G75*
G02*
X312841Y275250I-3600J0D01*
G01*
X320075D01*
Y283608D01*
X317427D01*
Y287750D01*
X312925D01*
G37*
X325425Y283608D02*
G36*
X325425Y283608D02*
Y275250D01*
X552659D01*
G75*
G02*
X551650Y277750I2591J2500D01*
G01*
G75*
G02*
X552575Y280159I3601J0D01*
G01*
Y287750D01*
X552498D01*
Y284183D01*
X543002D01*
Y287750D01*
X332925D01*
Y285159D01*
G75*
G02*
X333850Y282750I-2676J-2410D01*
G01*
G75*
G02*
X326650I-3600J0D01*
G01*
G75*
G02*
Y282752I3609J1D01*
G01*
G75*
G02*
X326754Y283608I3583J0D01*
G01*
X325425D01*
G37*
X557925Y287750D02*
G36*
X557925Y287750D02*
Y280159D01*
G75*
G02*
X558850Y277750I-2676J-2410D01*
G01*
G75*
G02*
X557841Y275250I-3600J0D01*
G01*
X565075D01*
Y283608D01*
X562427D01*
Y287750D01*
X557925D01*
G37*
X570425Y283608D02*
G36*
X570425Y283608D02*
Y275250D01*
X782575D01*
Y287750D01*
X577925D01*
Y285159D01*
G75*
G02*
X578850Y282750I-2676J-2410D01*
G01*
G75*
G02*
X571650I-3600J0D01*
G01*
G75*
G02*
Y282752I3609J1D01*
G01*
G75*
G02*
X571754Y283608I3583J0D01*
G01*
X570425D01*
G37*
X787925Y287750D02*
G36*
X787925Y287750D02*
Y275250D01*
X810159D01*
G75*
G02*
X809150Y277750I2591J2500D01*
G01*
G75*
G02*
X810075Y280159I3601J0D01*
G01*
Y283608D01*
X807427D01*
Y287750D01*
X797498D01*
Y284183D01*
X788002D01*
Y287750D01*
X787925D01*
G37*
X815425Y283608D02*
G36*
X815425Y283608D02*
Y280159D01*
G75*
G02*
X816350Y277750I-2676J-2410D01*
G01*
G75*
G02*
X815341Y275250I-3600J0D01*
G01*
X864650D01*
Y287750D01*
X822925D01*
Y285159D01*
G75*
G02*
X823850Y282750I-2676J-2410D01*
G01*
G75*
G02*
X816650I-3600J0D01*
G01*
G75*
G02*
Y282752I3609J1D01*
G01*
G75*
G02*
X816754Y283608I3583J0D01*
G01*
X815425D01*
G37*
X5850Y305250D02*
G36*
X5850Y305250D02*
Y287750D01*
X53002D01*
Y291317D01*
X62498D01*
Y287750D01*
X62575D01*
Y298608D01*
X52427D01*
Y305250D01*
X33661D01*
G75*
G02*
X6839I-13411J0D01*
G01*
X5850D01*
G37*
X63700D02*
G36*
X63700Y305250D02*
G75*
G02*
X64644Y304639I-951J-2502D01*
G01*
X67139Y302144D01*
G75*
G02*
X67925Y300250I-1889J-1894D01*
G01*
Y287750D01*
X72427D01*
Y291892D01*
X82575D01*
Y298608D01*
X72427D01*
Y304290D01*
X71467Y305250D01*
X63700D01*
G37*
X83700D02*
G36*
X83700Y305250D02*
G75*
G02*
X84644Y304639I-951J-2502D01*
G01*
X87139Y302144D01*
G75*
G02*
X87925Y300250I-1889J-1894D01*
G01*
Y287750D01*
X298002D01*
Y291317D01*
X307498D01*
Y287750D01*
X307575D01*
Y298608D01*
X297427D01*
Y305250D01*
X278661D01*
G75*
G02*
X251839I-13411J0D01*
G01*
X251161D01*
G75*
G02*
X224339I-13411J0D01*
G01*
X156161D01*
G75*
G02*
X129339I-13411J0D01*
G01*
X128661D01*
G75*
G02*
X101839I-13411J0D01*
G01*
X83700D01*
G37*
X308700D02*
G36*
X308700Y305250D02*
G75*
G02*
X309644Y304639I-951J-2502D01*
G01*
X312139Y302144D01*
G75*
G02*
X312925Y300250I-1889J-1894D01*
G01*
Y287750D01*
X317427D01*
Y291892D01*
X327575D01*
Y298608D01*
X317427D01*
Y305250D01*
X308700D01*
G37*
X328700D02*
G36*
X328700Y305250D02*
G75*
G02*
X329644Y304639I-951J-2502D01*
G01*
X332139Y302144D01*
G75*
G02*
X332925Y300250I-1889J-1894D01*
G01*
Y287750D01*
X543002D01*
Y291317D01*
X552498D01*
Y287750D01*
X552575D01*
Y298608D01*
X542427D01*
Y305250D01*
X523661D01*
G75*
G02*
X496839I-13411J0D01*
G01*
X496161D01*
G75*
G02*
X469339I-13411J0D01*
G01*
X401161D01*
G75*
G02*
X374339I-13411J0D01*
G01*
X373661D01*
G75*
G02*
X346839I-13411J0D01*
G01*
X328700D01*
G37*
X553700D02*
G36*
X553700Y305250D02*
G75*
G02*
X554644Y304639I-951J-2502D01*
G01*
X557139Y302144D01*
G75*
G02*
X557925Y300250I-1889J-1894D01*
G01*
Y287750D01*
X562427D01*
Y291892D01*
X572575D01*
Y298608D01*
X562427D01*
Y305250D01*
X553700D01*
G37*
X573700D02*
G36*
X573700Y305250D02*
G75*
G02*
X574644Y304639I-951J-2502D01*
G01*
X577139Y302144D01*
G75*
G02*
X577925Y300250I-1889J-1894D01*
G01*
Y287750D01*
X782575D01*
Y300250D01*
G75*
G02*
X783361Y302144I2675J0D01*
G01*
X785856Y304639D01*
G75*
G02*
X786800Y305250I1894J-1891D01*
G01*
X768661D01*
G75*
G02*
X741839I-13411J0D01*
G01*
X741161D01*
G75*
G02*
X714339I-13411J0D01*
G01*
X646161D01*
G75*
G02*
X619339I-13411J0D01*
G01*
X618661D01*
G75*
G02*
X591839I-13411J0D01*
G01*
X573700D01*
G37*
X787925Y298608D02*
G36*
X787925Y298608D02*
Y287750D01*
X788002D01*
Y291317D01*
X797498D01*
Y287750D01*
X807427D01*
Y291892D01*
X817575D01*
Y298608D01*
X807427D01*
Y305250D01*
X798073D01*
Y298608D01*
X787925D01*
G37*
X818700Y305250D02*
G36*
X818700Y305250D02*
G75*
G02*
X819644Y304639I-951J-2502D01*
G01*
X822139Y302144D01*
G75*
G02*
X822925Y300250I-1889J-1894D01*
G01*
Y287750D01*
X864650D01*
Y305250D01*
X863661D01*
G75*
G02*
X836839I-13411J0D01*
G01*
X818700D01*
G37*
X5850Y319650D02*
G36*
X5850Y319650D02*
Y305250D01*
X6839D01*
G75*
G02*
X33661I13411J0D01*
G01*
X52427D01*
Y306892D01*
X63073D01*
Y305405D01*
G75*
G02*
X63700Y305250I-324J-2657D01*
G01*
X71467D01*
X70861Y305856D01*
G75*
G02*
X70075Y307750I1889J1894D01*
G01*
Y307825D01*
X67077D01*
Y308400D01*
X58652D01*
Y317100D01*
X67077D01*
Y317675D01*
X77423D01*
Y307825D01*
X76458D01*
X77391Y306892D01*
X83073D01*
Y305405D01*
G75*
G02*
X83700Y305250I-324J-2657D01*
G01*
X101839D01*
G75*
G02*
X128661I13411J0D01*
G01*
X129339D01*
G75*
G02*
X156161I13411J0D01*
G01*
X224339D01*
G75*
G02*
X251161I13411J0D01*
G01*
X251839D01*
G75*
G02*
X278661I13411J0D01*
G01*
X297427D01*
Y306892D01*
X308073D01*
Y305405D01*
G75*
G02*
X308700Y305250I-324J-2657D01*
G01*
X317427D01*
Y306892D01*
X320075D01*
Y307825D01*
X312077D01*
Y308400D01*
X303652D01*
Y317100D01*
X312077D01*
Y317675D01*
X322423D01*
Y314359D01*
X324639Y312144D01*
G75*
G02*
X325425Y310250I-1889J-1894D01*
G01*
Y306892D01*
X328073D01*
Y305405D01*
G75*
G02*
X328700Y305250I-324J-2657D01*
G01*
X346839D01*
G75*
G02*
X373661I13411J0D01*
G01*
X374339D01*
G75*
G02*
X401161I13411J0D01*
G01*
X469339D01*
G75*
G02*
X496161I13411J0D01*
G01*
X496839D01*
G75*
G02*
X523661I13411J0D01*
G01*
X542427D01*
Y306892D01*
X553073D01*
Y305405D01*
G75*
G02*
X553700Y305250I-324J-2657D01*
G01*
X562427D01*
Y306892D01*
X565075D01*
Y307825D01*
X557077D01*
Y308400D01*
X548652D01*
Y317100D01*
X557077D01*
Y317675D01*
X567423D01*
Y314359D01*
X569639Y312144D01*
G75*
G02*
X570425Y310250I-1889J-1894D01*
G01*
Y306892D01*
X573073D01*
Y305405D01*
G75*
G02*
X573700Y305250I-324J-2657D01*
G01*
X591839D01*
G75*
G02*
X618661I13411J0D01*
G01*
X619339D01*
G75*
G02*
X646161I13411J0D01*
G01*
X714339D01*
G75*
G02*
X741161I13411J0D01*
G01*
X741839D01*
G75*
G02*
X768661I13411J0D01*
G01*
X786800D01*
G75*
G02*
X787427Y305405I951J-2502D01*
G01*
Y306892D01*
X798073D01*
Y305250D01*
X807427D01*
Y306892D01*
X810075D01*
Y307825D01*
X802077D01*
Y308400D01*
X793652D01*
Y317100D01*
X802077D01*
Y317675D01*
X812423D01*
Y314359D01*
X814639Y312144D01*
G75*
G02*
X815425Y310250I-1889J-1894D01*
G01*
Y306892D01*
X818073D01*
Y305405D01*
G75*
G02*
X818700Y305250I-324J-2657D01*
G01*
X836839D01*
G75*
G02*
X863661I13411J0D01*
G01*
X864650D01*
Y319650D01*
X5850D01*
G37*
D02*
D70*
X8939Y20250D02*
X6839D01*
X8939Y45250D02*
X6839D01*
X8939Y305250D02*
X6839D01*
X13329Y110250D02*
X11229D01*
X13329Y162750D02*
X11229D01*
X13329Y215250D02*
X11229D01*
X13329Y267750D02*
X11229D01*
X17750Y105829D02*
Y103729D01*
Y114671D02*
Y116771D01*
Y158329D02*
Y156229D01*
Y167171D02*
Y169271D01*
Y210829D02*
Y208729D01*
Y219671D02*
Y221771D01*
Y263329D02*
Y261229D01*
Y272171D02*
Y274271D01*
X20250Y8939D02*
Y6839D01*
Y56561D02*
Y58661D01*
Y293939D02*
Y291839D01*
Y316561D02*
Y318661D01*
X22171Y110250D02*
X24271D01*
X22171Y162750D02*
X24271D01*
X22171Y215250D02*
X24271D01*
X22171Y267750D02*
X24271D01*
X31561Y20250D02*
X33661D01*
X31561Y45250D02*
X33661D01*
X31561Y305250D02*
X33661D01*
X50250Y40250D02*
X48150D01*
X52750Y37750D02*
Y35650D01*
Y42750D02*
Y44850D01*
X55100Y287750D02*
X53002D01*
X55250Y40250D02*
X57350D01*
X57750Y286281D02*
Y284183D01*
Y289219D02*
Y291317D01*
X60400Y287750D02*
X62498D01*
X60750Y312750D02*
X58652D01*
X63250Y310500D02*
Y308400D01*
Y315000D02*
Y317100D01*
X63329Y110250D02*
X61229D01*
X63329Y162750D02*
X61229D01*
X63329Y215250D02*
X61229D01*
X63329Y267750D02*
X61229D01*
X65250Y282750D02*
Y300250D01*
X62750Y302750D01*
X57750D01*
X67750Y105829D02*
Y103729D01*
Y114671D02*
Y116771D01*
Y158329D02*
Y156229D01*
Y167171D02*
Y169271D01*
Y210829D02*
Y208729D01*
Y219671D02*
Y221771D01*
Y263329D02*
Y261229D01*
Y272171D02*
Y274271D01*
X72171Y110250D02*
X74271D01*
X72171Y162750D02*
X74271D01*
X72171Y215250D02*
X74271D01*
X72171Y267750D02*
X74271D01*
X72750Y50250D02*
Y52750D01*
X77750Y87750D02*
X182750D01*
X197750Y102750D01*
X295250D01*
X310250Y117750D01*
X422750D01*
X432750Y127750D01*
X537750D01*
X547750Y137750D01*
X762750D01*
X767750Y142750D01*
Y152750D01*
X77750Y302750D02*
X72750Y307750D01*
Y312250D01*
X72250Y312750D01*
X85250Y282750D02*
Y300250D01*
X82750Y302750D01*
X77750D01*
X103939Y45250D02*
X101839D01*
X103939Y305250D02*
X101839D01*
X115250Y33939D02*
Y31839D01*
Y56561D02*
Y58661D01*
Y293939D02*
Y291839D01*
Y316561D02*
Y318661D01*
X126561Y45250D02*
X128661D01*
X126561Y305250D02*
X128661D01*
X131439Y45250D02*
X129339D01*
X131439Y305250D02*
X129339D01*
X142750Y33939D02*
Y31839D01*
Y56561D02*
Y58661D01*
Y293939D02*
Y291839D01*
Y316561D02*
Y318661D01*
X154061Y45250D02*
X156161D01*
X154061Y305250D02*
X156161D01*
X172750Y40250D02*
X170650D01*
X175250Y37750D02*
Y35650D01*
Y42750D02*
Y44850D01*
X177750Y40250D02*
X179850D01*
X180250Y67750D02*
X302750D01*
X185250Y72750D02*
X62750D01*
X190250Y77750D02*
X77750D01*
X190250D02*
X312750D01*
X195250Y92750D02*
X300250D01*
X315250Y107750D01*
X427750D01*
X437750Y117750D01*
X542750D01*
X552750Y127750D01*
X767750D01*
X777750Y137750D01*
Y152750D01*
X200250Y97750D02*
X297750D01*
X312750Y112750D01*
X425250D01*
X435250Y122750D01*
X540250D01*
X550250Y132750D01*
X765250D01*
X772750Y140250D01*
Y157750D01*
X777750Y162750D01*
X205250Y82750D02*
X305250D01*
X310250Y87750D01*
X402750D01*
X210250Y72750D02*
X307750D01*
X210250D02*
X185250D01*
X217750Y122750D02*
X215652D01*
X220250Y120250D02*
Y118152D01*
Y125250D02*
Y127348D01*
X222750Y122750D02*
X224848D01*
X226439Y45250D02*
X224339D01*
X226439Y305250D02*
X224339D01*
X237750Y33939D02*
Y31839D01*
Y56561D02*
Y58661D01*
Y293939D02*
Y291839D01*
Y316561D02*
Y318661D01*
X249061Y45250D02*
X251161D01*
X249061Y305250D02*
X251161D01*
X253939Y45250D02*
X251839D01*
X253939Y305250D02*
X251839D01*
X265250Y33939D02*
Y31839D01*
Y56561D02*
Y58661D01*
Y293939D02*
Y291839D01*
Y316561D02*
Y318661D01*
X276561Y45250D02*
X278661D01*
X276561Y305250D02*
X278661D01*
X295250Y40250D02*
X293150D01*
X297750Y37750D02*
Y35650D01*
Y42750D02*
Y44850D01*
X300100Y287750D02*
X298002D01*
X300250Y40250D02*
X302350D01*
X302750Y286281D02*
Y284183D01*
Y289219D02*
Y291317D01*
X305400Y287750D02*
X307498D01*
X305750Y312750D02*
X303652D01*
X308250Y310500D02*
Y308400D01*
Y315000D02*
Y317100D01*
X310250Y277750D02*
Y300250D01*
X307750Y302750D01*
X302750D01*
X312750Y77750D02*
X435250D01*
X317250Y312750D02*
X317750Y312250D01*
Y312750D01*
X320250D01*
X322750Y310250D01*
Y302750D01*
X317750Y102750D02*
X430250D01*
X440250Y112750D01*
X545250D01*
X555250Y122750D01*
X770250D01*
X782750Y135250D01*
Y157750D01*
X787750Y162750D01*
X317837Y145870D02*
X315737D01*
X317837Y157130D02*
X315737D01*
X319502Y144205D02*
Y142105D01*
Y158795D02*
Y160895D01*
X322750Y97750D02*
X432750D01*
X442750Y107750D01*
X547750D01*
X557750Y117750D01*
X772750D01*
X792750Y137750D01*
Y157750D01*
X797750Y162750D01*
X322750Y287750D02*
Y272750D01*
X324423Y143890D02*
Y141789D01*
Y147417D02*
Y149518D01*
Y155583D02*
Y153482D01*
Y159110D02*
Y161211D01*
X324514Y145654D02*
X326612D01*
X324514Y157346D02*
X326612D01*
X327750Y82750D02*
X407750D01*
X330250Y282750D02*
Y300250D01*
X327750Y302750D01*
X322750D01*
X330329Y157346D02*
Y152671D01*
X331500Y151500D01*
X339000D01*
X331500D02*
Y151421D01*
X330329Y150250D01*
Y145654D01*
X332297D02*
Y135250D01*
X338203Y157346D02*
Y162297D01*
X335250Y165250D01*
X339000Y151500D02*
Y151421D01*
X340171Y150250D01*
Y145654D01*
Y157346D02*
Y152671D01*
X339000Y151500D01*
X345986Y145654D02*
X343888D01*
X345986Y157346D02*
X343888D01*
X346077Y143890D02*
Y141789D01*
Y147417D02*
Y149518D01*
Y155583D02*
Y153482D01*
Y159110D02*
Y161211D01*
X348939Y45250D02*
X346839D01*
X348939Y305250D02*
X346839D01*
X350998Y144205D02*
Y142105D01*
Y158795D02*
Y160895D01*
X352663Y145870D02*
X354763D01*
X352663Y157130D02*
X354763D01*
X360250Y33939D02*
Y31839D01*
Y56561D02*
Y58661D01*
Y293939D02*
Y291839D01*
Y316561D02*
Y318661D01*
X371561Y45250D02*
X373661D01*
X371561Y305250D02*
X373661D01*
X376439Y20250D02*
X374339D01*
X376439Y45250D02*
X374339D01*
X376439Y305250D02*
X374339D01*
X387750Y8939D02*
Y6839D01*
Y56561D02*
Y58661D01*
Y293939D02*
Y291839D01*
Y316561D02*
Y318661D01*
X397750Y92750D02*
X307750D01*
X302750Y87750D01*
X200250D01*
X195250Y82750D01*
X82750D01*
X399061Y20250D02*
X401161D01*
X399061Y45250D02*
X401161D01*
X399061Y305250D02*
X401161D01*
X417750Y40250D02*
X415650D01*
X420250Y37750D02*
Y35650D01*
Y42750D02*
Y44850D01*
X422750Y40250D02*
X424850D01*
X425250Y67750D02*
X302750D01*
X430250Y72750D02*
X307750D01*
X430250Y82750D02*
X572750D01*
X435250Y77750D02*
X557750D01*
X450250Y92750D02*
X577750D01*
X582750Y87750D01*
X697750D01*
X702750Y82750D01*
X817750D01*
X471439Y20250D02*
X469339D01*
X471439Y45250D02*
X469339D01*
X471439Y305250D02*
X469339D01*
X476500Y216500D02*
X510250D01*
X480250Y137750D02*
X485250Y142750D01*
X530250D01*
X540250Y152750D01*
X570250D01*
X482750Y8939D02*
Y6839D01*
Y56561D02*
Y58661D01*
Y293939D02*
Y291839D01*
Y316561D02*
Y318661D01*
X487750Y211500D02*
X521500D01*
X492750Y206500D02*
X532750D01*
X494061Y20250D02*
X496161D01*
X494061Y45250D02*
X496161D01*
X494061Y305250D02*
X496161D01*
X498939Y45250D02*
X496839D01*
X498939Y305250D02*
X496839D01*
X510250Y33939D02*
Y31839D01*
Y56561D02*
Y58661D01*
Y293939D02*
Y291839D01*
Y316561D02*
Y318661D01*
X521561Y45250D02*
X523661D01*
X521561Y305250D02*
X523661D01*
X540250Y40250D02*
X538150D01*
X542750Y37750D02*
Y35650D01*
Y42750D02*
Y44850D01*
X545100Y287750D02*
X543002D01*
X545250Y40250D02*
X547350D01*
X547750Y67750D02*
X425250D01*
X547750Y286281D02*
Y284183D01*
Y289219D02*
Y291317D01*
X550400Y287750D02*
X552498D01*
X550750Y312750D02*
X548652D01*
X552750Y72750D02*
X430250D01*
X553250Y310500D02*
Y308400D01*
Y315000D02*
Y317100D01*
X555250Y277750D02*
Y300250D01*
X552750Y302750D01*
X547750D01*
X557750Y77750D02*
X680250D01*
X562250Y312750D02*
X562750Y312250D01*
Y312750D01*
X565250D01*
X567750Y310250D01*
Y302750D01*
X562750Y97750D02*
X692750D01*
X567750Y102750D02*
X697750D01*
X567750Y287750D02*
Y272750D01*
X570250Y152750D02*
X682750D01*
X575250Y282750D02*
Y300250D01*
X572750Y302750D01*
X567750D01*
X580250Y147750D02*
X542750D01*
X532750Y137750D01*
X490250D01*
X580250Y147750D02*
X687750D01*
X587750Y187750D02*
X585652D01*
X590250Y185250D02*
Y183152D01*
Y190250D02*
Y192348D01*
X592750Y187750D02*
X594848D01*
X593939Y45250D02*
X591839D01*
X593939Y305250D02*
X591839D01*
X605250Y33939D02*
Y31839D01*
Y56561D02*
Y58661D01*
Y293939D02*
Y291839D01*
Y316561D02*
Y318661D01*
X616561Y45250D02*
X618661D01*
X616561Y305250D02*
X618661D01*
X618329Y197750D02*
X616229D01*
X621439Y45250D02*
X619339D01*
X621439Y305250D02*
X619339D01*
X622750Y177750D02*
X672750D01*
X622750Y193329D02*
Y191229D01*
Y202171D02*
Y204271D01*
X627171Y197750D02*
X629271D01*
X632750Y33939D02*
Y31839D01*
Y56561D02*
Y58661D01*
Y293939D02*
Y291839D01*
Y316561D02*
Y318661D01*
X637750Y162750D02*
X482750D01*
X467750Y177750D01*
Y180250D01*
X637750Y190250D02*
X642750Y185250D01*
X677750D01*
X702750Y160250D01*
X750250D01*
X752750Y162750D01*
X757750D01*
X644061Y45250D02*
X646161D01*
X644061Y305250D02*
X646161D01*
X647750Y190250D02*
X680250D01*
X705250Y165250D01*
X737750D01*
X747750Y175250D01*
X802750D01*
X807750Y170250D01*
Y162750D01*
X647750Y225250D02*
Y215250D01*
X655250Y207750D01*
X687750D01*
X700250Y195250D01*
X790250D01*
X827750Y232750D01*
X662750Y40250D02*
X660650D01*
X665250Y37750D02*
Y35650D01*
Y42750D02*
Y44850D01*
Y225250D02*
X663152D01*
X667750Y40250D02*
X669850D01*
X667750Y222750D02*
Y220652D01*
Y227750D02*
Y229848D01*
X668329Y197750D02*
X666229D01*
X670250Y67750D02*
X792750D01*
X670250D02*
X547750D01*
X670250Y225250D02*
X672348D01*
X672750Y202171D02*
Y204271D01*
X675250Y72750D02*
X797750D01*
X675250D02*
X562750D01*
X552750D01*
X677171Y197750D02*
X679271D01*
X680250Y77750D02*
X802750D01*
X685250Y92750D02*
X707750D01*
X695250Y82750D02*
X580250D01*
X575250Y87750D01*
X435250D01*
X716439Y45250D02*
X714339D01*
X716439Y305250D02*
X714339D01*
X727750Y33939D02*
Y31839D01*
Y56561D02*
Y58661D01*
Y293939D02*
Y291839D01*
Y316561D02*
Y318661D01*
X739061Y45250D02*
X741161D01*
X739061Y305250D02*
X741161D01*
X743939Y45250D02*
X741839D01*
X743939Y305250D02*
X741839D01*
X745250Y147750D02*
X695250D01*
X685250Y157750D01*
X536500D01*
X526500Y147750D01*
X482750D01*
X472750Y137750D01*
X427750D01*
X417750Y127750D01*
X305250D01*
X290250Y112750D01*
X205250D01*
X200250Y117750D01*
Y122750D01*
X755250Y33939D02*
Y31839D01*
Y56561D02*
Y58661D01*
Y293939D02*
Y291839D01*
Y316561D02*
Y318661D01*
X757750Y152750D02*
X697750D01*
X672750Y177750D01*
X757750Y232750D02*
Y227750D01*
X750250Y220250D01*
X692750D01*
X766561Y45250D02*
X768661D01*
X766561Y305250D02*
X768661D01*
X767750Y162750D02*
X762750Y157750D01*
Y145250D01*
X760250Y142750D01*
X545250D01*
X535250Y132750D01*
X430250D01*
X420250Y122750D01*
X307750D01*
X292750Y107750D01*
X195250D01*
X180250Y92750D01*
X100250D01*
X767750Y232750D02*
Y222750D01*
X760250Y215250D01*
X697750D01*
X770250Y200250D02*
X702750D01*
X690250Y212750D01*
X660250D01*
X657750Y215250D01*
Y225250D01*
X777750Y232750D02*
Y222750D01*
X770250Y215250D01*
X777750Y242750D02*
X772750Y247750D01*
X752750D01*
X735250Y230250D01*
X682750D01*
X785250Y40250D02*
X783150D01*
X785250Y252750D02*
Y300250D01*
X787750Y302750D01*
X792750D01*
X787750Y37750D02*
Y35650D01*
Y42750D02*
Y44850D01*
Y242750D02*
X782750Y237750D01*
X755250D01*
X742750Y225250D01*
X687750D01*
X790100Y287750D02*
X788002D01*
X790250Y40250D02*
X792350D01*
X792750Y286281D02*
Y284183D01*
Y289219D02*
Y291317D01*
X795400Y287750D02*
X797498D01*
X795750Y312750D02*
X793652D01*
X797750Y72750D02*
X807750D01*
X797750Y152750D02*
X802750Y157750D01*
Y165250D01*
X797750Y170250D01*
X750250D01*
X745250Y165250D01*
X797750Y232750D02*
Y222750D01*
X780250Y205250D01*
X707750D01*
X797750Y242750D02*
X792750Y237750D01*
Y225250D01*
X777750Y210250D01*
X702750D01*
X798250Y310500D02*
Y308400D01*
Y315000D02*
Y317100D01*
X802750Y87750D02*
X817750D01*
X822750Y92750D01*
Y157750D01*
X827750Y162750D01*
X812750Y102750D02*
X802750D01*
X812750Y112750D02*
X560250D01*
X550250Y102750D01*
X445250D01*
X812750Y287750D02*
Y277750D01*
Y302750D02*
Y310250D01*
X810250Y312750D01*
X807750D01*
Y312250D01*
X807250Y312750D01*
X815250Y232750D02*
X813150D01*
X815250Y242750D02*
X813150D01*
X817750Y95250D02*
X792750D01*
X817750Y107750D02*
X562750D01*
X552750Y97750D01*
X440250D01*
X817750Y230250D02*
Y228150D01*
Y235250D02*
Y237350D01*
Y240250D02*
Y238150D01*
Y245250D02*
Y247350D01*
X820250Y232750D02*
X822350D01*
X820250Y242750D02*
X822350D01*
X820250Y282750D02*
Y300250D01*
X817750Y302750D01*
X812750D01*
X838500Y134250D02*
Y132152D01*
Y138750D02*
Y140848D01*
X838939Y20250D02*
X836839D01*
X838939Y45250D02*
X836839D01*
X838939Y305250D02*
X836839D01*
X841000Y136500D02*
X843100D01*
X850250Y8939D02*
Y6839D01*
Y56561D02*
Y58661D01*
Y293939D02*
Y291839D01*
Y316561D02*
Y318661D01*
X861561Y20250D02*
X863661D01*
X861561Y45250D02*
X863661D01*
X861561Y305250D02*
X863661D01*
D02*
D21*
X52750Y40250D03*
Y50250D03*
X62750Y40250D03*
Y50250D03*
X72750Y40250D03*
Y50250D03*
X82750Y40250D03*
Y50250D03*
X175250Y40250D03*
Y50250D03*
X185250Y40250D03*
Y50250D03*
X195250Y40250D03*
Y50250D03*
X205250Y40250D03*
Y50250D03*
X297750Y40250D03*
Y50250D03*
X307750Y40250D03*
Y50250D03*
X317750Y40250D03*
Y50250D03*
X327750Y40250D03*
Y50250D03*
X420250Y40250D03*
Y50250D03*
X430250Y40250D03*
Y50250D03*
X440250Y40250D03*
Y50250D03*
X450250Y40250D03*
Y50250D03*
X542750Y40250D03*
Y50250D03*
X552750Y40250D03*
Y50250D03*
X562750Y40250D03*
Y50250D03*
X572750Y40250D03*
Y50250D03*
X665250Y40250D03*
Y50250D03*
X675250Y40250D03*
Y50250D03*
X685250Y40250D03*
Y50250D03*
X695250Y40250D03*
Y50250D03*
X757750Y152750D03*
Y162750D03*
Y232750D03*
Y242750D03*
X767750Y152750D03*
Y162750D03*
Y232750D03*
Y242750D03*
X777750Y152750D03*
Y162750D03*
Y232750D03*
Y242750D03*
X787750Y40250D03*
Y50250D03*
Y152750D03*
Y162750D03*
Y232750D03*
Y242750D03*
X797750Y40250D03*
Y50250D03*
Y152750D03*
Y162750D03*
Y232750D03*
Y242750D03*
X807750Y40250D03*
Y50250D03*
Y152750D03*
Y162750D03*
Y232750D03*
Y242750D03*
X817750Y40250D03*
Y50250D03*
Y152750D03*
Y162750D03*
Y232750D03*
Y242750D03*
X827750Y152750D03*
Y162750D03*
Y232750D03*
Y242750D03*
D02*
D90*
X63250Y312750D03*
X72250D03*
X308250D03*
X317250D03*
X553250D03*
X562250D03*
X798250D03*
X807250D03*
X829500Y136500D03*
X838500D03*
D02*
D107*
X110250Y62750D02*
X57750D01*
X52750Y57750D01*
Y50250D01*
X175250Y60250D02*
Y50250D01*
Y62750D02*
Y60250D01*
Y62750D02*
X110250D01*
X297750Y60250D02*
Y50250D01*
Y60250D02*
X295250Y62750D01*
X175250D01*
Y60250D01*
X297750D02*
X300250Y62750D01*
X417750D01*
X420250Y60250D01*
X340171Y170250D02*
Y157346D01*
Y170250D02*
Y192750D01*
X420250Y50250D02*
Y60250D01*
X422750Y62750D01*
X467750D01*
X540250D01*
X542750Y60250D01*
Y50250D01*
Y60250D02*
X545250Y62750D01*
X597750D01*
X662750D01*
X665250Y60250D01*
X667750Y62750D01*
X785250D01*
X787750Y60250D01*
X665250D02*
Y50250D01*
X787750Y60250D02*
Y50250D01*
Y60250D02*
X790250Y62750D01*
X805250D01*
X829000Y86500D01*
Y136000D01*
X829500Y136500D01*
X827750Y152750D02*
Y145250D01*
X829000Y144000D01*
Y137000D01*
X829500Y136500D01*
D02*
D108*
X62750Y72750D03*
X65250Y282750D03*
X67750Y67750D03*
X77750Y77750D03*
Y87750D03*
X82750Y82750D03*
X85250Y282750D03*
X100250Y92750D03*
X110250Y62750D03*
X175250D03*
X180250Y67750D03*
D03*
X185250Y72750D03*
X190250Y77750D03*
X195250Y92750D03*
X200250Y97750D03*
X205250Y82750D03*
X210250Y72750D03*
X302750Y67750D03*
X307750Y72750D03*
X310250Y277750D03*
X312750Y77750D03*
X317750Y102750D03*
X322750Y97750D03*
Y272750D03*
X327750Y82750D03*
X330250Y282750D03*
X332297Y135250D03*
X335250Y165250D03*
X340171Y192750D03*
X397750Y92750D03*
X402750Y87750D03*
X407750Y82750D03*
X425250Y67750D03*
X430250Y72750D03*
Y82750D03*
X435250Y77750D03*
Y87750D03*
X440250Y97750D03*
X445250Y102750D03*
X450250Y92750D03*
X467750Y62750D03*
Y180250D03*
X476500Y216500D03*
X480250Y137750D03*
X487750Y211500D03*
X490250Y137750D03*
X492750Y206500D03*
X510250Y216500D03*
X521500Y211500D03*
X532750Y206500D03*
X547750Y67750D03*
X552750Y72750D03*
X555250Y277750D03*
X557750Y77750D03*
X562750Y97750D03*
X567750Y102750D03*
Y272750D03*
X570250Y152750D03*
X572750Y82750D03*
X575250Y282750D03*
X580250Y147750D03*
X597750Y62750D03*
X637750Y162750D03*
Y190250D03*
X647750D03*
X670250Y67750D03*
X675250Y72750D03*
X680250Y77750D03*
X682750Y152750D03*
Y230250D03*
X685250Y92750D03*
X687750Y147750D03*
Y225250D03*
X692750Y97750D03*
Y220250D03*
X695250Y82750D03*
X697750Y102750D03*
Y215250D03*
X702750Y210250D03*
X707750Y92750D03*
Y205250D03*
X745250Y147750D03*
Y165250D03*
X770250Y200250D03*
Y215250D03*
X785250Y252750D03*
X792750Y67750D03*
Y95250D03*
X797750Y72750D03*
X802750Y77750D03*
Y87750D03*
Y102750D03*
X807750Y72750D03*
X812750Y102750D03*
Y112750D03*
Y277750D03*
X817750Y82750D03*
Y95250D03*
Y107750D03*
X820250Y282750D03*
D02*
D109*
X180250Y67750D02*
X67750D01*
X180250D02*
D02*
D110*
X20250Y20250D03*
Y45250D03*
Y305250D03*
X115250Y45250D03*
Y305250D03*
X142750Y45250D03*
Y305250D03*
X237750Y45250D03*
Y305250D03*
X265250Y45250D03*
Y305250D03*
X360250Y45250D03*
Y305250D03*
X387750Y20250D03*
Y45250D03*
Y305250D03*
X482750Y20250D03*
Y45250D03*
Y305250D03*
X510250Y45250D03*
Y305250D03*
X605250Y45250D03*
Y305250D03*
X632750Y45250D03*
Y305250D03*
X727750Y45250D03*
Y305250D03*
X755250Y45250D03*
Y305250D03*
X850250Y20250D03*
Y45250D03*
Y305250D03*
D02*
D111*
X42750Y82750D03*
Y117750D03*
Y135250D03*
Y170250D03*
Y187750D03*
Y222750D03*
Y240250D03*
Y275250D03*
X647750Y170250D03*
Y205250D03*
D02*
D112*
X17750Y90250D03*
Y110250D03*
Y142750D03*
Y162750D03*
Y195250D03*
Y215250D03*
Y247750D03*
Y267750D03*
X67750Y90250D03*
Y110250D03*
Y142750D03*
Y162750D03*
Y195250D03*
Y215250D03*
Y247750D03*
Y267750D03*
X622750Y177750D03*
Y197750D03*
X672750Y177750D03*
Y197750D03*
D02*
D113*
X180250Y122750D03*
X190250D03*
X200250D03*
X210250D03*
X220250D03*
X560250Y187750D03*
X570250D03*
X580250D03*
X590250D03*
X617750Y225250D03*
X627750D03*
X637750D03*
X647750D03*
X657750D03*
X667750D03*
D02*
D116*
X319502Y145870D03*
Y157130D03*
X350998Y145870D03*
Y157130D03*
D02*
D132*
X57750Y287750D03*
Y302750D03*
X77750Y287750D03*
Y302750D03*
X302750Y287750D03*
Y302750D03*
X322750Y287750D03*
Y302750D03*
X547750Y287750D03*
Y302750D03*
X567750Y287750D03*
Y302750D03*
X792750Y287750D03*
Y302750D03*
X812750Y287750D03*
Y302750D03*
D02*
D133*
X324423Y145654D03*
Y157346D03*
X330329Y145654D03*
Y157346D03*
X332297Y145654D03*
Y157346D03*
X334266Y145654D03*
Y157346D03*
X336234Y145654D03*
Y157346D03*
X338203Y145654D03*
Y157346D03*
X340171Y145654D03*
Y157346D03*
X346077Y145654D03*
Y157346D03*
X0Y0D02*
M02*
