<svg width="223.7mm" height="85.3mm" version="1.1" viewBox="-2 -2 223.7 85.3" xml:space="preserve" xmlns="http://www.w3.org/2000/svg"><defs><style>.cls-1{fill:#1d1d1b;}</style></defs><g transform="translate(-.1574 -.1424)"><path d="m74.448 28.044c-2.6245-0.03267-5.125 1.7484-6.0073 4.2107-0.86386 2.2501-0.26275 4.9481 1.44 6.6457 1.6568 1.741 4.3372 2.4085 6.6076 1.601 2.5078-0.82882 4.3559-3.3272 4.3571-5.977 0.06743-2.6254-1.684-5.1487-4.1365-6.0612-0.71948-0.27684-1.49-0.41993-2.2609-0.41935z" color="#000000" stroke="#000" stroke-linecap="round" stroke-linejoin="round" stroke-miterlimit="10" stroke-width=".10118"/></g><g><path d="m209.48 50.326c-3.5319 0-6.4503 2.9178-6.4503 6.4497 0 3.5318 2.9181 6.4503 6.4503 6.4503 3.5321 0 6.4497-2.9182 6.4497-6.4503 0-3.5322-2.918-6.4497-6.4497-6.4497z" color="#000000"/><g stroke-linecap="round" stroke-linejoin="round" stroke-miterlimit="10"><path d="m209.48 10.32c-3.532 0-6.4503 2.9184-6.4503 6.4503 0 3.5319 2.9183 6.4508 6.4503 6.4508 3.5319 0 6.4497-2.9186 6.4497-6.4508 0-3.5321-2.9178-6.4503-6.4497-6.4503z" color="#000000" stroke-width=".102"/><path d="m55.875 27.851c-2.6454-0.03293-5.1657 1.7623-6.055 4.2441-0.87071 2.2679-0.26484 4.9873 1.4514 6.6985 1.67 1.7548 4.3716 2.4276 6.66 1.6137 2.5277-0.83539 4.3904-3.3536 4.3917-6.0244 0.06796-2.6462-1.6973-5.1896-4.1693-6.1092-0.72518-0.27904-1.5018-0.42326-2.2788-0.42267z" color="#000000" stroke-width=".10198"/><path d="m209.48 23.655c-3.532 0-6.4503 2.9189-6.4503 6.4508 0 3.5319 2.9183 6.4497 6.4503 6.4497 3.5319 0 6.4497-2.9176 6.4497-6.4497 0-3.5321-2.9178-6.4508-6.4497-6.4508z" color="#000000" stroke-width=".102"/><path d="m209.48 36.991c-3.5319 0-6.4503 2.9184-6.4503 6.4503 0 3.5318 2.9181 6.4497 6.4503 6.4497 3.5321 0 6.4497-2.9177 6.4497-6.4497 0-3.5322-2.918-6.4503-6.4497-6.4503z" color="#000000" stroke-width=".102"/></g></g><g transform="matrix(.26458 0 0 .26458 -379.1 240.84)" stroke-width=".28346"><path d="m1925.7-893.44a5.6693 5.6693 0 0 0-11.339 0 5.6693 5.6693 0 0 0 11.339 0z" stroke="#000" stroke-width=".501px"/><path d="m1781.7-893.44a5.6693 5.6693 0 0 0-11.339 0 5.6693 5.6693 0 0 0 11.339 0z" stroke="#000" stroke-width=".501px"/><g transform="translate(.26487 -24.012)" stroke="#000"><path d="m1781.4-619.83a5.6693 5.6693 0 0 0-11.339 0 5.6693 5.6693 0 0 0 11.339 0z" stroke-width=".501px"/><path d="m1925.4-619.83a5.6693 5.6693 0 0 0-11.339 0 5.6693 5.6693 0 0 0 11.339 0z" stroke-width=".501px"/></g><path transform="matrix(3.7795 0 0 3.7795 1432.3 -910.61)" d="m125.81 38.631c-0.85472 3e-6 -1.5586 0.70178-1.5586 1.5565v6.8849c0 0.85472 0.70384 1.5586 1.5586 1.5586h16.885c0.85471-2e-6 1.5565-0.70384 1.5565-1.5586v-6.8849c0-0.85472-0.70178-1.5565-1.5565-1.5565z" color="#000000" stroke-linecap="square" style="-inkscape-stroke:none;paint-order:markers stroke fill"/><g stroke-width=".167px"><g transform="matrix(3 0 0 3 2246.6 -4261)"><path d="m1.8898 1122.5a1.8898 1.8898 0 0 0-3.7795 0 1.8898 1.8898 0 0 0 3.7795 0z" stroke="#000"/></g><g transform="matrix(3 0 0 3 1449.4 -4261)"><path d="m1.8898 1122.5a1.8898 1.8898 0 0 0-3.7795 0 1.8898 1.8898 0 0 0 3.7795 0z" stroke="#000"/></g><g transform="matrix(3 0 0 3 2246.6 -3987.4)"><path d="m1.8898 1122.5a1.8898 1.8898 0 0 0-3.7795 0 1.8898 1.8898 0 0 0 3.7795 0z" stroke="#000"/></g><g transform="matrix(3 0 0 3 1449.4 -3987.4)"><path d="m1.8898 1122.5a1.8898 1.8898 0 0 0-3.7795 0 1.8898 1.8898 0 0 0 3.7795 0z" stroke="#000"/></g></g></g><path d="m0.049061-1.95h219.6a1.9991 1.9977 0 0 1 1.9991 1.9977v81.205a1.9991 1.9977 0 0 1-1.9991 1.9977h-219.6a1.9991 1.9977 0 0 1-1.9991-1.9977v-81.205a1.9991 1.9977 0 0 1 1.9991-1.9977z" fill="none" stroke="#000" stroke-linecap="round" stroke-linejoin="round" stroke-miterlimit="1" stroke-width=".099919" style="paint-order:stroke markers fill"/></svg>
