G04 DesignSpark PCB Gerber Version 11.0 Build 5877*
G04 #@! TF.Part,Single*
G04 #@! TF.FileFunction,Drillmap*
G04 #@! TF.FilePolarity,Positive*
%FSLAX35Y35*%
%MOIN*%
%ADD18C,0.00500*%
G04 #@! TA.AperFunction,ViaPad*
%ADD17C,0.10000*%
G04 #@! TD.AperFunction*
X0Y0D02*
D02*
D17*
X17750Y90250D03*
Y110250D03*
Y142750D03*
Y162750D03*
Y195250D03*
Y215250D03*
Y247750D03*
Y267750D03*
X20250Y20250D03*
Y45250D03*
Y305250D03*
X42750Y82750D03*
Y117750D03*
Y135250D03*
Y170250D03*
Y187750D03*
Y222750D03*
Y240250D03*
Y275250D03*
X52750Y40250D03*
Y50250D03*
X62750Y40250D03*
Y50250D03*
Y72750D03*
X65250Y282750D03*
X67750Y67750D03*
Y90250D03*
Y110250D03*
Y142750D03*
Y162750D03*
Y195250D03*
Y215250D03*
Y247750D03*
Y267750D03*
X72750Y40250D03*
Y50250D03*
X77750Y77750D03*
Y87750D03*
X82750Y40250D03*
Y50250D03*
Y82750D03*
X85250Y282750D03*
X100250Y92750D03*
X110250Y62750D03*
X115250Y45250D03*
Y305250D03*
X142750Y45250D03*
Y305250D03*
X175250Y40250D03*
Y50250D03*
Y62750D03*
X180250Y67750D03*
D03*
Y122750D03*
X185250Y40250D03*
Y50250D03*
Y72750D03*
X190250Y77750D03*
Y122750D03*
X195250Y40250D03*
Y50250D03*
Y92750D03*
X200250Y97750D03*
Y122750D03*
X205250Y40250D03*
Y50250D03*
Y82750D03*
X210250Y72750D03*
Y122750D03*
X220250D03*
X237750Y45250D03*
Y305250D03*
X265250Y45250D03*
Y305250D03*
X297750Y40250D03*
Y50250D03*
X302750Y67750D03*
X307750Y40250D03*
Y50250D03*
Y72750D03*
X310250Y277750D03*
X312750Y77750D03*
X317750Y40250D03*
Y50250D03*
Y102750D03*
X319502Y145870D03*
Y151500D03*
Y157130D03*
X322750Y97750D03*
Y272750D03*
X327750Y40250D03*
Y50250D03*
Y82750D03*
X330250Y282750D03*
X332297Y135250D03*
X335250Y165250D03*
X340171Y192750D03*
X350998Y145870D03*
Y151500D03*
Y157130D03*
X360250Y45250D03*
Y305250D03*
X387750Y20250D03*
Y45250D03*
Y305250D03*
X397750Y92750D03*
X402750Y87750D03*
X407750Y82750D03*
X420250Y40250D03*
Y50250D03*
X425250Y67750D03*
X430250Y40250D03*
Y50250D03*
Y72750D03*
Y82750D03*
X435250Y77750D03*
Y87750D03*
X440250Y40250D03*
Y50250D03*
Y97750D03*
X445250Y102750D03*
X450250Y40250D03*
Y50250D03*
Y92750D03*
X467750Y62750D03*
Y180250D03*
X476500Y216500D03*
X480250Y137750D03*
X482750Y20250D03*
Y45250D03*
Y305250D03*
X487750Y211500D03*
X490250Y137750D03*
X492750Y206500D03*
X510250Y45250D03*
Y216500D03*
Y305250D03*
X521500Y211500D03*
X532750Y206500D03*
X542750Y40250D03*
Y50250D03*
X547750Y67750D03*
X552750Y40250D03*
Y50250D03*
Y72750D03*
X555250Y277750D03*
X557750Y77750D03*
X560250Y187750D03*
X562750Y40250D03*
Y50250D03*
Y97750D03*
X567750Y102750D03*
Y272750D03*
X570250Y152750D03*
Y187750D03*
X572750Y40250D03*
Y50250D03*
Y82750D03*
X575250Y282750D03*
X580250Y147750D03*
Y187750D03*
X590250D03*
X597750Y62750D03*
X605250Y45250D03*
Y305250D03*
X617750Y225250D03*
X622750Y177750D03*
Y197750D03*
X627750Y225250D03*
X632750Y45250D03*
Y305250D03*
X637750Y162750D03*
Y190250D03*
Y225250D03*
X647750Y170250D03*
Y190250D03*
Y205250D03*
Y225250D03*
X657750D03*
X665250Y40250D03*
Y50250D03*
X667750Y225250D03*
X670250Y67750D03*
X672750Y177750D03*
Y197750D03*
X675250Y40250D03*
Y50250D03*
Y72750D03*
X680250Y77750D03*
X682750Y152750D03*
Y230250D03*
X685250Y40250D03*
Y50250D03*
Y92750D03*
X687750Y147750D03*
Y225250D03*
X692750Y97750D03*
Y220250D03*
X695250Y40250D03*
Y50250D03*
Y82750D03*
X697750Y102750D03*
Y215250D03*
X702750Y210250D03*
X707750Y92750D03*
Y205250D03*
X727750Y45250D03*
Y305250D03*
X745250Y147750D03*
Y165250D03*
X755250Y45250D03*
Y305250D03*
X757750Y152750D03*
Y162750D03*
Y232750D03*
Y242750D03*
X767750Y152750D03*
Y162750D03*
Y232750D03*
Y242750D03*
X770250Y200250D03*
Y215250D03*
X777750Y152750D03*
Y162750D03*
Y232750D03*
Y242750D03*
X785250Y252750D03*
X787750Y40250D03*
Y50250D03*
Y152750D03*
Y162750D03*
Y232750D03*
Y242750D03*
X792750Y67750D03*
Y95250D03*
X797750Y40250D03*
Y50250D03*
Y72750D03*
Y152750D03*
Y162750D03*
Y232750D03*
Y242750D03*
X802750Y77750D03*
Y87750D03*
Y102750D03*
X807750Y40250D03*
Y50250D03*
Y72750D03*
Y152750D03*
Y162750D03*
Y232750D03*
Y242750D03*
X812750Y102750D03*
Y112750D03*
Y277750D03*
X817750Y40250D03*
Y50250D03*
Y82750D03*
Y95250D03*
Y107750D03*
Y152750D03*
Y162750D03*
Y232750D03*
Y242750D03*
X820250Y282750D03*
X827750Y152750D03*
Y162750D03*
Y232750D03*
Y242750D03*
X850250Y20250D03*
Y45250D03*
Y305250D03*
D02*
D18*
X29937Y97750D02*
X30875D01*
Y97437D01*
X30563Y96813D01*
X30250Y96500D01*
X29625Y96187D01*
X29000D01*
X28375Y96500D01*
X28063Y96813D01*
X27750Y97437D01*
Y98687D01*
X28063Y99313D01*
X28375Y99625D01*
X29000Y99937D01*
X29625D01*
X30250Y99625D01*
X30563Y99313D01*
X30875Y98687D01*
X29937Y117750D02*
X30875D01*
Y117437D01*
X30563Y116813D01*
X30250Y116500D01*
X29625Y116187D01*
X29000D01*
X28375Y116500D01*
X28063Y116813D01*
X27750Y117437D01*
Y118687D01*
X28063Y119313D01*
X28375Y119625D01*
X29000Y119937D01*
X29625D01*
X30250Y119625D01*
X30563Y119313D01*
X30875Y118687D01*
X29937Y150250D02*
X30875D01*
Y149937D01*
X30563Y149313D01*
X30250Y149000D01*
X29625Y148687D01*
X29000D01*
X28375Y149000D01*
X28063Y149313D01*
X27750Y149937D01*
Y151187D01*
X28063Y151813D01*
X28375Y152125D01*
X29000Y152437D01*
X29625D01*
X30250Y152125D01*
X30563Y151813D01*
X30875Y151187D01*
X29937Y170250D02*
X30875D01*
Y169937D01*
X30563Y169313D01*
X30250Y169000D01*
X29625Y168687D01*
X29000D01*
X28375Y169000D01*
X28063Y169313D01*
X27750Y169937D01*
Y171187D01*
X28063Y171813D01*
X28375Y172125D01*
X29000Y172437D01*
X29625D01*
X30250Y172125D01*
X30563Y171813D01*
X30875Y171187D01*
X29937Y202750D02*
X30875D01*
Y202437D01*
X30563Y201813D01*
X30250Y201500D01*
X29625Y201187D01*
X29000D01*
X28375Y201500D01*
X28063Y201813D01*
X27750Y202437D01*
Y203687D01*
X28063Y204313D01*
X28375Y204625D01*
X29000Y204937D01*
X29625D01*
X30250Y204625D01*
X30563Y204313D01*
X30875Y203687D01*
X29937Y222750D02*
X30875D01*
Y222437D01*
X30563Y221813D01*
X30250Y221500D01*
X29625Y221187D01*
X29000D01*
X28375Y221500D01*
X28063Y221813D01*
X27750Y222437D01*
Y223687D01*
X28063Y224313D01*
X28375Y224625D01*
X29000Y224937D01*
X29625D01*
X30250Y224625D01*
X30563Y224313D01*
X30875Y223687D01*
X29937Y255250D02*
X30875D01*
Y254937D01*
X30563Y254313D01*
X30250Y254000D01*
X29625Y253687D01*
X29000D01*
X28375Y254000D01*
X28063Y254313D01*
X27750Y254937D01*
Y256187D01*
X28063Y256813D01*
X28375Y257125D01*
X29000Y257437D01*
X29625D01*
X30250Y257125D01*
X30563Y256813D01*
X30875Y256187D01*
X29937Y275250D02*
X30875D01*
Y274937D01*
X30563Y274313D01*
X30250Y274000D01*
X29625Y273687D01*
X29000D01*
X28375Y274000D01*
X28063Y274313D01*
X27750Y274937D01*
Y276187D01*
X28063Y276813D01*
X28375Y277125D01*
X29000Y277437D01*
X29625D01*
X30250Y277125D01*
X30563Y276813D01*
X30875Y276187D01*
X33375Y26813D02*
X33063Y26500D01*
X32437Y26187D01*
X31500D01*
X30875Y26500D01*
X30563Y26813D01*
X30250Y27437D01*
Y28687D01*
X30563Y29313D01*
X30875Y29625D01*
X31500Y29937D01*
X32437D01*
X33063Y29625D01*
X33375Y29313D01*
Y51813D02*
X33063Y51500D01*
X32437Y51187D01*
X31500D01*
X30875Y51500D01*
X30563Y51813D01*
X30250Y52437D01*
Y53687D01*
X30563Y54313D01*
X30875Y54625D01*
X31500Y54937D01*
X32437D01*
X33063Y54625D01*
X33375Y54313D01*
Y311813D02*
X33063Y311500D01*
X32437Y311187D01*
X31500D01*
X30875Y311500D01*
X30563Y311813D01*
X30250Y312437D01*
Y313687D01*
X30563Y314313D01*
X30875Y314625D01*
X31500Y314937D01*
X32437D01*
X33063Y314625D01*
X33375Y314313D01*
X54937Y90563D02*
X55563Y90250D01*
X55875Y89625D01*
X55563Y89000D01*
X54937Y88687D01*
X52750D01*
Y92437D01*
X54937D01*
X55563Y92125D01*
X55875Y91500D01*
X55563Y90875D01*
X54937Y90563D01*
X52750D01*
X54937Y125563D02*
X55563Y125250D01*
X55875Y124625D01*
X55563Y124000D01*
X54937Y123687D01*
X52750D01*
Y127437D01*
X54937D01*
X55563Y127125D01*
X55875Y126500D01*
X55563Y125875D01*
X54937Y125563D01*
X52750D01*
X54937Y143063D02*
X55563Y142750D01*
X55875Y142125D01*
X55563Y141500D01*
X54937Y141187D01*
X52750D01*
Y144937D01*
X54937D01*
X55563Y144625D01*
X55875Y144000D01*
X55563Y143375D01*
X54937Y143063D01*
X52750D01*
X54937Y178063D02*
X55563Y177750D01*
X55875Y177125D01*
X55563Y176500D01*
X54937Y176187D01*
X52750D01*
Y179937D01*
X54937D01*
X55563Y179625D01*
X55875Y179000D01*
X55563Y178375D01*
X54937Y178063D01*
X52750D01*
X54937Y195563D02*
X55563Y195250D01*
X55875Y194625D01*
X55563Y194000D01*
X54937Y193687D01*
X52750D01*
Y197437D01*
X54937D01*
X55563Y197125D01*
X55875Y196500D01*
X55563Y195875D01*
X54937Y195563D01*
X52750D01*
X54937Y230563D02*
X55563Y230250D01*
X55875Y229625D01*
X55563Y229000D01*
X54937Y228687D01*
X52750D01*
Y232437D01*
X54937D01*
X55563Y232125D01*
X55875Y231500D01*
X55563Y230875D01*
X54937Y230563D01*
X52750D01*
X54937Y248063D02*
X55563Y247750D01*
X55875Y247125D01*
X55563Y246500D01*
X54937Y246187D01*
X52750D01*
Y249937D01*
X54937D01*
X55563Y249625D01*
X55875Y249000D01*
X55563Y248375D01*
X54937Y248063D01*
X52750D01*
X54937Y283063D02*
X55563Y282750D01*
X55875Y282125D01*
X55563Y281500D01*
X54937Y281187D01*
X52750D01*
Y284937D01*
X54937D01*
X55563Y284625D01*
X55875Y284000D01*
X55563Y283375D01*
X54937Y283063D01*
X52750D01*
X62750Y46187D02*
Y49937D01*
X65875D01*
X65250Y48063D02*
X62750D01*
Y46187D02*
X65875D01*
X62750Y56187D02*
Y59937D01*
X65875D01*
X65250Y58063D02*
X62750D01*
Y56187D02*
X65875D01*
X72750Y46187D02*
Y49937D01*
X75875D01*
X75250Y48063D02*
X72750D01*
Y46187D02*
X75875D01*
X72750Y56187D02*
Y59937D01*
X75875D01*
X75250Y58063D02*
X72750D01*
Y56187D02*
X75875D01*
X72750Y78687D02*
X74313Y82437D01*
X75875Y78687D01*
X73375Y80250D02*
X75250D01*
Y288687D02*
X76813Y292437D01*
X78375Y288687D01*
X75875Y290250D02*
X77750D01*
Y73687D02*
X79313Y77437D01*
X80875Y73687D01*
X78375Y75250D02*
X80250D01*
X79937Y97750D02*
X80875D01*
Y97437D01*
X80563Y96813D01*
X80250Y96500D01*
X79625Y96187D01*
X79000D01*
X78375Y96500D01*
X78063Y96813D01*
X77750Y97437D01*
Y98687D01*
X78063Y99313D01*
X78375Y99625D01*
X79000Y99937D01*
X79625D01*
X80250Y99625D01*
X80563Y99313D01*
X80875Y98687D01*
X79937Y117750D02*
X80875D01*
Y117437D01*
X80563Y116813D01*
X80250Y116500D01*
X79625Y116187D01*
X79000D01*
X78375Y116500D01*
X78063Y116813D01*
X77750Y117437D01*
Y118687D01*
X78063Y119313D01*
X78375Y119625D01*
X79000Y119937D01*
X79625D01*
X80250Y119625D01*
X80563Y119313D01*
X80875Y118687D01*
X79937Y150250D02*
X80875D01*
Y149937D01*
X80563Y149313D01*
X80250Y149000D01*
X79625Y148687D01*
X79000D01*
X78375Y149000D01*
X78063Y149313D01*
X77750Y149937D01*
Y151187D01*
X78063Y151813D01*
X78375Y152125D01*
X79000Y152437D01*
X79625D01*
X80250Y152125D01*
X80563Y151813D01*
X80875Y151187D01*
X79937Y170250D02*
X80875D01*
Y169937D01*
X80563Y169313D01*
X80250Y169000D01*
X79625Y168687D01*
X79000D01*
X78375Y169000D01*
X78063Y169313D01*
X77750Y169937D01*
Y171187D01*
X78063Y171813D01*
X78375Y172125D01*
X79000Y172437D01*
X79625D01*
X80250Y172125D01*
X80563Y171813D01*
X80875Y171187D01*
X79937Y202750D02*
X80875D01*
Y202437D01*
X80563Y201813D01*
X80250Y201500D01*
X79625Y201187D01*
X79000D01*
X78375Y201500D01*
X78063Y201813D01*
X77750Y202437D01*
Y203687D01*
X78063Y204313D01*
X78375Y204625D01*
X79000Y204937D01*
X79625D01*
X80250Y204625D01*
X80563Y204313D01*
X80875Y203687D01*
X79937Y222750D02*
X80875D01*
Y222437D01*
X80563Y221813D01*
X80250Y221500D01*
X79625Y221187D01*
X79000D01*
X78375Y221500D01*
X78063Y221813D01*
X77750Y222437D01*
Y223687D01*
X78063Y224313D01*
X78375Y224625D01*
X79000Y224937D01*
X79625D01*
X80250Y224625D01*
X80563Y224313D01*
X80875Y223687D01*
X79937Y255250D02*
X80875D01*
Y254937D01*
X80563Y254313D01*
X80250Y254000D01*
X79625Y253687D01*
X79000D01*
X78375Y254000D01*
X78063Y254313D01*
X77750Y254937D01*
Y256187D01*
X78063Y256813D01*
X78375Y257125D01*
X79000Y257437D01*
X79625D01*
X80250Y257125D01*
X80563Y256813D01*
X80875Y256187D01*
X79937Y275250D02*
X80875D01*
Y274937D01*
X80563Y274313D01*
X80250Y274000D01*
X79625Y273687D01*
X79000D01*
X78375Y274000D01*
X78063Y274313D01*
X77750Y274937D01*
Y276187D01*
X78063Y276813D01*
X78375Y277125D01*
X79000Y277437D01*
X79625D01*
X80250Y277125D01*
X80563Y276813D01*
X80875Y276187D01*
X82750Y46187D02*
Y49937D01*
X85875D01*
X85250Y48063D02*
X82750D01*
Y46187D02*
X85875D01*
X82750Y56187D02*
Y59937D01*
X85875D01*
X85250Y58063D02*
X82750D01*
Y56187D02*
X85875D01*
X87750Y83687D02*
X89313Y87437D01*
X90875Y83687D01*
X88375Y85250D02*
X90250D01*
X87750Y93687D02*
X89313Y97437D01*
X90875Y93687D01*
X88375Y95250D02*
X90250D01*
X92750Y46187D02*
Y49937D01*
X95875D01*
X95250Y48063D02*
X92750D01*
Y46187D02*
X95875D01*
X92750Y56187D02*
Y59937D01*
X95875D01*
X95250Y58063D02*
X92750D01*
Y56187D02*
X95875D01*
X92750Y88687D02*
X94313Y92437D01*
X95875Y88687D01*
X93375Y90250D02*
X95250D01*
Y288687D02*
X96813Y292437D01*
X98375Y288687D01*
X95875Y290250D02*
X97750D01*
X110250Y98687D02*
X111813Y102437D01*
X113375Y98687D01*
X110875Y100250D02*
X112750D01*
X120250Y68687D02*
X121813Y72437D01*
X123375Y68687D01*
X120875Y70250D02*
X122750D01*
X128375Y51813D02*
X128063Y51500D01*
X127437Y51187D01*
X126500D01*
X125875Y51500D01*
X125563Y51813D01*
X125250Y52437D01*
Y53687D01*
X125563Y54313D01*
X125875Y54625D01*
X126500Y54937D01*
X127437D01*
X128063Y54625D01*
X128375Y54313D01*
Y311813D02*
X128063Y311500D01*
X127437Y311187D01*
X126500D01*
X125875Y311500D01*
X125563Y311813D01*
X125250Y312437D01*
Y313687D01*
X125563Y314313D01*
X125875Y314625D01*
X126500Y314937D01*
X127437D01*
X128063Y314625D01*
X128375Y314313D01*
X155875Y51813D02*
X155563Y51500D01*
X154937Y51187D01*
X154000D01*
X153375Y51500D01*
X153063Y51813D01*
X152750Y52437D01*
Y53687D01*
X153063Y54313D01*
X153375Y54625D01*
X154000Y54937D01*
X154937D01*
X155563Y54625D01*
X155875Y54313D01*
Y311813D02*
X155563Y311500D01*
X154937Y311187D01*
X154000D01*
X153375Y311500D01*
X153063Y311813D01*
X152750Y312437D01*
Y313687D01*
X153063Y314313D01*
X153375Y314625D01*
X154000Y314937D01*
X154937D01*
X155563Y314625D01*
X155875Y314313D01*
X185250Y46187D02*
Y49937D01*
X188375D01*
X187750Y48063D02*
X185250D01*
Y46187D02*
X188375D01*
X185250Y56187D02*
Y59937D01*
X188375D01*
X187750Y58063D02*
X185250D01*
Y56187D02*
X188375D01*
X185250Y68687D02*
X186813Y72437D01*
X188375Y68687D01*
X185875Y70250D02*
X187750D01*
X190250Y73687D02*
X191813Y77437D01*
X193375Y73687D01*
X190875Y75250D02*
X192750D01*
X190250Y73687D02*
X191813Y77437D01*
X193375Y73687D01*
X190875Y75250D02*
X192750D01*
X190250Y128687D02*
Y132437D01*
X193375D01*
X192750Y130563D02*
X190250D01*
Y128687D02*
X193375D01*
X195250Y46187D02*
Y49937D01*
X198375D01*
X197750Y48063D02*
X195250D01*
Y46187D02*
X198375D01*
X195250Y56187D02*
Y59937D01*
X198375D01*
X197750Y58063D02*
X195250D01*
Y56187D02*
X198375D01*
X195250Y78687D02*
X196813Y82437D01*
X198375Y78687D01*
X195875Y80250D02*
X197750D01*
X200250Y83687D02*
X201813Y87437D01*
X203375Y83687D01*
X200875Y85250D02*
X202750D01*
X200250Y128687D02*
Y132437D01*
X203375D01*
X202750Y130563D02*
X200250D01*
Y128687D02*
X203375D01*
X205250Y46187D02*
Y49937D01*
X208375D01*
X207750Y48063D02*
X205250D01*
Y46187D02*
X208375D01*
X205250Y56187D02*
Y59937D01*
X208375D01*
X207750Y58063D02*
X205250D01*
Y56187D02*
X208375D01*
X205250Y98687D02*
X206813Y102437D01*
X208375Y98687D01*
X205875Y100250D02*
X207750D01*
X210250Y103687D02*
X211813Y107437D01*
X213375Y103687D01*
X210875Y105250D02*
X212750D01*
X210250Y128687D02*
Y132437D01*
X213375D01*
X212750Y130563D02*
X210250D01*
Y128687D02*
X213375D01*
X215250Y46187D02*
Y49937D01*
X218375D01*
X217750Y48063D02*
X215250D01*
Y46187D02*
X218375D01*
X215250Y56187D02*
Y59937D01*
X218375D01*
X217750Y58063D02*
X215250D01*
Y56187D02*
X218375D01*
X215250Y88687D02*
X216813Y92437D01*
X218375Y88687D01*
X215875Y90250D02*
X217750D01*
X220250Y78687D02*
X221813Y82437D01*
X223375Y78687D01*
X220875Y80250D02*
X222750D01*
X220250Y128687D02*
Y132437D01*
X223375D01*
X222750Y130563D02*
X220250D01*
Y128687D02*
X223375D01*
X230250D02*
Y132437D01*
X233375D01*
X232750Y130563D02*
X230250D01*
Y128687D02*
X233375D01*
X250875Y51813D02*
X250563Y51500D01*
X249937Y51187D01*
X249000D01*
X248375Y51500D01*
X248063Y51813D01*
X247750Y52437D01*
Y53687D01*
X248063Y54313D01*
X248375Y54625D01*
X249000Y54937D01*
X249937D01*
X250563Y54625D01*
X250875Y54313D01*
Y311813D02*
X250563Y311500D01*
X249937Y311187D01*
X249000D01*
X248375Y311500D01*
X248063Y311813D01*
X247750Y312437D01*
Y313687D01*
X248063Y314313D01*
X248375Y314625D01*
X249000Y314937D01*
X249937D01*
X250563Y314625D01*
X250875Y314313D01*
X278375Y51813D02*
X278063Y51500D01*
X277437Y51187D01*
X276500D01*
X275875Y51500D01*
X275563Y51813D01*
X275250Y52437D01*
Y53687D01*
X275563Y54313D01*
X275875Y54625D01*
X276500Y54937D01*
X277437D01*
X278063Y54625D01*
X278375Y54313D01*
Y311813D02*
X278063Y311500D01*
X277437Y311187D01*
X276500D01*
X275875Y311500D01*
X275563Y311813D01*
X275250Y312437D01*
Y313687D01*
X275563Y314313D01*
X275875Y314625D01*
X276500Y314937D01*
X277437D01*
X278063Y314625D01*
X278375Y314313D01*
X307750Y46187D02*
Y49937D01*
X310875D01*
X310250Y48063D02*
X307750D01*
Y46187D02*
X310875D01*
X307750Y56187D02*
Y59937D01*
X310875D01*
X310250Y58063D02*
X307750D01*
Y56187D02*
X310875D01*
X312750Y73687D02*
X314313Y77437D01*
X315875Y73687D01*
X313375Y75250D02*
X315250D01*
X317750Y46187D02*
Y49937D01*
X320875D01*
X320250Y48063D02*
X317750D01*
Y46187D02*
X320875D01*
X317750Y56187D02*
Y59937D01*
X320875D01*
X320250Y58063D02*
X317750D01*
Y56187D02*
X320875D01*
X317750Y78687D02*
X319313Y82437D01*
X320875Y78687D01*
X318375Y80250D02*
X320250D01*
Y283687D02*
X321813Y287437D01*
X323375Y283687D01*
X320875Y285250D02*
X322750D01*
Y83687D02*
X324313Y87437D01*
X325875Y83687D01*
X323375Y85250D02*
X325250D01*
X327750Y46187D02*
Y49937D01*
X330875D01*
X330250Y48063D02*
X327750D01*
Y46187D02*
X330875D01*
X327750Y56187D02*
Y59937D01*
X330875D01*
X330250Y58063D02*
X327750D01*
Y56187D02*
X330875D01*
X327750Y108687D02*
X329313Y112437D01*
X330875Y108687D01*
X328375Y110250D02*
X330250D01*
X329502Y151807D02*
Y155557D01*
X331689D01*
X332315Y155245D01*
X332627Y154620D01*
X332315Y153995D01*
X331689Y153683D01*
X329502D01*
X331689D02*
X332627Y151807D01*
X329502Y157437D02*
Y161187D01*
X332627Y157437D01*
Y161187D01*
X329502Y163067D02*
Y166817D01*
X331689D01*
X332315Y166505D01*
X332627Y165880D01*
X332315Y165255D01*
X331689Y164943D01*
X329502D01*
X331689D02*
X332627Y163067D01*
X332750Y103687D02*
X334313Y107437D01*
X335875Y103687D01*
X333375Y105250D02*
X335250D01*
X332750Y278687D02*
X334313Y282437D01*
X335875Y278687D01*
X333375Y280250D02*
X335250D01*
X337750Y46187D02*
Y49937D01*
X340875D01*
X340250Y48063D02*
X337750D01*
Y46187D02*
X340875D01*
X337750Y56187D02*
Y59937D01*
X340875D01*
X340250Y58063D02*
X337750D01*
Y56187D02*
X340875D01*
X337750Y88687D02*
X339313Y92437D01*
X340875Y88687D01*
X338375Y90250D02*
X340250D01*
Y288687D02*
X341813Y292437D01*
X343375Y288687D01*
X340875Y290250D02*
X342750D01*
X342297Y141187D02*
X343860Y144937D01*
X345422Y141187D01*
X342922Y142750D02*
X344797D01*
X345250Y171187D02*
X346813Y174937D01*
X348375Y171187D01*
X345875Y172750D02*
X347750D01*
X350171Y198687D02*
X351734Y202437D01*
X353296Y198687D01*
X350796Y200250D02*
X352671D01*
X360998Y151807D02*
Y155557D01*
X363185D01*
X363811Y155245D01*
X364123Y154620D01*
X363811Y153995D01*
X363185Y153683D01*
X360998D01*
X363185D02*
X364123Y151807D01*
X360998Y157437D02*
Y161187D01*
X364123Y157437D01*
Y161187D01*
X360998Y163067D02*
Y166817D01*
X363185D01*
X363811Y166505D01*
X364123Y165880D01*
X363811Y165255D01*
X363185Y164943D01*
X360998D01*
X363185D02*
X364123Y163067D01*
X373375Y51813D02*
X373063Y51500D01*
X372437Y51187D01*
X371500D01*
X370875Y51500D01*
X370563Y51813D01*
X370250Y52437D01*
Y53687D01*
X370563Y54313D01*
X370875Y54625D01*
X371500Y54937D01*
X372437D01*
X373063Y54625D01*
X373375Y54313D01*
Y311813D02*
X373063Y311500D01*
X372437Y311187D01*
X371500D01*
X370875Y311500D01*
X370563Y311813D01*
X370250Y312437D01*
Y313687D01*
X370563Y314313D01*
X370875Y314625D01*
X371500Y314937D01*
X372437D01*
X373063Y314625D01*
X373375Y314313D01*
X400875Y26813D02*
X400563Y26500D01*
X399937Y26187D01*
X399000D01*
X398375Y26500D01*
X398063Y26813D01*
X397750Y27437D01*
Y28687D01*
X398063Y29313D01*
X398375Y29625D01*
X399000Y29937D01*
X399937D01*
X400563Y29625D01*
X400875Y29313D01*
Y51813D02*
X400563Y51500D01*
X399937Y51187D01*
X399000D01*
X398375Y51500D01*
X398063Y51813D01*
X397750Y52437D01*
Y53687D01*
X398063Y54313D01*
X398375Y54625D01*
X399000Y54937D01*
X399937D01*
X400563Y54625D01*
X400875Y54313D01*
Y311813D02*
X400563Y311500D01*
X399937Y311187D01*
X399000D01*
X398375Y311500D01*
X398063Y311813D01*
X397750Y312437D01*
Y313687D01*
X398063Y314313D01*
X398375Y314625D01*
X399000Y314937D01*
X399937D01*
X400563Y314625D01*
X400875Y314313D01*
X407750Y98687D02*
X409313Y102437D01*
X410875Y98687D01*
X408375Y100250D02*
X410250D01*
X412750Y93687D02*
X414313Y97437D01*
X415875Y93687D01*
X413375Y95250D02*
X415250D01*
X417750Y88687D02*
X419313Y92437D01*
X420875Y88687D01*
X418375Y90250D02*
X420250D01*
X430250Y46187D02*
Y49937D01*
X433375D01*
X432750Y48063D02*
X430250D01*
Y46187D02*
X433375D01*
X430250Y56187D02*
Y59937D01*
X433375D01*
X432750Y58063D02*
X430250D01*
Y56187D02*
X433375D01*
X435250Y73687D02*
X436813Y77437D01*
X438375Y73687D01*
X435875Y75250D02*
X437750D01*
X440250Y46187D02*
Y49937D01*
X443375D01*
X442750Y48063D02*
X440250D01*
Y46187D02*
X443375D01*
X440250Y56187D02*
Y59937D01*
X443375D01*
X442750Y58063D02*
X440250D01*
Y56187D02*
X443375D01*
X440250Y78687D02*
X441813Y82437D01*
X443375Y78687D01*
X440875Y80250D02*
X442750D01*
X440250Y88687D02*
X441813Y92437D01*
X443375Y88687D01*
X440875Y90250D02*
X442750D01*
X445250Y83687D02*
X446813Y87437D01*
X448375Y83687D01*
X445875Y85250D02*
X447750D01*
X445250Y93687D02*
X446813Y97437D01*
X448375Y93687D01*
X445875Y95250D02*
X447750D01*
X450250Y46187D02*
Y49937D01*
X453375D01*
X452750Y48063D02*
X450250D01*
Y46187D02*
X453375D01*
X450250Y56187D02*
Y59937D01*
X453375D01*
X452750Y58063D02*
X450250D01*
Y56187D02*
X453375D01*
X450250Y103687D02*
X451813Y107437D01*
X453375Y103687D01*
X450875Y105250D02*
X452750D01*
X455250Y108687D02*
X456813Y112437D01*
X458375Y108687D01*
X455875Y110250D02*
X457750D01*
X460250Y46187D02*
Y49937D01*
X463375D01*
X462750Y48063D02*
X460250D01*
Y46187D02*
X463375D01*
X460250Y56187D02*
Y59937D01*
X463375D01*
X462750Y58063D02*
X460250D01*
Y56187D02*
X463375D01*
X460250Y98687D02*
X461813Y102437D01*
X463375Y98687D01*
X460875Y100250D02*
X462750D01*
X477750Y68687D02*
X479313Y72437D01*
X480875Y68687D01*
X478375Y70250D02*
X480250D01*
X477750Y186187D02*
X479313Y189937D01*
X480875Y186187D01*
X478375Y187750D02*
X480250D01*
X486500Y222437D02*
X488063Y226187D01*
X489625Y222437D01*
X487125Y224000D02*
X489000D01*
X490250Y143687D02*
X491813Y147437D01*
X493375Y143687D01*
X490875Y145250D02*
X492750D01*
X495875Y26813D02*
X495563Y26500D01*
X494937Y26187D01*
X494000D01*
X493375Y26500D01*
X493063Y26813D01*
X492750Y27437D01*
Y28687D01*
X493063Y29313D01*
X493375Y29625D01*
X494000Y29937D01*
X494937D01*
X495563Y29625D01*
X495875Y29313D01*
Y51813D02*
X495563Y51500D01*
X494937Y51187D01*
X494000D01*
X493375Y51500D01*
X493063Y51813D01*
X492750Y52437D01*
Y53687D01*
X493063Y54313D01*
X493375Y54625D01*
X494000Y54937D01*
X494937D01*
X495563Y54625D01*
X495875Y54313D01*
Y311813D02*
X495563Y311500D01*
X494937Y311187D01*
X494000D01*
X493375Y311500D01*
X493063Y311813D01*
X492750Y312437D01*
Y313687D01*
X493063Y314313D01*
X493375Y314625D01*
X494000Y314937D01*
X494937D01*
X495563Y314625D01*
X495875Y314313D01*
X497750Y217437D02*
X499313Y221187D01*
X500875Y217437D01*
X498375Y219000D02*
X500250D01*
Y143687D02*
X501813Y147437D01*
X503375Y143687D01*
X500875Y145250D02*
X502750D01*
Y212437D02*
X504313Y216187D01*
X505875Y212437D01*
X503375Y214000D02*
X505250D01*
X523375Y51813D02*
X523063Y51500D01*
X522437Y51187D01*
X521500D01*
X520875Y51500D01*
X520563Y51813D01*
X520250Y52437D01*
Y53687D01*
X520563Y54313D01*
X520875Y54625D01*
X521500Y54937D01*
X522437D01*
X523063Y54625D01*
X523375Y54313D01*
X520250Y222437D02*
X521813Y226187D01*
X523375Y222437D01*
X520875Y224000D02*
X522750D01*
X523375Y311813D02*
X523063Y311500D01*
X522437Y311187D01*
X521500D01*
X520875Y311500D01*
X520563Y311813D01*
X520250Y312437D01*
Y313687D01*
X520563Y314313D01*
X520875Y314625D01*
X521500Y314937D01*
X522437D01*
X523063Y314625D01*
X523375Y314313D01*
X531500Y217437D02*
X533063Y221187D01*
X534625Y217437D01*
X532125Y219000D02*
X534000D01*
X542750Y212437D02*
X544313Y216187D01*
X545875Y212437D01*
X543375Y214000D02*
X545250D01*
X552750Y46187D02*
Y49937D01*
X555875D01*
X555250Y48063D02*
X552750D01*
Y46187D02*
X555875D01*
X552750Y56187D02*
Y59937D01*
X555875D01*
X555250Y58063D02*
X552750D01*
Y56187D02*
X555875D01*
X557750Y73687D02*
X559313Y77437D01*
X560875Y73687D01*
X558375Y75250D02*
X560250D01*
X562750Y46187D02*
Y49937D01*
X565875D01*
X565250Y48063D02*
X562750D01*
Y46187D02*
X565875D01*
X562750Y56187D02*
Y59937D01*
X565875D01*
X565250Y58063D02*
X562750D01*
Y56187D02*
X565875D01*
X562750Y78687D02*
X564313Y82437D01*
X565875Y78687D01*
X563375Y80250D02*
X565250D01*
Y283687D02*
X566813Y287437D01*
X568375Y283687D01*
X565875Y285250D02*
X567750D01*
Y83687D02*
X569313Y87437D01*
X570875Y83687D01*
X568375Y85250D02*
X570250D01*
Y193687D02*
Y197437D01*
X573375D01*
X572750Y195563D02*
X570250D01*
Y193687D02*
X573375D01*
X572750Y46187D02*
Y49937D01*
X575875D01*
X575250Y48063D02*
X572750D01*
Y46187D02*
X575875D01*
X572750Y56187D02*
Y59937D01*
X575875D01*
X575250Y58063D02*
X572750D01*
Y56187D02*
X575875D01*
X572750Y103687D02*
X574313Y107437D01*
X575875Y103687D01*
X573375Y105250D02*
X575250D01*
X577750Y108687D02*
X579313Y112437D01*
X580875Y108687D01*
X578375Y110250D02*
X580250D01*
X577750Y278687D02*
X579313Y282437D01*
X580875Y278687D01*
X578375Y280250D02*
X580250D01*
Y158687D02*
X581813Y162437D01*
X583375Y158687D01*
X580875Y160250D02*
X582750D01*
X580250Y193687D02*
Y197437D01*
X583375D01*
X582750Y195563D02*
X580250D01*
Y193687D02*
X583375D01*
X582750Y46187D02*
Y49937D01*
X585875D01*
X585250Y48063D02*
X582750D01*
Y46187D02*
X585875D01*
X582750Y56187D02*
Y59937D01*
X585875D01*
X585250Y58063D02*
X582750D01*
Y56187D02*
X585875D01*
X582750Y88687D02*
X584313Y92437D01*
X585875Y88687D01*
X583375Y90250D02*
X585250D01*
Y288687D02*
X586813Y292437D01*
X588375Y288687D01*
X585875Y290250D02*
X587750D01*
X590250Y153687D02*
X591813Y157437D01*
X593375Y153687D01*
X590875Y155250D02*
X592750D01*
X590250Y193687D02*
Y197437D01*
X593375D01*
X592750Y195563D02*
X590250D01*
Y193687D02*
X593375D01*
X600250D02*
Y197437D01*
X603375D01*
X602750Y195563D02*
X600250D01*
Y193687D02*
X603375D01*
X607750Y68687D02*
X609313Y72437D01*
X610875Y68687D01*
X608375Y70250D02*
X610250D01*
X618375Y51813D02*
X618063Y51500D01*
X617437Y51187D01*
X616500D01*
X615875Y51500D01*
X615563Y51813D01*
X615250Y52437D01*
Y53687D01*
X615563Y54313D01*
X615875Y54625D01*
X616500Y54937D01*
X617437D01*
X618063Y54625D01*
X618375Y54313D01*
Y311813D02*
X618063Y311500D01*
X617437Y311187D01*
X616500D01*
X615875Y311500D01*
X615563Y311813D01*
X615250Y312437D01*
Y313687D01*
X615563Y314313D01*
X615875Y314625D01*
X616500Y314937D01*
X617437D01*
X618063Y314625D01*
X618375Y314313D01*
X627750Y231187D02*
Y234937D01*
X630875D01*
X630250Y233063D02*
X627750D01*
Y231187D02*
X630875D01*
X634937Y185250D02*
X635875D01*
Y184937D01*
X635563Y184313D01*
X635250Y184000D01*
X634625Y183687D01*
X634000D01*
X633375Y184000D01*
X633063Y184313D01*
X632750Y184937D01*
Y186187D01*
X633063Y186813D01*
X633375Y187125D01*
X634000Y187437D01*
X634625D01*
X635250Y187125D01*
X635563Y186813D01*
X635875Y186187D01*
X634937Y205250D02*
X635875D01*
Y204937D01*
X635563Y204313D01*
X635250Y204000D01*
X634625Y203687D01*
X634000D01*
X633375Y204000D01*
X633063Y204313D01*
X632750Y204937D01*
Y206187D01*
X633063Y206813D01*
X633375Y207125D01*
X634000Y207437D01*
X634625D01*
X635250Y207125D01*
X635563Y206813D01*
X635875Y206187D01*
X637750Y231187D02*
Y234937D01*
X640875D01*
X640250Y233063D02*
X637750D01*
Y231187D02*
X640875D01*
X645875Y51813D02*
X645563Y51500D01*
X644937Y51187D01*
X644000D01*
X643375Y51500D01*
X643063Y51813D01*
X642750Y52437D01*
Y53687D01*
X643063Y54313D01*
X643375Y54625D01*
X644000Y54937D01*
X644937D01*
X645563Y54625D01*
X645875Y54313D01*
Y311813D02*
X645563Y311500D01*
X644937Y311187D01*
X644000D01*
X643375Y311500D01*
X643063Y311813D01*
X642750Y312437D01*
Y313687D01*
X643063Y314313D01*
X643375Y314625D01*
X644000Y314937D01*
X644937D01*
X645563Y314625D01*
X645875Y314313D01*
X647750Y168687D02*
X649313Y172437D01*
X650875Y168687D01*
X648375Y170250D02*
X650250D01*
X647750Y196187D02*
X649313Y199937D01*
X650875Y196187D01*
X648375Y197750D02*
X650250D01*
X647750Y231187D02*
Y234937D01*
X650875D01*
X650250Y233063D02*
X647750D01*
Y231187D02*
X650875D01*
X659937Y178063D02*
X660563Y177750D01*
X660875Y177125D01*
X660563Y176500D01*
X659937Y176187D01*
X657750D01*
Y179937D01*
X659937D01*
X660563Y179625D01*
X660875Y179000D01*
X660563Y178375D01*
X659937Y178063D01*
X657750D01*
Y196187D02*
X659313Y199937D01*
X660875Y196187D01*
X658375Y197750D02*
X660250D01*
X659937Y213063D02*
X660563Y212750D01*
X660875Y212125D01*
X660563Y211500D01*
X659937Y211187D01*
X657750D01*
Y214937D01*
X659937D01*
X660563Y214625D01*
X660875Y214000D01*
X660563Y213375D01*
X659937Y213063D01*
X657750D01*
Y231187D02*
Y234937D01*
X660875D01*
X660250Y233063D02*
X657750D01*
Y231187D02*
X660875D01*
X667750D02*
Y234937D01*
X670875D01*
X670250Y233063D02*
X667750D01*
Y231187D02*
X670875D01*
X675250Y46187D02*
Y49937D01*
X678375D01*
X677750Y48063D02*
X675250D01*
Y46187D02*
X678375D01*
X675250Y56187D02*
Y59937D01*
X678375D01*
X677750Y58063D02*
X675250D01*
Y56187D02*
X678375D01*
X677750Y231187D02*
Y234937D01*
X680875D01*
X680250Y233063D02*
X677750D01*
Y231187D02*
X680875D01*
X680250Y73687D02*
X681813Y77437D01*
X683375Y73687D01*
X680875Y75250D02*
X682750D01*
X684937Y185250D02*
X685875D01*
Y184937D01*
X685563Y184313D01*
X685250Y184000D01*
X684625Y183687D01*
X684000D01*
X683375Y184000D01*
X683063Y184313D01*
X682750Y184937D01*
Y186187D01*
X683063Y186813D01*
X683375Y187125D01*
X684000Y187437D01*
X684625D01*
X685250Y187125D01*
X685563Y186813D01*
X685875Y186187D01*
X684937Y205250D02*
X685875D01*
Y204937D01*
X685563Y204313D01*
X685250Y204000D01*
X684625Y203687D01*
X684000D01*
X683375Y204000D01*
X683063Y204313D01*
X682750Y204937D01*
Y206187D01*
X683063Y206813D01*
X683375Y207125D01*
X684000Y207437D01*
X684625D01*
X685250Y207125D01*
X685563Y206813D01*
X685875Y206187D01*
X685250Y46187D02*
Y49937D01*
X688375D01*
X687750Y48063D02*
X685250D01*
Y46187D02*
X688375D01*
X685250Y56187D02*
Y59937D01*
X688375D01*
X687750Y58063D02*
X685250D01*
Y56187D02*
X688375D01*
X685250Y78687D02*
X686813Y82437D01*
X688375Y78687D01*
X685875Y80250D02*
X687750D01*
X690250Y83687D02*
X691813Y87437D01*
X693375Y83687D01*
X690875Y85250D02*
X692750D01*
Y158687D02*
X694313Y162437D01*
X695875Y158687D01*
X693375Y160250D02*
X695250D01*
X692750Y236187D02*
X694313Y239937D01*
X695875Y236187D01*
X693375Y237750D02*
X695250D01*
Y46187D02*
Y49937D01*
X698375D01*
X697750Y48063D02*
X695250D01*
Y46187D02*
X698375D01*
X695250Y56187D02*
Y59937D01*
X698375D01*
X697750Y58063D02*
X695250D01*
Y56187D02*
X698375D01*
X695250Y98687D02*
X696813Y102437D01*
X698375Y98687D01*
X695875Y100250D02*
X697750D01*
Y153687D02*
X699313Y157437D01*
X700875Y153687D01*
X698375Y155250D02*
X700250D01*
X697750Y231187D02*
X699313Y234937D01*
X700875Y231187D01*
X698375Y232750D02*
X700250D01*
X702750Y103687D02*
X704313Y107437D01*
X705875Y103687D01*
X703375Y105250D02*
X705250D01*
X702750Y226187D02*
X704313Y229937D01*
X705875Y226187D01*
X703375Y227750D02*
X705250D01*
Y46187D02*
Y49937D01*
X708375D01*
X707750Y48063D02*
X705250D01*
Y46187D02*
X708375D01*
X705250Y56187D02*
Y59937D01*
X708375D01*
X707750Y58063D02*
X705250D01*
Y56187D02*
X708375D01*
X705250Y88687D02*
X706813Y92437D01*
X708375Y88687D01*
X705875Y90250D02*
X707750D01*
Y108687D02*
X709313Y112437D01*
X710875Y108687D01*
X708375Y110250D02*
X710250D01*
X707750Y221187D02*
X709313Y224937D01*
X710875Y221187D01*
X708375Y222750D02*
X710250D01*
X712750Y216187D02*
X714313Y219937D01*
X715875Y216187D01*
X713375Y217750D02*
X715250D01*
X717750Y98687D02*
X719313Y102437D01*
X720875Y98687D01*
X718375Y100250D02*
X720250D01*
X717750Y211187D02*
X719313Y214937D01*
X720875Y211187D01*
X718375Y212750D02*
X720250D01*
X740875Y51813D02*
X740563Y51500D01*
X739937Y51187D01*
X739000D01*
X738375Y51500D01*
X738063Y51813D01*
X737750Y52437D01*
Y53687D01*
X738063Y54313D01*
X738375Y54625D01*
X739000Y54937D01*
X739937D01*
X740563Y54625D01*
X740875Y54313D01*
Y311813D02*
X740563Y311500D01*
X739937Y311187D01*
X739000D01*
X738375Y311500D01*
X738063Y311813D01*
X737750Y312437D01*
Y313687D01*
X738063Y314313D01*
X738375Y314625D01*
X739000Y314937D01*
X739937D01*
X740563Y314625D01*
X740875Y314313D01*
X755250Y153687D02*
X756813Y157437D01*
X758375Y153687D01*
X755875Y155250D02*
X757750D01*
X755250Y171187D02*
X756813Y174937D01*
X758375Y171187D01*
X755875Y172750D02*
X757750D01*
X768375Y51813D02*
X768063Y51500D01*
X767437Y51187D01*
X766500D01*
X765875Y51500D01*
X765563Y51813D01*
X765250Y52437D01*
Y53687D01*
X765563Y54313D01*
X765875Y54625D01*
X766500Y54937D01*
X767437D01*
X768063Y54625D01*
X768375Y54313D01*
Y311813D02*
X768063Y311500D01*
X767437Y311187D01*
X766500D01*
X765875Y311500D01*
X765563Y311813D01*
X765250Y312437D01*
Y313687D01*
X765563Y314313D01*
X765875Y314625D01*
X766500Y314937D01*
X767437D01*
X768063Y314625D01*
X768375Y314313D01*
X767750Y158687D02*
Y162437D01*
X770875D01*
X770250Y160563D02*
X767750D01*
Y158687D02*
X770875D01*
X767750Y168687D02*
Y172437D01*
X770875D01*
X770250Y170563D02*
X767750D01*
Y168687D02*
X770875D01*
X767750Y238687D02*
Y242437D01*
X770875D01*
X770250Y240563D02*
X767750D01*
Y238687D02*
X770875D01*
X767750Y248687D02*
Y252437D01*
X770875D01*
X770250Y250563D02*
X767750D01*
Y248687D02*
X770875D01*
X777750Y158687D02*
Y162437D01*
X780875D01*
X780250Y160563D02*
X777750D01*
Y158687D02*
X780875D01*
X777750Y168687D02*
Y172437D01*
X780875D01*
X780250Y170563D02*
X777750D01*
Y168687D02*
X780875D01*
X777750Y238687D02*
Y242437D01*
X780875D01*
X780250Y240563D02*
X777750D01*
Y238687D02*
X780875D01*
X777750Y248687D02*
Y252437D01*
X780875D01*
X780250Y250563D02*
X777750D01*
Y248687D02*
X780875D01*
X780250Y206187D02*
X781813Y209937D01*
X783375Y206187D01*
X780875Y207750D02*
X782750D01*
X780250Y221187D02*
X781813Y224937D01*
X783375Y221187D01*
X780875Y222750D02*
X782750D01*
X787750Y158687D02*
Y162437D01*
X790875D01*
X790250Y160563D02*
X787750D01*
Y158687D02*
X790875D01*
X787750Y168687D02*
Y172437D01*
X790875D01*
X790250Y170563D02*
X787750D01*
Y168687D02*
X790875D01*
X787750Y238687D02*
Y242437D01*
X790875D01*
X790250Y240563D02*
X787750D01*
Y238687D02*
X790875D01*
X787750Y248687D02*
Y252437D01*
X790875D01*
X790250Y250563D02*
X787750D01*
Y248687D02*
X790875D01*
X795250Y258687D02*
X796813Y262437D01*
X798375Y258687D01*
X795875Y260250D02*
X797750D01*
Y46187D02*
Y49937D01*
X800875D01*
X800250Y48063D02*
X797750D01*
Y46187D02*
X800875D01*
X797750Y56187D02*
Y59937D01*
X800875D01*
X800250Y58063D02*
X797750D01*
Y56187D02*
X800875D01*
X797750Y158687D02*
Y162437D01*
X800875D01*
X800250Y160563D02*
X797750D01*
Y158687D02*
X800875D01*
X797750Y168687D02*
Y172437D01*
X800875D01*
X800250Y170563D02*
X797750D01*
Y168687D02*
X800875D01*
X797750Y238687D02*
Y242437D01*
X800875D01*
X800250Y240563D02*
X797750D01*
Y238687D02*
X800875D01*
X797750Y248687D02*
Y252437D01*
X800875D01*
X800250Y250563D02*
X797750D01*
Y248687D02*
X800875D01*
X802750Y73687D02*
X804313Y77437D01*
X805875Y73687D01*
X803375Y75250D02*
X805250D01*
X802750Y101187D02*
X804313Y104937D01*
X805875Y101187D01*
X803375Y102750D02*
X805250D01*
X807750Y46187D02*
Y49937D01*
X810875D01*
X810250Y48063D02*
X807750D01*
Y46187D02*
X810875D01*
X807750Y56187D02*
Y59937D01*
X810875D01*
X810250Y58063D02*
X807750D01*
Y56187D02*
X810875D01*
X807750Y78687D02*
X809313Y82437D01*
X810875Y78687D01*
X808375Y80250D02*
X810250D01*
X807750Y158687D02*
Y162437D01*
X810875D01*
X810250Y160563D02*
X807750D01*
Y158687D02*
X810875D01*
X807750Y168687D02*
Y172437D01*
X810875D01*
X810250Y170563D02*
X807750D01*
Y168687D02*
X810875D01*
X807750Y238687D02*
Y242437D01*
X810875D01*
X810250Y240563D02*
X807750D01*
Y238687D02*
X810875D01*
X807750Y248687D02*
Y252437D01*
X810875D01*
X810250Y250563D02*
X807750D01*
Y248687D02*
X810875D01*
X812750Y83687D02*
X814313Y87437D01*
X815875Y83687D01*
X813375Y85250D02*
X815250D01*
X812750Y93687D02*
X814313Y97437D01*
X815875Y93687D01*
X813375Y95250D02*
X815250D01*
X812750Y108687D02*
X814313Y112437D01*
X815875Y108687D01*
X813375Y110250D02*
X815250D01*
X817750Y46187D02*
Y49937D01*
X820875D01*
X820250Y48063D02*
X817750D01*
Y46187D02*
X820875D01*
X817750Y56187D02*
Y59937D01*
X820875D01*
X820250Y58063D02*
X817750D01*
Y56187D02*
X820875D01*
X817750Y78687D02*
X819313Y82437D01*
X820875Y78687D01*
X818375Y80250D02*
X820250D01*
X817750Y158687D02*
Y162437D01*
X820875D01*
X820250Y160563D02*
X817750D01*
Y158687D02*
X820875D01*
X817750Y168687D02*
Y172437D01*
X820875D01*
X820250Y170563D02*
X817750D01*
Y168687D02*
X820875D01*
X817750Y238687D02*
Y242437D01*
X820875D01*
X820250Y240563D02*
X817750D01*
Y238687D02*
X820875D01*
X817750Y248687D02*
Y252437D01*
X820875D01*
X820250Y250563D02*
X817750D01*
Y248687D02*
X820875D01*
X822750Y108687D02*
X824313Y112437D01*
X825875Y108687D01*
X823375Y110250D02*
X825250D01*
X822750Y118687D02*
X824313Y122437D01*
X825875Y118687D01*
X823375Y120250D02*
X825250D01*
X822750Y283687D02*
X824313Y287437D01*
X825875Y283687D01*
X823375Y285250D02*
X825250D01*
X827750Y46187D02*
Y49937D01*
X830875D01*
X830250Y48063D02*
X827750D01*
Y46187D02*
X830875D01*
X827750Y56187D02*
Y59937D01*
X830875D01*
X830250Y58063D02*
X827750D01*
Y56187D02*
X830875D01*
X827750Y88687D02*
X829313Y92437D01*
X830875Y88687D01*
X828375Y90250D02*
X830250D01*
X827750Y101187D02*
X829313Y104937D01*
X830875Y101187D01*
X828375Y102750D02*
X830250D01*
X827750Y113687D02*
X829313Y117437D01*
X830875Y113687D01*
X828375Y115250D02*
X830250D01*
X827750Y158687D02*
Y162437D01*
X830875D01*
X830250Y160563D02*
X827750D01*
Y158687D02*
X830875D01*
X827750Y168687D02*
Y172437D01*
X830875D01*
X830250Y170563D02*
X827750D01*
Y168687D02*
X830875D01*
X827750Y238687D02*
Y242437D01*
X830875D01*
X830250Y240563D02*
X827750D01*
Y238687D02*
X830875D01*
X827750Y248687D02*
Y252437D01*
X830875D01*
X830250Y250563D02*
X827750D01*
Y248687D02*
X830875D01*
X830250Y288687D02*
X831813Y292437D01*
X833375Y288687D01*
X830875Y290250D02*
X832750D01*
X837750Y158687D02*
Y162437D01*
X840875D01*
X840250Y160563D02*
X837750D01*
Y158687D02*
X840875D01*
X837750Y168687D02*
Y172437D01*
X840875D01*
X840250Y170563D02*
X837750D01*
Y168687D02*
X840875D01*
X837750Y238687D02*
Y242437D01*
X840875D01*
X840250Y240563D02*
X837750D01*
Y238687D02*
X840875D01*
X837750Y248687D02*
Y252437D01*
X840875D01*
X840250Y250563D02*
X837750D01*
Y248687D02*
X840875D01*
X863375Y26813D02*
X863063Y26500D01*
X862437Y26187D01*
X861500D01*
X860875Y26500D01*
X860563Y26813D01*
X860250Y27437D01*
Y28687D01*
X860563Y29313D01*
X860875Y29625D01*
X861500Y29937D01*
X862437D01*
X863063Y29625D01*
X863375Y29313D01*
Y51813D02*
X863063Y51500D01*
X862437Y51187D01*
X861500D01*
X860875Y51500D01*
X860563Y51813D01*
X860250Y52437D01*
Y53687D01*
X860563Y54313D01*
X860875Y54625D01*
X861500Y54937D01*
X862437D01*
X863063Y54625D01*
X863375Y54313D01*
Y311813D02*
X863063Y311500D01*
X862437Y311187D01*
X861500D01*
X860875Y311500D01*
X860563Y311813D01*
X860250Y312437D01*
Y313687D01*
X860563Y314313D01*
X860875Y314625D01*
X861500Y314937D01*
X862437D01*
X863063Y314625D01*
X863375Y314313D01*
X0Y0D02*
M02*
