<?xml version="1.0" encoding="UTF-8" standalone="no"?>
<svg
   viewBox="0 0 830.17332 308.1023"
   width="830.17334"
   height="308.10229"
   version="1.1"
   id="svg81"
   sodipodi:docname="FrontPanel.svg"
   inkscape:version="1.3.2 (091e20e, 2023-11-25)"
   inkscape:export-filename="DXF_PCB2_2_2024-02-24.dxf.svg"
   inkscape:export-xdpi="96"
   inkscape:export-ydpi="96"
   xmlns:inkscape="http://www.inkscape.org/namespaces/inkscape"
   xmlns:sodipodi="http://sodipodi.sourceforge.net/DTD/sodipodi-0.dtd"
   xmlns="http://www.w3.org/2000/svg"
   xmlns:svg="http://www.w3.org/2000/svg">
  <sodipodi:namedview
     id="namedview81"
     pagecolor="#ffffff"
     bordercolor="#000000"
     borderopacity="0.25"
     inkscape:showpageshadow="2"
     inkscape:pageopacity="0.0"
     inkscape:pagecheckerboard="0"
     inkscape:deskcolor="#d1d1d1"
     inkscape:zoom="2.9862914"
     inkscape:cx="32.649191"
     inkscape:cy="178.14738"
     inkscape:window-width="1920"
     inkscape:window-height="1027"
     inkscape:window-x="0"
     inkscape:window-y="25"
     inkscape:window-maximized="0"
     inkscape:current-layer="g37" />
  <desc
     id="desc1">DXF_PCB2_2_2024-02-24.dxf - scale = 1.000000, origin = (0.000000, 0.000000), method = file</desc>
  <defs
     id="defs4">
    <marker
       id="DistanceX"
       orient="auto"
       refX="0"
       refY="0"
       style="overflow:visible">
      <path
         d="M 3,-3 -3,3 M 0,-5 V 5"
         style="stroke:#000000;stroke-width:0.5"
         id="path1" />
    </marker>
    <pattern
       id="Hatch"
       patternUnits="userSpaceOnUse"
       width="8"
       height="8"
       x="0"
       y="0">
      <path
         d="M8 4 l-4,4"
         stroke="#000000"
         stroke-width="0.25"
         linecap="square"
         id="path2" />
      <path
         d="M6 2 l-4,4"
         stroke="#000000"
         stroke-width="0.25"
         linecap="square"
         id="path3" />
      <path
         d="M4 0 l-4,4"
         stroke="#000000"
         stroke-width="0.25"
         linecap="square"
         id="path4" />
    </pattern>
    <symbol
       id="*Model_Space" />
    <symbol
       id="*Paper_Space" />
    <symbol
       id="*Paper_Space0" />
  </defs>
  <g
     inkscape:groupmode="layer"
     inkscape:label="Top Layer"
     id="g37"
     style="display:inline"
     transform="translate(0.5,-1122.0197)">
    <path
       d="M 0,1122.5197 V 1429.622 H 829.17331 V 1122.5197 Z"
       style="display:none;fill:none;stroke:#000000"
       id="path5" />
    <path
       d="m 1.30615,1428.2437 v -304.5684 h 827.48316 v 304.5684 z"
       style="display:none;fill:none;stroke:#000000"
       id="path6" />
    <path
       d="m 1.30615,1428.2437 v -304.5684 h 827.48316 v 304.5684 z"
       style="display:none;fill:#000000"
       id="path7" />
    <path
       d="m 94.86643,1368.3215 2.824281,-0.3182 2.682659,-0.9387 2.40652,-1.5121 2.00971,-2.0097 1.51211,-2.4065 0.9387,-2.6827 0.31822,-2.8243 v 0 -158.9551 0 l -0.31822,-2.8243 -0.9387,-2.6827 -1.51211,-2.4065 -2.00971,-2.0097 -2.40652,-1.5121 -2.682659,-0.9387 -2.824281,-0.3182 v 0 H 28.263455 v 0 l -2.824281,0.3182 -2.68266,0.9387 -2.406519,1.5121 -2.009705,2.0097 -1.512116,2.4065 -0.938704,2.6827 -0.31822,2.8243 v 0 158.9551 0 l 0.31822,2.8243 0.938704,2.6827 1.512116,2.4065 2.009705,2.0097 2.406519,1.5121 2.68266,0.9387 2.824281,0.3182 v 0 z"
       style="display:inline;fill:none;stroke:#000000"
       id="path8" />
    <path
       d="m 1.30615,1428.2437 v -304.5684 h 827.48316 v 304.5684 z m 93.56028,-59.9222 2.824281,-0.3182 2.682659,-0.9387 2.40652,-1.5121 2.00971,-2.0097 1.51211,-2.4065 0.9387,-2.6827 0.31822,-2.8243 v 0 -158.9551 0 l -0.31822,-2.8243 -0.9387,-2.6827 -1.51211,-2.4065 -2.00971,-2.0097 -2.40652,-1.5121 -2.682659,-0.9387 -2.824281,-0.3182 v 0 H 28.263455 v 0 l -2.824281,0.3182 -2.68266,0.9387 -2.406519,1.5121 -2.009705,2.0097 -1.512116,2.4065 -0.938704,2.6827 -0.31822,2.8243 v 0 158.9551 0 l 0.31822,2.8243 0.938704,2.6827 1.512116,2.4065 2.009705,2.0097 2.406519,1.5121 2.68266,0.9387 2.824281,0.3182 v 0 z"
       style="display:none;fill:#000000"
       id="path9" />
    <path
       d="m 684.77961,1368.3215 2.82428,-0.3182 2.68266,-0.9387 2.40652,-1.5121 2.00971,-2.0097 1.51211,-2.4065 0.93871,-2.6827 0.31822,-2.8243 v 0 -158.9551 0 l -0.31822,-2.8243 -0.93871,-2.6827 -1.51211,-2.4065 -2.00971,-2.0097 -2.40652,-1.5121 -2.68266,-0.9387 -2.82428,-0.3182 v 0 h -66.60297 v 0 l -2.82428,0.3182 -2.68266,0.9387 -2.40652,1.5121 -2.00971,2.0097 -1.51211,2.4065 -0.93871,2.6827 -0.31822,2.8243 v 0 158.9551 0 l 0.31822,2.8243 0.93871,2.6827 1.51211,2.4065 2.00971,2.0097 2.40652,1.5121 2.68266,0.9387 2.82428,0.3182 v 0 z"
       style="display:inline;fill:none;stroke:#000000"
       id="path10"
       sodipodi:insensitive="true" />
    <path
       d="m 1.30615,1428.2437 v -304.5684 h 827.48316 v 304.5684 z m 93.56028,-59.9222 2.824281,-0.3182 2.682659,-0.9387 2.40652,-1.5121 2.00971,-2.0097 1.51211,-2.4065 0.9387,-2.6827 0.31822,-2.8243 v 0 -158.9551 0 l -0.31822,-2.8243 -0.9387,-2.6827 -1.51211,-2.4065 -2.00971,-2.0097 -2.40652,-1.5121 -2.682659,-0.9387 -2.824281,-0.3182 v 0 H 28.263455 v 0 l -2.824281,0.3182 -2.68266,0.9387 -2.406519,1.5121 -2.009705,2.0097 -1.512116,2.4065 -0.938704,2.6827 -0.31822,2.8243 v 0 158.9551 0 l 0.31822,2.8243 0.938704,2.6827 1.512116,2.4065 2.009705,2.0097 2.406519,1.5121 2.68266,0.9387 2.824281,0.3182 v 0 z m 589.91318,0 2.82428,-0.3182 2.68266,-0.9387 2.40652,-1.5121 2.00971,-2.0097 1.51211,-2.4065 0.93871,-2.6827 0.31822,-2.8243 v 0 -158.9551 0 l -0.31822,-2.8243 -0.93871,-2.6827 -1.51211,-2.4065 -2.00971,-2.0097 -2.40652,-1.5121 -2.68266,-0.9387 -2.82428,-0.3182 v 0 h -66.60297 v 0 l -2.82428,0.3182 -2.68266,0.9387 -2.40652,1.5121 -2.00971,2.0097 -1.51211,2.4065 -0.93871,2.6827 -0.31822,2.8243 v 0 158.9551 0 l 0.31822,2.8243 0.93871,2.6827 1.51211,2.4065 2.00971,2.0097 2.40652,1.5121 2.68266,0.9387 2.82428,0.3182 v 0 z"
       style="display:none;fill:#000000"
       id="path11" />
    <path
       d="m 802.67584,1368.3215 2.82429,-0.3182 2.68266,-0.9387 2.40651,-1.5121 2.00971,-2.0097 1.51212,-2.4065 0.9387,-2.6827 0.31822,-2.8243 v 0 -158.9551 0 l -0.31822,-2.8243 -0.9387,-2.6827 -1.51212,-2.4065 -2.00971,-2.0097 -2.40651,-1.5121 -2.68266,-0.9387 -2.82429,-0.3182 v 0 h -66.60297 v 0 l -2.82428,0.3182 -2.68266,0.9387 -2.40652,1.5121 -2.0097,2.0097 -1.51212,2.4065 -0.9387,2.6827 -0.31822,2.8243 v 0 158.9551 0 l 0.31822,2.8243 0.9387,2.6827 1.51212,2.4065 2.0097,2.0097 2.40652,1.5121 2.68266,0.9387 2.82428,0.3182 v 0 z"
       style="display:inline;fill:none;stroke:#000000"
       id="path12" />
    <path
       d="m 1.30615,1428.2437 v -304.5684 h 827.48316 v 304.5684 z m 93.56028,-59.9222 2.824281,-0.3182 2.682659,-0.9387 2.40652,-1.5121 2.00971,-2.0097 1.51211,-2.4065 0.9387,-2.6827 0.31822,-2.8243 v 0 -158.9551 0 l -0.31822,-2.8243 -0.9387,-2.6827 -1.51211,-2.4065 -2.00971,-2.0097 -2.40652,-1.5121 -2.682659,-0.9387 -2.824281,-0.3182 v 0 H 28.263455 v 0 l -2.824281,0.3182 -2.68266,0.9387 -2.406519,1.5121 -2.009705,2.0097 -1.512116,2.4065 -0.938704,2.6827 -0.31822,2.8243 v 0 158.9551 0 l 0.31822,2.8243 0.938704,2.6827 1.512116,2.4065 2.009705,2.0097 2.406519,1.5121 2.68266,0.9387 2.824281,0.3182 v 0 z m 589.91318,0 2.82428,-0.3182 2.68266,-0.9387 2.40652,-1.5121 2.00971,-2.0097 1.51211,-2.4065 0.93871,-2.6827 0.31822,-2.8243 v 0 -158.9551 0 l -0.31822,-2.8243 -0.93871,-2.6827 -1.51211,-2.4065 -2.00971,-2.0097 -2.40652,-1.5121 -2.68266,-0.9387 -2.82428,-0.3182 v 0 h -66.60297 v 0 l -2.82428,0.3182 -2.68266,0.9387 -2.40652,1.5121 -2.00971,2.0097 -1.51211,2.4065 -0.93871,2.6827 -0.31822,2.8243 v 0 158.9551 0 l 0.31822,2.8243 0.93871,2.6827 1.51211,2.4065 2.00971,2.0097 2.40652,1.5121 2.68266,0.9387 2.82428,0.3182 v 0 z m 117.89623,0 2.82429,-0.3182 2.68266,-0.9387 2.40651,-1.5121 2.00971,-2.0097 1.51212,-2.4065 0.9387,-2.6827 0.31822,-2.8243 v 0 -158.9551 0 l -0.31822,-2.8243 -0.9387,-2.6827 -1.51212,-2.4065 -2.00971,-2.0097 -2.40651,-1.5121 -2.68266,-0.9387 -2.82429,-0.3182 v 0 h -66.60297 v 0 l -2.82428,0.3182 -2.68266,0.9387 -2.40652,1.5121 -2.0097,2.0097 -1.51212,2.4065 -0.9387,2.6827 -0.31822,2.8243 v 0 158.9551 0 l 0.31822,2.8243 0.9387,2.6827 1.51212,2.4065 2.0097,2.0097 2.40652,1.5121 2.68266,0.9387 2.82428,0.3182 v 0 z"
       style="display:none;fill:#000000"
       id="path13" />
    <path
       d="m 213.19466,1368.3215 2.82428,-0.3182 2.68266,-0.9387 2.40652,-1.5121 2.00971,-2.0097 1.51211,-2.4065 0.93871,-2.6827 0.31822,-2.8243 v 0 -158.9551 0 l -0.31822,-2.8243 -0.93871,-2.6827 -1.51211,-2.4065 -2.00971,-2.0097 -2.40652,-1.5121 -2.68266,-0.9387 -2.82428,-0.3182 v 0 h -66.60297 v 0 l -2.82428,0.3182 -2.68266,0.9387 -2.40652,1.5121 -2.00971,2.0097 -1.51211,2.4065 -0.93871,2.6827 -0.31822,2.8243 v 0 158.9551 0 l 0.31822,2.8243 0.93871,2.6827 1.51211,2.4065 2.00971,2.0097 2.40652,1.5121 2.68266,0.9387 2.82428,0.3182 v 0 z"
       style="display:inline;fill:none;stroke:#000000"
       id="path14" />
    <path
       d="m 1.30615,1428.2437 v -304.5684 h 827.48316 v 304.5684 z m 93.56028,-59.9222 2.824281,-0.3182 2.682659,-0.9387 2.40652,-1.5121 2.00971,-2.0097 1.51211,-2.4065 0.9387,-2.6827 0.31822,-2.8243 v 0 -158.9551 0 l -0.31822,-2.8243 -0.9387,-2.6827 -1.51211,-2.4065 -2.00971,-2.0097 -2.40652,-1.5121 -2.682659,-0.9387 -2.824281,-0.3182 v 0 H 28.263455 v 0 l -2.824281,0.3182 -2.68266,0.9387 -2.406519,1.5121 -2.009705,2.0097 -1.512116,2.4065 -0.938704,2.6827 -0.31822,2.8243 v 0 158.9551 0 l 0.31822,2.8243 0.938704,2.6827 1.512116,2.4065 2.009705,2.0097 2.406519,1.5121 2.68266,0.9387 2.824281,0.3182 v 0 z m 589.91318,0 2.82428,-0.3182 2.68266,-0.9387 2.40652,-1.5121 2.00971,-2.0097 1.51211,-2.4065 0.93871,-2.6827 0.31822,-2.8243 v 0 -158.9551 0 l -0.31822,-2.8243 -0.93871,-2.6827 -1.51211,-2.4065 -2.00971,-2.0097 -2.40652,-1.5121 -2.68266,-0.9387 -2.82428,-0.3182 v 0 h -66.60297 v 0 l -2.82428,0.3182 -2.68266,0.9387 -2.40652,1.5121 -2.00971,2.0097 -1.51211,2.4065 -0.93871,2.6827 -0.31822,2.8243 v 0 158.9551 0 l 0.31822,2.8243 0.93871,2.6827 1.51211,2.4065 2.00971,2.0097 2.40652,1.5121 2.68266,0.9387 2.82428,0.3182 v 0 z m 117.89623,0 2.82429,-0.3182 2.68266,-0.9387 2.40651,-1.5121 2.00971,-2.0097 1.51212,-2.4065 0.9387,-2.6827 0.31822,-2.8243 v 0 -158.9551 0 l -0.31822,-2.8243 -0.9387,-2.6827 -1.51212,-2.4065 -2.00971,-2.0097 -2.40651,-1.5121 -2.68266,-0.9387 -2.82429,-0.3182 v 0 h -66.60297 v 0 l -2.82428,0.3182 -2.68266,0.9387 -2.40652,1.5121 -2.0097,2.0097 -1.51212,2.4065 -0.9387,2.6827 -0.31822,2.8243 v 0 158.9551 0 l 0.31822,2.8243 0.9387,2.6827 1.51212,2.4065 2.0097,2.0097 2.40652,1.5121 2.68266,0.9387 2.82428,0.3182 v 0 z m -589.48118,0 2.82428,-0.3182 2.68266,-0.9387 2.40652,-1.5121 2.00971,-2.0097 1.51211,-2.4065 0.93871,-2.6827 0.31822,-2.8243 v 0 -158.9551 0 l -0.31822,-2.8243 -0.93871,-2.6827 -1.51211,-2.4065 -2.00971,-2.0097 -2.40652,-1.5121 -2.68266,-0.9387 -2.82428,-0.3182 v 0 h -66.60297 v 0 l -2.82428,0.3182 -2.68266,0.9387 -2.40652,1.5121 -2.00971,2.0097 -1.51211,2.4065 -0.93871,2.6827 -0.31822,2.8243 v 0 158.9551 0 l 0.31822,2.8243 0.93871,2.6827 1.51211,2.4065 2.00971,2.0097 2.40652,1.5121 2.68266,0.9387 2.82428,0.3182 v 0 z"
       style="display:none;fill:#000000"
       id="path15" />
    <path
       d="m 448.98714,1368.3215 2.82428,-0.3182 2.68266,-0.9387 2.40652,-1.5121 2.0097,-2.0097 1.51212,-2.4065 0.9387,-2.6827 0.31822,-2.8243 v 0 -158.9551 0 l -0.31822,-2.8243 -0.9387,-2.6827 -1.51212,-2.4065 -2.0097,-2.0097 -2.40652,-1.5121 -2.68266,-0.9387 -2.82428,-0.3182 v 0 h -66.60298 v 0 l -2.82428,0.3182 -2.68266,0.9387 -2.40652,1.5121 -2.0097,2.0097 -1.51212,2.4065 -0.9387,2.6827 -0.31822,2.8243 v 0 158.9551 0 l 0.31822,2.8243 0.9387,2.6827 1.51212,2.4065 2.0097,2.0097 2.40652,1.5121 2.68266,0.9387 2.82428,0.3182 v 0 z"
       style="display:inline;fill:none;stroke:#000000"
       id="path16" />
    <path
       d="m 1.30615,1428.2437 v -304.5684 h 827.48316 v 304.5684 z m 93.56028,-59.9222 2.824281,-0.3182 2.682659,-0.9387 2.40652,-1.5121 2.00971,-2.0097 1.51211,-2.4065 0.9387,-2.6827 0.31822,-2.8243 v 0 -158.9551 0 l -0.31822,-2.8243 -0.9387,-2.6827 -1.51211,-2.4065 -2.00971,-2.0097 -2.40652,-1.5121 -2.682659,-0.9387 -2.824281,-0.3182 v 0 H 28.263455 v 0 l -2.824281,0.3182 -2.68266,0.9387 -2.406519,1.5121 -2.009705,2.0097 -1.512116,2.4065 -0.938704,2.6827 -0.31822,2.8243 v 0 158.9551 0 l 0.31822,2.8243 0.938704,2.6827 1.512116,2.4065 2.009705,2.0097 2.406519,1.5121 2.68266,0.9387 2.824281,0.3182 v 0 z m 589.91318,0 2.82428,-0.3182 2.68266,-0.9387 2.40652,-1.5121 2.00971,-2.0097 1.51211,-2.4065 0.93871,-2.6827 0.31822,-2.8243 v 0 -158.9551 0 l -0.31822,-2.8243 -0.93871,-2.6827 -1.51211,-2.4065 -2.00971,-2.0097 -2.40652,-1.5121 -2.68266,-0.9387 -2.82428,-0.3182 v 0 h -66.60297 v 0 l -2.82428,0.3182 -2.68266,0.9387 -2.40652,1.5121 -2.00971,2.0097 -1.51211,2.4065 -0.93871,2.6827 -0.31822,2.8243 v 0 158.9551 0 l 0.31822,2.8243 0.93871,2.6827 1.51211,2.4065 2.00971,2.0097 2.40652,1.5121 2.68266,0.9387 2.82428,0.3182 v 0 z m 117.89623,0 2.82429,-0.3182 2.68266,-0.9387 2.40651,-1.5121 2.00971,-2.0097 1.51212,-2.4065 0.9387,-2.6827 0.31822,-2.8243 v 0 -158.9551 0 l -0.31822,-2.8243 -0.9387,-2.6827 -1.51212,-2.4065 -2.00971,-2.0097 -2.40651,-1.5121 -2.68266,-0.9387 -2.82429,-0.3182 v 0 h -66.60297 v 0 l -2.82428,0.3182 -2.68266,0.9387 -2.40652,1.5121 -2.0097,2.0097 -1.51212,2.4065 -0.9387,2.6827 -0.31822,2.8243 v 0 158.9551 0 l 0.31822,2.8243 0.9387,2.6827 1.51212,2.4065 2.0097,2.0097 2.40652,1.5121 2.68266,0.9387 2.82428,0.3182 v 0 z m -589.48118,0 2.82428,-0.3182 2.68266,-0.9387 2.40652,-1.5121 2.00971,-2.0097 1.51211,-2.4065 0.93871,-2.6827 0.31822,-2.8243 v 0 -158.9551 0 l -0.31822,-2.8243 -0.93871,-2.6827 -1.51211,-2.4065 -2.00971,-2.0097 -2.40652,-1.5121 -2.68266,-0.9387 -2.82428,-0.3182 v 0 h -66.60297 v 0 l -2.82428,0.3182 -2.68266,0.9387 -2.40652,1.5121 -2.00971,2.0097 -1.51211,2.4065 -0.93871,2.6827 -0.31822,2.8243 v 0 158.9551 0 l 0.31822,2.8243 0.93871,2.6827 1.51211,2.4065 2.00971,2.0097 2.40652,1.5121 2.68266,0.9387 2.82428,0.3182 v 0 z m 235.79248,0 2.82428,-0.3182 2.68266,-0.9387 2.40652,-1.5121 2.0097,-2.0097 1.51212,-2.4065 0.9387,-2.6827 0.31822,-2.8243 v 0 -158.9551 0 l -0.31822,-2.8243 -0.9387,-2.6827 -1.51212,-2.4065 -2.0097,-2.0097 -2.40652,-1.5121 -2.68266,-0.9387 -2.82428,-0.3182 v 0 h -66.60298 v 0 l -2.82428,0.3182 -2.68266,0.9387 -2.40652,1.5121 -2.0097,2.0097 -1.51212,2.4065 -0.9387,2.6827 -0.31822,2.8243 v 0 158.9551 0 l 0.31822,2.8243 0.9387,2.6827 1.51212,2.4065 2.0097,2.0097 2.40652,1.5121 2.68266,0.9387 2.82428,0.3182 v 0 z"
       style="display:none;fill:#000000"
       id="path17" />
    <path
       d="m 566.88337,1368.3215 2.82428,-0.3182 2.68266,-0.9387 2.40652,-1.5121 2.00971,-2.0097 1.51211,-2.4065 0.9387,-2.6827 0.31822,-2.8243 v 0 -158.9551 0 l -0.31822,-2.8243 -0.9387,-2.6827 -1.51211,-2.4065 -2.00971,-2.0097 -2.40652,-1.5121 -2.68266,-0.9387 -2.82428,-0.3182 v 0 H 500.2804 v 0 l -2.82429,0.3182 -2.68265,0.9387 -2.40652,1.5121 -2.00971,2.0097 -1.51211,2.4065 -0.93871,2.6827 -0.31822,2.8243 v 0 158.9551 0 l 0.31822,2.8243 0.93871,2.6827 1.51211,2.4065 2.00971,2.0097 2.40652,1.5121 2.68265,0.9387 2.82429,0.3182 v 0 z"
       style="display:inline;fill:none;stroke:#000000"
       id="path18" />
    <path
       d="m 1.30615,1428.2437 v -304.5684 h 827.48316 v 304.5684 z m 93.56028,-59.9222 2.824281,-0.3182 2.682659,-0.9387 2.40652,-1.5121 2.00971,-2.0097 1.51211,-2.4065 0.9387,-2.6827 0.31822,-2.8243 v 0 -158.9551 0 l -0.31822,-2.8243 -0.9387,-2.6827 -1.51211,-2.4065 -2.00971,-2.0097 -2.40652,-1.5121 -2.682659,-0.9387 -2.824281,-0.3182 v 0 H 28.263455 v 0 l -2.824281,0.3182 -2.68266,0.9387 -2.406519,1.5121 -2.009705,2.0097 -1.512116,2.4065 -0.938704,2.6827 -0.31822,2.8243 v 0 158.9551 0 l 0.31822,2.8243 0.938704,2.6827 1.512116,2.4065 2.009705,2.0097 2.406519,1.5121 2.68266,0.9387 2.824281,0.3182 v 0 z m 589.91318,0 2.82428,-0.3182 2.68266,-0.9387 2.40652,-1.5121 2.00971,-2.0097 1.51211,-2.4065 0.93871,-2.6827 0.31822,-2.8243 v 0 -158.9551 0 l -0.31822,-2.8243 -0.93871,-2.6827 -1.51211,-2.4065 -2.00971,-2.0097 -2.40652,-1.5121 -2.68266,-0.9387 -2.82428,-0.3182 v 0 h -66.60297 v 0 l -2.82428,0.3182 -2.68266,0.9387 -2.40652,1.5121 -2.00971,2.0097 -1.51211,2.4065 -0.93871,2.6827 -0.31822,2.8243 v 0 158.9551 0 l 0.31822,2.8243 0.93871,2.6827 1.51211,2.4065 2.00971,2.0097 2.40652,1.5121 2.68266,0.9387 2.82428,0.3182 v 0 z m 117.89623,0 2.82429,-0.3182 2.68266,-0.9387 2.40651,-1.5121 2.00971,-2.0097 1.51212,-2.4065 0.9387,-2.6827 0.31822,-2.8243 v 0 -158.9551 0 l -0.31822,-2.8243 -0.9387,-2.6827 -1.51212,-2.4065 -2.00971,-2.0097 -2.40651,-1.5121 -2.68266,-0.9387 -2.82429,-0.3182 v 0 h -66.60297 v 0 l -2.82428,0.3182 -2.68266,0.9387 -2.40652,1.5121 -2.0097,2.0097 -1.51212,2.4065 -0.9387,2.6827 -0.31822,2.8243 v 0 158.9551 0 l 0.31822,2.8243 0.9387,2.6827 1.51212,2.4065 2.0097,2.0097 2.40652,1.5121 2.68266,0.9387 2.82428,0.3182 v 0 z m -589.48118,0 2.82428,-0.3182 2.68266,-0.9387 2.40652,-1.5121 2.00971,-2.0097 1.51211,-2.4065 0.93871,-2.6827 0.31822,-2.8243 v 0 -158.9551 0 l -0.31822,-2.8243 -0.93871,-2.6827 -1.51211,-2.4065 -2.00971,-2.0097 -2.40652,-1.5121 -2.68266,-0.9387 -2.82428,-0.3182 v 0 h -66.60297 v 0 l -2.82428,0.3182 -2.68266,0.9387 -2.40652,1.5121 -2.00971,2.0097 -1.51211,2.4065 -0.93871,2.6827 -0.31822,2.8243 v 0 158.9551 0 l 0.31822,2.8243 0.93871,2.6827 1.51211,2.4065 2.00971,2.0097 2.40652,1.5121 2.68266,0.9387 2.82428,0.3182 v 0 z m 235.79248,0 2.82428,-0.3182 2.68266,-0.9387 2.40652,-1.5121 2.0097,-2.0097 1.51212,-2.4065 0.9387,-2.6827 0.31822,-2.8243 v 0 -158.9551 0 l -0.31822,-2.8243 -0.9387,-2.6827 -1.51212,-2.4065 -2.0097,-2.0097 -2.40652,-1.5121 -2.68266,-0.9387 -2.82428,-0.3182 v 0 h -66.60298 v 0 l -2.82428,0.3182 -2.68266,0.9387 -2.40652,1.5121 -2.0097,2.0097 -1.51212,2.4065 -0.9387,2.6827 -0.31822,2.8243 v 0 158.9551 0 l 0.31822,2.8243 0.9387,2.6827 1.51212,2.4065 2.0097,2.0097 2.40652,1.5121 2.68266,0.9387 2.82428,0.3182 v 0 z m 117.89623,0 2.82428,-0.3182 2.68266,-0.9387 2.40652,-1.5121 2.00971,-2.0097 1.51211,-2.4065 0.9387,-2.6827 0.31822,-2.8243 v 0 -158.9551 0 l -0.31822,-2.8243 -0.9387,-2.6827 -1.51211,-2.4065 -2.00971,-2.0097 -2.40652,-1.5121 -2.68266,-0.9387 -2.82428,-0.3182 v 0 H 500.2804 v 0 l -2.82429,0.3182 -2.68265,0.9387 -2.40652,1.5121 -2.00971,2.0097 -1.51211,2.4065 -0.93871,2.6827 -0.31822,2.8243 v 0 158.9551 0 l 0.31822,2.8243 0.93871,2.6827 1.51211,2.4065 2.00971,2.0097 2.40652,1.5121 2.68265,0.9387 2.82429,0.3182 v 0 z"
       style="display:none;fill:#000000"
       id="path19" />
    <path
       d="m 331.09091,1368.3215 2.82428,-0.3182 2.68266,-0.9387 2.40652,-1.5121 2.0097,-2.0097 1.51212,-2.4065 0.9387,-2.6827 0.31822,-2.8243 v 0 -158.9551 0 l -0.31822,-2.8243 -0.9387,-2.6827 -1.51212,-2.4065 -2.0097,-2.0097 -2.40652,-1.5121 -2.68266,-0.9387 -2.82428,-0.3182 v 0 h -66.60298 v 0 l -2.82428,0.3182 -2.68266,0.9387 -2.40652,1.5121 -2.00971,2.0097 -1.51211,2.4065 -0.9387,2.6827 -0.31822,2.8243 v 0 158.9551 0 l 0.31822,2.8243 0.9387,2.6827 1.51211,2.4065 2.00971,2.0097 2.40652,1.5121 2.68266,0.9387 2.82428,0.3182 v 0 z"
       style="display:inline;fill:none;stroke:#000000"
       id="path20" />
    <path
       d="m 1.30615,1428.2437 v -304.5684 h 827.48316 v 304.5684 z m 93.56028,-59.9222 2.824281,-0.3182 2.682659,-0.9387 2.40652,-1.5121 2.00971,-2.0097 1.51211,-2.4065 0.9387,-2.6827 0.31822,-2.8243 v 0 -158.9551 0 l -0.31822,-2.8243 -0.9387,-2.6827 -1.51211,-2.4065 -2.00971,-2.0097 -2.40652,-1.5121 -2.682659,-0.9387 -2.824281,-0.3182 v 0 H 28.263455 v 0 l -2.824281,0.3182 -2.68266,0.9387 -2.406519,1.5121 -2.009705,2.0097 -1.512116,2.4065 -0.938704,2.6827 -0.31822,2.8243 v 0 158.9551 0 l 0.31822,2.8243 0.938704,2.6827 1.512116,2.4065 2.009705,2.0097 2.406519,1.5121 2.68266,0.9387 2.824281,0.3182 v 0 z m 589.91318,0 2.82428,-0.3182 2.68266,-0.9387 2.40652,-1.5121 2.00971,-2.0097 1.51211,-2.4065 0.93871,-2.6827 0.31822,-2.8243 v 0 -158.9551 0 l -0.31822,-2.8243 -0.93871,-2.6827 -1.51211,-2.4065 -2.00971,-2.0097 -2.40652,-1.5121 -2.68266,-0.9387 -2.82428,-0.3182 v 0 h -66.60297 v 0 l -2.82428,0.3182 -2.68266,0.9387 -2.40652,1.5121 -2.00971,2.0097 -1.51211,2.4065 -0.93871,2.6827 -0.31822,2.8243 v 0 158.9551 0 l 0.31822,2.8243 0.93871,2.6827 1.51211,2.4065 2.00971,2.0097 2.40652,1.5121 2.68266,0.9387 2.82428,0.3182 v 0 z m 117.89623,0 2.82429,-0.3182 2.68266,-0.9387 2.40651,-1.5121 2.00971,-2.0097 1.51212,-2.4065 0.9387,-2.6827 0.31822,-2.8243 v 0 -158.9551 0 l -0.31822,-2.8243 -0.9387,-2.6827 -1.51212,-2.4065 -2.00971,-2.0097 -2.40651,-1.5121 -2.68266,-0.9387 -2.82429,-0.3182 v 0 h -66.60297 v 0 l -2.82428,0.3182 -2.68266,0.9387 -2.40652,1.5121 -2.0097,2.0097 -1.51212,2.4065 -0.9387,2.6827 -0.31822,2.8243 v 0 158.9551 0 l 0.31822,2.8243 0.9387,2.6827 1.51212,2.4065 2.0097,2.0097 2.40652,1.5121 2.68266,0.9387 2.82428,0.3182 v 0 z m -589.48118,0 2.82428,-0.3182 2.68266,-0.9387 2.40652,-1.5121 2.00971,-2.0097 1.51211,-2.4065 0.93871,-2.6827 0.31822,-2.8243 v 0 -158.9551 0 l -0.31822,-2.8243 -0.93871,-2.6827 -1.51211,-2.4065 -2.00971,-2.0097 -2.40652,-1.5121 -2.68266,-0.9387 -2.82428,-0.3182 v 0 h -66.60297 v 0 l -2.82428,0.3182 -2.68266,0.9387 -2.40652,1.5121 -2.00971,2.0097 -1.51211,2.4065 -0.93871,2.6827 -0.31822,2.8243 v 0 158.9551 0 l 0.31822,2.8243 0.93871,2.6827 1.51211,2.4065 2.00971,2.0097 2.40652,1.5121 2.68266,0.9387 2.82428,0.3182 v 0 z m 235.79248,0 2.82428,-0.3182 2.68266,-0.9387 2.40652,-1.5121 2.0097,-2.0097 1.51212,-2.4065 0.9387,-2.6827 0.31822,-2.8243 v 0 -158.9551 0 l -0.31822,-2.8243 -0.9387,-2.6827 -1.51212,-2.4065 -2.0097,-2.0097 -2.40652,-1.5121 -2.68266,-0.9387 -2.82428,-0.3182 v 0 h -66.60298 v 0 l -2.82428,0.3182 -2.68266,0.9387 -2.40652,1.5121 -2.0097,2.0097 -1.51212,2.4065 -0.9387,2.6827 -0.31822,2.8243 v 0 158.9551 0 l 0.31822,2.8243 0.9387,2.6827 1.51212,2.4065 2.0097,2.0097 2.40652,1.5121 2.68266,0.9387 2.82428,0.3182 v 0 z m 117.89623,0 2.82428,-0.3182 2.68266,-0.9387 2.40652,-1.5121 2.00971,-2.0097 1.51211,-2.4065 0.9387,-2.6827 0.31822,-2.8243 v 0 -158.9551 0 l -0.31822,-2.8243 -0.9387,-2.6827 -1.51211,-2.4065 -2.00971,-2.0097 -2.40652,-1.5121 -2.68266,-0.9387 -2.82428,-0.3182 v 0 H 500.2804 v 0 l -2.82429,0.3182 -2.68265,0.9387 -2.40652,1.5121 -2.00971,2.0097 -1.51211,2.4065 -0.93871,2.6827 -0.31822,2.8243 v 0 158.9551 0 l 0.31822,2.8243 0.93871,2.6827 1.51211,2.4065 2.00971,2.0097 2.40652,1.5121 2.68265,0.9387 2.82429,0.3182 v 0 z m -235.79246,0 2.82428,-0.3182 2.68266,-0.9387 2.40652,-1.5121 2.0097,-2.0097 1.51212,-2.4065 0.9387,-2.6827 0.31822,-2.8243 v 0 -158.9551 0 l -0.31822,-2.8243 -0.9387,-2.6827 -1.51212,-2.4065 -2.0097,-2.0097 -2.40652,-1.5121 -2.68266,-0.9387 -2.82428,-0.3182 v 0 h -66.60298 v 0 l -2.82428,0.3182 -2.68266,0.9387 -2.40652,1.5121 -2.00971,2.0097 -1.51211,2.4065 -0.9387,2.6827 -0.31822,2.8243 v 0 158.9551 0 l 0.31822,2.8243 0.9387,2.6827 1.51211,2.4065 2.00971,2.0097 2.40652,1.5121 2.68266,0.9387 2.82428,0.3182 v 0 z"
       style="display:none;fill:#000000"
       id="path21"
       inkscape:label="path21" />
    <path
       d="m 17.007912,1419.8109 2.170197,-0.3437 1.957763,-0.9976 1.553689,-1.5537 0.99753,-1.9577 0.343725,-2.1702 -0.343725,-2.1702 -0.99753,-1.9578 -1.553689,-1.5537 -1.957763,-0.9975 -2.170197,-0.3437 -2.170196,0.3437 -1.957763,0.9975 -1.553689,1.5537 -0.99753,1.9578 -0.343725,2.1702 0.343725,2.1702 0.99753,1.9577 1.553689,1.5537 1.957763,0.9976 z"
       style="fill:none;stroke:#000000"
       id="path22" />
    <path
       d="m 1.30615,1428.2437 v -304.5684 h 827.48316 v 304.5684 z m 93.56028,-59.9222 2.824281,-0.3182 2.682659,-0.9387 2.40652,-1.5121 2.00971,-2.0097 1.51211,-2.4065 0.9387,-2.6827 0.31822,-2.8243 v 0 -158.9551 0 l -0.31822,-2.8243 -0.9387,-2.6827 -1.51211,-2.4065 -2.00971,-2.0097 -2.40652,-1.5121 -2.682659,-0.9387 -2.824281,-0.3182 v 0 H 28.263455 v 0 l -2.824281,0.3182 -2.68266,0.9387 -2.406519,1.5121 -2.009705,2.0097 -1.512116,2.4065 -0.938704,2.6827 -0.31822,2.8243 v 0 158.9551 0 l 0.31822,2.8243 0.938704,2.6827 1.512116,2.4065 2.009705,2.0097 2.406519,1.5121 2.68266,0.9387 2.824281,0.3182 v 0 z m 589.91318,0 2.82428,-0.3182 2.68266,-0.9387 2.40652,-1.5121 2.00971,-2.0097 1.51211,-2.4065 0.93871,-2.6827 0.31822,-2.8243 v 0 -158.9551 0 l -0.31822,-2.8243 -0.93871,-2.6827 -1.51211,-2.4065 -2.00971,-2.0097 -2.40652,-1.5121 -2.68266,-0.9387 -2.82428,-0.3182 v 0 h -66.60297 v 0 l -2.82428,0.3182 -2.68266,0.9387 -2.40652,1.5121 -2.00971,2.0097 -1.51211,2.4065 -0.93871,2.6827 -0.31822,2.8243 v 0 158.9551 0 l 0.31822,2.8243 0.93871,2.6827 1.51211,2.4065 2.00971,2.0097 2.40652,1.5121 2.68266,0.9387 2.82428,0.3182 v 0 z m 117.89623,0 2.82429,-0.3182 2.68266,-0.9387 2.40651,-1.5121 2.00971,-2.0097 1.51212,-2.4065 0.9387,-2.6827 0.31822,-2.8243 v 0 -158.9551 0 l -0.31822,-2.8243 -0.9387,-2.6827 -1.51212,-2.4065 -2.00971,-2.0097 -2.40651,-1.5121 -2.68266,-0.9387 -2.82429,-0.3182 v 0 h -66.60297 v 0 l -2.82428,0.3182 -2.68266,0.9387 -2.40652,1.5121 -2.0097,2.0097 -1.51212,2.4065 -0.9387,2.6827 -0.31822,2.8243 v 0 158.9551 0 l 0.31822,2.8243 0.9387,2.6827 1.51212,2.4065 2.0097,2.0097 2.40652,1.5121 2.68266,0.9387 2.82428,0.3182 v 0 z m -589.48118,0 2.82428,-0.3182 2.68266,-0.9387 2.40652,-1.5121 2.00971,-2.0097 1.51211,-2.4065 0.93871,-2.6827 0.31822,-2.8243 v 0 -158.9551 0 l -0.31822,-2.8243 -0.93871,-2.6827 -1.51211,-2.4065 -2.00971,-2.0097 -2.40652,-1.5121 -2.68266,-0.9387 -2.82428,-0.3182 v 0 h -66.60297 v 0 l -2.82428,0.3182 -2.68266,0.9387 -2.40652,1.5121 -2.00971,2.0097 -1.51211,2.4065 -0.93871,2.6827 -0.31822,2.8243 v 0 158.9551 0 l 0.31822,2.8243 0.93871,2.6827 1.51211,2.4065 2.00971,2.0097 2.40652,1.5121 2.68266,0.9387 2.82428,0.3182 v 0 z m 235.79248,0 2.82428,-0.3182 2.68266,-0.9387 2.40652,-1.5121 2.0097,-2.0097 1.51212,-2.4065 0.9387,-2.6827 0.31822,-2.8243 v 0 -158.9551 0 l -0.31822,-2.8243 -0.9387,-2.6827 -1.51212,-2.4065 -2.0097,-2.0097 -2.40652,-1.5121 -2.68266,-0.9387 -2.82428,-0.3182 v 0 h -66.60298 v 0 l -2.82428,0.3182 -2.68266,0.9387 -2.40652,1.5121 -2.0097,2.0097 -1.51212,2.4065 -0.9387,2.6827 -0.31822,2.8243 v 0 158.9551 0 l 0.31822,2.8243 0.9387,2.6827 1.51212,2.4065 2.0097,2.0097 2.40652,1.5121 2.68266,0.9387 2.82428,0.3182 v 0 z m 117.89623,0 2.82428,-0.3182 2.68266,-0.9387 2.40652,-1.5121 2.00971,-2.0097 1.51211,-2.4065 0.9387,-2.6827 0.31822,-2.8243 v 0 -158.9551 0 l -0.31822,-2.8243 -0.9387,-2.6827 -1.51211,-2.4065 -2.00971,-2.0097 -2.40652,-1.5121 -2.68266,-0.9387 -2.82428,-0.3182 v 0 H 500.2804 v 0 l -2.82429,0.3182 -2.68265,0.9387 -2.40652,1.5121 -2.00971,2.0097 -1.51211,2.4065 -0.93871,2.6827 -0.31822,2.8243 v 0 158.9551 0 l 0.31822,2.8243 0.93871,2.6827 1.51211,2.4065 2.00971,2.0097 2.40652,1.5121 2.68265,0.9387 2.82429,0.3182 v 0 z m -235.79246,0 2.82428,-0.3182 2.68266,-0.9387 2.40652,-1.5121 2.0097,-2.0097 1.51212,-2.4065 0.9387,-2.6827 0.31822,-2.8243 v 0 -158.9551 0 l -0.31822,-2.8243 -0.9387,-2.6827 -1.51212,-2.4065 -2.0097,-2.0097 -2.40652,-1.5121 -2.68266,-0.9387 -2.82428,-0.3182 v 0 h -66.60298 v 0 l -2.82428,0.3182 -2.68266,0.9387 -2.40652,1.5121 -2.00971,2.0097 -1.51211,2.4065 -0.9387,2.6827 -0.31822,2.8243 v 0 158.9551 0 l 0.31822,2.8243 0.9387,2.6827 1.51211,2.4065 2.00971,2.0097 2.40652,1.5121 2.68266,0.9387 2.82428,0.3182 v 0 z m -314.082998,51.4894 2.170197,-0.3437 1.957763,-0.9976 1.553689,-1.5537 0.99753,-1.9577 0.343725,-2.1702 -0.343725,-2.1702 -0.99753,-1.9578 -1.553689,-1.5537 -1.957763,-0.9975 -2.170197,-0.3437 -2.170196,0.3437 -1.957763,0.9975 -1.553689,1.5537 -0.99753,1.9578 -0.343725,2.1702 0.343725,2.1702 0.99753,1.9577 1.553689,1.5537 1.957763,0.9976 z"
       style="display:none;fill:#000000"
       id="path23" />
    <path
       d="m 9.985009,1139.5276 0.343725,2.1702 0.99753,1.9578 1.553689,1.5536 1.957763,0.9976 2.170196,0.3437 2.170197,-0.3437 1.957763,-0.9976 1.553689,-1.5536 0.99753,-1.9578 0.343725,-2.1702 -0.343725,-2.1702 -0.99753,-1.9578 -1.553689,-1.5537 -1.957763,-0.9975 -2.170197,-0.3437 -2.170196,0.3437 -1.957763,0.9975 -1.553689,1.5537 -0.99753,1.9578 z"
       style="fill:none;stroke:#000000"
       id="path24" />
    <path
       d="m 1.30615,1428.2437 v -304.5684 h 827.48316 v 304.5684 z m 93.56028,-59.9222 2.824281,-0.3182 2.682659,-0.9387 2.40652,-1.5121 2.00971,-2.0097 1.51211,-2.4065 0.9387,-2.6827 0.31822,-2.8243 v 0 -158.9551 0 l -0.31822,-2.8243 -0.9387,-2.6827 -1.51211,-2.4065 -2.00971,-2.0097 -2.40652,-1.5121 -2.682659,-0.9387 -2.824281,-0.3182 v 0 H 28.263455 v 0 l -2.824281,0.3182 -2.68266,0.9387 -2.406519,1.5121 -2.009705,2.0097 -1.512116,2.4065 -0.938704,2.6827 -0.31822,2.8243 v 0 158.9551 0 l 0.31822,2.8243 0.938704,2.6827 1.512116,2.4065 2.009705,2.0097 2.406519,1.5121 2.68266,0.9387 2.824281,0.3182 v 0 z m 589.91318,0 2.82428,-0.3182 2.68266,-0.9387 2.40652,-1.5121 2.00971,-2.0097 1.51211,-2.4065 0.93871,-2.6827 0.31822,-2.8243 v 0 -158.9551 0 l -0.31822,-2.8243 -0.93871,-2.6827 -1.51211,-2.4065 -2.00971,-2.0097 -2.40652,-1.5121 -2.68266,-0.9387 -2.82428,-0.3182 v 0 h -66.60297 v 0 l -2.82428,0.3182 -2.68266,0.9387 -2.40652,1.5121 -2.00971,2.0097 -1.51211,2.4065 -0.93871,2.6827 -0.31822,2.8243 v 0 158.9551 0 l 0.31822,2.8243 0.93871,2.6827 1.51211,2.4065 2.00971,2.0097 2.40652,1.5121 2.68266,0.9387 2.82428,0.3182 v 0 z m 117.89623,0 2.82429,-0.3182 2.68266,-0.9387 2.40651,-1.5121 2.00971,-2.0097 1.51212,-2.4065 0.9387,-2.6827 0.31822,-2.8243 v 0 -158.9551 0 l -0.31822,-2.8243 -0.9387,-2.6827 -1.51212,-2.4065 -2.00971,-2.0097 -2.40651,-1.5121 -2.68266,-0.9387 -2.82429,-0.3182 v 0 h -66.60297 v 0 l -2.82428,0.3182 -2.68266,0.9387 -2.40652,1.5121 -2.0097,2.0097 -1.51212,2.4065 -0.9387,2.6827 -0.31822,2.8243 v 0 158.9551 0 l 0.31822,2.8243 0.9387,2.6827 1.51212,2.4065 2.0097,2.0097 2.40652,1.5121 2.68266,0.9387 2.82428,0.3182 v 0 z m -589.48118,0 2.82428,-0.3182 2.68266,-0.9387 2.40652,-1.5121 2.00971,-2.0097 1.51211,-2.4065 0.93871,-2.6827 0.31822,-2.8243 v 0 -158.9551 0 l -0.31822,-2.8243 -0.93871,-2.6827 -1.51211,-2.4065 -2.00971,-2.0097 -2.40652,-1.5121 -2.68266,-0.9387 -2.82428,-0.3182 v 0 h -66.60297 v 0 l -2.82428,0.3182 -2.68266,0.9387 -2.40652,1.5121 -2.00971,2.0097 -1.51211,2.4065 -0.93871,2.6827 -0.31822,2.8243 v 0 158.9551 0 l 0.31822,2.8243 0.93871,2.6827 1.51211,2.4065 2.00971,2.0097 2.40652,1.5121 2.68266,0.9387 2.82428,0.3182 v 0 z m 235.79248,0 2.82428,-0.3182 2.68266,-0.9387 2.40652,-1.5121 2.0097,-2.0097 1.51212,-2.4065 0.9387,-2.6827 0.31822,-2.8243 v 0 -158.9551 0 l -0.31822,-2.8243 -0.9387,-2.6827 -1.51212,-2.4065 -2.0097,-2.0097 -2.40652,-1.5121 -2.68266,-0.9387 -2.82428,-0.3182 v 0 h -66.60298 v 0 l -2.82428,0.3182 -2.68266,0.9387 -2.40652,1.5121 -2.0097,2.0097 -1.51212,2.4065 -0.9387,2.6827 -0.31822,2.8243 v 0 158.9551 0 l 0.31822,2.8243 0.9387,2.6827 1.51212,2.4065 2.0097,2.0097 2.40652,1.5121 2.68266,0.9387 2.82428,0.3182 v 0 z m 117.89623,0 2.82428,-0.3182 2.68266,-0.9387 2.40652,-1.5121 2.00971,-2.0097 1.51211,-2.4065 0.9387,-2.6827 0.31822,-2.8243 v 0 -158.9551 0 l -0.31822,-2.8243 -0.9387,-2.6827 -1.51211,-2.4065 -2.00971,-2.0097 -2.40652,-1.5121 -2.68266,-0.9387 -2.82428,-0.3182 v 0 H 500.2804 v 0 l -2.82429,0.3182 -2.68265,0.9387 -2.40652,1.5121 -2.00971,2.0097 -1.51211,2.4065 -0.93871,2.6827 -0.31822,2.8243 v 0 158.9551 0 l 0.31822,2.8243 0.93871,2.6827 1.51211,2.4065 2.00971,2.0097 2.40652,1.5121 2.68265,0.9387 2.82429,0.3182 v 0 z m -235.79246,0 2.82428,-0.3182 2.68266,-0.9387 2.40652,-1.5121 2.0097,-2.0097 1.51212,-2.4065 0.9387,-2.6827 0.31822,-2.8243 v 0 -158.9551 0 l -0.31822,-2.8243 -0.9387,-2.6827 -1.51212,-2.4065 -2.0097,-2.0097 -2.40652,-1.5121 -2.68266,-0.9387 -2.82428,-0.3182 v 0 h -66.60298 v 0 l -2.82428,0.3182 -2.68266,0.9387 -2.40652,1.5121 -2.00971,2.0097 -1.51211,2.4065 -0.9387,2.6827 -0.31822,2.8243 v 0 158.9551 0 l 0.31822,2.8243 0.9387,2.6827 1.51211,2.4065 2.00971,2.0097 2.40652,1.5121 2.68266,0.9387 2.82428,0.3182 v 0 z m -314.082998,51.4894 2.170197,-0.3437 1.957763,-0.9976 1.553689,-1.5537 0.99753,-1.9577 0.343725,-2.1702 -0.343725,-2.1702 -0.99753,-1.9578 -1.553689,-1.5537 -1.957763,-0.9975 -2.170197,-0.3437 -2.170196,0.3437 -1.957763,0.9975 -1.553689,1.5537 -0.99753,1.9578 -0.343725,2.1702 0.343725,2.1702 0.99753,1.9577 1.553689,1.5537 1.957763,0.9976 z m -7.022903,-280.2833 0.343725,2.1702 0.99753,1.9578 1.553689,1.5536 1.957763,0.9976 2.170196,0.3437 2.170197,-0.3437 1.957763,-0.9976 1.553689,-1.5536 0.99753,-1.9578 0.343725,-2.1702 -0.343725,-2.1702 -0.99753,-1.9578 -1.553689,-1.5537 -1.957763,-0.9975 -2.170197,-0.3437 -2.170196,0.3437 -1.957763,0.9975 -1.553689,1.5537 -0.99753,1.9578 z"
       style="display:none;fill:#000000"
       id="path25" />
    <path
       d="m 807.46692,1139.5276 0.34372,2.1702 0.99753,1.9578 1.55369,1.5536 1.95776,0.9976 2.1702,0.3437 2.1702,-0.3437 1.95776,-0.9976 1.55369,-1.5536 0.99753,-1.9578 0.34373,-2.1702 -0.34373,-2.1702 -0.99753,-1.9578 -1.55369,-1.5537 -1.95776,-0.9975 -2.1702,-0.3437 -2.1702,0.3437 -1.95776,0.9975 -1.55369,1.5537 -0.99753,1.9578 z"
       style="display:inline;fill:none;stroke:#000000"
       id="path26" />
    <path
       d="m 1.30615,1428.2437 v -304.5684 h 827.48316 v 304.5684 z m 93.56028,-59.9222 2.824281,-0.3182 2.682659,-0.9387 2.40652,-1.5121 2.00971,-2.0097 1.51211,-2.4065 0.9387,-2.6827 0.31822,-2.8243 v 0 -158.9551 0 l -0.31822,-2.8243 -0.9387,-2.6827 -1.51211,-2.4065 -2.00971,-2.0097 -2.40652,-1.5121 -2.682659,-0.9387 -2.824281,-0.3182 v 0 H 28.263455 v 0 l -2.824281,0.3182 -2.68266,0.9387 -2.406519,1.5121 -2.009705,2.0097 -1.512116,2.4065 -0.938704,2.6827 -0.31822,2.8243 v 0 158.9551 0 l 0.31822,2.8243 0.938704,2.6827 1.512116,2.4065 2.009705,2.0097 2.406519,1.5121 2.68266,0.9387 2.824281,0.3182 v 0 z m 589.91318,0 2.82428,-0.3182 2.68266,-0.9387 2.40652,-1.5121 2.00971,-2.0097 1.51211,-2.4065 0.93871,-2.6827 0.31822,-2.8243 v 0 -158.9551 0 l -0.31822,-2.8243 -0.93871,-2.6827 -1.51211,-2.4065 -2.00971,-2.0097 -2.40652,-1.5121 -2.68266,-0.9387 -2.82428,-0.3182 v 0 h -66.60297 v 0 l -2.82428,0.3182 -2.68266,0.9387 -2.40652,1.5121 -2.00971,2.0097 -1.51211,2.4065 -0.93871,2.6827 -0.31822,2.8243 v 0 158.9551 0 l 0.31822,2.8243 0.93871,2.6827 1.51211,2.4065 2.00971,2.0097 2.40652,1.5121 2.68266,0.9387 2.82428,0.3182 v 0 z m 117.89623,0 2.82429,-0.3182 2.68266,-0.9387 2.40651,-1.5121 2.00971,-2.0097 1.51212,-2.4065 0.9387,-2.6827 0.31822,-2.8243 v 0 -158.9551 0 l -0.31822,-2.8243 -0.9387,-2.6827 -1.51212,-2.4065 -2.00971,-2.0097 -2.40651,-1.5121 -2.68266,-0.9387 -2.82429,-0.3182 v 0 h -66.60297 v 0 l -2.82428,0.3182 -2.68266,0.9387 -2.40652,1.5121 -2.0097,2.0097 -1.51212,2.4065 -0.9387,2.6827 -0.31822,2.8243 v 0 158.9551 0 l 0.31822,2.8243 0.9387,2.6827 1.51212,2.4065 2.0097,2.0097 2.40652,1.5121 2.68266,0.9387 2.82428,0.3182 v 0 z m -589.48118,0 2.82428,-0.3182 2.68266,-0.9387 2.40652,-1.5121 2.00971,-2.0097 1.51211,-2.4065 0.93871,-2.6827 0.31822,-2.8243 v 0 -158.9551 0 l -0.31822,-2.8243 -0.93871,-2.6827 -1.51211,-2.4065 -2.00971,-2.0097 -2.40652,-1.5121 -2.68266,-0.9387 -2.82428,-0.3182 v 0 h -66.60297 v 0 l -2.82428,0.3182 -2.68266,0.9387 -2.40652,1.5121 -2.00971,2.0097 -1.51211,2.4065 -0.93871,2.6827 -0.31822,2.8243 v 0 158.9551 0 l 0.31822,2.8243 0.93871,2.6827 1.51211,2.4065 2.00971,2.0097 2.40652,1.5121 2.68266,0.9387 2.82428,0.3182 v 0 z m 235.79248,0 2.82428,-0.3182 2.68266,-0.9387 2.40652,-1.5121 2.0097,-2.0097 1.51212,-2.4065 0.9387,-2.6827 0.31822,-2.8243 v 0 -158.9551 0 l -0.31822,-2.8243 -0.9387,-2.6827 -1.51212,-2.4065 -2.0097,-2.0097 -2.40652,-1.5121 -2.68266,-0.9387 -2.82428,-0.3182 v 0 h -66.60298 v 0 l -2.82428,0.3182 -2.68266,0.9387 -2.40652,1.5121 -2.0097,2.0097 -1.51212,2.4065 -0.9387,2.6827 -0.31822,2.8243 v 0 158.9551 0 l 0.31822,2.8243 0.9387,2.6827 1.51212,2.4065 2.0097,2.0097 2.40652,1.5121 2.68266,0.9387 2.82428,0.3182 v 0 z m 117.89623,0 2.82428,-0.3182 2.68266,-0.9387 2.40652,-1.5121 2.00971,-2.0097 1.51211,-2.4065 0.9387,-2.6827 0.31822,-2.8243 v 0 -158.9551 0 l -0.31822,-2.8243 -0.9387,-2.6827 -1.51211,-2.4065 -2.00971,-2.0097 -2.40652,-1.5121 -2.68266,-0.9387 -2.82428,-0.3182 v 0 H 500.2804 v 0 l -2.82429,0.3182 -2.68265,0.9387 -2.40652,1.5121 -2.00971,2.0097 -1.51211,2.4065 -0.93871,2.6827 -0.31822,2.8243 v 0 158.9551 0 l 0.31822,2.8243 0.93871,2.6827 1.51211,2.4065 2.00971,2.0097 2.40652,1.5121 2.68265,0.9387 2.82429,0.3182 v 0 z m -235.79246,0 2.82428,-0.3182 2.68266,-0.9387 2.40652,-1.5121 2.0097,-2.0097 1.51212,-2.4065 0.9387,-2.6827 0.31822,-2.8243 v 0 -158.9551 0 l -0.31822,-2.8243 -0.9387,-2.6827 -1.51212,-2.4065 -2.0097,-2.0097 -2.40652,-1.5121 -2.68266,-0.9387 -2.82428,-0.3182 v 0 h -66.60298 v 0 l -2.82428,0.3182 -2.68266,0.9387 -2.40652,1.5121 -2.00971,2.0097 -1.51211,2.4065 -0.9387,2.6827 -0.31822,2.8243 v 0 158.9551 0 l 0.31822,2.8243 0.9387,2.6827 1.51211,2.4065 2.00971,2.0097 2.40652,1.5121 2.68266,0.9387 2.82428,0.3182 v 0 z m -314.082998,51.4894 2.170197,-0.3437 1.957763,-0.9976 1.553689,-1.5537 0.99753,-1.9577 0.343725,-2.1702 -0.343725,-2.1702 -0.99753,-1.9578 -1.553689,-1.5537 -1.957763,-0.9975 -2.170197,-0.3437 -2.170196,0.3437 -1.957763,0.9975 -1.553689,1.5537 -0.99753,1.9578 -0.343725,2.1702 0.343725,2.1702 0.99753,1.9577 1.553689,1.5537 1.957763,0.9976 z m -7.022903,-280.2833 0.343725,2.1702 0.99753,1.9578 1.553689,1.5536 1.957763,0.9976 2.170196,0.3437 2.170197,-0.3437 1.957763,-0.9976 1.553689,-1.5536 0.99753,-1.9578 0.343725,-2.1702 -0.343725,-2.1702 -0.99753,-1.9578 -1.553689,-1.5537 -1.957763,-0.9975 -2.170197,-0.3437 -2.170196,0.3437 -1.957763,0.9975 -1.553689,1.5537 -0.99753,1.9578 z m 797.481911,0 0.34372,2.1702 0.99753,1.9578 1.55369,1.5536 1.95776,0.9976 2.1702,0.3437 2.1702,-0.3437 1.95776,-0.9976 1.55369,-1.5536 0.99753,-1.9578 0.34373,-2.1702 -0.34373,-2.1702 -0.99753,-1.9578 -1.55369,-1.5537 -1.95776,-0.9975 -2.1702,-0.3437 -2.1702,0.3437 -1.95776,0.9975 -1.55369,1.5537 -0.99753,1.9578 z"
       style="display:none;fill:#000000"
       id="path27" />
    <path
       d="m 814.48982,1419.8109 2.1702,-0.3437 1.95776,-0.9976 1.55369,-1.5537 0.99753,-1.9577 0.34373,-2.1702 -0.34373,-2.1702 -0.99753,-1.9578 -1.55369,-1.5537 -1.95776,-0.9975 -2.1702,-0.3437 -2.1702,0.3437 -1.95776,0.9975 -1.55369,1.5537 -0.99753,1.9578 -0.34372,2.1702 0.34372,2.1702 0.99753,1.9577 1.55369,1.5537 1.95776,0.9976 z"
       style="fill:none;stroke:#000000"
       id="path28" />
    <path
       d="m 1.30615,1428.2437 v -304.5684 h 827.48316 v 304.5684 z m 93.56028,-59.9222 2.824281,-0.3182 2.682659,-0.9387 2.40652,-1.5121 2.00971,-2.0097 1.51211,-2.4065 0.9387,-2.6827 0.31822,-2.8243 v 0 -158.9551 0 l -0.31822,-2.8243 -0.9387,-2.6827 -1.51211,-2.4065 -2.00971,-2.0097 -2.40652,-1.5121 -2.682659,-0.9387 -2.824281,-0.3182 v 0 H 28.263455 v 0 l -2.824281,0.3182 -2.68266,0.9387 -2.406519,1.5121 -2.009705,2.0097 -1.512116,2.4065 -0.938704,2.6827 -0.31822,2.8243 v 0 158.9551 0 l 0.31822,2.8243 0.938704,2.6827 1.512116,2.4065 2.009705,2.0097 2.406519,1.5121 2.68266,0.9387 2.824281,0.3182 v 0 z m 589.91318,0 2.82428,-0.3182 2.68266,-0.9387 2.40652,-1.5121 2.00971,-2.0097 1.51211,-2.4065 0.93871,-2.6827 0.31822,-2.8243 v 0 -158.9551 0 l -0.31822,-2.8243 -0.93871,-2.6827 -1.51211,-2.4065 -2.00971,-2.0097 -2.40652,-1.5121 -2.68266,-0.9387 -2.82428,-0.3182 v 0 h -66.60297 v 0 l -2.82428,0.3182 -2.68266,0.9387 -2.40652,1.5121 -2.00971,2.0097 -1.51211,2.4065 -0.93871,2.6827 -0.31822,2.8243 v 0 158.9551 0 l 0.31822,2.8243 0.93871,2.6827 1.51211,2.4065 2.00971,2.0097 2.40652,1.5121 2.68266,0.9387 2.82428,0.3182 v 0 z m 117.89623,0 2.82429,-0.3182 2.68266,-0.9387 2.40651,-1.5121 2.00971,-2.0097 1.51212,-2.4065 0.9387,-2.6827 0.31822,-2.8243 v 0 -158.9551 0 l -0.31822,-2.8243 -0.9387,-2.6827 -1.51212,-2.4065 -2.00971,-2.0097 -2.40651,-1.5121 -2.68266,-0.9387 -2.82429,-0.3182 v 0 h -66.60297 v 0 l -2.82428,0.3182 -2.68266,0.9387 -2.40652,1.5121 -2.0097,2.0097 -1.51212,2.4065 -0.9387,2.6827 -0.31822,2.8243 v 0 158.9551 0 l 0.31822,2.8243 0.9387,2.6827 1.51212,2.4065 2.0097,2.0097 2.40652,1.5121 2.68266,0.9387 2.82428,0.3182 v 0 z m -589.48118,0 2.82428,-0.3182 2.68266,-0.9387 2.40652,-1.5121 2.00971,-2.0097 1.51211,-2.4065 0.93871,-2.6827 0.31822,-2.8243 v 0 -158.9551 0 l -0.31822,-2.8243 -0.93871,-2.6827 -1.51211,-2.4065 -2.00971,-2.0097 -2.40652,-1.5121 -2.68266,-0.9387 -2.82428,-0.3182 v 0 h -66.60297 v 0 l -2.82428,0.3182 -2.68266,0.9387 -2.40652,1.5121 -2.00971,2.0097 -1.51211,2.4065 -0.93871,2.6827 -0.31822,2.8243 v 0 158.9551 0 l 0.31822,2.8243 0.93871,2.6827 1.51211,2.4065 2.00971,2.0097 2.40652,1.5121 2.68266,0.9387 2.82428,0.3182 v 0 z m 235.79248,0 2.82428,-0.3182 2.68266,-0.9387 2.40652,-1.5121 2.0097,-2.0097 1.51212,-2.4065 0.9387,-2.6827 0.31822,-2.8243 v 0 -158.9551 0 l -0.31822,-2.8243 -0.9387,-2.6827 -1.51212,-2.4065 -2.0097,-2.0097 -2.40652,-1.5121 -2.68266,-0.9387 -2.82428,-0.3182 v 0 h -66.60298 v 0 l -2.82428,0.3182 -2.68266,0.9387 -2.40652,1.5121 -2.0097,2.0097 -1.51212,2.4065 -0.9387,2.6827 -0.31822,2.8243 v 0 158.9551 0 l 0.31822,2.8243 0.9387,2.6827 1.51212,2.4065 2.0097,2.0097 2.40652,1.5121 2.68266,0.9387 2.82428,0.3182 v 0 z m 117.89623,0 2.82428,-0.3182 2.68266,-0.9387 2.40652,-1.5121 2.00971,-2.0097 1.51211,-2.4065 0.9387,-2.6827 0.31822,-2.8243 v 0 -158.9551 0 l -0.31822,-2.8243 -0.9387,-2.6827 -1.51211,-2.4065 -2.00971,-2.0097 -2.40652,-1.5121 -2.68266,-0.9387 -2.82428,-0.3182 v 0 H 500.2804 v 0 l -2.82429,0.3182 -2.68265,0.9387 -2.40652,1.5121 -2.00971,2.0097 -1.51211,2.4065 -0.93871,2.6827 -0.31822,2.8243 v 0 158.9551 0 l 0.31822,2.8243 0.93871,2.6827 1.51211,2.4065 2.00971,2.0097 2.40652,1.5121 2.68265,0.9387 2.82429,0.3182 v 0 z m -235.79246,0 2.82428,-0.3182 2.68266,-0.9387 2.40652,-1.5121 2.0097,-2.0097 1.51212,-2.4065 0.9387,-2.6827 0.31822,-2.8243 v 0 -158.9551 0 l -0.31822,-2.8243 -0.9387,-2.6827 -1.51212,-2.4065 -2.0097,-2.0097 -2.40652,-1.5121 -2.68266,-0.9387 -2.82428,-0.3182 v 0 h -66.60298 v 0 l -2.82428,0.3182 -2.68266,0.9387 -2.40652,1.5121 -2.00971,2.0097 -1.51211,2.4065 -0.9387,2.6827 -0.31822,2.8243 v 0 158.9551 0 l 0.31822,2.8243 0.9387,2.6827 1.51211,2.4065 2.00971,2.0097 2.40652,1.5121 2.68266,0.9387 2.82428,0.3182 v 0 z m -314.082998,51.4894 2.170197,-0.3437 1.957763,-0.9976 1.553689,-1.5537 0.99753,-1.9577 0.343725,-2.1702 -0.343725,-2.1702 -0.99753,-1.9578 -1.553689,-1.5537 -1.957763,-0.9975 -2.170197,-0.3437 -2.170196,0.3437 -1.957763,0.9975 -1.553689,1.5537 -0.99753,1.9578 -0.343725,2.1702 0.343725,2.1702 0.99753,1.9577 1.553689,1.5537 1.957763,0.9976 z m -7.022903,-280.2833 0.343725,2.1702 0.99753,1.9578 1.553689,1.5536 1.957763,0.9976 2.170196,0.3437 2.170197,-0.3437 1.957763,-0.9976 1.553689,-1.5536 0.99753,-1.9578 0.343725,-2.1702 -0.343725,-2.1702 -0.99753,-1.9578 -1.553689,-1.5537 -1.957763,-0.9975 -2.170197,-0.3437 -2.170196,0.3437 -1.957763,0.9975 -1.553689,1.5537 -0.99753,1.9578 z m 797.481911,0 0.34372,2.1702 0.99753,1.9578 1.55369,1.5536 1.95776,0.9976 2.1702,0.3437 2.1702,-0.3437 1.95776,-0.9976 1.55369,-1.5536 0.99753,-1.9578 0.34373,-2.1702 -0.34373,-2.1702 -0.99753,-1.9578 -1.55369,-1.5537 -1.95776,-0.9975 -2.1702,-0.3437 -2.1702,0.3437 -1.95776,0.9975 -1.55369,1.5537 -0.99753,1.9578 z m 7.0229,280.2833 2.1702,-0.3437 1.95776,-0.9976 1.55369,-1.5537 0.99753,-1.9577 0.34373,-2.1702 -0.34373,-2.1702 -0.99753,-1.9578 -1.55369,-1.5537 -1.95776,-0.9975 -2.1702,-0.3437 -2.1702,0.3437 -1.95776,0.9975 -1.55369,1.5537 -0.99753,1.9578 -0.34372,2.1702 0.34372,2.1702 0.99753,1.9577 1.55369,1.5537 1.95776,0.9976 z"
       style="display:none;fill:#000000"
       id="path29" />
    <path
       d="m 808.82052,1139.5276 h 11.3386 z"
       style="fill:#000000"
       id="path30" />
    <path
       d="m 808.82052,1139.5276 h 11.3386 z"
       style="fill:#000000"
       id="path31" />
    <path
       d="m 808.82052,1412.788 h 11.3386 z"
       style="fill:#000000"
       id="path32" />
    <path
       d="m 808.82052,1412.788 h 11.3386 z"
       style="fill:#000000"
       id="path33" />
    <path
       d="M 11.338611,1139.5276 H 22.677213 Z"
       style="fill:#000000"
       id="path34" />
    <path
       d="M 11.338611,1139.5276 H 22.677213 Z"
       style="fill:#000000"
       id="path35" />
    <path
       d="M 11.338611,1412.788 H 22.677213 Z"
       style="fill:#000000"
       id="path36" />
    <path
       d="M 11.338611,1412.788 H 22.677213 Z"
       style="display:none;fill:#000000"
       id="path37" />
  </g>
</svg>
