solid OpenSCAD_Model
  facet normal -0.7705067589266058 0.6374318272948234 0
    outer loop
      vertex 0.7639322280883789 87.75114440917969 0
      vertex 1.0841255187988281 88.13818359375 35
      vertex 1.0841255187988281 88.13818359375 0
    endloop
  endfacet
  facet normal -0.7705067589266058 0.6374318272948234 0
    outer loop
      vertex 1.0841255187988281 88.13818359375 35
      vertex 0.7639322280883789 87.75114440917969 0
      vertex 0.7639322280883789 87.75114440917969 35
    endloop
  endfacet
  facet normal -0.24869133045987565 0.9685827905523084 0
    outer loop
      vertex 3.2504749298095703 89.32914733886719 0
      vertex 2.763932228088379 89.2042236328125 35
      vertex 3.2504749298095703 89.32914733886719 35
    endloop
  endfacet
  facet normal -0.24869133045987565 0.9685827905523084 0
    outer loop
      vertex 2.763932228088379 89.2042236328125 35
      vertex 3.2504749298095703 89.32914733886719 0
      vertex 2.763932228088379 89.2042236328125 0
    endloop
  endfacet
  facet normal 1 0 0
    outer loop
      vertex 227.8000030517578 4 35
      vertex 227.8000030517578 85.4000015258789 0
      vertex 227.8000030517578 85.4000015258789 35
    endloop
  endfacet
  facet normal 1 0 0
    outer loop
      vertex 227.8000030517578 85.4000015258789 0
      vertex 227.8000030517578 4 35
      vertex 227.8000030517578 4 0
    endloop
  endfacet
  facet normal -0.8443322611671947 0.5358199630027721 0
    outer loop
      vertex 0.49477386474609375 87.32701110839844 0
      vertex 0.7639322280883789 87.75114440917969 35
      vertex 0.7639322280883789 87.75114440917969 0
    endloop
  endfacet
  facet normal -0.8443322611671947 0.5358199630027721 0
    outer loop
      vertex 0.7639322280883789 87.75114440917969 35
      vertex 0.49477386474609375 87.32701110839844 0
      vertex 0.49477386474609375 87.32701110839844 35
    endloop
  endfacet
  facet normal -1 0 0
    outer loop
      vertex 0 4 0
      vertex 0 85.4000015258789 35
      vertex 0 85.4000015258789 0
    endloop
  endfacet
  facet normal -1 0 0
    outer loop
      vertex 0 85.4000015258789 35
      vertex 0 4 0
      vertex 0 4 35
    endloop
  endfacet
  facet normal 0.6845451363880445 -0.7289704769381772 0
    outer loop
      vertex 226.34970092773438 0.9179477691650391 0
      vertex 226.71588134765625 1.2618122100830078 35
      vertex 226.34970092773438 0.9179477691650391 35
    endloop
  endfacet
  facet normal 0.6845451363880445 -0.7289704769381772 0
    outer loop
      vertex 226.71588134765625 1.2618122100830078 35
      vertex 226.34970092773438 0.9179477691650391 0
      vertex 226.71588134765625 1.2618122100830078 0
    endloop
  endfacet
  facet normal 0.36813106540403384 -0.9297739072938598 0
    outer loop
      vertex 225.03607177734375 0.19577407836914062 0
      vertex 225.50311279296875 0.3806924819946289 35
      vertex 225.03607177734375 0.19577407836914062 35
    endloop
  endfacet
  facet normal 0.36813106540403384 -0.9297739072938598 0
    outer loop
      vertex 225.50311279296875 0.3806924819946289 35
      vertex 225.03607177734375 0.19577407836914062 0
      vertex 225.50311279296875 0.3806924819946289 0
    endloop
  endfacet
  facet normal 0.9980268452938827 0.0627886619760297 0
    outer loop
      vertex 227.8000030517578 85.4000015258789 35
      vertex 227.76846313476562 85.90132904052734 0
      vertex 227.76846313476562 85.90132904052734 35
    endloop
  endfacet
  facet normal 0.9980268452938827 0.0627886619760297 0
    outer loop
      vertex 227.76846313476562 85.90132904052734 0
      vertex 227.8000030517578 85.4000015258789 35
      vertex 227.8000030517578 85.4000015258789 0
    endloop
  endfacet
  facet normal 0.5877719081582635 -0.8090266892878094 0
    outer loop
      vertex 225.94329833984375 0.6226892471313477 0
      vertex 226.34970092773438 0.9179477691650391 35
      vertex 225.94329833984375 0.6226892471313477 35
    endloop
  endfacet
  facet normal 0.5877719081582635 -0.8090266892878094 0
    outer loop
      vertex 226.34970092773438 0.9179477691650391 35
      vertex 225.94329833984375 0.6226892471313477 0
      vertex 226.34970092773438 0.9179477691650391 0
    endloop
  endfacet
  facet normal 0 1 0
    outer loop
      vertex 224.05116271972656 89.39210510253906 0
      vertex 3.748838424682617 89.39210510253906 35
      vertex 224.05116271972656 89.39210510253906 35
    endloop
  endfacet
  facet normal 0 1 0
    outer loop
      vertex 3.748838424682617 89.39210510253906 35
      vertex 224.05116271972656 89.39210510253906 0
      vertex 3.748838424682617 89.39210510253906 0
    endloop
  endfacet
  facet normal 0.9510560822836839 -0.30901833012171104 0
    outer loop
      vertex 227.51910400390625 2.5275020599365234 35
      vertex 227.67433166503906 3.0052413940429688 0
      vertex 227.67433166503906 3.0052413940429688 35
    endloop
  endfacet
  facet normal 0.9510560822836839 -0.30901833012171104 0
    outer loop
      vertex 227.67433166503906 3.0052413940429688 0
      vertex 227.51910400390625 2.5275020599365234 35
      vertex 227.51910400390625 2.5275020599365234 0
    endloop
  endfacet
  facet normal -0.3681258668019625 -0.9297759655913373 0
    outer loop
      vertex 2.2968835830688477 0.3806924819946289 0
      vertex 2.763932228088379 0.19577407836914062 35
      vertex 2.2968835830688477 0.3806924819946289 35
    endloop
  endfacet
  facet normal -0.3681258668019625 -0.9297759655913373 0
    outer loop
      vertex 2.763932228088379 0.19577407836914062 35
      vertex 2.2968835830688477 0.3806924819946289 0
      vertex 2.763932228088379 0.19577407836914062 0
    endloop
  endfacet
  facet normal 0.48175782141599455 0.8763044000257644 0
    outer loop
      vertex 225.94329833984375 88.77731323242188 0
      vertex 225.50311279296875 89.0193099975586 35
      vertex 225.94329833984375 88.77731323242188 35
    endloop
  endfacet
  facet normal 0.48175782141599455 0.8763044000257644 0
    outer loop
      vertex 225.50311279296875 89.0193099975586 35
      vertex 225.94329833984375 88.77731323242188 0
      vertex 225.50311279296875 89.0193099975586 0
    endloop
  endfacet
  facet normal -0.4817538139485359 -0.8763066031624088 0
    outer loop
      vertex 1.8566932678222656 0.6226892471313477 0
      vertex 2.2968835830688477 0.3806924819946289 35
      vertex 1.8566932678222656 0.6226892471313477 35
    endloop
  endfacet
  facet normal -0.4817538139485359 -0.8763066031624088 0
    outer loop
      vertex 2.2968835830688477 0.3806924819946289 35
      vertex 1.8566932678222656 0.6226892471313477 0
      vertex 2.2968835830688477 0.3806924819946289 0
    endloop
  endfacet
  facet normal 0.9510557196934979 0.3090194460519963 0
    outer loop
      vertex 227.67433166503906 86.39476013183594 35
      vertex 227.51910400390625 86.87249755859375 0
      vertex 227.51910400390625 86.87249755859375 35
    endloop
  endfacet
  facet normal 0.9510557196934979 0.3090194460519963 0
    outer loop
      vertex 227.51910400390625 86.87249755859375 0
      vertex 227.67433166503906 86.39476013183594 35
      vertex 227.67433166503906 86.39476013183594 0
    endloop
  endfacet
  facet normal 0 -1 0
    outer loop
      vertex 3.748838424682617 0.007893562316894531 0
      vertex 224.05116271972656 0.007893562316894531 35
      vertex 3.748838424682617 0.007893562316894531 35
    endloop
  endfacet
  facet normal 0 -1 0
    outer loop
      vertex 224.05116271972656 0.007893562316894531 35
      vertex 3.748838424682617 0.007893562316894531 0
      vertex 224.05116271972656 0.007893562316894531 0
    endloop
  endfacet
  facet normal -0.6845460837747223 -0.7289695872865279 0
    outer loop
      vertex 1.0841255187988281 1.2618122100830078 0
      vertex 1.4503049850463867 0.9179477691650391 35
      vertex 1.0841255187988281 1.2618122100830078 35
    endloop
  endfacet
  facet normal -0.6845460837747223 -0.7289695872865279 0
    outer loop
      vertex 1.4503049850463867 0.9179477691650391 35
      vertex 1.0841255187988281 1.2618122100830078 0
      vertex 1.4503049850463867 0.9179477691650391 0
    endloop
  endfacet
  facet normal -0.36811766054337525 0.9297792146504849 0
    outer loop
      vertex 2.763932228088379 89.2042236328125 0
      vertex 2.2968835830688477 89.0193099975586 35
      vertex 2.763932228088379 89.2042236328125 35
    endloop
  endfacet
  facet normal -0.36811766054337525 0.9297792146504849 0
    outer loop
      vertex 2.2968835830688477 89.0193099975586 35
      vertex 2.763932228088379 89.2042236328125 0
      vertex 2.2968835830688477 89.0193099975586 0
    endloop
  endfacet
  facet normal 0.587770665553839 0.8090275920599972 0
    outer loop
      vertex 226.34970092773438 88.4820556640625 0
      vertex 225.94329833984375 88.77731323242188 35
      vertex 226.34970092773438 88.4820556640625 35
    endloop
  endfacet
  facet normal 0.587770665553839 0.8090275920599972 0
    outer loop
      vertex 225.94329833984375 88.77731323242188 35
      vertex 226.34970092773438 88.4820556640625 0
      vertex 225.94329833984375 88.77731323242188 0
    endloop
  endfacet
  facet normal 0.770515727502568 -0.6374209862180477 0
    outer loop
      vertex 226.71588134765625 1.2618122100830078 35
      vertex 227.03607177734375 1.6488590240478516 0
      vertex 227.03607177734375 1.6488590240478516 35
    endloop
  endfacet
  facet normal 0.770515727502568 -0.6374209862180477 0
    outer loop
      vertex 227.03607177734375 1.6488590240478516 0
      vertex 226.71588134765625 1.2618122100830078 35
      vertex 226.71588134765625 1.2618122100830078 0
    endloop
  endfacet
  facet normal 0.844336175877996 -0.5358137942454653 0
    outer loop
      vertex 227.03607177734375 1.6488590240478516 35
      vertex 227.3052215576172 2.0729856491088867 0
      vertex 227.3052215576172 2.0729856491088867 35
    endloop
  endfacet
  facet normal 0.844336175877996 -0.5358137942454653 0
    outer loop
      vertex 227.3052215576172 2.0729856491088867 0
      vertex 227.03607177734375 1.6488590240478516 35
      vertex 227.03607177734375 1.6488590240478516 0
    endloop
  endfacet
  facet normal 0.24869000666491772 -0.968583130446222 0
    outer loop
      vertex 224.54953002929688 0.07085132598876953 0
      vertex 225.03607177734375 0.19577407836914062 35
      vertex 224.54953002929688 0.07085132598876953 35
    endloop
  endfacet
  facet normal 0.24869000666491772 -0.968583130446222 0
    outer loop
      vertex 225.03607177734375 0.19577407836914062 35
      vertex 224.54953002929688 0.07085132598876953 0
      vertex 225.03607177734375 0.19577407836914062 0
    endloop
  endfacet
  facet normal 0.6845532072143717 0.7289628978847397 0
    outer loop
      vertex 226.71588134765625 88.13818359375 0
      vertex 226.34970092773438 88.4820556640625 35
      vertex 226.71588134765625 88.13818359375 35
    endloop
  endfacet
  facet normal 0.6845532072143717 0.7289628978847397 0
    outer loop
      vertex 226.34970092773438 88.4820556640625 35
      vertex 226.71588134765625 88.13818359375 0
      vertex 226.34970092773438 88.4820556640625 0
    endloop
  endfacet
  facet normal -0.12533286738632868 -0.9921147475734452 0
    outer loop
      vertex 3.2504749298095703 0.07085132598876953 0
      vertex 3.748838424682617 0.007893562316894531 35
      vertex 3.2504749298095703 0.07085132598876953 35
    endloop
  endfacet
  facet normal -0.12533286738632868 -0.9921147475734452 0
    outer loop
      vertex 3.748838424682617 0.007893562316894531 35
      vertex 3.2504749298095703 0.07085132598876953 0
      vertex 3.748838424682617 0.007893562316894531 0
    endloop
  endfacet
  facet normal 0.7705095563195807 0.6374284458825186 0
    outer loop
      vertex 227.03607177734375 87.75114440917969 35
      vertex 226.71588134765625 88.13818359375 0
      vertex 226.71588134765625 88.13818359375 35
    endloop
  endfacet
  facet normal 0.7705095563195807 0.6374284458825186 0
    outer loop
      vertex 226.71588134765625 88.13818359375 0
      vertex 227.03607177734375 87.75114440917969 35
      vertex 227.03607177734375 87.75114440917969 0
    endloop
  endfacet
  facet normal 0.9980268827176118 -0.06278806712239622 0
    outer loop
      vertex 227.76846313476562 3.4986677169799805 35
      vertex 227.8000030517578 4 0
      vertex 227.8000030517578 4 35
    endloop
  endfacet
  facet normal 0.9980268827176118 -0.06278806712239622 0
    outer loop
      vertex 227.8000030517578 4 0
      vertex 227.76846313476562 3.4986677169799805 35
      vertex 227.76846313476562 3.4986677169799805 0
    endloop
  endfacet
  facet normal 0.9822856183138637 0.187389871801414 0
    outer loop
      vertex 227.76846313476562 85.90132904052734 35
      vertex 227.67433166503906 86.39476013183594 0
      vertex 227.67433166503906 86.39476013183594 35
    endloop
  endfacet
  facet normal 0.9822856183138637 0.187389871801414 0
    outer loop
      vertex 227.67433166503906 86.39476013183594 0
      vertex 227.76846313476562 85.90132904052734 35
      vertex 227.76846313476562 85.90132904052734 0
    endloop
  endfacet
  facet normal 0.368122859065892 0.9297771564375807 0
    outer loop
      vertex 225.50311279296875 89.0193099975586 0
      vertex 225.03607177734375 89.2042236328125 35
      vertex 225.50311279296875 89.0193099975586 35
    endloop
  endfacet
  facet normal 0.368122859065892 0.9297771564375807 0
    outer loop
      vertex 225.03607177734375 89.2042236328125 35
      vertex 225.50311279296875 89.0193099975586 0
      vertex 225.03607177734375 89.2042236328125 0
    endloop
  endfacet
  facet normal -0.9048257153565578 0.4257821330557371 0
    outer loop
      vertex 0.28089427947998047 86.87249755859375 0
      vertex 0.49477386474609375 87.32701110839844 35
      vertex 0.49477386474609375 87.32701110839844 0
    endloop
  endfacet
  facet normal -0.9048257153565578 0.4257821330557371 0
    outer loop
      vertex 0.49477386474609375 87.32701110839844 35
      vertex 0.28089427947998047 86.87249755859375 0
      vertex 0.28089427947998047 86.87249755859375 35
    endloop
  endfacet
  facet normal -0.951056640245695 -0.3090166128941464 0
    outer loop
      vertex 0.28089427947998047 2.5275020599365234 0
      vertex 0.12566757202148438 3.0052413940429688 35
      vertex 0.12566757202148438 3.0052413940429688 0
    endloop
  endfacet
  facet normal -0.951056640245695 -0.3090166128941464 0
    outer loop
      vertex 0.12566757202148438 3.0052413940429688 35
      vertex 0.28089427947998047 2.5275020599365234 0
      vertex 0.28089427947998047 2.5275020599365234 35
    endloop
  endfacet
  facet normal -0.9822877150061702 0.18737888074155196 0
    outer loop
      vertex 0.03154182434082031 85.90132904052734 0
      vertex 0.12566757202148438 86.39476013183594 35
      vertex 0.12566757202148438 86.39476013183594 0
    endloop
  endfacet
  facet normal -0.9822877150061702 0.18737888074155196 0
    outer loop
      vertex 0.12566757202148438 86.39476013183594 35
      vertex 0.03154182434082031 85.90132904052734 0
      vertex 0.03154182434082031 85.90132904052734 35
    endloop
  endfacet
  facet normal 0.48175782141599455 -0.8763044000257644 0
    outer loop
      vertex 225.50311279296875 0.3806924819946289 0
      vertex 225.94329833984375 0.6226892471313477 35
      vertex 225.50311279296875 0.3806924819946289 35
    endloop
  endfacet
  facet normal 0.48175782141599455 -0.8763044000257644 0
    outer loop
      vertex 225.94329833984375 0.6226892471313477 35
      vertex 225.50311279296875 0.3806924819946289 0
      vertex 225.94329833984375 0.6226892471313477 0
    endloop
  endfacet
  facet normal 0.24869178777339362 0.9685826731333125 0
    outer loop
      vertex 225.03607177734375 89.2042236328125 0
      vertex 224.54953002929688 89.32914733886719 35
      vertex 225.03607177734375 89.2042236328125 35
    endloop
  endfacet
  facet normal 0.24869178777339362 0.9685826731333125 0
    outer loop
      vertex 224.54953002929688 89.32914733886719 35
      vertex 225.03607177734375 89.2042236328125 0
      vertex 224.54953002929688 89.32914733886719 0
    endloop
  endfacet
  facet normal -0.4817538139485359 0.8763066031624088 0
    outer loop
      vertex 2.2968835830688477 89.0193099975586 0
      vertex 1.8566932678222656 88.77731323242188 35
      vertex 2.2968835830688477 89.0193099975586 35
    endloop
  endfacet
  facet normal -0.4817538139485359 0.8763066031624088 0
    outer loop
      vertex 1.8566932678222656 88.77731323242188 35
      vertex 2.2968835830688477 89.0193099975586 0
      vertex 1.8566932678222656 88.77731323242188 0
    endloop
  endfacet
  facet normal -0.9510562776593261 0.30901772881953976 0
    outer loop
      vertex 0.12566757202148438 86.39476013183594 0
      vertex 0.28089427947998047 86.87249755859375 35
      vertex 0.28089427947998047 86.87249755859375 0
    endloop
  endfacet
  facet normal -0.9510562776593261 0.30901772881953976 0
    outer loop
      vertex 0.28089427947998047 86.87249755859375 35
      vertex 0.12566757202148438 86.39476013183594 0
      vertex 0.12566757202148438 86.39476013183594 35
    endloop
  endfacet
  facet normal -0.24868954935424314 -0.9685832478635914 0
    outer loop
      vertex 2.763932228088379 0.19577407836914062 0
      vertex 3.2504749298095703 0.07085132598876953 35
      vertex 2.763932228088379 0.19577407836914062 35
    endloop
  endfacet
  facet normal -0.24868954935424314 -0.9685832478635914 0
    outer loop
      vertex 3.2504749298095703 0.07085132598876953 35
      vertex 2.763932228088379 0.19577407836914062 0
      vertex 3.2504749298095703 0.07085132598876953 0
    endloop
  endfacet
  facet normal 0.8443399912637835 0.5358077819075362 0
    outer loop
      vertex 227.3052215576172 87.32701110839844 35
      vertex 227.03607177734375 87.75114440917969 0
      vertex 227.03607177734375 87.75114440917969 35
    endloop
  endfacet
  facet normal 0.8443399912637835 0.5358077819075362 0
    outer loop
      vertex 227.03607177734375 87.75114440917969 0
      vertex 227.3052215576172 87.32701110839844 35
      vertex 227.3052215576172 87.32701110839844 0
    endloop
  endfacet
  facet normal 0.9048235210710511 0.42578679608060305 0
    outer loop
      vertex 227.51910400390625 86.87249755859375 35
      vertex 227.3052215576172 87.32701110839844 0
      vertex 227.3052215576172 87.32701110839844 35
    endloop
  endfacet
  facet normal 0.9048235210710511 0.42578679608060305 0
    outer loop
      vertex 227.3052215576172 87.32701110839844 0
      vertex 227.51910400390625 86.87249755859375 35
      vertex 227.51910400390625 86.87249755859375 0
    endloop
  endfacet
  facet normal 0.9822852849798223 -0.18739161910851163 0
    outer loop
      vertex 227.67433166503906 3.0052413940429688 35
      vertex 227.76846313476562 3.4986677169799805 0
      vertex 227.76846313476562 3.4986677169799805 35
    endloop
  endfacet
  facet normal 0.9822852849798223 -0.18739161910851163 0
    outer loop
      vertex 227.76846313476562 3.4986677169799805 0
      vertex 227.67433166503906 3.0052413940429688 35
      vertex 227.67433166503906 3.0052413940429688 0
    endloop
  endfacet
  facet normal -0.12533286738632868 0.9921147475734452 0
    outer loop
      vertex 3.748838424682617 89.39210510253906 0
      vertex 3.2504749298095703 89.32914733886719 35
      vertex 3.748838424682617 89.39210510253906 35
    endloop
  endfacet
  facet normal -0.12533286738632868 0.9921147475734452 0
    outer loop
      vertex 3.2504749298095703 89.32914733886719 35
      vertex 3.748838424682617 89.39210510253906 0
      vertex 3.2504749298095703 89.32914733886719 0
    endloop
  endfacet
  facet normal 0.1253319231093631 0.9921148668625567 0
    outer loop
      vertex 224.54953002929688 89.32914733886719 0
      vertex 224.05116271972656 89.39210510253906 35
      vertex 224.54953002929688 89.32914733886719 35
    endloop
  endfacet
  facet normal 0.1253319231093631 0.9921148668625567 0
    outer loop
      vertex 224.05116271972656 89.39210510253906 35
      vertex 224.54953002929688 89.32914733886719 0
      vertex 224.05116271972656 89.39210510253906 0
    endloop
  endfacet
  facet normal 0 0 -1
    outer loop
      vertex 225.85000610351562 3.9499998092651367 0
      vertex 227.8000030517578 4 0
      vertex 227.76846313476562 3.4986677169799805 0
    endloop
  endfacet
  facet normal 0 0 -1
    outer loop
      vertex 227.8000030517578 4 0
      vertex 225.85000610351562 3.9499998092651367 0
      vertex 227.8000030517578 85.4000015258789 0
    endloop
  endfacet
  facet normal 0 0 -1
    outer loop
      vertex 225.834228515625 3.699334144592285 0
      vertex 227.76846313476562 3.4986677169799805 0
      vertex 227.67433166503906 3.0052413940429688 0
    endloop
  endfacet
  facet normal 0 0 -1
    outer loop
      vertex 225.85000610351562 85.44999694824219 0
      vertex 227.8000030517578 85.4000015258789 0
      vertex 225.85000610351562 3.9499998092651367 0
    endloop
  endfacet
  facet normal 0 0 -1
    outer loop
      vertex 225.78717041015625 3.452620506286621 0
      vertex 227.67433166503906 3.0052413940429688 0
      vertex 227.51910400390625 2.5275020599365234 0
    endloop
  endfacet
  facet normal 0 0 -1
    outer loop
      vertex 227.8000030517578 85.4000015258789 0
      vertex 225.85000610351562 85.44999694824219 0
      vertex 227.76846313476562 85.90132904052734 0
    endloop
  endfacet
  facet normal 0 0 -1
    outer loop
      vertex 225.7095489501953 3.2137508392333984 0
      vertex 227.51910400390625 2.5275020599365234 0
      vertex 227.3052215576172 2.0729856491088867 0
    endloop
  endfacet
  facet normal 0 0 -1
    outer loop
      vertex 225.834228515625 85.70066833496094 0
      vertex 227.76846313476562 85.90132904052734 0
      vertex 225.85000610351562 85.44999694824219 0
    endloop
  endfacet
  facet normal 0 0 -1
    outer loop
      vertex 225.6026153564453 2.9864931106567383 0
      vertex 227.3052215576172 2.0729856491088867 0
      vertex 227.03607177734375 1.6488590240478516 0
    endloop
  endfacet
  facet normal 0 0 -1
    outer loop
      vertex 227.76846313476562 85.90132904052734 0
      vertex 225.834228515625 85.70066833496094 0
      vertex 227.67433166503906 86.39476013183594 0
    endloop
  endfacet
  facet normal 0 0 -1
    outer loop
      vertex 225.46803283691406 2.7744293212890625 0
      vertex 227.03607177734375 1.6488590240478516 0
      vertex 226.71588134765625 1.2618122100830078 0
    endloop
  endfacet
  facet normal 0 0 -1
    outer loop
      vertex 225.78717041015625 85.94738006591797 0
      vertex 227.67433166503906 86.39476013183594 0
      vertex 225.834228515625 85.70066833496094 0
    endloop
  endfacet
  facet normal 0 0 -1
    outer loop
      vertex 225.3079376220703 2.5809059143066406 0
      vertex 226.71588134765625 1.2618122100830078 0
      vertex 226.34970092773438 0.9179477691650391 0
    endloop
  endfacet
  facet normal 0 0 -1
    outer loop
      vertex 227.67433166503906 86.39476013183594 0
      vertex 225.78717041015625 85.94738006591797 0
      vertex 227.51910400390625 86.87249755859375 0
    endloop
  endfacet
  facet normal 0 0 -1
    outer loop
      vertex 224.92164611816406 2.2613449096679688 0
      vertex 226.34970092773438 0.9179477691650391 0
      vertex 225.94329833984375 0.6226892471313477 0
    endloop
  endfacet
  facet normal 0 0 -1
    outer loop
      vertex 225.7095489501953 86.18624877929688 0
      vertex 227.51910400390625 86.87249755859375 0
      vertex 225.78717041015625 85.94738006591797 0
    endloop
  endfacet
  facet normal 0 0 -1
    outer loop
      vertex 227.51910400390625 86.87249755859375 0
      vertex 225.7095489501953 86.18624877929688 0
      vertex 227.3052215576172 87.32701110839844 0
    endloop
  endfacet
  facet normal 0 0 -1
    outer loop
      vertex 227.76846313476562 3.4986677169799805 0
      vertex 225.834228515625 3.699334144592285 0
      vertex 225.85000610351562 3.9499998092651367 0
    endloop
  endfacet
  facet normal 0 0 -1
    outer loop
      vertex 227.67433166503906 3.0052413940429688 0
      vertex 225.78717041015625 3.452620506286621 0
      vertex 225.834228515625 3.699334144592285 0
    endloop
  endfacet
  facet normal 0 0 -1
    outer loop
      vertex 227.51910400390625 2.5275020599365234 0
      vertex 225.7095489501953 3.2137508392333984 0
      vertex 225.78717041015625 3.452620506286621 0
    endloop
  endfacet
  facet normal 0 0 -1
    outer loop
      vertex 227.3052215576172 2.0729856491088867 0
      vertex 225.6026153564453 2.9864931106567383 0
      vertex 225.7095489501953 3.2137508392333984 0
    endloop
  endfacet
  facet normal 0 0 -1
    outer loop
      vertex 224.70155334472656 2.1403465270996094 0
      vertex 225.94329833984375 0.6226892471313477 0
      vertex 225.50311279296875 0.3806924819946289 0
    endloop
  endfacet
  facet normal 0 0 -1
    outer loop
      vertex 227.03607177734375 1.6488590240478516 0
      vertex 225.46803283691406 2.7744293212890625 0
      vertex 225.6026153564453 2.9864931106567383 0
    endloop
  endfacet
  facet normal 0 0 -1
    outer loop
      vertex 226.71588134765625 1.2618122100830078 0
      vertex 225.3079376220703 2.5809059143066406 0
      vertex 225.46803283691406 2.7744293212890625 0
    endloop
  endfacet
  facet normal 0 0 -1
    outer loop
      vertex 226.34970092773438 0.9179477691650391 0
      vertex 225.12484741210938 2.4089736938476562 0
      vertex 225.3079376220703 2.5809059143066406 0
    endloop
  endfacet
  facet normal 0 0 -1
    outer loop
      vertex 224.46803283691406 2.047886848449707 0
      vertex 225.50311279296875 0.3806924819946289 0
      vertex 225.03607177734375 0.19577407836914062 0
    endloop
  endfacet
  facet normal 0 0 -1
    outer loop
      vertex 226.34970092773438 0.9179477691650391 0
      vertex 224.92164611816406 2.2613449096679688 0
      vertex 225.12484741210938 2.4089736938476562 0
    endloop
  endfacet
  facet normal 0 0 -1
    outer loop
      vertex 225.94329833984375 0.6226892471313477 0
      vertex 224.70155334472656 2.1403465270996094 0
      vertex 224.92164611816406 2.2613449096679688 0
    endloop
  endfacet
  facet normal 0 0 -1
    outer loop
      vertex 224.22476196289062 1.9854259490966797 0
      vertex 225.03607177734375 0.19577407836914062 0
      vertex 224.54953002929688 0.07085132598876953 0
    endloop
  endfacet
  facet normal 0 0 -1
    outer loop
      vertex 225.50311279296875 0.3806924819946289 0
      vertex 224.46803283691406 2.047886848449707 0
      vertex 224.70155334472656 2.1403465270996094 0
    endloop
  endfacet
  facet normal 0 0 -1
    outer loop
      vertex 225.03607177734375 0.19577407836914062 0
      vertex 224.22476196289062 1.9854259490966797 0
      vertex 224.46803283691406 2.047886848449707 0
    endloop
  endfacet
  facet normal 0 0 -1
    outer loop
      vertex 223.9755859375 1.9539470672607422 0
      vertex 224.54953002929688 0.07085132598876953 0
      vertex 224.05116271972656 0.007893562316894531 0
    endloop
  endfacet
  facet normal 0 0 -1
    outer loop
      vertex 224.54953002929688 0.07085132598876953 0
      vertex 223.9755859375 1.9539470672607422 0
      vertex 224.22476196289062 1.9854259490966797 0
    endloop
  endfacet
  facet normal 0 0 -1
    outer loop
      vertex 224.05116271972656 0.007893562316894531 0
      vertex 3.8244190216064453 1.9539470672607422 0
      vertex 223.9755859375 1.9539470672607422 0
    endloop
  endfacet
  facet normal 0 0 -1
    outer loop
      vertex 3.748838424682617 0.007893562316894531 0
      vertex 3.8244190216064453 1.9539470672607422 0
      vertex 224.05116271972656 0.007893562316894531 0
    endloop
  endfacet
  facet normal 0 0 -1
    outer loop
      vertex 3.2504749298095703 0.07085132598876953 0
      vertex 3.8244190216064453 1.9539470672607422 0
      vertex 3.748838424682617 0.007893562316894531 0
    endloop
  endfacet
  facet normal 0 0 -1
    outer loop
      vertex 3.8244190216064453 1.9539470672607422 0
      vertex 3.2504749298095703 0.07085132598876953 0
      vertex 3.575237274169922 1.9854259490966797 0
    endloop
  endfacet
  facet normal 0 0 -1
    outer loop
      vertex 2.763932228088379 0.19577407836914062 0
      vertex 3.575237274169922 1.9854259490966797 0
      vertex 3.2504749298095703 0.07085132598876953 0
    endloop
  endfacet
  facet normal 0 0 -1
    outer loop
      vertex 3.575237274169922 1.9854259490966797 0
      vertex 2.763932228088379 0.19577407836914062 0
      vertex 3.3319664001464844 2.047886848449707 0
    endloop
  endfacet
  facet normal 0 0 -1
    outer loop
      vertex 2.2968835830688477 0.3806924819946289 0
      vertex 3.3319664001464844 2.047886848449707 0
      vertex 2.763932228088379 0.19577407836914062 0
    endloop
  endfacet
  facet normal 0 0 -1
    outer loop
      vertex 3.3319664001464844 2.047886848449707 0
      vertex 2.2968835830688477 0.3806924819946289 0
      vertex 3.0984420776367188 2.1403465270996094 0
    endloop
  endfacet
  facet normal 0 0 -1
    outer loop
      vertex 1.8566932678222656 0.6226892471313477 0
      vertex 3.0984420776367188 2.1403465270996094 0
      vertex 2.2968835830688477 0.3806924819946289 0
    endloop
  endfacet
  facet normal 0 0 -1
    outer loop
      vertex 3.0984420776367188 2.1403465270996094 0
      vertex 1.8566932678222656 0.6226892471313477 0
      vertex 2.8783464431762695 2.2613449096679688 0
    endloop
  endfacet
  facet normal 0 0 -1
    outer loop
      vertex 1.4503049850463867 0.9179477691650391 0
      vertex 2.8783464431762695 2.2613449096679688 0
      vertex 1.8566932678222656 0.6226892471313477 0
    endloop
  endfacet
  facet normal 0 0 -1
    outer loop
      vertex 2.8783464431762695 2.2613449096679688 0
      vertex 1.4503049850463867 0.9179477691650391 0
      vertex 2.6751527786254883 2.4089736938476562 0
    endloop
  endfacet
  facet normal 0 0 -1
    outer loop
      vertex 2.6751527786254883 2.4089736938476562 0
      vertex 1.4503049850463867 0.9179477691650391 0
      vertex 2.492062568664551 2.5809059143066406 0
    endloop
  endfacet
  facet normal 0 0 -1
    outer loop
      vertex 1.0841255187988281 1.2618122100830078 0
      vertex 2.492062568664551 2.5809059143066406 0
      vertex 1.4503049850463867 0.9179477691650391 0
    endloop
  endfacet
  facet normal 0 0 -1
    outer loop
      vertex 2.492062568664551 2.5809059143066406 0
      vertex 1.0841255187988281 1.2618122100830078 0
      vertex 2.3319664001464844 2.7744293212890625 0
    endloop
  endfacet
  facet normal 0 0 -1
    outer loop
      vertex 0.7639322280883789 1.6488590240478516 0
      vertex 2.3319664001464844 2.7744293212890625 0
      vertex 1.0841255187988281 1.2618122100830078 0
    endloop
  endfacet
  facet normal 0 0 -1
    outer loop
      vertex 2.1973867416381836 2.9864931106567383 0
      vertex 0.49477386474609375 2.0729856491088867 0
      vertex 2.090447425842285 3.2137508392333984 0
    endloop
  endfacet
  facet normal 0 0 -1
    outer loop
      vertex 0.49477386474609375 2.0729856491088867 0
      vertex 2.1973867416381836 2.9864931106567383 0
      vertex 0.7639322280883789 1.6488590240478516 0
    endloop
  endfacet
  facet normal 0 0 -1
    outer loop
      vertex 2.3319664001464844 2.7744293212890625 0
      vertex 0.7639322280883789 1.6488590240478516 0
      vertex 2.1973867416381836 2.9864931106567383 0
    endloop
  endfacet
  facet normal 0 0 -1
    outer loop
      vertex 225.6026153564453 86.41350555419922 0
      vertex 227.3052215576172 87.32701110839844 0
      vertex 225.7095489501953 86.18624877929688 0
    endloop
  endfacet
  facet normal 0 0 -1
    outer loop
      vertex 227.3052215576172 87.32701110839844 0
      vertex 225.6026153564453 86.41350555419922 0
      vertex 227.03607177734375 87.75114440917969 0
    endloop
  endfacet
  facet normal 0 0 -1
    outer loop
      vertex 225.46803283691406 86.62557220458984 0
      vertex 227.03607177734375 87.75114440917969 0
      vertex 225.6026153564453 86.41350555419922 0
    endloop
  endfacet
  facet normal 0 0 -1
    outer loop
      vertex 227.03607177734375 87.75114440917969 0
      vertex 225.46803283691406 86.62557220458984 0
      vertex 226.71588134765625 88.13818359375 0
    endloop
  endfacet
  facet normal 0 0 -1
    outer loop
      vertex 225.3079376220703 86.819091796875 0
      vertex 226.71588134765625 88.13818359375 0
      vertex 225.46803283691406 86.62557220458984 0
    endloop
  endfacet
  facet normal 0 0 -1
    outer loop
      vertex 226.71588134765625 88.13818359375 0
      vertex 225.3079376220703 86.819091796875 0
      vertex 226.34970092773438 88.4820556640625 0
    endloop
  endfacet
  facet normal 0 0 -1
    outer loop
      vertex 225.12484741210938 86.99102783203125 0
      vertex 226.34970092773438 88.4820556640625 0
      vertex 225.3079376220703 86.819091796875 0
    endloop
  endfacet
  facet normal 0 0 -1
    outer loop
      vertex 224.92164611816406 87.13865661621094 0
      vertex 226.34970092773438 88.4820556640625 0
      vertex 225.12484741210938 86.99102783203125 0
    endloop
  endfacet
  facet normal 0 0 -1
    outer loop
      vertex 226.34970092773438 88.4820556640625 0
      vertex 224.92164611816406 87.13865661621094 0
      vertex 225.94329833984375 88.77731323242188 0
    endloop
  endfacet
  facet normal 0 0 -1
    outer loop
      vertex 224.70155334472656 87.25965118408203 0
      vertex 225.94329833984375 88.77731323242188 0
      vertex 224.92164611816406 87.13865661621094 0
    endloop
  endfacet
  facet normal 0 0 -1
    outer loop
      vertex 225.94329833984375 88.77731323242188 0
      vertex 224.70155334472656 87.25965118408203 0
      vertex 225.50311279296875 89.0193099975586 0
    endloop
  endfacet
  facet normal 0 0 -1
    outer loop
      vertex 224.46803283691406 87.35211181640625 0
      vertex 225.50311279296875 89.0193099975586 0
      vertex 224.70155334472656 87.25965118408203 0
    endloop
  endfacet
  facet normal 0 0 -1
    outer loop
      vertex 225.50311279296875 89.0193099975586 0
      vertex 224.46803283691406 87.35211181640625 0
      vertex 225.03607177734375 89.2042236328125 0
    endloop
  endfacet
  facet normal 0 0 -1
    outer loop
      vertex 224.22476196289062 87.4145736694336 0
      vertex 225.03607177734375 89.2042236328125 0
      vertex 224.46803283691406 87.35211181640625 0
    endloop
  endfacet
  facet normal 0 0 -1
    outer loop
      vertex 225.03607177734375 89.2042236328125 0
      vertex 224.22476196289062 87.4145736694336 0
      vertex 224.54953002929688 89.32914733886719 0
    endloop
  endfacet
  facet normal 0 0 -1
    outer loop
      vertex 223.9755859375 87.44605255126953 0
      vertex 224.54953002929688 89.32914733886719 0
      vertex 224.22476196289062 87.4145736694336 0
    endloop
  endfacet
  facet normal 0 0 -1
    outer loop
      vertex 224.54953002929688 89.32914733886719 0
      vertex 223.9755859375 87.44605255126953 0
      vertex 224.05116271972656 89.39210510253906 0
    endloop
  endfacet
  facet normal 0 0 -1
    outer loop
      vertex 3.8244190216064453 87.44605255126953 0
      vertex 224.05116271972656 89.39210510253906 0
      vertex 223.9755859375 87.44605255126953 0
    endloop
  endfacet
  facet normal 0 0 -1
    outer loop
      vertex 3.8244190216064453 87.44605255126953 0
      vertex 3.748838424682617 89.39210510253906 0
      vertex 224.05116271972656 89.39210510253906 0
    endloop
  endfacet
  facet normal 0 0 -1
    outer loop
      vertex 3.2504749298095703 89.32914733886719 0
      vertex 3.8244190216064453 87.44605255126953 0
      vertex 3.575237274169922 87.4145736694336 0
    endloop
  endfacet
  facet normal 0 0 -1
    outer loop
      vertex 2.763932228088379 89.2042236328125 0
      vertex 3.575237274169922 87.4145736694336 0
      vertex 3.3319664001464844 87.35211181640625 0
    endloop
  endfacet
  facet normal 0 0 -1
    outer loop
      vertex 3.8244190216064453 87.44605255126953 0
      vertex 3.2504749298095703 89.32914733886719 0
      vertex 3.748838424682617 89.39210510253906 0
    endloop
  endfacet
  facet normal 0 0 -1
    outer loop
      vertex 2.2968835830688477 89.0193099975586 0
      vertex 3.3319664001464844 87.35211181640625 0
      vertex 3.0984420776367188 87.25965118408203 0
    endloop
  endfacet
  facet normal 0 0 -1
    outer loop
      vertex 1.8566932678222656 88.77731323242188 0
      vertex 3.0984420776367188 87.25965118408203 0
      vertex 2.8783464431762695 87.13865661621094 0
    endloop
  endfacet
  facet normal 0 0 -1
    outer loop
      vertex 3.575237274169922 87.4145736694336 0
      vertex 2.763932228088379 89.2042236328125 0
      vertex 3.2504749298095703 89.32914733886719 0
    endloop
  endfacet
  facet normal 0 0 -1
    outer loop
      vertex 1.4503049850463867 88.4820556640625 0
      vertex 2.8783464431762695 87.13865661621094 0
      vertex 2.6751527786254883 86.99102783203125 0
    endloop
  endfacet
  facet normal 0 0 -1
    outer loop
      vertex 1.4503049850463867 88.4820556640625 0
      vertex 2.6751527786254883 86.99102783203125 0
      vertex 2.492062568664551 86.819091796875 0
    endloop
  endfacet
  facet normal 0 0 -1
    outer loop
      vertex 1.0841255187988281 88.13818359375 0
      vertex 2.492062568664551 86.819091796875 0
      vertex 2.3319664001464844 86.62557220458984 0
    endloop
  endfacet
  facet normal 0 0 -1
    outer loop
      vertex 3.3319664001464844 87.35211181640625 0
      vertex 2.2968835830688477 89.0193099975586 0
      vertex 2.763932228088379 89.2042236328125 0
    endloop
  endfacet
  facet normal 0 0 -1
    outer loop
      vertex 0.7639322280883789 87.75114440917969 0
      vertex 2.3319664001464844 86.62557220458984 0
      vertex 2.1973867416381836 86.41350555419922 0
    endloop
  endfacet
  facet normal 0 0 -1
    outer loop
      vertex 0.49477386474609375 87.32701110839844 0
      vertex 2.1973867416381836 86.41350555419922 0
      vertex 2.090447425842285 86.18624877929688 0
    endloop
  endfacet
  facet normal 0 0 -1
    outer loop
      vertex 0.28089427947998047 86.87249755859375 0
      vertex 2.090447425842285 86.18624877929688 0
      vertex 2.012833595275879 85.94738006591797 0
    endloop
  endfacet
  facet normal 0 0 -1
    outer loop
      vertex 0.12566757202148438 86.39476013183594 0
      vertex 2.012833595275879 85.94738006591797 0
      vertex 1.9657707214355469 85.70066833496094 0
    endloop
  endfacet
  facet normal 0 0 -1
    outer loop
      vertex 3.0984420776367188 87.25965118408203 0
      vertex 1.8566932678222656 88.77731323242188 0
      vertex 2.2968835830688477 89.0193099975586 0
    endloop
  endfacet
  facet normal 0 0 -1
    outer loop
      vertex 0.03154182434082031 85.90132904052734 0
      vertex 1.9657707214355469 85.70066833496094 0
      vertex 1.9499998092651367 85.44999694824219 0
    endloop
  endfacet
  facet normal 0 0 -1
    outer loop
      vertex 1.9499998092651367 3.9499998092651367 0
      vertex 0 4 0
      vertex 1.9499998092651367 85.44999694824219 0
    endloop
  endfacet
  facet normal 0 0 -1
    outer loop
      vertex 0.28089427947998047 2.5275020599365234 0
      vertex 2.090447425842285 3.2137508392333984 0
      vertex 0.49477386474609375 2.0729856491088867 0
    endloop
  endfacet
  facet normal 0 0 -1
    outer loop
      vertex 0 85.4000015258789 0
      vertex 1.9499998092651367 85.44999694824219 0
      vertex 0 4 0
    endloop
  endfacet
  facet normal 0 0 -1
    outer loop
      vertex 2.090447425842285 3.2137508392333984 0
      vertex 0.28089427947998047 2.5275020599365234 0
      vertex 2.012833595275879 3.452620506286621 0
    endloop
  endfacet
  facet normal 0 0 -1
    outer loop
      vertex 0.03154182434082031 85.90132904052734 0
      vertex 1.9499998092651367 85.44999694824219 0
      vertex 0 85.4000015258789 0
    endloop
  endfacet
  facet normal 0 0 -1
    outer loop
      vertex 0.12566757202148438 3.0052413940429688 0
      vertex 2.012833595275879 3.452620506286621 0
      vertex 0.28089427947998047 2.5275020599365234 0
    endloop
  endfacet
  facet normal 0 0 -1
    outer loop
      vertex 2.8783464431762695 87.13865661621094 0
      vertex 1.4503049850463867 88.4820556640625 0
      vertex 1.8566932678222656 88.77731323242188 0
    endloop
  endfacet
  facet normal 0 0 -1
    outer loop
      vertex 2.012833595275879 3.452620506286621 0
      vertex 0.12566757202148438 3.0052413940429688 0
      vertex 1.9657707214355469 3.699334144592285 0
    endloop
  endfacet
  facet normal 0 0 -1
    outer loop
      vertex 2.492062568664551 86.819091796875 0
      vertex 1.0841255187988281 88.13818359375 0
      vertex 1.4503049850463867 88.4820556640625 0
    endloop
  endfacet
  facet normal 0 0 -1
    outer loop
      vertex 0.03154182434082031 3.4986677169799805 0
      vertex 1.9657707214355469 3.699334144592285 0
      vertex 0.12566757202148438 3.0052413940429688 0
    endloop
  endfacet
  facet normal 0 0 -1
    outer loop
      vertex 2.3319664001464844 86.62557220458984 0
      vertex 0.7639322280883789 87.75114440917969 0
      vertex 1.0841255187988281 88.13818359375 0
    endloop
  endfacet
  facet normal 0 0 -1
    outer loop
      vertex 1.9657707214355469 3.699334144592285 0
      vertex 0.03154182434082031 3.4986677169799805 0
      vertex 1.9499998092651367 3.9499998092651367 0
    endloop
  endfacet
  facet normal 0 0 -1
    outer loop
      vertex 2.1973867416381836 86.41350555419922 0
      vertex 0.49477386474609375 87.32701110839844 0
      vertex 0.7639322280883789 87.75114440917969 0
    endloop
  endfacet
  facet normal 0 0 -1
    outer loop
      vertex 1.9499998092651367 3.9499998092651367 0
      vertex 0.03154182434082031 3.4986677169799805 0
      vertex 0 4 0
    endloop
  endfacet
  facet normal 0 0 -1
    outer loop
      vertex 2.090447425842285 86.18624877929688 0
      vertex 0.28089427947998047 86.87249755859375 0
      vertex 0.49477386474609375 87.32701110839844 0
    endloop
  endfacet
  facet normal 0 0 -1
    outer loop
      vertex 2.012833595275879 85.94738006591797 0
      vertex 0.12566757202148438 86.39476013183594 0
      vertex 0.28089427947998047 86.87249755859375 0
    endloop
  endfacet
  facet normal 0 0 -1
    outer loop
      vertex 1.9657707214355469 85.70066833496094 0
      vertex 0.03154182434082031 85.90132904052734 0
      vertex 0.12566757202148438 86.39476013183594 0
    endloop
  endfacet
  facet normal -0.6845541545925192 0.728962008221362 0
    outer loop
      vertex 1.4503049850463867 88.4820556640625 0
      vertex 1.0841255187988281 88.13818359375 35
      vertex 1.4503049850463867 88.4820556640625 35
    endloop
  endfacet
  facet normal -0.6845541545925192 0.728962008221362 0
    outer loop
      vertex 1.0841255187988281 88.13818359375 35
      vertex 1.4503049850463867 88.4820556640625 0
      vertex 1.0841255187988281 88.13818359375 0
    endloop
  endfacet
  facet normal -0.5877842073671006 0.8090177535566382 0
    outer loop
      vertex 1.8566932678222656 88.77731323242188 0
      vertex 1.4503049850463867 88.4820556640625 35
      vertex 1.8566932678222656 88.77731323242188 35
    endloop
  endfacet
  facet normal -0.5877842073671006 0.8090177535566382 0
    outer loop
      vertex 1.4503049850463867 88.4820556640625 35
      vertex 1.8566932678222656 88.77731323242188 0
      vertex 1.4503049850463867 88.4820556640625 0
    endloop
  endfacet
  facet normal -0.7705129301526621 -0.6374243676449456 0
    outer loop
      vertex 1.0841255187988281 1.2618122100830078 0
      vertex 0.7639322280883789 1.6488590240478516 35
      vertex 0.7639322280883789 1.6488590240478516 0
    endloop
  endfacet
  facet normal -0.7705129301526621 -0.6374243676449456 0
    outer loop
      vertex 0.7639322280883789 1.6488590240478516 35
      vertex 1.0841255187988281 1.2618122100830078 0
      vertex 1.0841255187988281 1.2618122100830078 35
    endloop
  endfacet
  facet normal -0.9980266073430699 0.0627924440938683 0
    outer loop
      vertex 0 85.4000015258789 0
      vertex 0.03154182434082031 85.90132904052734 35
      vertex 0.03154182434082031 85.90132904052734 0
    endloop
  endfacet
  facet normal -0.9980266073430699 0.0627924440938683 0
    outer loop
      vertex 0.03154182434082031 85.90132904052734 35
      vertex 0 85.4000015258789 0
      vertex 0 85.4000015258789 35
    endloop
  endfacet
  facet normal 0.1253319231093631 -0.9921148668625567 0
    outer loop
      vertex 224.05116271972656 0.007893562316894531 0
      vertex 224.54953002929688 0.07085132598876953 35
      vertex 224.05116271972656 0.007893562316894531 35
    endloop
  endfacet
  facet normal 0.1253319231093631 -0.9921148668625567 0
    outer loop
      vertex 224.54953002929688 0.07085132598876953 35
      vertex 224.05116271972656 0.007893562316894531 0
      vertex 224.54953002929688 0.07085132598876953 0
    endloop
  endfacet
  facet normal -0.9980266447712987 -0.06279184920468708 0
    outer loop
      vertex 0.03154182434082031 3.4986677169799805 0
      vertex 0 4 35
      vertex 0 4 0
    endloop
  endfacet
  facet normal -0.9980266447712987 -0.06279184920468708 0
    outer loop
      vertex 0 4 35
      vertex 0.03154182434082031 3.4986677169799805 0
      vertex 0.03154182434082031 3.4986677169799805 35
    endloop
  endfacet
  facet normal -0.9048267479062247 -0.42577993878698084 0
    outer loop
      vertex 0.49477386474609375 2.0729856491088867 0
      vertex 0.28089427947998047 2.5275020599365234 35
      vertex 0.28089427947998047 2.5275020599365234 0
    endloop
  endfacet
  facet normal -0.9048267479062247 -0.42577993878698084 0
    outer loop
      vertex 0.28089427947998047 2.5275020599365234 35
      vertex 0.49477386474609375 2.0729856491088867 0
      vertex 0.49477386474609375 2.0729856491088867 35
    endloop
  endfacet
  facet normal 0 0 1
    outer loop
      vertex 225.85000610351562 85.44999694824219 35
      vertex 227.8000030517578 85.4000015258789 35
      vertex 227.76846313476562 85.90132904052734 35
    endloop
  endfacet
  facet normal 0 0 1
    outer loop
      vertex 227.8000030517578 85.4000015258789 35
      vertex 225.85000610351562 85.44999694824219 35
      vertex 227.8000030517578 4 35
    endloop
  endfacet
  facet normal 0 0 1
    outer loop
      vertex 225.834228515625 85.70066833496094 35
      vertex 227.76846313476562 85.90132904052734 35
      vertex 227.67433166503906 86.39476013183594 35
    endloop
  endfacet
  facet normal 0 0 1
    outer loop
      vertex 225.85000610351562 3.9499998092651367 35
      vertex 227.8000030517578 4 35
      vertex 225.85000610351562 85.44999694824219 35
    endloop
  endfacet
  facet normal 0 0 1
    outer loop
      vertex 225.78717041015625 85.94738006591797 35
      vertex 227.67433166503906 86.39476013183594 35
      vertex 227.51910400390625 86.87249755859375 35
    endloop
  endfacet
  facet normal 0 0 1
    outer loop
      vertex 227.8000030517578 4 35
      vertex 225.85000610351562 3.9499998092651367 35
      vertex 227.76846313476562 3.4986677169799805 35
    endloop
  endfacet
  facet normal 0 0 1
    outer loop
      vertex 225.7095489501953 86.18624877929688 35
      vertex 227.51910400390625 86.87249755859375 35
      vertex 227.3052215576172 87.32701110839844 35
    endloop
  endfacet
  facet normal 0 0 1
    outer loop
      vertex 225.834228515625 3.699334144592285 35
      vertex 227.76846313476562 3.4986677169799805 35
      vertex 225.85000610351562 3.9499998092651367 35
    endloop
  endfacet
  facet normal 0 0 1
    outer loop
      vertex 225.6026153564453 86.41350555419922 35
      vertex 227.3052215576172 87.32701110839844 35
      vertex 227.03607177734375 87.75114440917969 35
    endloop
  endfacet
  facet normal 0 0 1
    outer loop
      vertex 227.76846313476562 3.4986677169799805 35
      vertex 225.834228515625 3.699334144592285 35
      vertex 227.67433166503906 3.0052413940429688 35
    endloop
  endfacet
  facet normal 0 0 1
    outer loop
      vertex 225.46803283691406 86.62557220458984 35
      vertex 227.03607177734375 87.75114440917969 35
      vertex 226.71588134765625 88.13818359375 35
    endloop
  endfacet
  facet normal 0 0 1
    outer loop
      vertex 225.78717041015625 3.452620506286621 35
      vertex 227.67433166503906 3.0052413940429688 35
      vertex 225.834228515625 3.699334144592285 35
    endloop
  endfacet
  facet normal 0 0 1
    outer loop
      vertex 225.3079376220703 86.819091796875 35
      vertex 226.71588134765625 88.13818359375 35
      vertex 226.34970092773438 88.4820556640625 35
    endloop
  endfacet
  facet normal 0 0 1
    outer loop
      vertex 227.67433166503906 3.0052413940429688 35
      vertex 225.78717041015625 3.452620506286621 35
      vertex 227.51910400390625 2.5275020599365234 35
    endloop
  endfacet
  facet normal 0 0 1
    outer loop
      vertex 224.92164611816406 87.13865661621094 35
      vertex 226.34970092773438 88.4820556640625 35
      vertex 225.94329833984375 88.77731323242188 35
    endloop
  endfacet
  facet normal 0 0 1
    outer loop
      vertex 225.7095489501953 3.2137508392333984 35
      vertex 227.51910400390625 2.5275020599365234 35
      vertex 225.78717041015625 3.452620506286621 35
    endloop
  endfacet
  facet normal 0 0 1
    outer loop
      vertex 227.51910400390625 2.5275020599365234 35
      vertex 225.7095489501953 3.2137508392333984 35
      vertex 227.3052215576172 2.0729856491088867 35
    endloop
  endfacet
  facet normal 0 0 1
    outer loop
      vertex 227.76846313476562 85.90132904052734 35
      vertex 225.834228515625 85.70066833496094 35
      vertex 225.85000610351562 85.44999694824219 35
    endloop
  endfacet
  facet normal 0 0 1
    outer loop
      vertex 227.67433166503906 86.39476013183594 35
      vertex 225.78717041015625 85.94738006591797 35
      vertex 225.834228515625 85.70066833496094 35
    endloop
  endfacet
  facet normal 0 0 1
    outer loop
      vertex 227.51910400390625 86.87249755859375 35
      vertex 225.7095489501953 86.18624877929688 35
      vertex 225.78717041015625 85.94738006591797 35
    endloop
  endfacet
  facet normal 0 0 1
    outer loop
      vertex 227.3052215576172 87.32701110839844 35
      vertex 225.6026153564453 86.41350555419922 35
      vertex 225.7095489501953 86.18624877929688 35
    endloop
  endfacet
  facet normal 0 0 1
    outer loop
      vertex 224.70155334472656 87.25965118408203 35
      vertex 225.94329833984375 88.77731323242188 35
      vertex 225.50311279296875 89.0193099975586 35
    endloop
  endfacet
  facet normal 0 0 1
    outer loop
      vertex 227.03607177734375 87.75114440917969 35
      vertex 225.46803283691406 86.62557220458984 35
      vertex 225.6026153564453 86.41350555419922 35
    endloop
  endfacet
  facet normal 0 0 1
    outer loop
      vertex 226.71588134765625 88.13818359375 35
      vertex 225.3079376220703 86.819091796875 35
      vertex 225.46803283691406 86.62557220458984 35
    endloop
  endfacet
  facet normal 0 0 1
    outer loop
      vertex 226.34970092773438 88.4820556640625 35
      vertex 225.12484741210938 86.99102783203125 35
      vertex 225.3079376220703 86.819091796875 35
    endloop
  endfacet
  facet normal 0 0 1
    outer loop
      vertex 224.46803283691406 87.35211181640625 35
      vertex 225.50311279296875 89.0193099975586 35
      vertex 225.03607177734375 89.2042236328125 35
    endloop
  endfacet
  facet normal 0 0 1
    outer loop
      vertex 226.34970092773438 88.4820556640625 35
      vertex 224.92164611816406 87.13865661621094 35
      vertex 225.12484741210938 86.99102783203125 35
    endloop
  endfacet
  facet normal 0 0 1
    outer loop
      vertex 225.94329833984375 88.77731323242188 35
      vertex 224.70155334472656 87.25965118408203 35
      vertex 224.92164611816406 87.13865661621094 35
    endloop
  endfacet
  facet normal 0 0 1
    outer loop
      vertex 224.22476196289062 87.4145736694336 35
      vertex 225.03607177734375 89.2042236328125 35
      vertex 224.54953002929688 89.32914733886719 35
    endloop
  endfacet
  facet normal 0 0 1
    outer loop
      vertex 225.50311279296875 89.0193099975586 35
      vertex 224.46803283691406 87.35211181640625 35
      vertex 224.70155334472656 87.25965118408203 35
    endloop
  endfacet
  facet normal 0 0 1
    outer loop
      vertex 225.03607177734375 89.2042236328125 35
      vertex 224.22476196289062 87.4145736694336 35
      vertex 224.46803283691406 87.35211181640625 35
    endloop
  endfacet
  facet normal 0 0 1
    outer loop
      vertex 223.9755859375 87.44605255126953 35
      vertex 224.54953002929688 89.32914733886719 35
      vertex 224.05116271972656 89.39210510253906 35
    endloop
  endfacet
  facet normal 0 0 1
    outer loop
      vertex 224.54953002929688 89.32914733886719 35
      vertex 223.9755859375 87.44605255126953 35
      vertex 224.22476196289062 87.4145736694336 35
    endloop
  endfacet
  facet normal 0 0 1
    outer loop
      vertex 224.05116271972656 89.39210510253906 35
      vertex 3.8244190216064453 87.44605255126953 35
      vertex 223.9755859375 87.44605255126953 35
    endloop
  endfacet
  facet normal 0 0 1
    outer loop
      vertex 3.748838424682617 89.39210510253906 35
      vertex 3.8244190216064453 87.44605255126953 35
      vertex 224.05116271972656 89.39210510253906 35
    endloop
  endfacet
  facet normal 0 0 1
    outer loop
      vertex 3.2504749298095703 89.32914733886719 35
      vertex 3.8244190216064453 87.44605255126953 35
      vertex 3.748838424682617 89.39210510253906 35
    endloop
  endfacet
  facet normal 0 0 1
    outer loop
      vertex 3.8244190216064453 87.44605255126953 35
      vertex 3.2504749298095703 89.32914733886719 35
      vertex 3.575237274169922 87.4145736694336 35
    endloop
  endfacet
  facet normal 0 0 1
    outer loop
      vertex 2.763932228088379 89.2042236328125 35
      vertex 3.575237274169922 87.4145736694336 35
      vertex 3.2504749298095703 89.32914733886719 35
    endloop
  endfacet
  facet normal 0 0 1
    outer loop
      vertex 3.575237274169922 87.4145736694336 35
      vertex 2.763932228088379 89.2042236328125 35
      vertex 3.3319664001464844 87.35211181640625 35
    endloop
  endfacet
  facet normal 0 0 1
    outer loop
      vertex 2.2968835830688477 89.0193099975586 35
      vertex 3.3319664001464844 87.35211181640625 35
      vertex 2.763932228088379 89.2042236328125 35
    endloop
  endfacet
  facet normal 0 0 1
    outer loop
      vertex 3.3319664001464844 87.35211181640625 35
      vertex 2.2968835830688477 89.0193099975586 35
      vertex 3.0984420776367188 87.25965118408203 35
    endloop
  endfacet
  facet normal 0 0 1
    outer loop
      vertex 1.8566932678222656 88.77731323242188 35
      vertex 3.0984420776367188 87.25965118408203 35
      vertex 2.2968835830688477 89.0193099975586 35
    endloop
  endfacet
  facet normal 0 0 1
    outer loop
      vertex 3.0984420776367188 87.25965118408203 35
      vertex 1.8566932678222656 88.77731323242188 35
      vertex 2.8783464431762695 87.13865661621094 35
    endloop
  endfacet
  facet normal 0 0 1
    outer loop
      vertex 1.4503049850463867 88.4820556640625 35
      vertex 2.8783464431762695 87.13865661621094 35
      vertex 1.8566932678222656 88.77731323242188 35
    endloop
  endfacet
  facet normal 0 0 1
    outer loop
      vertex 2.8783464431762695 87.13865661621094 35
      vertex 1.4503049850463867 88.4820556640625 35
      vertex 2.6751527786254883 86.99102783203125 35
    endloop
  endfacet
  facet normal 0 0 1
    outer loop
      vertex 2.6751527786254883 86.99102783203125 35
      vertex 1.4503049850463867 88.4820556640625 35
      vertex 2.492062568664551 86.819091796875 35
    endloop
  endfacet
  facet normal 0 0 1
    outer loop
      vertex 1.0841255187988281 88.13818359375 35
      vertex 2.492062568664551 86.819091796875 35
      vertex 1.4503049850463867 88.4820556640625 35
    endloop
  endfacet
  facet normal 0 0 1
    outer loop
      vertex 2.492062568664551 86.819091796875 35
      vertex 1.0841255187988281 88.13818359375 35
      vertex 2.3319664001464844 86.62557220458984 35
    endloop
  endfacet
  facet normal 0 0 1
    outer loop
      vertex 0.7639322280883789 87.75114440917969 35
      vertex 2.3319664001464844 86.62557220458984 35
      vertex 1.0841255187988281 88.13818359375 35
    endloop
  endfacet
  facet normal 0 0 1
    outer loop
      vertex 2.1973867416381836 86.41350555419922 35
      vertex 0.49477386474609375 87.32701110839844 35
      vertex 2.090447425842285 86.18624877929688 35
    endloop
  endfacet
  facet normal 0 0 1
    outer loop
      vertex 0.49477386474609375 87.32701110839844 35
      vertex 2.1973867416381836 86.41350555419922 35
      vertex 0.7639322280883789 87.75114440917969 35
    endloop
  endfacet
  facet normal 0 0 1
    outer loop
      vertex 2.3319664001464844 86.62557220458984 35
      vertex 0.7639322280883789 87.75114440917969 35
      vertex 2.1973867416381836 86.41350555419922 35
    endloop
  endfacet
  facet normal 0 0 1
    outer loop
      vertex 225.6026153564453 2.9864931106567383 35
      vertex 227.3052215576172 2.0729856491088867 35
      vertex 225.7095489501953 3.2137508392333984 35
    endloop
  endfacet
  facet normal 0 0 1
    outer loop
      vertex 227.3052215576172 2.0729856491088867 35
      vertex 225.6026153564453 2.9864931106567383 35
      vertex 227.03607177734375 1.6488590240478516 35
    endloop
  endfacet
  facet normal 0 0 1
    outer loop
      vertex 225.46803283691406 2.7744293212890625 35
      vertex 227.03607177734375 1.6488590240478516 35
      vertex 225.6026153564453 2.9864931106567383 35
    endloop
  endfacet
  facet normal 0 0 1
    outer loop
      vertex 227.03607177734375 1.6488590240478516 35
      vertex 225.46803283691406 2.7744293212890625 35
      vertex 226.71588134765625 1.2618122100830078 35
    endloop
  endfacet
  facet normal 0 0 1
    outer loop
      vertex 225.3079376220703 2.5809059143066406 35
      vertex 226.71588134765625 1.2618122100830078 35
      vertex 225.46803283691406 2.7744293212890625 35
    endloop
  endfacet
  facet normal 0 0 1
    outer loop
      vertex 226.71588134765625 1.2618122100830078 35
      vertex 225.3079376220703 2.5809059143066406 35
      vertex 226.34970092773438 0.9179477691650391 35
    endloop
  endfacet
  facet normal 0 0 1
    outer loop
      vertex 225.12484741210938 2.4089736938476562 35
      vertex 226.34970092773438 0.9179477691650391 35
      vertex 225.3079376220703 2.5809059143066406 35
    endloop
  endfacet
  facet normal 0 0 1
    outer loop
      vertex 224.92164611816406 2.2613449096679688 35
      vertex 226.34970092773438 0.9179477691650391 35
      vertex 225.12484741210938 2.4089736938476562 35
    endloop
  endfacet
  facet normal 0 0 1
    outer loop
      vertex 226.34970092773438 0.9179477691650391 35
      vertex 224.92164611816406 2.2613449096679688 35
      vertex 225.94329833984375 0.6226892471313477 35
    endloop
  endfacet
  facet normal 0 0 1
    outer loop
      vertex 224.70155334472656 2.1403465270996094 35
      vertex 225.94329833984375 0.6226892471313477 35
      vertex 224.92164611816406 2.2613449096679688 35
    endloop
  endfacet
  facet normal 0 0 1
    outer loop
      vertex 225.94329833984375 0.6226892471313477 35
      vertex 224.70155334472656 2.1403465270996094 35
      vertex 225.50311279296875 0.3806924819946289 35
    endloop
  endfacet
  facet normal 0 0 1
    outer loop
      vertex 224.46803283691406 2.047886848449707 35
      vertex 225.50311279296875 0.3806924819946289 35
      vertex 224.70155334472656 2.1403465270996094 35
    endloop
  endfacet
  facet normal 0 0 1
    outer loop
      vertex 225.50311279296875 0.3806924819946289 35
      vertex 224.46803283691406 2.047886848449707 35
      vertex 225.03607177734375 0.19577407836914062 35
    endloop
  endfacet
  facet normal 0 0 1
    outer loop
      vertex 224.22476196289062 1.9854259490966797 35
      vertex 225.03607177734375 0.19577407836914062 35
      vertex 224.46803283691406 2.047886848449707 35
    endloop
  endfacet
  facet normal 0 0 1
    outer loop
      vertex 225.03607177734375 0.19577407836914062 35
      vertex 224.22476196289062 1.9854259490966797 35
      vertex 224.54953002929688 0.07085132598876953 35
    endloop
  endfacet
  facet normal 0 0 1
    outer loop
      vertex 223.9755859375 1.9539470672607422 35
      vertex 224.54953002929688 0.07085132598876953 35
      vertex 224.22476196289062 1.9854259490966797 35
    endloop
  endfacet
  facet normal 0 0 1
    outer loop
      vertex 224.54953002929688 0.07085132598876953 35
      vertex 223.9755859375 1.9539470672607422 35
      vertex 224.05116271972656 0.007893562316894531 35
    endloop
  endfacet
  facet normal 0 0 1
    outer loop
      vertex 3.8244190216064453 1.9539470672607422 35
      vertex 224.05116271972656 0.007893562316894531 35
      vertex 223.9755859375 1.9539470672607422 35
    endloop
  endfacet
  facet normal 0 0 1
    outer loop
      vertex 3.8244190216064453 1.9539470672607422 35
      vertex 3.748838424682617 0.007893562316894531 35
      vertex 224.05116271972656 0.007893562316894531 35
    endloop
  endfacet
  facet normal 0 0 1
    outer loop
      vertex 3.2504749298095703 0.07085132598876953 35
      vertex 3.8244190216064453 1.9539470672607422 35
      vertex 3.575237274169922 1.9854259490966797 35
    endloop
  endfacet
  facet normal 0 0 1
    outer loop
      vertex 2.763932228088379 0.19577407836914062 35
      vertex 3.575237274169922 1.9854259490966797 35
      vertex 3.3319664001464844 2.047886848449707 35
    endloop
  endfacet
  facet normal 0 0 1
    outer loop
      vertex 3.8244190216064453 1.9539470672607422 35
      vertex 3.2504749298095703 0.07085132598876953 35
      vertex 3.748838424682617 0.007893562316894531 35
    endloop
  endfacet
  facet normal 0 0 1
    outer loop
      vertex 2.2968835830688477 0.3806924819946289 35
      vertex 3.3319664001464844 2.047886848449707 35
      vertex 3.0984420776367188 2.1403465270996094 35
    endloop
  endfacet
  facet normal 0 0 1
    outer loop
      vertex 1.8566932678222656 0.6226892471313477 35
      vertex 3.0984420776367188 2.1403465270996094 35
      vertex 2.8783464431762695 2.2613449096679688 35
    endloop
  endfacet
  facet normal 0 0 1
    outer loop
      vertex 3.575237274169922 1.9854259490966797 35
      vertex 2.763932228088379 0.19577407836914062 35
      vertex 3.2504749298095703 0.07085132598876953 35
    endloop
  endfacet
  facet normal 0 0 1
    outer loop
      vertex 1.4503049850463867 0.9179477691650391 35
      vertex 2.8783464431762695 2.2613449096679688 35
      vertex 2.6751527786254883 2.4089736938476562 35
    endloop
  endfacet
  facet normal 0 0 1
    outer loop
      vertex 1.4503049850463867 0.9179477691650391 35
      vertex 2.6751527786254883 2.4089736938476562 35
      vertex 2.492062568664551 2.5809059143066406 35
    endloop
  endfacet
  facet normal 0 0 1
    outer loop
      vertex 1.0841255187988281 1.2618122100830078 35
      vertex 2.492062568664551 2.5809059143066406 35
      vertex 2.3319664001464844 2.7744293212890625 35
    endloop
  endfacet
  facet normal 0 0 1
    outer loop
      vertex 3.3319664001464844 2.047886848449707 35
      vertex 2.2968835830688477 0.3806924819946289 35
      vertex 2.763932228088379 0.19577407836914062 35
    endloop
  endfacet
  facet normal 0 0 1
    outer loop
      vertex 0.7639322280883789 1.6488590240478516 35
      vertex 2.3319664001464844 2.7744293212890625 35
      vertex 2.1973867416381836 2.9864931106567383 35
    endloop
  endfacet
  facet normal 0 0 1
    outer loop
      vertex 0.49477386474609375 2.0729856491088867 35
      vertex 2.1973867416381836 2.9864931106567383 35
      vertex 2.090447425842285 3.2137508392333984 35
    endloop
  endfacet
  facet normal 0 0 1
    outer loop
      vertex 0.28089427947998047 2.5275020599365234 35
      vertex 2.090447425842285 3.2137508392333984 35
      vertex 2.012833595275879 3.452620506286621 35
    endloop
  endfacet
  facet normal 0 0 1
    outer loop
      vertex 0.12566757202148438 3.0052413940429688 35
      vertex 2.012833595275879 3.452620506286621 35
      vertex 1.9657707214355469 3.699334144592285 35
    endloop
  endfacet
  facet normal 0 0 1
    outer loop
      vertex 3.0984420776367188 2.1403465270996094 35
      vertex 1.8566932678222656 0.6226892471313477 35
      vertex 2.2968835830688477 0.3806924819946289 35
    endloop
  endfacet
  facet normal 0 0 1
    outer loop
      vertex 0.03154182434082031 3.4986677169799805 35
      vertex 1.9657707214355469 3.699334144592285 35
      vertex 1.9499998092651367 3.9499998092651367 35
    endloop
  endfacet
  facet normal 0 0 1
    outer loop
      vertex 1.9499998092651367 85.44999694824219 35
      vertex 0 85.4000015258789 35
      vertex 1.9499998092651367 3.9499998092651367 35
    endloop
  endfacet
  facet normal 0 0 1
    outer loop
      vertex 0.28089427947998047 86.87249755859375 35
      vertex 2.090447425842285 86.18624877929688 35
      vertex 0.49477386474609375 87.32701110839844 35
    endloop
  endfacet
  facet normal 0 0 1
    outer loop
      vertex 0 4 35
      vertex 1.9499998092651367 3.9499998092651367 35
      vertex 0 85.4000015258789 35
    endloop
  endfacet
  facet normal 0 0 1
    outer loop
      vertex 2.090447425842285 86.18624877929688 35
      vertex 0.28089427947998047 86.87249755859375 35
      vertex 2.012833595275879 85.94738006591797 35
    endloop
  endfacet
  facet normal 0 0 1
    outer loop
      vertex 0.03154182434082031 3.4986677169799805 35
      vertex 1.9499998092651367 3.9499998092651367 35
      vertex 0 4 35
    endloop
  endfacet
  facet normal 0 0 1
    outer loop
      vertex 0.12566757202148438 86.39476013183594 35
      vertex 2.012833595275879 85.94738006591797 35
      vertex 0.28089427947998047 86.87249755859375 35
    endloop
  endfacet
  facet normal 0 0 1
    outer loop
      vertex 2.8783464431762695 2.2613449096679688 35
      vertex 1.4503049850463867 0.9179477691650391 35
      vertex 1.8566932678222656 0.6226892471313477 35
    endloop
  endfacet
  facet normal 0 0 1
    outer loop
      vertex 2.012833595275879 85.94738006591797 35
      vertex 0.12566757202148438 86.39476013183594 35
      vertex 1.9657707214355469 85.70066833496094 35
    endloop
  endfacet
  facet normal 0 0 1
    outer loop
      vertex 2.492062568664551 2.5809059143066406 35
      vertex 1.0841255187988281 1.2618122100830078 35
      vertex 1.4503049850463867 0.9179477691650391 35
    endloop
  endfacet
  facet normal 0 0 1
    outer loop
      vertex 0.03154182434082031 85.90132904052734 35
      vertex 1.9657707214355469 85.70066833496094 35
      vertex 0.12566757202148438 86.39476013183594 35
    endloop
  endfacet
  facet normal 0 0 1
    outer loop
      vertex 2.3319664001464844 2.7744293212890625 35
      vertex 0.7639322280883789 1.6488590240478516 35
      vertex 1.0841255187988281 1.2618122100830078 35
    endloop
  endfacet
  facet normal 0 0 1
    outer loop
      vertex 1.9657707214355469 85.70066833496094 35
      vertex 0.03154182434082031 85.90132904052734 35
      vertex 1.9499998092651367 85.44999694824219 35
    endloop
  endfacet
  facet normal 0 0 1
    outer loop
      vertex 2.1973867416381836 2.9864931106567383 35
      vertex 0.49477386474609375 2.0729856491088867 35
      vertex 0.7639322280883789 1.6488590240478516 35
    endloop
  endfacet
  facet normal 0 0 1
    outer loop
      vertex 1.9499998092651367 85.44999694824219 35
      vertex 0.03154182434082031 85.90132904052734 35
      vertex 0 85.4000015258789 35
    endloop
  endfacet
  facet normal 0 0 1
    outer loop
      vertex 2.090447425842285 3.2137508392333984 35
      vertex 0.28089427947998047 2.5275020599365234 35
      vertex 0.49477386474609375 2.0729856491088867 35
    endloop
  endfacet
  facet normal 0 0 1
    outer loop
      vertex 2.012833595275879 3.452620506286621 35
      vertex 0.12566757202148438 3.0052413940429688 35
      vertex 0.28089427947998047 2.5275020599365234 35
    endloop
  endfacet
  facet normal 0 0 1
    outer loop
      vertex 1.9657707214355469 3.699334144592285 35
      vertex 0.03154182434082031 3.4986677169799805 35
      vertex 0.12566757202148438 3.0052413940429688 35
    endloop
  endfacet
  facet normal 0.9048245536408305 -0.4257846017984585 0
    outer loop
      vertex 227.3052215576172 2.0729856491088867 35
      vertex 227.51910400390625 2.5275020599365234 0
      vertex 227.51910400390625 2.5275020599365234 35
    endloop
  endfacet
  facet normal 0.9048245536408305 -0.4257846017984585 0
    outer loop
      vertex 227.51910400390625 2.5275020599365234 0
      vertex 227.3052215576172 2.0729856491088867 35
      vertex 227.3052215576172 2.0729856491088867 0
    endloop
  endfacet
  facet normal -0.8443284456428599 -0.535825975367294 0
    outer loop
      vertex 0.7639322280883789 1.6488590240478516 0
      vertex 0.49477386474609375 2.0729856491088867 35
      vertex 0.49477386474609375 2.0729856491088867 0
    endloop
  endfacet
  facet normal -0.8443284456428599 -0.535825975367294 0
    outer loop
      vertex 0.49477386474609375 2.0729856491088867 35
      vertex 0.7639322280883789 1.6488590240478516 0
      vertex 0.7639322280883789 1.6488590240478516 35
    endloop
  endfacet
  facet normal -0.587785449969931 -0.8090168507538306 0
    outer loop
      vertex 1.4503049850463867 0.9179477691650391 0
      vertex 1.8566932678222656 0.6226892471313477 35
      vertex 1.4503049850463867 0.9179477691650391 35
    endloop
  endfacet
  facet normal -0.587785449969931 -0.8090168507538306 0
    outer loop
      vertex 1.8566932678222656 0.6226892471313477 35
      vertex 1.4503049850463867 0.9179477691650391 0
      vertex 1.8566932678222656 0.6226892471313477 0
    endloop
  endfacet
  facet normal -0.9822873817105185 -0.18738062795362298 0
    outer loop
      vertex 0.12566757202148438 3.0052413940429688 0
      vertex 0.03154182434082031 3.4986677169799805 35
      vertex 0.03154182434082031 3.4986677169799805 0
    endloop
  endfacet
  facet normal -0.9822873817105185 -0.18738062795362298 0
    outer loop
      vertex 0.03154182434082031 3.4986677169799805 35
      vertex 0.12566757202148438 3.0052413940429688 0
      vertex 0.12566757202148438 3.0052413940429688 35
    endloop
  endfacet
  facet normal 0 -1 0
    outer loop
      vertex 3.8244190216064453 87.44605255126953 0
      vertex 223.9755859375 87.44605255126953 35
      vertex 3.8244190216064453 87.44605255126953 35
    endloop
  endfacet
  facet normal 0 -1 0
    outer loop
      vertex 223.9755859375 87.44605255126953 35
      vertex 3.8244190216064453 87.44605255126953 0
      vertex 223.9755859375 87.44605255126953 0
    endloop
  endfacet
  facet normal -1 0 0
    outer loop
      vertex 225.85000610351562 3.9499998092651367 0
      vertex 225.85000610351562 85.44999694824219 35
      vertex 225.85000610351562 85.44999694824219 0
    endloop
  endfacet
  facet normal -1 0 0
    outer loop
      vertex 225.85000610351562 85.44999694824219 35
      vertex 225.85000610351562 3.9499998092651367 0
      vertex 225.85000610351562 3.9499998092651367 35
    endloop
  endfacet
  facet normal 0.6845451363880445 0.7289704769381772 0
    outer loop
      vertex 2.6751527786254883 2.4089736938476562 0
      vertex 2.492062568664551 2.5809059143066406 35
      vertex 2.6751527786254883 2.4089736938476562 35
    endloop
  endfacet
  facet normal 0.6845451363880445 0.7289704769381772 0
    outer loop
      vertex 2.492062568664551 2.5809059143066406 35
      vertex 2.6751527786254883 2.4089736938476562 0
      vertex 2.492062568664551 2.5809059143066406 0
    endloop
  endfacet
  facet normal -0.24869178777339362 -0.9685826731333125 0
    outer loop
      vertex 224.22476196289062 87.4145736694336 0
      vertex 224.46803283691406 87.35211181640625 35
      vertex 224.22476196289062 87.4145736694336 35
    endloop
  endfacet
  facet normal -0.24869178777339362 -0.9685826731333125 0
    outer loop
      vertex 224.46803283691406 87.35211181640625 35
      vertex 224.22476196289062 87.4145736694336 0
      vertex 224.46803283691406 87.35211181640625 0
    endloop
  endfacet
  facet normal 0.7705076913903227 -0.6374307001614806 0
    outer loop
      vertex 2.3319664001464844 86.62557220458984 35
      vertex 2.492062568664551 86.819091796875 0
      vertex 2.492062568664551 86.819091796875 35
    endloop
  endfacet
  facet normal 0.7705076913903227 -0.6374307001614806 0
    outer loop
      vertex 2.492062568664551 86.819091796875 0
      vertex 2.3319664001464844 86.62557220458984 35
      vertex 2.3319664001464844 86.62557220458984 0
    endloop
  endfacet
  facet normal 0.12533286738632868 0.9921147475734452 0
    outer loop
      vertex 3.8244190216064453 1.9539470672607422 0
      vertex 3.575237274169922 1.9854259490966797 35
      vertex 3.8244190216064453 1.9539470672607422 35
    endloop
  endfacet
  facet normal 0.12533286738632868 0.9921147475734452 0
    outer loop
      vertex 3.575237274169922 1.9854259490966797 35
      vertex 3.8244190216064453 1.9539470672607422 0
      vertex 3.575237274169922 1.9854259490966797 0
    endloop
  endfacet
  facet normal 1 0 0
    outer loop
      vertex 1.9499998092651367 3.9499998092651367 35
      vertex 1.9499998092651367 85.44999694824219 0
      vertex 1.9499998092651367 85.44999694824219 35
    endloop
  endfacet
  facet normal 1 0 0
    outer loop
      vertex 1.9499998092651367 85.44999694824219 0
      vertex 1.9499998092651367 3.9499998092651367 35
      vertex 1.9499998092651367 3.9499998092651367 0
    endloop
  endfacet
  facet normal 0.8443314022654632 -0.5358213164371465 0
    outer loop
      vertex 2.1973867416381836 86.41350555419922 35
      vertex 2.3319664001464844 86.62557220458984 0
      vertex 2.3319664001464844 86.62557220458984 35
    endloop
  endfacet
  facet normal 0.8443314022654632 -0.5358213164371465 0
    outer loop
      vertex 2.3319664001464844 86.62557220458984 0
      vertex 2.1973867416381836 86.41350555419922 35
      vertex 2.1973867416381836 86.41350555419922 0
    endloop
  endfacet
  facet normal 0 1 0
    outer loop
      vertex 223.9755859375 1.9539470672607422 0
      vertex 3.8244190216064453 1.9539470672607422 35
      vertex 223.9755859375 1.9539470672607422 35
    endloop
  endfacet
  facet normal 0 1 0
    outer loop
      vertex 3.8244190216064453 1.9539470672607422 35
      vertex 223.9755859375 1.9539470672607422 0
      vertex 3.8244190216064453 1.9539470672607422 0
    endloop
  endfacet
  facet normal 0.587785110170982 0.8090170976322358 0
    outer loop
      vertex 2.8783464431762695 2.2613449096679688 0
      vertex 2.6751527786254883 2.4089736938476562 35
      vertex 2.8783464431762695 2.2613449096679688 35
    endloop
  endfacet
  facet normal 0.587785110170982 0.8090170976322358 0
    outer loop
      vertex 2.6751527786254883 2.4089736938476562 35
      vertex 2.8783464431762695 2.2613449096679688 0
      vertex 2.6751527786254883 2.4089736938476562 0
    endloop
  endfacet
  facet normal 0.48174134913827676 -0.8763134556369844 0
    outer loop
      vertex 2.8783464431762695 87.13865661621094 0
      vertex 3.0984420776367188 87.25965118408203 35
      vertex 2.8783464431762695 87.13865661621094 35
    endloop
  endfacet
  facet normal 0.48174134913827676 -0.8763134556369844 0
    outer loop
      vertex 3.0984420776367188 87.25965118408203 35
      vertex 2.8783464431762695 87.13865661621094 0
      vertex 3.0984420776367188 87.25965118408203 0
    endloop
  endfacet
  facet normal 0.7705138626020227 0.6374232405067383 0
    outer loop
      vertex 2.492062568664551 2.5809059143066406 35
      vertex 2.3319664001464844 2.7744293212890625 0
      vertex 2.3319664001464844 2.7744293212890625 35
    endloop
  endfacet
  facet normal 0.7705138626020227 0.6374232405067383 0
    outer loop
      vertex 2.3319664001464844 2.7744293212890625 0
      vertex 2.492062568664551 2.5809059143066406 35
      vertex 2.492062568664551 2.5809059143066406 0
    endloop
  endfacet
  facet normal -0.248688225553919 0.9685835877562881 0
    outer loop
      vertex 224.46803283691406 2.047886848449707 0
      vertex 224.22476196289062 1.9854259490966797 35
      vertex 224.46803283691406 2.047886848449707 35
    endloop
  endfacet
  facet normal -0.248688225553919 0.9685835877562881 0
    outer loop
      vertex 224.22476196289062 1.9854259490966797 35
      vertex 224.46803283691406 2.047886848449707 0
      vertex 224.22476196289062 1.9854259490966797 0
    endloop
  endfacet
  facet normal -0.8443229783122831 0.5358345904230855 0
    outer loop
      vertex 225.46803283691406 2.7744293212890625 0
      vertex 225.6026153564453 2.9864931106567383 35
      vertex 225.6026153564453 2.9864931106567383 0
    endloop
  endfacet
  facet normal -0.8443229783122831 0.5358345904230855 0
    outer loop
      vertex 225.6026153564453 2.9864931106567383 35
      vertex 225.46803283691406 2.7744293212890625 0
      vertex 225.46803283691406 2.7744293212890625 35
    endloop
  endfacet
  facet normal -0.12533570030191862 -0.9921143896899326 0
    outer loop
      vertex 223.9755859375 87.44605255126953 0
      vertex 224.22476196289062 87.4145736694336 35
      vertex 223.9755859375 87.44605255126953 35
    endloop
  endfacet
  facet normal -0.12533570030191862 -0.9921143896899326 0
    outer loop
      vertex 224.22476196289062 87.4145736694336 35
      vertex 223.9755859375 87.44605255126953 0
      vertex 224.22476196289062 87.4145736694336 0
    endloop
  endfacet
  facet normal 0.3681275080433565 0.9297753157735413 0
    outer loop
      vertex 3.3319664001464844 2.047886848449707 0
      vertex 3.0984420776367188 2.1403465270996094 35
      vertex 3.3319664001464844 2.047886848449707 35
    endloop
  endfacet
  facet normal 0.3681275080433565 0.9297753157735413 0
    outer loop
      vertex 3.0984420776367188 2.1403465270996094 35
      vertex 3.3319664001464844 2.047886848449707 0
      vertex 3.0984420776367188 2.1403465270996094 0
    endloop
  endfacet
  facet normal 0.4817530124618358 0.8763070437831402 0
    outer loop
      vertex 3.0984420776367188 2.1403465270996094 0
      vertex 2.8783464431762695 2.2613449096679688 35
      vertex 3.0984420776367188 2.1403465270996094 35
    endloop
  endfacet
  facet normal 0.4817530124618358 0.8763070437831402 0
    outer loop
      vertex 2.8783464431762695 2.2613449096679688 35
      vertex 3.0984420776367188 2.1403465270996094 0
      vertex 2.8783464431762695 2.2613449096679688 0
    endloop
  endfacet
  facet normal -0.9822906760647909 -0.1873633574533083 0
    outer loop
      vertex 225.834228515625 85.70066833496094 0
      vertex 225.78717041015625 85.94738006591797 35
      vertex 225.78717041015625 85.94738006591797 0
    endloop
  endfacet
  facet normal -0.9822906760647909 -0.1873633574533083 0
    outer loop
      vertex 225.78717041015625 85.94738006591797 35
      vertex 225.834228515625 85.70066833496094 0
      vertex 225.834228515625 85.70066833496094 35
    endloop
  endfacet
  facet normal -0.587770665553839 -0.8090275920599972 0
    outer loop
      vertex 224.92164611816406 87.13865661621094 0
      vertex 225.12484741210938 86.99102783203125 35
      vertex 224.92164611816406 87.13865661621094 35
    endloop
  endfacet
  facet normal -0.587770665553839 -0.8090275920599972 0
    outer loop
      vertex 225.12484741210938 86.99102783203125 35
      vertex 224.92164611816406 87.13865661621094 0
      vertex 225.12484741210938 86.99102783203125 0
    endloop
  endfacet
  facet normal -0.6845451363880445 0.7289704769381772 0
    outer loop
      vertex 225.3079376220703 2.5809059143066406 0
      vertex 225.12484741210938 2.4089736938476562 35
      vertex 225.3079376220703 2.5809059143066406 35
    endloop
  endfacet
  facet normal -0.6845451363880445 0.7289704769381772 0
    outer loop
      vertex 225.12484741210938 2.4089736938476562 35
      vertex 225.3079376220703 2.5809059143066406 0
      vertex 225.12484741210938 2.4089736938476562 0
    endloop
  endfacet
  facet normal 0.248688225553919 0.9685835877562881 0
    outer loop
      vertex 3.575237274169922 1.9854259490966797 0
      vertex 3.3319664001464844 2.047886848449707 35
      vertex 3.575237274169922 1.9854259490966797 35
    endloop
  endfacet
  facet normal 0.248688225553919 0.9685835877562881 0
    outer loop
      vertex 3.3319664001464844 2.047886848449707 35
      vertex 3.575237274169922 1.9854259490966797 0
      vertex 3.3319664001464844 2.047886848449707 0
    endloop
  endfacet
  facet normal -0.48175782141599455 0.8763044000257644 0
    outer loop
      vertex 224.92164611816406 2.2613449096679688 0
      vertex 224.70155334472656 2.1403465270996094 35
      vertex 224.92164611816406 2.2613449096679688 35
    endloop
  endfacet
  facet normal -0.48175782141599455 0.8763044000257644 0
    outer loop
      vertex 224.70155334472656 2.1403465270996094 35
      vertex 224.92164611816406 2.2613449096679688 0
      vertex 224.70155334472656 2.1403465270996094 0
    endloop
  endfacet
  facet normal -0.12533570030191862 0.9921143896899326 0
    outer loop
      vertex 224.22476196289062 1.9854259490966797 0
      vertex 223.9755859375 1.9539470672607422 35
      vertex 224.22476196289062 1.9854259490966797 35
    endloop
  endfacet
  facet normal -0.12533570030191862 0.9921143896899326 0
    outer loop
      vertex 223.9755859375 1.9539470672607422 35
      vertex 224.22476196289062 1.9854259490966797 0
      vertex 223.9755859375 1.9539470672607422 0
    endloop
  endfacet
  facet normal 0.24869178777339362 -0.9685826731333125 0
    outer loop
      vertex 3.3319664001464844 87.35211181640625 0
      vertex 3.575237274169922 87.4145736694336 35
      vertex 3.3319664001464844 87.35211181640625 35
    endloop
  endfacet
  facet normal 0.24869178777339362 -0.9685826731333125 0
    outer loop
      vertex 3.575237274169922 87.4145736694336 35
      vertex 3.3319664001464844 87.35211181640625 0
      vertex 3.575237274169922 87.4145736694336 0
    endloop
  endfacet
  facet normal 0.998026637285738 0.06279196818162337 0
    outer loop
      vertex 1.9657707214355469 3.699334144592285 35
      vertex 1.9499998092651367 3.9499998092651367 0
      vertex 1.9499998092651367 3.9499998092651367 35
    endloop
  endfacet
  facet normal 0.998026637285738 0.06279196818162337 0
    outer loop
      vertex 1.9499998092651367 3.9499998092651367 0
      vertex 1.9657707214355469 3.699334144592285 35
      vertex 1.9657707214355469 3.699334144592285 0
    endloop
  endfacet
  facet normal 0.9510560822836839 0.30901833012171104 0
    outer loop
      vertex 2.090447425842285 3.2137508392333984 35
      vertex 2.012833595275879 3.452620506286621 0
      vertex 2.012833595275879 3.452620506286621 35
    endloop
  endfacet
  facet normal 0.9510560822836839 0.30901833012171104 0
    outer loop
      vertex 2.012833595275879 3.452620506286621 0
      vertex 2.090447425842285 3.2137508392333984 35
      vertex 2.090447425842285 3.2137508392333984 0
    endloop
  endfacet
  facet normal 0.9980267271096572 -0.0627905404880859 0
    outer loop
      vertex 1.9499998092651367 85.44999694824219 35
      vertex 1.9657707214355469 85.70066833496094 0
      vertex 1.9657707214355469 85.70066833496094 35
    endloop
  endfacet
  facet normal 0.9980267271096572 -0.0627905404880859 0
    outer loop
      vertex 1.9657707214355469 85.70066833496094 0
      vertex 1.9499998092651367 85.44999694824219 35
      vertex 1.9499998092651367 85.44999694824219 0
    endloop
  endfacet
  facet normal 0.6845532072143717 -0.7289628978847397 0
    outer loop
      vertex 2.492062568664551 86.819091796875 0
      vertex 2.6751527786254883 86.99102783203125 35
      vertex 2.492062568664551 86.819091796875 35
    endloop
  endfacet
  facet normal 0.6845532072143717 -0.7289628978847397 0
    outer loop
      vertex 2.6751527786254883 86.99102783203125 35
      vertex 2.492062568664551 86.819091796875 0
      vertex 2.6751527786254883 86.99102783203125 0
    endloop
  endfacet
  facet normal -0.770515727502568 0.6374209862180477 0
    outer loop
      vertex 225.3079376220703 2.5809059143066406 0
      vertex 225.46803283691406 2.7744293212890625 35
      vertex 225.46803283691406 2.7744293212890625 0
    endloop
  endfacet
  facet normal -0.770515727502568 0.6374209862180477 0
    outer loop
      vertex 225.46803283691406 2.7744293212890625 35
      vertex 225.3079376220703 2.5809059143066406 0
      vertex 225.3079376220703 2.5809059143066406 35
    endloop
  endfacet
  facet normal 0.12533286738632868 -0.9921147475734452 0
    outer loop
      vertex 3.575237274169922 87.4145736694336 0
      vertex 3.8244190216064453 87.44605255126953 35
      vertex 3.575237274169922 87.4145736694336 35
    endloop
  endfacet
  facet normal 0.12533286738632868 -0.9921147475734452 0
    outer loop
      vertex 3.8244190216064453 87.44605255126953 35
      vertex 3.575237274169922 87.4145736694336 0
      vertex 3.8244190216064453 87.44605255126953 0
    endloop
  endfacet
  facet normal -0.7705095563195807 -0.6374284458825186 0
    outer loop
      vertex 225.46803283691406 86.62557220458984 0
      vertex 225.3079376220703 86.819091796875 35
      vertex 225.3079376220703 86.819091796875 0
    endloop
  endfacet
  facet normal -0.7705095563195807 -0.6374284458825186 0
    outer loop
      vertex 225.3079376220703 86.819091796875 35
      vertex 225.46803283691406 86.62557220458984 0
      vertex 225.46803283691406 86.62557220458984 35
    endloop
  endfacet
  facet normal -0.9510467919076079 -0.3090469213602479 0
    outer loop
      vertex 225.78717041015625 85.94738006591797 0
      vertex 225.7095489501953 86.18624877929688 35
      vertex 225.7095489501953 86.18624877929688 0
    endloop
  endfacet
  facet normal -0.9510467919076079 -0.3090469213602479 0
    outer loop
      vertex 225.7095489501953 86.18624877929688 35
      vertex 225.78717041015625 85.94738006591797 0
      vertex 225.78717041015625 85.94738006591797 35
    endloop
  endfacet
  facet normal 0.587785110170982 -0.8090170976322358 0
    outer loop
      vertex 2.6751527786254883 86.99102783203125 0
      vertex 2.8783464431762695 87.13865661621094 35
      vertex 2.6751527786254883 86.99102783203125 35
    endloop
  endfacet
  facet normal 0.587785110170982 -0.8090170976322358 0
    outer loop
      vertex 2.8783464431762695 87.13865661621094 35
      vertex 2.6751527786254883 86.99102783203125 0
      vertex 2.8783464431762695 87.13865661621094 0
    endloop
  endfacet
  facet normal -0.9048359120824851 0.4257604634132402 0
    outer loop
      vertex 225.6026153564453 2.9864931106567383 0
      vertex 225.7095489501953 3.2137508392333984 35
      vertex 225.7095489501953 3.2137508392333984 0
    endloop
  endfacet
  facet normal -0.9048359120824851 0.4257604634132402 0
    outer loop
      vertex 225.7095489501953 3.2137508392333984 35
      vertex 225.6026153564453 2.9864931106567383 0
      vertex 225.6026153564453 2.9864931106567383 35
    endloop
  endfacet
  facet normal -0.8443262488462115 -0.5358294369566546 0
    outer loop
      vertex 225.6026153564453 86.41350555419922 0
      vertex 225.46803283691406 86.62557220458984 35
      vertex 225.46803283691406 86.62557220458984 0
    endloop
  endfacet
  facet normal -0.8443262488462115 -0.5358294369566546 0
    outer loop
      vertex 225.46803283691406 86.62557220458984 35
      vertex 225.6026153564453 86.41350555419922 0
      vertex 225.6026153564453 86.41350555419922 35
    endloop
  endfacet
  facet normal -0.9822909426553494 0.18736195979244355 0
    outer loop
      vertex 225.78717041015625 3.452620506286621 0
      vertex 225.834228515625 3.699334144592285 35
      vertex 225.834228515625 3.699334144592285 0
    endloop
  endfacet
  facet normal -0.9822909426553494 0.18736195979244355 0
    outer loop
      vertex 225.834228515625 3.699334144592285 35
      vertex 225.78717041015625 3.452620506286621 0
      vertex 225.78717041015625 3.452620506286621 35
    endloop
  endfacet
  facet normal -0.36813598916562335 -0.9297719577837611 0
    outer loop
      vertex 224.46803283691406 87.35211181640625 0
      vertex 224.70155334472656 87.25965118408203 35
      vertex 224.46803283691406 87.35211181640625 35
    endloop
  endfacet
  facet normal -0.36813598916562335 -0.9297719577837611 0
    outer loop
      vertex 224.70155334472656 87.25965118408203 35
      vertex 224.46803283691406 87.35211181640625 0
      vertex 224.70155334472656 87.25965118408203 0
    endloop
  endfacet
  facet normal 0.8443281318107024 0.5358264698883857 0
    outer loop
      vertex 2.3319664001464844 2.7744293212890625 35
      vertex 2.1973867416381836 2.9864931106567383 0
      vertex 2.1973867416381836 2.9864931106567383 35
    endloop
  endfacet
  facet normal 0.8443281318107024 0.5358264698883857 0
    outer loop
      vertex 2.1973867416381836 2.9864931106567383 0
      vertex 2.3319664001464844 2.7744293212890625 35
      vertex 2.3319664001464844 2.7744293212890625 0
    endloop
  endfacet
  facet normal 0.3681307905158208 -0.9297740161319829 0
    outer loop
      vertex 3.0984420776367188 87.25965118408203 0
      vertex 3.3319664001464844 87.35211181640625 35
      vertex 3.0984420776367188 87.25965118408203 35
    endloop
  endfacet
  facet normal 0.3681307905158208 -0.9297740161319829 0
    outer loop
      vertex 3.3319664001464844 87.35211181640625 35
      vertex 3.0984420776367188 87.25965118408203 0
      vertex 3.3319664001464844 87.35211181640625 0
    endloop
  endfacet
  facet normal 0.9822874483703947 0.1873802785086495 0
    outer loop
      vertex 2.012833595275879 3.452620506286621 35
      vertex 1.9657707214355469 3.699334144592285 0
      vertex 1.9657707214355469 3.699334144592285 35
    endloop
  endfacet
  facet normal 0.9822874483703947 0.1873802785086495 0
    outer loop
      vertex 1.9657707214355469 3.699334144592285 0
      vertex 2.012833595275879 3.452620506286621 35
      vertex 2.012833595275879 3.452620506286621 0
    endloop
  endfacet
  facet normal -0.9980250611566451 -0.06281701444095271 0
    outer loop
      vertex 225.85000610351562 85.44999694824219 0
      vertex 225.834228515625 85.70066833496094 35
      vertex 225.834228515625 85.70066833496094 0
    endloop
  endfacet
  facet normal -0.9980250611566451 -0.06281701444095271 0
    outer loop
      vertex 225.834228515625 85.70066833496094 35
      vertex 225.85000610351562 85.44999694824219 0
      vertex 225.85000610351562 85.44999694824219 35
    endloop
  endfacet
  facet normal -0.48174615804638277 -0.8763108119882749 0
    outer loop
      vertex 224.70155334472656 87.25965118408203 0
      vertex 224.92164611816406 87.13865661621094 35
      vertex 224.70155334472656 87.25965118408203 35
    endloop
  endfacet
  facet normal -0.48174615804638277 -0.8763108119882749 0
    outer loop
      vertex 224.92164611816406 87.13865661621094 35
      vertex 224.70155334472656 87.25965118408203 0
      vertex 224.92164611816406 87.13865661621094 0
    endloop
  endfacet
  facet normal -0.951047154558869 0.30904580535169646 0
    outer loop
      vertex 225.7095489501953 3.2137508392333984 0
      vertex 225.78717041015625 3.452620506286621 35
      vertex 225.78717041015625 3.452620506286621 0
    endloop
  endfacet
  facet normal -0.951047154558869 0.30904580535169646 0
    outer loop
      vertex 225.78717041015625 3.452620506286621 35
      vertex 225.7095489501953 3.2137508392333984 0
      vertex 225.7095489501953 3.2137508392333984 35
    endloop
  endfacet
  facet normal 0.9510557196934979 -0.3090194460519963 0
    outer loop
      vertex 2.012833595275879 85.94738006591797 35
      vertex 2.090447425842285 86.18624877929688 0
      vertex 2.090447425842285 86.18624877929688 35
    endloop
  endfacet
  facet normal 0.9510557196934979 -0.3090194460519963 0
    outer loop
      vertex 2.090447425842285 86.18624877929688 0
      vertex 2.012833595275879 85.94738006591797 35
      vertex 2.012833595275879 85.94738006591797 0
    endloop
  endfacet
  facet normal -0.587770665553839 0.8090275920599972 0
    outer loop
      vertex 225.12484741210938 2.4089736938476562 0
      vertex 224.92164611816406 2.2613449096679688 35
      vertex 225.12484741210938 2.4089736938476562 35
    endloop
  endfacet
  facet normal -0.587770665553839 0.8090275920599972 0
    outer loop
      vertex 224.92164611816406 2.2613449096679688 35
      vertex 225.12484741210938 2.4089736938476562 0
      vertex 224.92164611816406 2.2613449096679688 0
    endloop
  endfacet
  facet normal -0.6845532072143717 -0.7289628978847397 0
    outer loop
      vertex 225.12484741210938 86.99102783203125 0
      vertex 225.3079376220703 86.819091796875 35
      vertex 225.12484741210938 86.99102783203125 35
    endloop
  endfacet
  facet normal -0.6845532072143717 -0.7289628978847397 0
    outer loop
      vertex 225.3079376220703 86.819091796875 35
      vertex 225.12484741210938 86.99102783203125 0
      vertex 225.3079376220703 86.819091796875 0
    endloop
  endfacet
  facet normal 0.9048271351458339 0.4257791158614793 0
    outer loop
      vertex 2.1973867416381836 2.9864931106567383 35
      vertex 2.090447425842285 3.2137508392333984 0
      vertex 2.090447425842285 3.2137508392333984 35
    endloop
  endfacet
  facet normal 0.9048271351458339 0.4257791158614793 0
    outer loop
      vertex 2.090447425842285 3.2137508392333984 0
      vertex 2.1973867416381836 2.9864931106567383 35
      vertex 2.1973867416381836 2.9864931106567383 0
    endloop
  endfacet
  facet normal 0.9048264467820848 -0.42578057870657626 0
    outer loop
      vertex 2.090447425842285 86.18624877929688 35
      vertex 2.1973867416381836 86.41350555419922 0
      vertex 2.1973867416381836 86.41350555419922 35
    endloop
  endfacet
  facet normal 0.9048264467820848 -0.42578057870657626 0
    outer loop
      vertex 2.1973867416381836 86.41350555419922 0
      vertex 2.090447425842285 86.18624877929688 35
      vertex 2.090447425842285 86.18624877929688 0
    endloop
  endfacet
  facet normal 0.9822871817286523 -0.18738167629622127 0
    outer loop
      vertex 1.9657707214355469 85.70066833496094 35
      vertex 2.012833595275879 85.94738006591797 0
      vertex 2.012833595275879 85.94738006591797 35
    endloop
  endfacet
  facet normal 0.9822871817286523 -0.18738167629622127 0
    outer loop
      vertex 2.012833595275879 85.94738006591797 0
      vertex 1.9657707214355469 85.70066833496094 35
      vertex 1.9657707214355469 85.70066833496094 0
    endloop
  endfacet
  facet normal -0.9980249712571163 0.06281844273167048 0
    outer loop
      vertex 225.834228515625 3.699334144592285 0
      vertex 225.85000610351562 3.9499998092651367 35
      vertex 225.85000610351562 3.9499998092651367 0
    endloop
  endfacet
  facet normal -0.9980249712571163 0.06281844273167048 0
    outer loop
      vertex 225.85000610351562 3.9499998092651367 35
      vertex 225.834228515625 3.699334144592285 0
      vertex 225.834228515625 3.699334144592285 35
    endloop
  endfacet
  facet normal -0.36813270666133835 0.9297732574591491 0
    outer loop
      vertex 224.70155334472656 2.1403465270996094 0
      vertex 224.46803283691406 2.047886848449707 35
      vertex 224.70155334472656 2.1403465270996094 35
    endloop
  endfacet
  facet normal -0.36813270666133835 0.9297732574591491 0
    outer loop
      vertex 224.46803283691406 2.047886848449707 35
      vertex 224.70155334472656 2.1403465270996094 0
      vertex 224.46803283691406 2.047886848449707 0
    endloop
  endfacet
  facet normal -0.9048352237723696 -0.42576192622263176 0
    outer loop
      vertex 225.7095489501953 86.18624877929688 0
      vertex 225.6026153564453 86.41350555419922 35
      vertex 225.6026153564453 86.41350555419922 0
    endloop
  endfacet
  facet normal -0.9048352237723696 -0.42576192622263176 0
    outer loop
      vertex 225.6026153564453 86.41350555419922 35
      vertex 225.7095489501953 86.18624877929688 0
      vertex 225.7095489501953 86.18624877929688 35
    endloop
  endfacet
endsolid OpenSCAD_Model
