G04 DesignSpark PCB Gerber Version 11.0 Build 5877*
G04 #@! TF.Part,Single*
G04 #@! TF.FileFunction,Drillmap*
G04 #@! TF.FilePolarity,Positive*
%FSLAX35Y35*%
%MOIN*%
%ADD82C,0.00500*%
G04 #@! TA.AperFunction,ViaPad*
%ADD95C,0.10000*%
G04 #@! TD.AperFunction*
X0Y0D02*
D02*
D82*
X27787Y95600D02*
X28725D01*
Y95287D01*
X28413Y94663D01*
X28100Y94350D01*
X27475Y94037D01*
X26850D01*
X26225Y94350D01*
X25913Y94663D01*
X25600Y95287D01*
Y96537D01*
X25913Y97163D01*
X26225Y97475D01*
X26850Y97787D01*
X27475D01*
X28100Y97475D01*
X28413Y97163D01*
X28725Y96537D01*
X27787Y115600D02*
X28725D01*
Y115287D01*
X28413Y114663D01*
X28100Y114350D01*
X27475Y114037D01*
X26850D01*
X26225Y114350D01*
X25913Y114663D01*
X25600Y115287D01*
Y116537D01*
X25913Y117163D01*
X26225Y117475D01*
X26850Y117787D01*
X27475D01*
X28100Y117475D01*
X28413Y117163D01*
X28725Y116537D01*
X27787Y148100D02*
X28725D01*
Y147787D01*
X28413Y147163D01*
X28100Y146850D01*
X27475Y146537D01*
X26850D01*
X26225Y146850D01*
X25913Y147163D01*
X25600Y147787D01*
Y149037D01*
X25913Y149663D01*
X26225Y149975D01*
X26850Y150287D01*
X27475D01*
X28100Y149975D01*
X28413Y149663D01*
X28725Y149037D01*
X27787Y168100D02*
X28725D01*
Y167787D01*
X28413Y167163D01*
X28100Y166850D01*
X27475Y166537D01*
X26850D01*
X26225Y166850D01*
X25913Y167163D01*
X25600Y167787D01*
Y169037D01*
X25913Y169663D01*
X26225Y169975D01*
X26850Y170287D01*
X27475D01*
X28100Y169975D01*
X28413Y169663D01*
X28725Y169037D01*
X27787Y200600D02*
X28725D01*
Y200287D01*
X28413Y199663D01*
X28100Y199350D01*
X27475Y199037D01*
X26850D01*
X26225Y199350D01*
X25913Y199663D01*
X25600Y200287D01*
Y201537D01*
X25913Y202163D01*
X26225Y202475D01*
X26850Y202787D01*
X27475D01*
X28100Y202475D01*
X28413Y202163D01*
X28725Y201537D01*
X27787Y220600D02*
X28725D01*
Y220287D01*
X28413Y219663D01*
X28100Y219350D01*
X27475Y219037D01*
X26850D01*
X26225Y219350D01*
X25913Y219663D01*
X25600Y220287D01*
Y221537D01*
X25913Y222163D01*
X26225Y222475D01*
X26850Y222787D01*
X27475D01*
X28100Y222475D01*
X28413Y222163D01*
X28725Y221537D01*
X27787Y253100D02*
X28725D01*
Y252787D01*
X28413Y252163D01*
X28100Y251850D01*
X27475Y251537D01*
X26850D01*
X26225Y251850D01*
X25913Y252163D01*
X25600Y252787D01*
Y254037D01*
X25913Y254663D01*
X26225Y254975D01*
X26850Y255287D01*
X27475D01*
X28100Y254975D01*
X28413Y254663D01*
X28725Y254037D01*
X27787Y273100D02*
X28725D01*
Y272787D01*
X28413Y272163D01*
X28100Y271850D01*
X27475Y271537D01*
X26850D01*
X26225Y271850D01*
X25913Y272163D01*
X25600Y272787D01*
Y274037D01*
X25913Y274663D01*
X26225Y274975D01*
X26850Y275287D01*
X27475D01*
X28100Y274975D01*
X28413Y274663D01*
X28725Y274037D01*
X31225Y24663D02*
X30913Y24350D01*
X30287Y24037D01*
X29350D01*
X28725Y24350D01*
X28413Y24663D01*
X28100Y25287D01*
Y26537D01*
X28413Y27163D01*
X28725Y27475D01*
X29350Y27787D01*
X30287D01*
X30913Y27475D01*
X31225Y27163D01*
Y49663D02*
X30913Y49350D01*
X30287Y49037D01*
X29350D01*
X28725Y49350D01*
X28413Y49663D01*
X28100Y50287D01*
Y51537D01*
X28413Y52163D01*
X28725Y52475D01*
X29350Y52787D01*
X30287D01*
X30913Y52475D01*
X31225Y52163D01*
Y309663D02*
X30913Y309350D01*
X30287Y309037D01*
X29350D01*
X28725Y309350D01*
X28413Y309663D01*
X28100Y310287D01*
Y311537D01*
X28413Y312163D01*
X28725Y312475D01*
X29350Y312787D01*
X30287D01*
X30913Y312475D01*
X31225Y312163D01*
X52787Y88413D02*
X53413Y88100D01*
X53725Y87475D01*
X53413Y86850D01*
X52787Y86537D01*
X50600D01*
Y90287D01*
X52787D01*
X53413Y89975D01*
X53725Y89350D01*
X53413Y88725D01*
X52787Y88413D01*
X50600D01*
X52787Y123413D02*
X53413Y123100D01*
X53725Y122475D01*
X53413Y121850D01*
X52787Y121537D01*
X50600D01*
Y125287D01*
X52787D01*
X53413Y124975D01*
X53725Y124350D01*
X53413Y123725D01*
X52787Y123413D01*
X50600D01*
X52787Y140913D02*
X53413Y140600D01*
X53725Y139975D01*
X53413Y139350D01*
X52787Y139037D01*
X50600D01*
Y142787D01*
X52787D01*
X53413Y142475D01*
X53725Y141850D01*
X53413Y141225D01*
X52787Y140913D01*
X50600D01*
X52787Y175913D02*
X53413Y175600D01*
X53725Y174975D01*
X53413Y174350D01*
X52787Y174037D01*
X50600D01*
Y177787D01*
X52787D01*
X53413Y177475D01*
X53725Y176850D01*
X53413Y176225D01*
X52787Y175913D01*
X50600D01*
X52787Y193413D02*
X53413Y193100D01*
X53725Y192475D01*
X53413Y191850D01*
X52787Y191537D01*
X50600D01*
Y195287D01*
X52787D01*
X53413Y194975D01*
X53725Y194350D01*
X53413Y193725D01*
X52787Y193413D01*
X50600D01*
X52787Y228413D02*
X53413Y228100D01*
X53725Y227475D01*
X53413Y226850D01*
X52787Y226537D01*
X50600D01*
Y230287D01*
X52787D01*
X53413Y229975D01*
X53725Y229350D01*
X53413Y228725D01*
X52787Y228413D01*
X50600D01*
X52787Y245913D02*
X53413Y245600D01*
X53725Y244975D01*
X53413Y244350D01*
X52787Y244037D01*
X50600D01*
Y247787D01*
X52787D01*
X53413Y247475D01*
X53725Y246850D01*
X53413Y246225D01*
X52787Y245913D01*
X50600D01*
X52787Y280913D02*
X53413Y280600D01*
X53725Y279975D01*
X53413Y279350D01*
X52787Y279037D01*
X50600D01*
Y282787D01*
X52787D01*
X53413Y282475D01*
X53725Y281850D01*
X53413Y281225D01*
X52787Y280913D01*
X50600D01*
X60600Y44037D02*
Y47787D01*
X63725D01*
X63100Y45913D02*
X60600D01*
Y44037D02*
X63725D01*
X60600Y54037D02*
Y57787D01*
X63725D01*
X63100Y55913D02*
X60600D01*
Y54037D02*
X63725D01*
X70600Y44037D02*
Y47787D01*
X73725D01*
X73100Y45913D02*
X70600D01*
Y44037D02*
X73725D01*
X70600Y54037D02*
Y57787D01*
X73725D01*
X73100Y55913D02*
X70600D01*
Y54037D02*
X73725D01*
X70600Y76537D02*
X72163Y80287D01*
X73725Y76537D01*
X71225Y78100D02*
X73100D01*
Y286537D02*
X74663Y290287D01*
X76225Y286537D01*
X73725Y288100D02*
X75600D01*
Y71537D02*
X77163Y75287D01*
X78725Y71537D01*
X76225Y73100D02*
X78100D01*
X77787Y95600D02*
X78725D01*
Y95287D01*
X78413Y94663D01*
X78100Y94350D01*
X77475Y94037D01*
X76850D01*
X76225Y94350D01*
X75913Y94663D01*
X75600Y95287D01*
Y96537D01*
X75913Y97163D01*
X76225Y97475D01*
X76850Y97787D01*
X77475D01*
X78100Y97475D01*
X78413Y97163D01*
X78725Y96537D01*
X77787Y115600D02*
X78725D01*
Y115287D01*
X78413Y114663D01*
X78100Y114350D01*
X77475Y114037D01*
X76850D01*
X76225Y114350D01*
X75913Y114663D01*
X75600Y115287D01*
Y116537D01*
X75913Y117163D01*
X76225Y117475D01*
X76850Y117787D01*
X77475D01*
X78100Y117475D01*
X78413Y117163D01*
X78725Y116537D01*
X77787Y148100D02*
X78725D01*
Y147787D01*
X78413Y147163D01*
X78100Y146850D01*
X77475Y146537D01*
X76850D01*
X76225Y146850D01*
X75913Y147163D01*
X75600Y147787D01*
Y149037D01*
X75913Y149663D01*
X76225Y149975D01*
X76850Y150287D01*
X77475D01*
X78100Y149975D01*
X78413Y149663D01*
X78725Y149037D01*
X77787Y168100D02*
X78725D01*
Y167787D01*
X78413Y167163D01*
X78100Y166850D01*
X77475Y166537D01*
X76850D01*
X76225Y166850D01*
X75913Y167163D01*
X75600Y167787D01*
Y169037D01*
X75913Y169663D01*
X76225Y169975D01*
X76850Y170287D01*
X77475D01*
X78100Y169975D01*
X78413Y169663D01*
X78725Y169037D01*
X77787Y200600D02*
X78725D01*
Y200287D01*
X78413Y199663D01*
X78100Y199350D01*
X77475Y199037D01*
X76850D01*
X76225Y199350D01*
X75913Y199663D01*
X75600Y200287D01*
Y201537D01*
X75913Y202163D01*
X76225Y202475D01*
X76850Y202787D01*
X77475D01*
X78100Y202475D01*
X78413Y202163D01*
X78725Y201537D01*
X77787Y220600D02*
X78725D01*
Y220287D01*
X78413Y219663D01*
X78100Y219350D01*
X77475Y219037D01*
X76850D01*
X76225Y219350D01*
X75913Y219663D01*
X75600Y220287D01*
Y221537D01*
X75913Y222163D01*
X76225Y222475D01*
X76850Y222787D01*
X77475D01*
X78100Y222475D01*
X78413Y222163D01*
X78725Y221537D01*
X77787Y253100D02*
X78725D01*
Y252787D01*
X78413Y252163D01*
X78100Y251850D01*
X77475Y251537D01*
X76850D01*
X76225Y251850D01*
X75913Y252163D01*
X75600Y252787D01*
Y254037D01*
X75913Y254663D01*
X76225Y254975D01*
X76850Y255287D01*
X77475D01*
X78100Y254975D01*
X78413Y254663D01*
X78725Y254037D01*
X77787Y273100D02*
X78725D01*
Y272787D01*
X78413Y272163D01*
X78100Y271850D01*
X77475Y271537D01*
X76850D01*
X76225Y271850D01*
X75913Y272163D01*
X75600Y272787D01*
Y274037D01*
X75913Y274663D01*
X76225Y274975D01*
X76850Y275287D01*
X77475D01*
X78100Y274975D01*
X78413Y274663D01*
X78725Y274037D01*
X80600Y44037D02*
Y47787D01*
X83725D01*
X83100Y45913D02*
X80600D01*
Y44037D02*
X83725D01*
X80600Y54037D02*
Y57787D01*
X83725D01*
X83100Y55913D02*
X80600D01*
Y54037D02*
X83725D01*
X85600Y81537D02*
X87163Y85287D01*
X88725Y81537D01*
X86225Y83100D02*
X88100D01*
X85600Y91537D02*
X87163Y95287D01*
X88725Y91537D01*
X86225Y93100D02*
X88100D01*
X90600Y44037D02*
Y47787D01*
X93725D01*
X93100Y45913D02*
X90600D01*
Y44037D02*
X93725D01*
X90600Y54037D02*
Y57787D01*
X93725D01*
X93100Y55913D02*
X90600D01*
Y54037D02*
X93725D01*
X90600Y86537D02*
X92163Y90287D01*
X93725Y86537D01*
X91225Y88100D02*
X93100D01*
Y286537D02*
X94663Y290287D01*
X96225Y286537D01*
X93725Y288100D02*
X95600D01*
Y96537D02*
X97163Y100287D01*
X98725Y96537D01*
X96225Y98100D02*
X98100D01*
X126225Y49663D02*
X125913Y49350D01*
X125287Y49037D01*
X124350D01*
X123725Y49350D01*
X123413Y49663D01*
X123100Y50287D01*
Y51537D01*
X123413Y52163D01*
X123725Y52475D01*
X124350Y52787D01*
X125287D01*
X125913Y52475D01*
X126225Y52163D01*
Y309663D02*
X125913Y309350D01*
X125287Y309037D01*
X124350D01*
X123725Y309350D01*
X123413Y309663D01*
X123100Y310287D01*
Y311537D01*
X123413Y312163D01*
X123725Y312475D01*
X124350Y312787D01*
X125287D01*
X125913Y312475D01*
X126225Y312163D01*
X153725Y49663D02*
X153413Y49350D01*
X152787Y49037D01*
X151850D01*
X151225Y49350D01*
X150913Y49663D01*
X150600Y50287D01*
Y51537D01*
X150913Y52163D01*
X151225Y52475D01*
X151850Y52787D01*
X152787D01*
X153413Y52475D01*
X153725Y52163D01*
Y309663D02*
X153413Y309350D01*
X152787Y309037D01*
X151850D01*
X151225Y309350D01*
X150913Y309663D01*
X150600Y310287D01*
Y311537D01*
X150913Y312163D01*
X151225Y312475D01*
X151850Y312787D01*
X152787D01*
X153413Y312475D01*
X153725Y312163D01*
X183100Y44037D02*
Y47787D01*
X186225D01*
X185600Y45913D02*
X183100D01*
Y44037D02*
X186225D01*
X183100Y54037D02*
Y57787D01*
X186225D01*
X185600Y55913D02*
X183100D01*
Y54037D02*
X186225D01*
X183100Y66537D02*
X184663Y70287D01*
X186225Y66537D01*
X183725Y68100D02*
X185600D01*
X188100Y71537D02*
X189663Y75287D01*
X191225Y71537D01*
X188725Y73100D02*
X190600D01*
X188100Y71537D02*
X189663Y75287D01*
X191225Y71537D01*
X188725Y73100D02*
X190600D01*
X188100Y126537D02*
Y130287D01*
X191225D01*
X190600Y128413D02*
X188100D01*
Y126537D02*
X191225D01*
X193100Y44037D02*
Y47787D01*
X196225D01*
X195600Y45913D02*
X193100D01*
Y44037D02*
X196225D01*
X193100Y54037D02*
Y57787D01*
X196225D01*
X195600Y55913D02*
X193100D01*
Y54037D02*
X196225D01*
X193100Y76537D02*
X194663Y80287D01*
X196225Y76537D01*
X193725Y78100D02*
X195600D01*
X198100Y81537D02*
X199663Y85287D01*
X201225Y81537D01*
X198725Y83100D02*
X200600D01*
X198100Y126537D02*
Y130287D01*
X201225D01*
X200600Y128413D02*
X198100D01*
Y126537D02*
X201225D01*
X203100Y44037D02*
Y47787D01*
X206225D01*
X205600Y45913D02*
X203100D01*
Y44037D02*
X206225D01*
X203100Y54037D02*
Y57787D01*
X206225D01*
X205600Y55913D02*
X203100D01*
Y54037D02*
X206225D01*
X203100Y96537D02*
X204663Y100287D01*
X206225Y96537D01*
X203725Y98100D02*
X205600D01*
X208100Y101537D02*
X209663Y105287D01*
X211225Y101537D01*
X208725Y103100D02*
X210600D01*
X208100Y126537D02*
Y130287D01*
X211225D01*
X210600Y128413D02*
X208100D01*
Y126537D02*
X211225D01*
X213100Y44037D02*
Y47787D01*
X216225D01*
X215600Y45913D02*
X213100D01*
Y44037D02*
X216225D01*
X213100Y54037D02*
Y57787D01*
X216225D01*
X215600Y55913D02*
X213100D01*
Y54037D02*
X216225D01*
X213100Y86537D02*
X214663Y90287D01*
X216225Y86537D01*
X213725Y88100D02*
X215600D01*
X218100Y76537D02*
X219663Y80287D01*
X221225Y76537D01*
X218725Y78100D02*
X220600D01*
X218100Y126537D02*
Y130287D01*
X221225D01*
X220600Y128413D02*
X218100D01*
Y126537D02*
X221225D01*
X228100D02*
Y130287D01*
X231225D01*
X230600Y128413D02*
X228100D01*
Y126537D02*
X231225D01*
X248725Y49663D02*
X248413Y49350D01*
X247787Y49037D01*
X246850D01*
X246225Y49350D01*
X245913Y49663D01*
X245600Y50287D01*
Y51537D01*
X245913Y52163D01*
X246225Y52475D01*
X246850Y52787D01*
X247787D01*
X248413Y52475D01*
X248725Y52163D01*
Y309663D02*
X248413Y309350D01*
X247787Y309037D01*
X246850D01*
X246225Y309350D01*
X245913Y309663D01*
X245600Y310287D01*
Y311537D01*
X245913Y312163D01*
X246225Y312475D01*
X246850Y312787D01*
X247787D01*
X248413Y312475D01*
X248725Y312163D01*
X276225Y49663D02*
X275913Y49350D01*
X275287Y49037D01*
X274350D01*
X273725Y49350D01*
X273413Y49663D01*
X273100Y50287D01*
Y51537D01*
X273413Y52163D01*
X273725Y52475D01*
X274350Y52787D01*
X275287D01*
X275913Y52475D01*
X276225Y52163D01*
Y309663D02*
X275913Y309350D01*
X275287Y309037D01*
X274350D01*
X273725Y309350D01*
X273413Y309663D01*
X273100Y310287D01*
Y311537D01*
X273413Y312163D01*
X273725Y312475D01*
X274350Y312787D01*
X275287D01*
X275913Y312475D01*
X276225Y312163D01*
X305600Y44037D02*
Y47787D01*
X308725D01*
X308100Y45913D02*
X305600D01*
Y44037D02*
X308725D01*
X305600Y54037D02*
Y57787D01*
X308725D01*
X308100Y55913D02*
X305600D01*
Y54037D02*
X308725D01*
X310600Y71537D02*
X312163Y75287D01*
X313725Y71537D01*
X311225Y73100D02*
X313100D01*
X315600Y44037D02*
Y47787D01*
X318725D01*
X318100Y45913D02*
X315600D01*
Y44037D02*
X318725D01*
X315600Y54037D02*
Y57787D01*
X318725D01*
X318100Y55913D02*
X315600D01*
Y54037D02*
X318725D01*
X315600Y76537D02*
X317163Y80287D01*
X318725Y76537D01*
X316225Y78100D02*
X318100D01*
Y281537D02*
X319663Y285287D01*
X321225Y281537D01*
X318725Y283100D02*
X320600D01*
Y81537D02*
X322163Y85287D01*
X323725Y81537D01*
X321225Y83100D02*
X323100D01*
X325600Y44037D02*
Y47787D01*
X328725D01*
X328100Y45913D02*
X325600D01*
Y44037D02*
X328725D01*
X325600Y54037D02*
Y57787D01*
X328725D01*
X328100Y55913D02*
X325600D01*
Y54037D02*
X328725D01*
X325600Y106537D02*
X327163Y110287D01*
X328725Y106537D01*
X326225Y108100D02*
X328100D01*
X326850Y155287D02*
Y159037D01*
Y157163D02*
X329975D01*
Y155287D02*
Y159037D01*
X330600Y101537D02*
X332163Y105287D01*
X333725Y101537D01*
X331225Y103100D02*
X333100D01*
X330600Y276537D02*
X332163Y280287D01*
X333725Y276537D01*
X331225Y278100D02*
X333100D01*
X335600Y44037D02*
Y47787D01*
X338725D01*
X338100Y45913D02*
X335600D01*
Y44037D02*
X338725D01*
X335600Y54037D02*
Y57787D01*
X338725D01*
X338100Y55913D02*
X335600D01*
Y54037D02*
X338725D01*
X335600Y86537D02*
X337163Y90287D01*
X338725Y86537D01*
X336225Y88100D02*
X338100D01*
X336850Y152787D02*
Y156537D01*
Y154663D02*
X339975D01*
Y152787D02*
Y156537D01*
X336850Y236537D02*
X338413Y240287D01*
X339975Y236537D01*
X337475Y238100D02*
X339350D01*
X338100Y286537D02*
X339663Y290287D01*
X341225Y286537D01*
X338725Y288100D02*
X340600D01*
X350600Y152787D02*
Y156537D01*
Y154663D02*
X353725D01*
Y152787D02*
Y156537D01*
X360600Y155287D02*
Y159037D01*
Y157163D02*
X363725D01*
Y155287D02*
Y159037D01*
X371225Y49663D02*
X370913Y49350D01*
X370287Y49037D01*
X369350D01*
X368725Y49350D01*
X368413Y49663D01*
X368100Y50287D01*
Y51537D01*
X368413Y52163D01*
X368725Y52475D01*
X369350Y52787D01*
X370287D01*
X370913Y52475D01*
X371225Y52163D01*
Y309663D02*
X370913Y309350D01*
X370287Y309037D01*
X369350D01*
X368725Y309350D01*
X368413Y309663D01*
X368100Y310287D01*
Y311537D01*
X368413Y312163D01*
X368725Y312475D01*
X369350Y312787D01*
X370287D01*
X370913Y312475D01*
X371225Y312163D01*
X378100Y96537D02*
X379663Y100287D01*
X381225Y96537D01*
X378725Y98100D02*
X380600D01*
X378100Y169037D02*
Y172787D01*
X379975D01*
X380600Y172475D01*
X380913Y172163D01*
X381225Y171537D01*
Y170287D01*
X380913Y169663D01*
X380600Y169350D01*
X379975Y169037D01*
X378100D01*
Y199037D02*
Y202787D01*
X379975D01*
X380600Y202475D01*
X380913Y202163D01*
X381225Y201537D01*
Y200287D01*
X380913Y199663D01*
X380600Y199350D01*
X379975Y199037D01*
X378100D01*
Y221537D02*
Y225287D01*
X381225D01*
X380600Y223413D02*
X378100D01*
X388100Y91537D02*
X389663Y95287D01*
X391225Y91537D01*
X388725Y93100D02*
X390600D01*
X388100Y169037D02*
Y172787D01*
X389975D01*
X390600Y172475D01*
X390913Y172163D01*
X391225Y171537D01*
Y170287D01*
X390913Y169663D01*
X390600Y169350D01*
X389975Y169037D01*
X388100D01*
Y199037D02*
Y202787D01*
X389975D01*
X390600Y202475D01*
X390913Y202163D01*
X391225Y201537D01*
Y200287D01*
X390913Y199663D01*
X390600Y199350D01*
X389975Y199037D01*
X388100D01*
Y221537D02*
Y225287D01*
X391225D01*
X390600Y223413D02*
X388100D01*
X398725Y24663D02*
X398413Y24350D01*
X397787Y24037D01*
X396850D01*
X396225Y24350D01*
X395913Y24663D01*
X395600Y25287D01*
Y26537D01*
X395913Y27163D01*
X396225Y27475D01*
X396850Y27787D01*
X397787D01*
X398413Y27475D01*
X398725Y27163D01*
Y49663D02*
X398413Y49350D01*
X397787Y49037D01*
X396850D01*
X396225Y49350D01*
X395913Y49663D01*
X395600Y50287D01*
Y51537D01*
X395913Y52163D01*
X396225Y52475D01*
X396850Y52787D01*
X397787D01*
X398413Y52475D01*
X398725Y52163D01*
Y309663D02*
X398413Y309350D01*
X397787Y309037D01*
X396850D01*
X396225Y309350D01*
X395913Y309663D01*
X395600Y310287D01*
Y311537D01*
X395913Y312163D01*
X396225Y312475D01*
X396850Y312787D01*
X397787D01*
X398413Y312475D01*
X398725Y312163D01*
X398100Y86537D02*
X399663Y90287D01*
X401225Y86537D01*
X398725Y88100D02*
X400600D01*
X398100Y169037D02*
Y172787D01*
X399975D01*
X400600Y172475D01*
X400913Y172163D01*
X401225Y171537D01*
Y170287D01*
X400913Y169663D01*
X400600Y169350D01*
X399975Y169037D01*
X398100D01*
Y199037D02*
Y202787D01*
X399975D01*
X400600Y202475D01*
X400913Y202163D01*
X401225Y201537D01*
Y200287D01*
X400913Y199663D01*
X400600Y199350D01*
X399975Y199037D01*
X398100D01*
Y221537D02*
Y225287D01*
X401225D01*
X400600Y223413D02*
X398100D01*
X408100Y169037D02*
Y172787D01*
X409975D01*
X410600Y172475D01*
X410913Y172163D01*
X411225Y171537D01*
Y170287D01*
X410913Y169663D01*
X410600Y169350D01*
X409975Y169037D01*
X408100D01*
Y199037D02*
Y202787D01*
X409975D01*
X410600Y202475D01*
X410913Y202163D01*
X411225Y201537D01*
Y200287D01*
X410913Y199663D01*
X410600Y199350D01*
X409975Y199037D01*
X408100D01*
Y221537D02*
Y225287D01*
X411225D01*
X410600Y223413D02*
X408100D01*
X418100Y86537D02*
X419663Y90287D01*
X421225Y86537D01*
X418725Y88100D02*
X420600D01*
X418100Y169037D02*
Y172787D01*
X419975D01*
X420600Y172475D01*
X420913Y172163D01*
X421225Y171537D01*
Y170287D01*
X420913Y169663D01*
X420600Y169350D01*
X419975Y169037D01*
X418100D01*
Y199037D02*
Y202787D01*
X419975D01*
X420600Y202475D01*
X420913Y202163D01*
X421225Y201537D01*
Y200287D01*
X420913Y199663D01*
X420600Y199350D01*
X419975Y199037D01*
X418100D01*
Y221537D02*
Y225287D01*
X421225D01*
X420600Y223413D02*
X418100D01*
X428100Y44037D02*
Y47787D01*
X431225D01*
X430600Y45913D02*
X428100D01*
Y44037D02*
X431225D01*
X428100Y54037D02*
Y57787D01*
X431225D01*
X430600Y55913D02*
X428100D01*
Y54037D02*
X431225D01*
X428100Y91537D02*
X429663Y95287D01*
X431225Y91537D01*
X428725Y93100D02*
X430600D01*
X428100Y169037D02*
Y172787D01*
X429975D01*
X430600Y172475D01*
X430913Y172163D01*
X431225Y171537D01*
Y170287D01*
X430913Y169663D01*
X430600Y169350D01*
X429975Y169037D01*
X428100D01*
Y199037D02*
Y202787D01*
X429975D01*
X430600Y202475D01*
X430913Y202163D01*
X431225Y201537D01*
Y200287D01*
X430913Y199663D01*
X430600Y199350D01*
X429975Y199037D01*
X428100D01*
Y221537D02*
Y225287D01*
X431225D01*
X430600Y223413D02*
X428100D01*
X433100Y71537D02*
X434663Y75287D01*
X436225Y71537D01*
X433725Y73100D02*
X435600D01*
X438100Y44037D02*
Y47787D01*
X441225D01*
X440600Y45913D02*
X438100D01*
Y44037D02*
X441225D01*
X438100Y54037D02*
Y57787D01*
X441225D01*
X440600Y55913D02*
X438100D01*
Y54037D02*
X441225D01*
X438100Y76537D02*
X439663Y80287D01*
X441225Y76537D01*
X438725Y78100D02*
X440600D01*
X438100Y96537D02*
X439663Y100287D01*
X441225Y96537D01*
X438725Y98100D02*
X440600D01*
X438100Y169037D02*
Y172787D01*
X439975D01*
X440600Y172475D01*
X440913Y172163D01*
X441225Y171537D01*
Y170287D01*
X440913Y169663D01*
X440600Y169350D01*
X439975Y169037D01*
X438100D01*
Y199037D02*
Y202787D01*
X439975D01*
X440600Y202475D01*
X440913Y202163D01*
X441225Y201537D01*
Y200287D01*
X440913Y199663D01*
X440600Y199350D01*
X439975Y199037D01*
X438100D01*
Y221537D02*
Y225287D01*
X441225D01*
X440600Y223413D02*
X438100D01*
X443100Y81537D02*
X444663Y85287D01*
X446225Y81537D01*
X443725Y83100D02*
X445600D01*
X448100Y44037D02*
Y47787D01*
X451225D01*
X450600Y45913D02*
X448100D01*
Y44037D02*
X451225D01*
X448100Y54037D02*
Y57787D01*
X451225D01*
X450600Y55913D02*
X448100D01*
Y54037D02*
X451225D01*
X448100Y101537D02*
X449663Y105287D01*
X451225Y101537D01*
X448725Y103100D02*
X450600D01*
X448100Y169037D02*
Y172787D01*
X449975D01*
X450600Y172475D01*
X450913Y172163D01*
X451225Y171537D01*
Y170287D01*
X450913Y169663D01*
X450600Y169350D01*
X449975Y169037D01*
X448100D01*
Y199037D02*
Y202787D01*
X449975D01*
X450600Y202475D01*
X450913Y202163D01*
X451225Y201537D01*
Y200287D01*
X450913Y199663D01*
X450600Y199350D01*
X449975Y199037D01*
X448100D01*
Y221537D02*
Y225287D01*
X451225D01*
X450600Y223413D02*
X448100D01*
X453100Y106537D02*
X454663Y110287D01*
X456225Y106537D01*
X453725Y108100D02*
X455600D01*
X458100Y44037D02*
Y47787D01*
X461225D01*
X460600Y45913D02*
X458100D01*
Y44037D02*
X461225D01*
X458100Y54037D02*
Y57787D01*
X461225D01*
X460600Y55913D02*
X458100D01*
Y54037D02*
X461225D01*
X458100Y66537D02*
X459663Y70287D01*
X461225Y66537D01*
X458725Y68100D02*
X460600D01*
X458100Y155287D02*
X459663Y159037D01*
X461225Y155287D01*
X458725Y156850D02*
X460600D01*
X458100Y169037D02*
Y172787D01*
X459975D01*
X460600Y172475D01*
X460913Y172163D01*
X461225Y171537D01*
Y170287D01*
X460913Y169663D01*
X460600Y169350D01*
X459975Y169037D01*
X458100D01*
Y199037D02*
Y202787D01*
X459975D01*
X460600Y202475D01*
X460913Y202163D01*
X461225Y201537D01*
Y200287D01*
X460913Y199663D01*
X460600Y199350D01*
X459975Y199037D01*
X458100D01*
Y221537D02*
Y225287D01*
X461225D01*
X460600Y223413D02*
X458100D01*
X468100Y169037D02*
Y172787D01*
X469975D01*
X470600Y172475D01*
X470913Y172163D01*
X471225Y171537D01*
Y170287D01*
X470913Y169663D01*
X470600Y169350D01*
X469975Y169037D01*
X468100D01*
Y199037D02*
Y202787D01*
X469975D01*
X470600Y202475D01*
X470913Y202163D01*
X471225Y201537D01*
Y200287D01*
X470913Y199663D01*
X470600Y199350D01*
X469975Y199037D01*
X468100D01*
Y221537D02*
Y225287D01*
X471225D01*
X470600Y223413D02*
X468100D01*
X478100Y169037D02*
Y172787D01*
X479975D01*
X480600Y172475D01*
X480913Y172163D01*
X481225Y171537D01*
Y170287D01*
X480913Y169663D01*
X480600Y169350D01*
X479975Y169037D01*
X478100D01*
Y199037D02*
Y202787D01*
X479975D01*
X480600Y202475D01*
X480913Y202163D01*
X481225Y201537D01*
Y200287D01*
X480913Y199663D01*
X480600Y199350D01*
X479975Y199037D01*
X478100D01*
X483100Y219037D02*
Y222787D01*
X486225D01*
X485600Y220913D02*
X483100D01*
Y219037D02*
X486225D01*
X483100Y229037D02*
Y232787D01*
X486225D01*
X485600Y230913D02*
X483100D01*
Y229037D02*
X486225D01*
X483100Y239037D02*
Y242787D01*
X486225D01*
X485600Y240913D02*
X483100D01*
Y239037D02*
X486225D01*
X488100Y141537D02*
X489663Y145287D01*
X491225Y141537D01*
X488725Y143100D02*
X490600D01*
X488100Y169037D02*
Y172787D01*
X489975D01*
X490600Y172475D01*
X490913Y172163D01*
X491225Y171537D01*
Y170287D01*
X490913Y169663D01*
X490600Y169350D01*
X489975Y169037D01*
X488100D01*
Y199037D02*
Y202787D01*
X489975D01*
X490600Y202475D01*
X490913Y202163D01*
X491225Y201537D01*
Y200287D01*
X490913Y199663D01*
X490600Y199350D01*
X489975Y199037D01*
X488100D01*
X493725Y24663D02*
X493413Y24350D01*
X492787Y24037D01*
X491850D01*
X491225Y24350D01*
X490913Y24663D01*
X490600Y25287D01*
Y26537D01*
X490913Y27163D01*
X491225Y27475D01*
X491850Y27787D01*
X492787D01*
X493413Y27475D01*
X493725Y27163D01*
Y49663D02*
X493413Y49350D01*
X492787Y49037D01*
X491850D01*
X491225Y49350D01*
X490913Y49663D01*
X490600Y50287D01*
Y51537D01*
X490913Y52163D01*
X491225Y52475D01*
X491850Y52787D01*
X492787D01*
X493413Y52475D01*
X493725Y52163D01*
Y309663D02*
X493413Y309350D01*
X492787Y309037D01*
X491850D01*
X491225Y309350D01*
X490913Y309663D01*
X490600Y310287D01*
Y311537D01*
X490913Y312163D01*
X491225Y312475D01*
X491850Y312787D01*
X492787D01*
X493413Y312475D01*
X493725Y312163D01*
X498100Y141537D02*
X499663Y145287D01*
X501225Y141537D01*
X498725Y143100D02*
X500600D01*
X498100Y169037D02*
Y172787D01*
X499975D01*
X500600Y172475D01*
X500913Y172163D01*
X501225Y171537D01*
Y170287D01*
X500913Y169663D01*
X500600Y169350D01*
X499975Y169037D01*
X498100D01*
Y199037D02*
Y202787D01*
X499975D01*
X500600Y202475D01*
X500913Y202163D01*
X501225Y201537D01*
Y200287D01*
X500913Y199663D01*
X500600Y199350D01*
X499975Y199037D01*
X498100D01*
Y219037D02*
Y222787D01*
X501225D01*
X500600Y220913D02*
X498100D01*
Y219037D02*
X501225D01*
X498100Y229037D02*
Y232787D01*
X501225D01*
X500600Y230913D02*
X498100D01*
Y229037D02*
X501225D01*
X498100Y239037D02*
Y242787D01*
X501225D01*
X500600Y240913D02*
X498100D01*
Y239037D02*
X501225D01*
X508100Y169037D02*
Y172787D01*
X509975D01*
X510600Y172475D01*
X510913Y172163D01*
X511225Y171537D01*
Y170287D01*
X510913Y169663D01*
X510600Y169350D01*
X509975Y169037D01*
X508100D01*
Y199037D02*
Y202787D01*
X509975D01*
X510600Y202475D01*
X510913Y202163D01*
X511225Y201537D01*
Y200287D01*
X510913Y199663D01*
X510600Y199350D01*
X509975Y199037D01*
X508100D01*
X513100Y219037D02*
Y222787D01*
X516225D01*
X515600Y220913D02*
X513100D01*
Y219037D02*
X516225D01*
X513100Y229037D02*
Y232787D01*
X516225D01*
X515600Y230913D02*
X513100D01*
Y229037D02*
X516225D01*
X513100Y239037D02*
Y242787D01*
X516225D01*
X515600Y240913D02*
X513100D01*
Y239037D02*
X516225D01*
X521225Y49663D02*
X520913Y49350D01*
X520287Y49037D01*
X519350D01*
X518725Y49350D01*
X518413Y49663D01*
X518100Y50287D01*
Y51537D01*
X518413Y52163D01*
X518725Y52475D01*
X519350Y52787D01*
X520287D01*
X520913Y52475D01*
X521225Y52163D01*
Y309663D02*
X520913Y309350D01*
X520287Y309037D01*
X519350D01*
X518725Y309350D01*
X518413Y309663D01*
X518100Y310287D01*
Y311537D01*
X518413Y312163D01*
X518725Y312475D01*
X519350Y312787D01*
X520287D01*
X520913Y312475D01*
X521225Y312163D01*
X529037Y209037D02*
X530287D01*
X529663D02*
Y212787D01*
X529037D02*
X530287D01*
X529037Y249037D02*
X530287D01*
X529663D02*
Y252787D01*
X529037D02*
X530287D01*
X543100Y156537D02*
Y160287D01*
X546225D01*
X545600Y158413D02*
X543100D01*
Y196537D02*
Y200287D01*
X546225D01*
X545600Y198413D02*
X543100D01*
X550600Y44037D02*
Y47787D01*
X553725D01*
X553100Y45913D02*
X550600D01*
Y44037D02*
X553725D01*
X550600Y54037D02*
Y57787D01*
X553725D01*
X553100Y55913D02*
X550600D01*
Y54037D02*
X553725D01*
X555600Y71537D02*
X557163Y75287D01*
X558725Y71537D01*
X556225Y73100D02*
X558100D01*
X555600Y151537D02*
Y155287D01*
X558725D01*
X558100Y153413D02*
X555600D01*
Y191537D02*
Y195287D01*
X558725D01*
X558100Y193413D02*
X555600D01*
X560600Y44037D02*
Y47787D01*
X563725D01*
X563100Y45913D02*
X560600D01*
Y44037D02*
X563725D01*
X560600Y54037D02*
Y57787D01*
X563725D01*
X563100Y55913D02*
X560600D01*
Y54037D02*
X563725D01*
X560600Y76537D02*
X562163Y80287D01*
X563725Y76537D01*
X561225Y78100D02*
X563100D01*
Y281537D02*
X564663Y285287D01*
X566225Y281537D01*
X563725Y283100D02*
X565600D01*
Y81537D02*
X567163Y85287D01*
X568725Y81537D01*
X566225Y83100D02*
X568100D01*
Y191537D02*
Y195287D01*
X571225D01*
X570600Y193413D02*
X568100D01*
Y191537D02*
X571225D01*
X570600Y44037D02*
Y47787D01*
X573725D01*
X573100Y45913D02*
X570600D01*
Y44037D02*
X573725D01*
X570600Y54037D02*
Y57787D01*
X573725D01*
X573100Y55913D02*
X570600D01*
Y54037D02*
X573725D01*
X570600Y101537D02*
X572163Y105287D01*
X573725Y101537D01*
X571225Y103100D02*
X573100D01*
X575600Y106537D02*
X577163Y110287D01*
X578725Y106537D01*
X576225Y108100D02*
X578100D01*
X575600Y276537D02*
X577163Y280287D01*
X578725Y276537D01*
X576225Y278100D02*
X578100D01*
Y156537D02*
X579663Y160287D01*
X581225Y156537D01*
X578725Y158100D02*
X580600D01*
X578100Y191537D02*
Y195287D01*
X581225D01*
X580600Y193413D02*
X578100D01*
Y191537D02*
X581225D01*
X580600Y44037D02*
Y47787D01*
X583725D01*
X583100Y45913D02*
X580600D01*
Y44037D02*
X583725D01*
X580600Y54037D02*
Y57787D01*
X583725D01*
X583100Y55913D02*
X580600D01*
Y54037D02*
X583725D01*
X580600Y86537D02*
X582163Y90287D01*
X583725Y86537D01*
X581225Y88100D02*
X583100D01*
Y286537D02*
X584663Y290287D01*
X586225Y286537D01*
X583725Y288100D02*
X585600D01*
X588100Y151537D02*
X589663Y155287D01*
X591225Y151537D01*
X588725Y153100D02*
X590600D01*
X588100Y191537D02*
Y195287D01*
X591225D01*
X590600Y193413D02*
X588100D01*
Y191537D02*
X591225D01*
X598100D02*
Y195287D01*
X601225D01*
X600600Y193413D02*
X598100D01*
Y191537D02*
X601225D01*
X616225Y49663D02*
X615913Y49350D01*
X615287Y49037D01*
X614350D01*
X613725Y49350D01*
X613413Y49663D01*
X613100Y50287D01*
Y51537D01*
X613413Y52163D01*
X613725Y52475D01*
X614350Y52787D01*
X615287D01*
X615913Y52475D01*
X616225Y52163D01*
X613100Y66537D02*
X614663Y70287D01*
X616225Y66537D01*
X613725Y68100D02*
X615600D01*
X613100Y169037D02*
Y172787D01*
X616225D01*
X615600Y170913D02*
X613100D01*
Y209037D02*
Y212787D01*
X616225D01*
X615600Y210913D02*
X613100D01*
X616225Y309663D02*
X615913Y309350D01*
X615287Y309037D01*
X614350D01*
X613725Y309350D01*
X613413Y309663D01*
X613100Y310287D01*
Y311537D01*
X613413Y312163D01*
X613725Y312475D01*
X614350Y312787D01*
X615287D01*
X615913Y312475D01*
X616225Y312163D01*
X625600Y229037D02*
Y232787D01*
X628725D01*
X628100Y230913D02*
X625600D01*
Y229037D02*
X628725D01*
X632787Y183100D02*
X633725D01*
Y182787D01*
X633413Y182163D01*
X633100Y181850D01*
X632475Y181537D01*
X631850D01*
X631225Y181850D01*
X630913Y182163D01*
X630600Y182787D01*
Y184037D01*
X630913Y184663D01*
X631225Y184975D01*
X631850Y185287D01*
X632475D01*
X633100Y184975D01*
X633413Y184663D01*
X633725Y184037D01*
X632787Y203100D02*
X633725D01*
Y202787D01*
X633413Y202163D01*
X633100Y201850D01*
X632475Y201537D01*
X631850D01*
X631225Y201850D01*
X630913Y202163D01*
X630600Y202787D01*
Y204037D01*
X630913Y204663D01*
X631225Y204975D01*
X631850Y205287D01*
X632475D01*
X633100Y204975D01*
X633413Y204663D01*
X633725Y204037D01*
X635600Y229037D02*
Y232787D01*
X638725D01*
X638100Y230913D02*
X635600D01*
Y229037D02*
X638725D01*
X643725Y49663D02*
X643413Y49350D01*
X642787Y49037D01*
X641850D01*
X641225Y49350D01*
X640913Y49663D01*
X640600Y50287D01*
Y51537D01*
X640913Y52163D01*
X641225Y52475D01*
X641850Y52787D01*
X642787D01*
X643413Y52475D01*
X643725Y52163D01*
Y309663D02*
X643413Y309350D01*
X642787Y309037D01*
X641850D01*
X641225Y309350D01*
X640913Y309663D01*
X640600Y310287D01*
Y311537D01*
X640913Y312163D01*
X641225Y312475D01*
X641850Y312787D01*
X642787D01*
X643413Y312475D01*
X643725Y312163D01*
X645600Y169037D02*
X647163Y172787D01*
X648725Y169037D01*
X646225Y170600D02*
X648100D01*
X645600Y194037D02*
X647163Y197787D01*
X648725Y194037D01*
X646225Y195600D02*
X648100D01*
X645600Y229037D02*
Y232787D01*
X648725D01*
X648100Y230913D02*
X645600D01*
Y229037D02*
X648725D01*
X657787Y175913D02*
X658413Y175600D01*
X658725Y174975D01*
X658413Y174350D01*
X657787Y174037D01*
X655600D01*
Y177787D01*
X657787D01*
X658413Y177475D01*
X658725Y176850D01*
X658413Y176225D01*
X657787Y175913D01*
X655600D01*
Y194037D02*
X657163Y197787D01*
X658725Y194037D01*
X656225Y195600D02*
X658100D01*
X657787Y210913D02*
X658413Y210600D01*
X658725Y209975D01*
X658413Y209350D01*
X657787Y209037D01*
X655600D01*
Y212787D01*
X657787D01*
X658413Y212475D01*
X658725Y211850D01*
X658413Y211225D01*
X657787Y210913D01*
X655600D01*
Y229037D02*
Y232787D01*
X658725D01*
X658100Y230913D02*
X655600D01*
Y229037D02*
X658725D01*
X665600D02*
Y232787D01*
X668725D01*
X668100Y230913D02*
X665600D01*
Y229037D02*
X668725D01*
X673100Y44037D02*
Y47787D01*
X676225D01*
X675600Y45913D02*
X673100D01*
Y44037D02*
X676225D01*
X673100Y54037D02*
Y57787D01*
X676225D01*
X675600Y55913D02*
X673100D01*
Y54037D02*
X676225D01*
X675600Y229037D02*
Y232787D01*
X678725D01*
X678100Y230913D02*
X675600D01*
Y229037D02*
X678725D01*
X678100Y71537D02*
X679663Y75287D01*
X681225Y71537D01*
X678725Y73100D02*
X680600D01*
X682787Y183100D02*
X683725D01*
Y182787D01*
X683413Y182163D01*
X683100Y181850D01*
X682475Y181537D01*
X681850D01*
X681225Y181850D01*
X680913Y182163D01*
X680600Y182787D01*
Y184037D01*
X680913Y184663D01*
X681225Y184975D01*
X681850Y185287D01*
X682475D01*
X683100Y184975D01*
X683413Y184663D01*
X683725Y184037D01*
X682787Y203100D02*
X683725D01*
Y202787D01*
X683413Y202163D01*
X683100Y201850D01*
X682475Y201537D01*
X681850D01*
X681225Y201850D01*
X680913Y202163D01*
X680600Y202787D01*
Y204037D01*
X680913Y204663D01*
X681225Y204975D01*
X681850Y205287D01*
X682475D01*
X683100Y204975D01*
X683413Y204663D01*
X683725Y204037D01*
X683100Y44037D02*
Y47787D01*
X686225D01*
X685600Y45913D02*
X683100D01*
Y44037D02*
X686225D01*
X683100Y54037D02*
Y57787D01*
X686225D01*
X685600Y55913D02*
X683100D01*
Y54037D02*
X686225D01*
X683100Y76537D02*
X684663Y80287D01*
X686225Y76537D01*
X683725Y78100D02*
X685600D01*
X688100Y81537D02*
X689663Y85287D01*
X691225Y81537D01*
X688725Y83100D02*
X690600D01*
Y156537D02*
X692163Y160287D01*
X693725Y156537D01*
X691225Y158100D02*
X693100D01*
X690600Y234037D02*
X692163Y237787D01*
X693725Y234037D01*
X691225Y235600D02*
X693100D01*
Y44037D02*
Y47787D01*
X696225D01*
X695600Y45913D02*
X693100D01*
Y44037D02*
X696225D01*
X693100Y54037D02*
Y57787D01*
X696225D01*
X695600Y55913D02*
X693100D01*
Y54037D02*
X696225D01*
X693100Y96537D02*
X694663Y100287D01*
X696225Y96537D01*
X693725Y98100D02*
X695600D01*
Y151537D02*
X697163Y155287D01*
X698725Y151537D01*
X696225Y153100D02*
X698100D01*
X695600Y229037D02*
X697163Y232787D01*
X698725Y229037D01*
X696225Y230600D02*
X698100D01*
X700600Y101537D02*
X702163Y105287D01*
X703725Y101537D01*
X701225Y103100D02*
X703100D01*
X700600Y224037D02*
X702163Y227787D01*
X703725Y224037D01*
X701225Y225600D02*
X703100D01*
Y44037D02*
Y47787D01*
X706225D01*
X705600Y45913D02*
X703100D01*
Y44037D02*
X706225D01*
X703100Y54037D02*
Y57787D01*
X706225D01*
X705600Y55913D02*
X703100D01*
Y54037D02*
X706225D01*
X703100Y86537D02*
X704663Y90287D01*
X706225Y86537D01*
X703725Y88100D02*
X705600D01*
Y106537D02*
X707163Y110287D01*
X708725Y106537D01*
X706225Y108100D02*
X708100D01*
X705600Y219037D02*
X707163Y222787D01*
X708725Y219037D01*
X706225Y220600D02*
X708100D01*
X710600Y214037D02*
X712163Y217787D01*
X713725Y214037D01*
X711225Y215600D02*
X713100D01*
X715600Y96537D02*
X717163Y100287D01*
X718725Y96537D01*
X716225Y98100D02*
X718100D01*
X715600Y209037D02*
X717163Y212787D01*
X718725Y209037D01*
X716225Y210600D02*
X718100D01*
X738725Y49663D02*
X738413Y49350D01*
X737787Y49037D01*
X736850D01*
X736225Y49350D01*
X735913Y49663D01*
X735600Y50287D01*
Y51537D01*
X735913Y52163D01*
X736225Y52475D01*
X736850Y52787D01*
X737787D01*
X738413Y52475D01*
X738725Y52163D01*
Y309663D02*
X738413Y309350D01*
X737787Y309037D01*
X736850D01*
X736225Y309350D01*
X735913Y309663D01*
X735600Y310287D01*
Y311537D01*
X735913Y312163D01*
X736225Y312475D01*
X736850Y312787D01*
X737787D01*
X738413Y312475D01*
X738725Y312163D01*
X753100Y151537D02*
X754663Y155287D01*
X756225Y151537D01*
X753725Y153100D02*
X755600D01*
X753100Y169037D02*
X754663Y172787D01*
X756225Y169037D01*
X753725Y170600D02*
X755600D01*
X766225Y49663D02*
X765913Y49350D01*
X765287Y49037D01*
X764350D01*
X763725Y49350D01*
X763413Y49663D01*
X763100Y50287D01*
Y51537D01*
X763413Y52163D01*
X763725Y52475D01*
X764350Y52787D01*
X765287D01*
X765913Y52475D01*
X766225Y52163D01*
Y309663D02*
X765913Y309350D01*
X765287Y309037D01*
X764350D01*
X763725Y309350D01*
X763413Y309663D01*
X763100Y310287D01*
Y311537D01*
X763413Y312163D01*
X763725Y312475D01*
X764350Y312787D01*
X765287D01*
X765913Y312475D01*
X766225Y312163D01*
X765600Y156537D02*
Y160287D01*
X768725D01*
X768100Y158413D02*
X765600D01*
Y156537D02*
X768725D01*
X765600Y166537D02*
Y170287D01*
X768725D01*
X768100Y168413D02*
X765600D01*
Y166537D02*
X768725D01*
X765600Y236537D02*
Y240287D01*
X768725D01*
X768100Y238413D02*
X765600D01*
Y236537D02*
X768725D01*
X765600Y246537D02*
Y250287D01*
X768725D01*
X768100Y248413D02*
X765600D01*
Y246537D02*
X768725D01*
X775600Y156537D02*
Y160287D01*
X778725D01*
X778100Y158413D02*
X775600D01*
Y156537D02*
X778725D01*
X775600Y166537D02*
Y170287D01*
X778725D01*
X778100Y168413D02*
X775600D01*
Y166537D02*
X778725D01*
X775600Y236537D02*
Y240287D01*
X778725D01*
X778100Y238413D02*
X775600D01*
Y236537D02*
X778725D01*
X775600Y246537D02*
Y250287D01*
X778725D01*
X778100Y248413D02*
X775600D01*
Y246537D02*
X778725D01*
X778100Y204037D02*
X779663Y207787D01*
X781225Y204037D01*
X778725Y205600D02*
X780600D01*
X778100Y219037D02*
X779663Y222787D01*
X781225Y219037D01*
X778725Y220600D02*
X780600D01*
X785600Y156537D02*
Y160287D01*
X788725D01*
X788100Y158413D02*
X785600D01*
Y156537D02*
X788725D01*
X785600Y166537D02*
Y170287D01*
X788725D01*
X788100Y168413D02*
X785600D01*
Y166537D02*
X788725D01*
X785600Y236537D02*
Y240287D01*
X788725D01*
X788100Y238413D02*
X785600D01*
Y236537D02*
X788725D01*
X785600Y246537D02*
Y250287D01*
X788725D01*
X788100Y248413D02*
X785600D01*
Y246537D02*
X788725D01*
X793100Y256537D02*
X794663Y260287D01*
X796225Y256537D01*
X793725Y258100D02*
X795600D01*
Y44037D02*
Y47787D01*
X798725D01*
X798100Y45913D02*
X795600D01*
Y44037D02*
X798725D01*
X795600Y54037D02*
Y57787D01*
X798725D01*
X798100Y55913D02*
X795600D01*
Y54037D02*
X798725D01*
X795600Y156537D02*
Y160287D01*
X798725D01*
X798100Y158413D02*
X795600D01*
Y156537D02*
X798725D01*
X795600Y166537D02*
Y170287D01*
X798725D01*
X798100Y168413D02*
X795600D01*
Y166537D02*
X798725D01*
X795600Y236537D02*
Y240287D01*
X798725D01*
X798100Y238413D02*
X795600D01*
Y236537D02*
X798725D01*
X795600Y246537D02*
Y250287D01*
X798725D01*
X798100Y248413D02*
X795600D01*
Y246537D02*
X798725D01*
X800600Y71537D02*
X802163Y75287D01*
X803725Y71537D01*
X801225Y73100D02*
X803100D01*
X800600Y99037D02*
X802163Y102787D01*
X803725Y99037D01*
X801225Y100600D02*
X803100D01*
X805600Y44037D02*
Y47787D01*
X808725D01*
X808100Y45913D02*
X805600D01*
Y44037D02*
X808725D01*
X805600Y54037D02*
Y57787D01*
X808725D01*
X808100Y55913D02*
X805600D01*
Y54037D02*
X808725D01*
X805600Y76537D02*
X807163Y80287D01*
X808725Y76537D01*
X806225Y78100D02*
X808100D01*
X805600Y156537D02*
Y160287D01*
X808725D01*
X808100Y158413D02*
X805600D01*
Y156537D02*
X808725D01*
X805600Y166537D02*
Y170287D01*
X808725D01*
X808100Y168413D02*
X805600D01*
Y166537D02*
X808725D01*
X805600Y236537D02*
Y240287D01*
X808725D01*
X808100Y238413D02*
X805600D01*
Y236537D02*
X808725D01*
X805600Y246537D02*
Y250287D01*
X808725D01*
X808100Y248413D02*
X805600D01*
Y246537D02*
X808725D01*
X810600Y81537D02*
X812163Y85287D01*
X813725Y81537D01*
X811225Y83100D02*
X813100D01*
X810600Y91537D02*
X812163Y95287D01*
X813725Y91537D01*
X811225Y93100D02*
X813100D01*
X810600Y106537D02*
X812163Y110287D01*
X813725Y106537D01*
X811225Y108100D02*
X813100D01*
X815600Y44037D02*
Y47787D01*
X818725D01*
X818100Y45913D02*
X815600D01*
Y44037D02*
X818725D01*
X815600Y54037D02*
Y57787D01*
X818725D01*
X818100Y55913D02*
X815600D01*
Y54037D02*
X818725D01*
X815600Y76537D02*
X817163Y80287D01*
X818725Y76537D01*
X816225Y78100D02*
X818100D01*
X815600Y156537D02*
Y160287D01*
X818725D01*
X818100Y158413D02*
X815600D01*
Y156537D02*
X818725D01*
X815600Y166537D02*
Y170287D01*
X818725D01*
X818100Y168413D02*
X815600D01*
Y166537D02*
X818725D01*
X815600Y236537D02*
Y240287D01*
X818725D01*
X818100Y238413D02*
X815600D01*
Y236537D02*
X818725D01*
X815600Y246537D02*
Y250287D01*
X818725D01*
X818100Y248413D02*
X815600D01*
Y246537D02*
X818725D01*
X820600Y106537D02*
X822163Y110287D01*
X823725Y106537D01*
X821225Y108100D02*
X823100D01*
X820600Y116537D02*
X822163Y120287D01*
X823725Y116537D01*
X821225Y118100D02*
X823100D01*
X820600Y281537D02*
X822163Y285287D01*
X823725Y281537D01*
X821225Y283100D02*
X823100D01*
X825600Y44037D02*
Y47787D01*
X828725D01*
X828100Y45913D02*
X825600D01*
Y44037D02*
X828725D01*
X825600Y54037D02*
Y57787D01*
X828725D01*
X828100Y55913D02*
X825600D01*
Y54037D02*
X828725D01*
X825600Y86537D02*
X827163Y90287D01*
X828725Y86537D01*
X826225Y88100D02*
X828100D01*
X825600Y99037D02*
X827163Y102787D01*
X828725Y99037D01*
X826225Y100600D02*
X828100D01*
X825600Y111537D02*
X827163Y115287D01*
X828725Y111537D01*
X826225Y113100D02*
X828100D01*
X825600Y156537D02*
Y160287D01*
X828725D01*
X828100Y158413D02*
X825600D01*
Y156537D02*
X828725D01*
X825600Y166537D02*
Y170287D01*
X828725D01*
X828100Y168413D02*
X825600D01*
Y166537D02*
X828725D01*
X825600Y236537D02*
Y240287D01*
X828725D01*
X828100Y238413D02*
X825600D01*
Y236537D02*
X828725D01*
X825600Y246537D02*
Y250287D01*
X828725D01*
X828100Y248413D02*
X825600D01*
Y246537D02*
X828725D01*
X828100Y286537D02*
X829663Y290287D01*
X831225Y286537D01*
X828725Y288100D02*
X830600D01*
X835600Y156537D02*
Y160287D01*
X838725D01*
X838100Y158413D02*
X835600D01*
Y156537D02*
X838725D01*
X835600Y166537D02*
Y170287D01*
X838725D01*
X838100Y168413D02*
X835600D01*
Y166537D02*
X838725D01*
X835600Y236537D02*
Y240287D01*
X838725D01*
X838100Y238413D02*
X835600D01*
Y236537D02*
X838725D01*
X835600Y246537D02*
Y250287D01*
X838725D01*
X838100Y248413D02*
X835600D01*
Y246537D02*
X838725D01*
X861225Y24663D02*
X860913Y24350D01*
X860287Y24037D01*
X859350D01*
X858725Y24350D01*
X858413Y24663D01*
X858100Y25287D01*
Y26537D01*
X858413Y27163D01*
X858725Y27475D01*
X859350Y27787D01*
X860287D01*
X860913Y27475D01*
X861225Y27163D01*
Y49663D02*
X860913Y49350D01*
X860287Y49037D01*
X859350D01*
X858725Y49350D01*
X858413Y49663D01*
X858100Y50287D01*
Y51537D01*
X858413Y52163D01*
X858725Y52475D01*
X859350Y52787D01*
X860287D01*
X860913Y52475D01*
X861225Y52163D01*
Y309663D02*
X860913Y309350D01*
X860287Y309037D01*
X859350D01*
X858725Y309350D01*
X858413Y309663D01*
X858100Y310287D01*
Y311537D01*
X858413Y312163D01*
X858725Y312475D01*
X859350Y312787D01*
X860287D01*
X860913Y312475D01*
X861225Y312163D01*
D02*
D95*
X15600Y88100D03*
Y108100D03*
Y140600D03*
Y160600D03*
Y193100D03*
Y213100D03*
Y245600D03*
Y265600D03*
X18100Y18100D03*
Y43100D03*
Y303100D03*
X40600Y80600D03*
Y115600D03*
Y133100D03*
Y168100D03*
Y185600D03*
Y220600D03*
Y238100D03*
Y273100D03*
X50600Y38100D03*
Y48100D03*
X60600Y38100D03*
Y48100D03*
Y70600D03*
X63100Y280600D03*
X65600Y65600D03*
Y88100D03*
Y108100D03*
Y140600D03*
Y160600D03*
Y193100D03*
Y213100D03*
Y245600D03*
Y265600D03*
X70600Y38100D03*
Y48100D03*
X75600Y75600D03*
Y85600D03*
X80600Y38100D03*
Y48100D03*
Y80600D03*
X83100Y280600D03*
X85600Y90600D03*
X113100Y43100D03*
Y303100D03*
X140600Y43100D03*
Y303100D03*
X173100Y38100D03*
Y48100D03*
Y60600D03*
X178100Y65600D03*
D03*
Y120600D03*
X183100Y38100D03*
Y48100D03*
Y70600D03*
X188100Y75600D03*
Y120600D03*
X193100Y38100D03*
Y48100D03*
Y90600D03*
X198100Y95600D03*
Y120600D03*
X203100Y38100D03*
Y48100D03*
Y80600D03*
X208100Y70600D03*
Y120600D03*
X218100D03*
X235600Y43100D03*
Y303100D03*
X263100Y43100D03*
Y303100D03*
X295600Y38100D03*
Y48100D03*
X300600Y65600D03*
X305600Y38100D03*
Y48100D03*
Y70600D03*
X308100Y275600D03*
X310600Y75600D03*
X315600Y38100D03*
Y48100D03*
Y100600D03*
X316850Y149350D03*
X320600Y95600D03*
Y270600D03*
X325600Y38100D03*
Y48100D03*
Y80600D03*
X326850Y146850D03*
Y230600D03*
X328100Y280600D03*
X340600Y146850D03*
X350600Y149350D03*
X358100Y43100D03*
Y303100D03*
X368100Y90600D03*
Y163100D03*
Y193100D03*
Y215600D03*
X378100Y85600D03*
Y163100D03*
Y193100D03*
Y215600D03*
X385600Y18100D03*
Y43100D03*
Y303100D03*
X388100Y80600D03*
Y163100D03*
Y193100D03*
Y215600D03*
X398100Y163100D03*
Y193100D03*
Y215600D03*
X408100Y80600D03*
Y163100D03*
Y193100D03*
Y215600D03*
X418100Y38100D03*
Y48100D03*
Y85600D03*
Y163100D03*
Y193100D03*
Y215600D03*
X423100Y65600D03*
X428100Y38100D03*
Y48100D03*
Y70600D03*
Y90600D03*
Y163100D03*
Y193100D03*
Y215600D03*
X433100Y75600D03*
X438100Y38100D03*
Y48100D03*
Y95600D03*
Y163100D03*
Y193100D03*
Y215600D03*
X443100Y100600D03*
X448100Y38100D03*
Y48100D03*
Y60600D03*
Y149350D03*
Y163100D03*
Y193100D03*
Y215600D03*
X458100Y163100D03*
Y193100D03*
Y215600D03*
X468100Y163100D03*
Y193100D03*
X473100Y213100D03*
Y223100D03*
Y233100D03*
X478100Y135600D03*
Y163100D03*
Y193100D03*
X480600Y18100D03*
Y43100D03*
Y303100D03*
X488100Y135600D03*
Y163100D03*
Y193100D03*
Y213100D03*
Y223100D03*
Y233100D03*
X498100Y163100D03*
Y193100D03*
X503100Y213100D03*
Y223100D03*
Y233100D03*
X508100Y43100D03*
Y303100D03*
X518100Y203100D03*
Y243100D03*
X533100Y150600D03*
Y190600D03*
X540600Y38100D03*
Y48100D03*
X545600Y65600D03*
Y145600D03*
Y185600D03*
X550600Y38100D03*
Y48100D03*
Y70600D03*
X553100Y275600D03*
X555600Y75600D03*
X558100Y185600D03*
X560600Y38100D03*
Y48100D03*
Y95600D03*
X565600Y100600D03*
Y270600D03*
X568100Y150600D03*
Y185600D03*
X570600Y38100D03*
Y48100D03*
Y80600D03*
X573100Y280600D03*
X578100Y145600D03*
Y185600D03*
X588100D03*
X603100Y43100D03*
Y60600D03*
Y163100D03*
Y203100D03*
Y303100D03*
X615600Y223100D03*
X620600Y175600D03*
Y195600D03*
X625600Y223100D03*
X630600Y43100D03*
Y303100D03*
X635600Y163100D03*
Y188100D03*
Y223100D03*
X645600Y168100D03*
Y188100D03*
Y203100D03*
Y223100D03*
X655600D03*
X663100Y38100D03*
Y48100D03*
X665600Y223100D03*
X668100Y65600D03*
X670600Y175600D03*
Y195600D03*
X673100Y38100D03*
Y48100D03*
Y70600D03*
X678100Y75600D03*
X680600Y150600D03*
Y228100D03*
X683100Y38100D03*
Y48100D03*
Y90600D03*
X685600Y145600D03*
Y223100D03*
X690600Y95600D03*
Y218100D03*
X693100Y38100D03*
Y48100D03*
Y80600D03*
X695600Y100600D03*
Y213100D03*
X700600Y208100D03*
X705600Y90600D03*
Y203100D03*
X725600Y43100D03*
Y303100D03*
X743100Y145600D03*
Y163100D03*
X753100Y43100D03*
Y303100D03*
X755600Y150600D03*
Y160600D03*
Y230600D03*
Y240600D03*
X765600Y150600D03*
Y160600D03*
Y230600D03*
Y240600D03*
X768100Y198100D03*
Y213100D03*
X775600Y150600D03*
Y160600D03*
Y230600D03*
Y240600D03*
X783100Y250600D03*
X785600Y38100D03*
Y48100D03*
Y150600D03*
Y160600D03*
Y230600D03*
Y240600D03*
X790600Y65600D03*
Y93100D03*
X795600Y38100D03*
Y48100D03*
Y70600D03*
Y150600D03*
Y160600D03*
Y230600D03*
Y240600D03*
X800600Y75600D03*
Y85600D03*
Y100600D03*
X805600Y38100D03*
Y48100D03*
Y70600D03*
Y150600D03*
Y160600D03*
Y230600D03*
Y240600D03*
X810600Y100600D03*
Y110600D03*
Y275600D03*
X815600Y38100D03*
Y48100D03*
Y80600D03*
Y93100D03*
Y105600D03*
Y150600D03*
Y160600D03*
Y230600D03*
Y240600D03*
X818100Y280600D03*
X825600Y150600D03*
Y160600D03*
Y230600D03*
Y240600D03*
X848100Y18100D03*
Y43100D03*
Y303100D03*
X0Y0D02*
M02*
